<?xml version="1.0" encoding="utf-8" standalone="no"?>
<!DOCTYPE svg PUBLIC "-//W3C//DTD SVG 1.1//EN"
  "http://www.w3.org/Graphics/SVG/1.1/DTD/svg11.dtd">
<!-- Created with matplotlib (http://matplotlib.org/) -->
<svg height="345.6pt" version="1.1" viewBox="0 0 460.8 345.6" width="460.8pt" xmlns="http://www.w3.org/2000/svg" xmlns:xlink="http://www.w3.org/1999/xlink">
 <defs>
  <style type="text/css">
*{stroke-linecap:butt;stroke-linejoin:round;}
  </style>
 </defs>
 <g id="figure_1">
  <g id="patch_1">
   <path d="M 0 345.6 
L 460.8 345.6 
L 460.8 0 
L 0 0 
z
" style="fill:#ffffff;"/>
  </g>
  <g id="axes_1">
   <g id="patch_2">
    <path d="M 57.6 307.584 
L 414.72 307.584 
L 414.72 41.472 
L 57.6 41.472 
z
" style="fill:#ffffff;"/>
   </g>
   <g id="matplotlib.axis_1">
    <g id="xtick_1">
     <g id="line2d_1">
      <defs>
       <path d="M 0 0 
L 0 3.5 
" id="me2c69466b1" style="stroke:#000000;stroke-width:0.8;"/>
      </defs>
      <g>
       <use style="stroke:#000000;stroke-width:0.8;" x="73.832727" xlink:href="#me2c69466b1" y="307.584"/>
      </g>
     </g>
     <g id="text_1">
      <!-- 0 -->
      <defs>
       <path d="M 3.125 29.296875 
Q 3.90625 50 6.4375 56.046875 
Q 8.984375 62.109375 13.671875 66.015625 
Q 18.359375 69.921875 25.1875 69.921875 
Q 32.03125 69.921875 37.109375 64.25 
Q 42.1875 58.59375 43.75 50 
Q 45.3125 41.40625 44.71875 30.265625 
Q 44.140625 19.140625 40.8125 12.109375 
Q 37.5 5.078125 30.859375 2.34375 
Q 24.21875 -0.390625 17.578125 2.921875 
Q 10.9375 6.25 8.203125 11.71875 
Q 5.46875 17.1875 4.296875 23.234375 
Q 3.125 29.296875 3.90625 50 
z
M 12.890625 52.734375 
Q 10.546875 31.25 12.5 22.84375 
Q 14.453125 14.453125 18.9375 10.9375 
Q 23.4375 7.421875 28.125 9.5625 
Q 32.8125 11.71875 34.953125 18.15625 
Q 37.109375 24.609375 37.109375 32.21875 
Q 37.109375 39.84375 36.515625 46.09375 
Q 35.9375 52.34375 33 57.421875 
Q 30.078125 62.5 25.1875 62.6875 
Q 20.3125 62.890625 16.59375 57.8125 
Q 12.890625 52.734375 10.546875 31.25 
z
" id="SimHei-30"/>
      </defs>
      <g transform="translate(71.332727 321.459)scale(0.1 -0.1)">
       <use xlink:href="#SimHei-30"/>
      </g>
     </g>
    </g>
    <g id="xtick_2">
     <g id="line2d_2">
      <g>
       <use style="stroke:#000000;stroke-width:0.8;" x="138.762338" xlink:href="#me2c69466b1" y="307.584"/>
      </g>
     </g>
     <g id="text_2">
      <!-- 10 -->
      <defs>
       <path d="M 21.875 56.25 
Q 16.796875 51.171875 8.984375 46.484375 
L 8.984375 53.90625 
Q 18.75 60.546875 25 69.53125 
L 29.6875 69.53125 
L 29.6875 2.34375 
L 21.875 2.34375 
z
" id="SimHei-31"/>
      </defs>
      <g transform="translate(133.762338 321.459)scale(0.1 -0.1)">
       <use xlink:href="#SimHei-31"/>
       <use x="50" xlink:href="#SimHei-30"/>
      </g>
     </g>
    </g>
    <g id="xtick_3">
     <g id="line2d_3">
      <g>
       <use style="stroke:#000000;stroke-width:0.8;" x="203.691948" xlink:href="#me2c69466b1" y="307.584"/>
      </g>
     </g>
     <g id="text_3">
      <!-- 20 -->
      <defs>
       <path d="M 4.6875 3.90625 
Q 5.078125 9.765625 10.15625 14.453125 
Q 15.234375 19.140625 23.046875 29.09375 
Q 30.859375 39.0625 33.203125 44.53125 
Q 35.546875 50 34.953125 53.90625 
Q 34.375 57.8125 31.25 60.34375 
Q 28.125 62.890625 24.015625 62.5 
Q 19.921875 62.109375 16.203125 59.375 
Q 12.5 56.640625 10.546875 51.171875 
L 3.125 52.34375 
Q 6.25 61.328125 11.125 65.421875 
Q 16.015625 69.53125 22.65625 69.921875 
Q 26.5625 70.3125 29.6875 69.71875 
Q 32.8125 69.140625 36.125 66.984375 
Q 39.453125 64.84375 41.59375 60.546875 
Q 43.75 56.25 43.15625 50.1875 
Q 42.578125 44.140625 37.109375 35.734375 
Q 31.640625 27.34375 16.015625 9.375 
L 44.140625 9.375 
L 44.140625 2.34375 
L 4.6875 2.34375 
z
" id="SimHei-32"/>
      </defs>
      <g transform="translate(198.691948 321.459)scale(0.1 -0.1)">
       <use xlink:href="#SimHei-32"/>
       <use x="50" xlink:href="#SimHei-30"/>
      </g>
     </g>
    </g>
    <g id="xtick_4">
     <g id="line2d_4">
      <g>
       <use style="stroke:#000000;stroke-width:0.8;" x="268.621559" xlink:href="#me2c69466b1" y="307.584"/>
      </g>
     </g>
     <g id="text_4">
      <!-- 30 -->
      <defs>
       <path d="M 3.90625 19.140625 
L 10.9375 20.3125 
Q 12.5 15.234375 16.015625 11.90625 
Q 19.53125 8.59375 24.796875 8.78125 
Q 30.078125 8.984375 33.203125 13.078125 
Q 36.328125 17.1875 35.9375 22.453125 
Q 35.546875 27.734375 31.828125 30.65625 
Q 28.125 33.59375 19.921875 34.765625 
L 19.921875 39.84375 
Q 28.125 40.625 31.828125 44.140625 
Q 35.546875 47.65625 35.15625 53.3125 
Q 34.765625 58.984375 30.078125 61.515625 
Q 25.390625 64.0625 20.109375 62.109375 
Q 14.84375 60.15625 11.71875 51.171875 
L 4.6875 52.34375 
Q 7.03125 59.375 11.125 64.0625 
Q 15.234375 68.75 22.265625 69.53125 
Q 29.296875 70.3125 34.5625 67.765625 
Q 39.84375 65.234375 41.984375 59.953125 
Q 44.140625 54.6875 42.578125 48.4375 
Q 41.015625 42.1875 33.59375 37.5 
Q 39.0625 35.15625 41.984375 30.46875 
Q 44.921875 25.78125 43.9375 18.15625 
Q 42.96875 10.546875 37.109375 5.859375 
Q 31.25 1.171875 23.828125 1.359375 
Q 16.40625 1.5625 10.9375 6.046875 
Q 5.46875 10.546875 3.90625 19.140625 
z
" id="SimHei-33"/>
      </defs>
      <g transform="translate(263.621559 321.459)scale(0.1 -0.1)">
       <use xlink:href="#SimHei-33"/>
       <use x="50" xlink:href="#SimHei-30"/>
      </g>
     </g>
    </g>
    <g id="xtick_5">
     <g id="line2d_5">
      <g>
       <use style="stroke:#000000;stroke-width:0.8;" x="333.551169" xlink:href="#me2c69466b1" y="307.584"/>
      </g>
     </g>
     <g id="text_5">
      <!-- 40 -->
      <defs>
       <path d="M 31.25 17.1875 
L 1.171875 17.1875 
L 1.171875 23.828125 
L 32.8125 69.53125 
L 38.671875 69.53125 
L 38.671875 23.828125 
L 48.046875 23.828125 
L 48.046875 17.1875 
L 38.671875 17.1875 
L 38.671875 2.34375 
L 31.25 2.34375 
z
M 31.25 23.828125 
L 31.25 54.6875 
L 9.375 23.828125 
z
" id="SimHei-34"/>
      </defs>
      <g transform="translate(328.551169 321.459)scale(0.1 -0.1)">
       <use xlink:href="#SimHei-34"/>
       <use x="50" xlink:href="#SimHei-30"/>
      </g>
     </g>
    </g>
    <g id="xtick_6">
     <g id="line2d_6">
      <g>
       <use style="stroke:#000000;stroke-width:0.8;" x="398.48078" xlink:href="#me2c69466b1" y="307.584"/>
      </g>
     </g>
     <g id="text_6">
      <!-- 50 -->
      <defs>
       <path d="M 8.59375 20.703125 
Q 11.328125 10.15625 17.96875 8.984375 
Q 24.609375 7.8125 28.703125 10.34375 
Q 32.8125 12.890625 34.5625 16.984375 
Q 36.328125 21.09375 36.125 26.171875 
Q 35.9375 31.25 33.390625 34.765625 
Q 30.859375 38.28125 26.953125 39.453125 
Q 23.046875 40.625 18.15625 39.453125 
Q 13.28125 38.28125 10.15625 33.984375 
L 3.515625 34.765625 
Q 4.296875 37.109375 10.9375 68.359375 
L 41.796875 68.359375 
L 41.796875 61.328125 
L 16.796875 61.328125 
Q 14.84375 50.78125 12.890625 44.53125 
Q 18.75 47.265625 23.828125 47.0625 
Q 28.90625 46.875 33.59375 44.71875 
Q 38.28125 42.578125 40.421875 38.859375 
Q 42.578125 35.15625 43.546875 31.4375 
Q 44.53125 27.734375 44.328125 23.4375 
Q 44.140625 19.140625 42.578125 14.640625 
Q 41.015625 10.15625 37.890625 7.21875 
Q 34.765625 4.296875 30.265625 2.53125 
Q 25.78125 0.78125 19.921875 1.171875 
Q 14.0625 1.5625 8.78125 5.46875 
Q 3.515625 9.375 1.5625 18.75 
z
" id="SimHei-35"/>
      </defs>
      <g transform="translate(393.48078 321.459)scale(0.1 -0.1)">
       <use xlink:href="#SimHei-35"/>
       <use x="50" xlink:href="#SimHei-30"/>
      </g>
     </g>
    </g>
    <g id="text_7">
     <!-- 回合/k -->
     <defs>
      <path d="M 88.28125 75.78125 
Q 87.890625 64.453125 87.890625 53.90625 
L 87.890625 14.84375 
Q 87.890625 4.6875 88.28125 -5.859375 
L 80.46875 -5.859375 
L 80.46875 1.5625 
L 18.359375 1.5625 
L 18.359375 -5.859375 
L 10.9375 -5.859375 
Q 11.328125 3.90625 11.328125 14.84375 
L 11.328125 53.90625 
Q 11.328125 64.0625 10.9375 75.78125 
L 88.28125 75.78125 
z
M 80.46875 7.8125 
L 80.46875 69.140625 
L 18.75 69.140625 
L 18.75 7.8125 
z
M 67.578125 54.6875 
Q 67.1875 48.828125 67.1875 42.96875 
L 67.1875 33.984375 
Q 67.1875 28.90625 67.578125 21.875 
L 31.640625 21.875 
Q 32.03125 28.90625 32.03125 33.984375 
L 32.03125 43.75 
Q 32.03125 49.21875 31.640625 54.6875 
L 67.578125 54.6875 
z
M 59.765625 28.515625 
L 59.765625 48.4375 
L 39.0625 48.4375 
L 39.0625 28.515625 
z
" id="SimHei-56de"/>
      <path d="M 78.90625 28.125 
Q 78.515625 24.21875 78.515625 10.15625 
Q 78.515625 -3.90625 78.90625 -8.203125 
L 70.703125 -8.203125 
L 70.703125 -0.78125 
L 27.34375 -0.78125 
L 27.34375 -9.375 
L 19.53125 -9.375 
Q 19.921875 -4.6875 19.921875 8.59375 
Q 19.921875 22.265625 19.53125 28.125 
L 78.90625 28.125 
z
M 52.734375 75 
Q 64.0625 61.328125 71.09375 56.25 
Q 78.125 51.171875 83.984375 48.4375 
Q 89.84375 45.703125 95.3125 44.140625 
Q 91.40625 39.84375 90.234375 35.9375 
Q 82.421875 39.453125 76.171875 43.359375 
Q 69.921875 47.265625 63.46875 53.3125 
Q 57.03125 59.375 48.828125 69.921875 
Q 41.40625 59.375 34.171875 52.53125 
Q 26.953125 45.703125 21.875 41.796875 
Q 16.796875 37.890625 10.546875 33.984375 
Q 9.765625 35.546875 4.296875 40.234375 
Q 12.5 44.140625 19.921875 49.609375 
Q 27.34375 55.078125 34.765625 63.46875 
Q 42.1875 71.875 46.875 81.640625 
Q 51.171875 78.90625 54.6875 77.34375 
z
M 70.703125 5.46875 
L 70.703125 21.875 
L 27.34375 21.875 
L 27.34375 5.46875 
z
M 61.328125 44.140625 
Q 67.578125 44.140625 72.265625 44.53125 
L 72.265625 37.109375 
Q 67.1875 37.5 61.71875 37.5 
L 39.84375 37.5 
Q 31.640625 37.5 26.5625 37.109375 
L 26.5625 44.53125 
Q 33.984375 44.140625 39.84375 44.140625 
z
" id="SimHei-5408"/>
      <path d="M 46.875 71.09375 
L 5.46875 -2.734375 
L 1.5625 -0.390625 
L 42.96875 73.4375 
z
" id="SimHei-2f"/>
      <path d="M 45.703125 1.953125 
L 36.71875 1.953125 
L 22.65625 25.78125 
L 13.671875 17.1875 
L 13.671875 1.953125 
L 5.859375 1.953125 
L 5.859375 68.75 
L 13.671875 68.75 
L 13.671875 26.171875 
L 33.203125 45.703125 
L 42.96875 45.703125 
L 27.734375 30.859375 
z
" id="SimHei-6b"/>
     </defs>
     <g transform="translate(213.66 338.486344)scale(0.15 -0.15)">
      <use xlink:href="#SimHei-56de"/>
      <use x="100" xlink:href="#SimHei-5408"/>
      <use x="200" xlink:href="#SimHei-2f"/>
      <use x="250" xlink:href="#SimHei-6b"/>
     </g>
    </g>
   </g>
   <g id="matplotlib.axis_2">
    <g id="ytick_1">
     <g id="line2d_7">
      <defs>
       <path d="M 0 0 
L -3.5 0 
" id="mc5c7a408e5" style="stroke:#000000;stroke-width:0.8;"/>
      </defs>
      <g>
       <use style="stroke:#000000;stroke-width:0.8;" x="57.6" xlink:href="#mc5c7a408e5" y="301.59799"/>
      </g>
     </g>
     <g id="text_8">
      <!-- -60000 -->
      <defs>
       <path d="M 46.484375 33.203125 
L 1.953125 33.203125 
L 1.953125 39.453125 
L 46.484375 39.453125 
z
" id="SimHei-2d"/>
       <path d="M 3.515625 19.53125 
Q 4.296875 30.859375 6.046875 34.765625 
Q 7.8125 38.671875 11.328125 44.53125 
L 27.34375 69.53125 
L 36.328125 69.53125 
L 19.921875 43.75 
Q 30.46875 46.484375 36.71875 42.96875 
Q 42.96875 39.453125 45.109375 34.953125 
Q 47.265625 30.46875 47.453125 25.1875 
Q 47.65625 19.921875 45.890625 14.84375 
Q 44.140625 9.765625 39.640625 5.65625 
Q 35.15625 1.5625 27.140625 1.171875 
Q 19.140625 0.78125 13.46875 4.09375 
Q 7.8125 7.421875 5.65625 13.46875 
Q 3.515625 19.53125 4.296875 30.859375 
z
M 12.5 16.015625 
Q 19.53125 8.59375 25.390625 8.203125 
Q 31.25 7.8125 35.15625 12.109375 
Q 39.0625 16.40625 39.0625 24.609375 
Q 39.0625 32.8125 34.171875 35.9375 
Q 29.296875 39.0625 23.234375 38.28125 
Q 17.1875 37.5 14.453125 32.421875 
Q 11.71875 27.34375 12.109375 21.671875 
Q 12.5 16.015625 19.53125 8.59375 
z
" id="SimHei-36"/>
      </defs>
      <g transform="translate(20.6 305.03549)scale(0.1 -0.1)">
       <use xlink:href="#SimHei-2d"/>
       <use x="50" xlink:href="#SimHei-36"/>
       <use x="100" xlink:href="#SimHei-30"/>
       <use x="150" xlink:href="#SimHei-30"/>
       <use x="200" xlink:href="#SimHei-30"/>
       <use x="250" xlink:href="#SimHei-30"/>
      </g>
     </g>
    </g>
    <g id="ytick_2">
     <g id="line2d_8">
      <g>
       <use style="stroke:#000000;stroke-width:0.8;" x="57.6" xlink:href="#mc5c7a408e5" y="260.259658"/>
      </g>
     </g>
     <g id="text_9">
      <!-- -50000 -->
      <g transform="translate(20.6 263.697158)scale(0.1 -0.1)">
       <use xlink:href="#SimHei-2d"/>
       <use x="50" xlink:href="#SimHei-35"/>
       <use x="100" xlink:href="#SimHei-30"/>
       <use x="150" xlink:href="#SimHei-30"/>
       <use x="200" xlink:href="#SimHei-30"/>
       <use x="250" xlink:href="#SimHei-30"/>
      </g>
     </g>
    </g>
    <g id="ytick_3">
     <g id="line2d_9">
      <g>
       <use style="stroke:#000000;stroke-width:0.8;" x="57.6" xlink:href="#mc5c7a408e5" y="218.921327"/>
      </g>
     </g>
     <g id="text_10">
      <!-- -40000 -->
      <g transform="translate(20.6 222.358827)scale(0.1 -0.1)">
       <use xlink:href="#SimHei-2d"/>
       <use x="50" xlink:href="#SimHei-34"/>
       <use x="100" xlink:href="#SimHei-30"/>
       <use x="150" xlink:href="#SimHei-30"/>
       <use x="200" xlink:href="#SimHei-30"/>
       <use x="250" xlink:href="#SimHei-30"/>
      </g>
     </g>
    </g>
    <g id="ytick_4">
     <g id="line2d_10">
      <g>
       <use style="stroke:#000000;stroke-width:0.8;" x="57.6" xlink:href="#mc5c7a408e5" y="177.582995"/>
      </g>
     </g>
     <g id="text_11">
      <!-- -30000 -->
      <g transform="translate(20.6 181.020495)scale(0.1 -0.1)">
       <use xlink:href="#SimHei-2d"/>
       <use x="50" xlink:href="#SimHei-33"/>
       <use x="100" xlink:href="#SimHei-30"/>
       <use x="150" xlink:href="#SimHei-30"/>
       <use x="200" xlink:href="#SimHei-30"/>
       <use x="250" xlink:href="#SimHei-30"/>
      </g>
     </g>
    </g>
    <g id="ytick_5">
     <g id="line2d_11">
      <g>
       <use style="stroke:#000000;stroke-width:0.8;" x="57.6" xlink:href="#mc5c7a408e5" y="136.244663"/>
      </g>
     </g>
     <g id="text_12">
      <!-- -20000 -->
      <g transform="translate(20.6 139.682163)scale(0.1 -0.1)">
       <use xlink:href="#SimHei-2d"/>
       <use x="50" xlink:href="#SimHei-32"/>
       <use x="100" xlink:href="#SimHei-30"/>
       <use x="150" xlink:href="#SimHei-30"/>
       <use x="200" xlink:href="#SimHei-30"/>
       <use x="250" xlink:href="#SimHei-30"/>
      </g>
     </g>
    </g>
    <g id="ytick_6">
     <g id="line2d_12">
      <g>
       <use style="stroke:#000000;stroke-width:0.8;" x="57.6" xlink:href="#mc5c7a408e5" y="94.906332"/>
      </g>
     </g>
     <g id="text_13">
      <!-- -10000 -->
      <g transform="translate(20.6 98.343832)scale(0.1 -0.1)">
       <use xlink:href="#SimHei-2d"/>
       <use x="50" xlink:href="#SimHei-31"/>
       <use x="100" xlink:href="#SimHei-30"/>
       <use x="150" xlink:href="#SimHei-30"/>
       <use x="200" xlink:href="#SimHei-30"/>
       <use x="250" xlink:href="#SimHei-30"/>
      </g>
     </g>
    </g>
    <g id="ytick_7">
     <g id="line2d_13">
      <g>
       <use style="stroke:#000000;stroke-width:0.8;" x="57.6" xlink:href="#mc5c7a408e5" y="53.568"/>
      </g>
     </g>
     <g id="text_14">
      <!-- 0 -->
      <g transform="translate(45.6 57.0055)scale(0.1 -0.1)">
       <use xlink:href="#SimHei-30"/>
      </g>
     </g>
    </g>
    <g id="text_15">
     <!-- 累计奖励 -->
     <defs>
      <path d="M 85.546875 78.125 
Q 85.15625 71.875 85.15625 62.109375 
Q 85.15625 52.34375 85.546875 46.09375 
L 73.046875 46.09375 
Q 75.78125 43.359375 79.296875 40.625 
Q 75 39.453125 66.203125 35.546875 
Q 57.421875 31.640625 50.96875 28.703125 
Q 44.53125 25.78125 37.5 22.265625 
Q 60.15625 23.828125 72.65625 24.609375 
Q 69.140625 26.953125 65.625 28.90625 
Q 68.359375 31.25 70.3125 33.984375 
Q 80.078125 28.125 92.1875 20.3125 
Q 89.84375 17.578125 87.109375 14.0625 
Q 83.984375 16.796875 79.6875 19.53125 
Q 66.40625 18.359375 54.296875 17.578125 
L 54.296875 0.78125 
Q 54.296875 -5.46875 50.1875 -7.21875 
Q 46.09375 -8.984375 40.625 -9.375 
Q 40.234375 -5.859375 37.109375 -0.78125 
Q 43.75 -1.171875 45.3125 -0.390625 
Q 46.875 0.390625 46.875 1.953125 
L 46.875 16.796875 
Q 37.5 16.40625 31.046875 15.8125 
Q 24.609375 15.234375 13.28125 13.671875 
Q 12.109375 17.578125 10.9375 21.09375 
Q 17.96875 21.875 24.609375 23.625 
Q 31.25 25.390625 47.265625 33.203125 
Q 27.734375 31.640625 19.53125 30.078125 
Q 18.75 34.375 17.1875 37.109375 
Q 20.703125 37.109375 27.140625 39.640625 
Q 33.59375 42.1875 38.671875 46.09375 
L 14.84375 46.09375 
Q 15.234375 52.734375 15.234375 62.109375 
Q 15.234375 71.875 14.84375 78.125 
L 85.546875 78.125 
z
M 37.890625 8.203125 
Q 34.375 6.25 27.53125 2.140625 
Q 20.703125 -1.953125 13.28125 -6.640625 
Q 10.9375 -3.515625 7.8125 -0.390625 
Q 13.28125 1.953125 19.53125 5.65625 
Q 25.78125 9.375 31.640625 14.0625 
Q 33.59375 11.328125 37.890625 8.203125 
z
M 46.484375 64.0625 
L 46.484375 72.65625 
L 22.65625 72.65625 
L 22.65625 64.0625 
z
M 77.734375 64.0625 
L 77.734375 72.65625 
L 53.90625 72.65625 
L 53.90625 64.0625 
z
M 66.796875 13.28125 
Q 74.21875 10.15625 78.90625 7.8125 
L 91.40625 1.5625 
Q 88.671875 -1.953125 87.109375 -5.859375 
Q 80.46875 -1.5625 74.609375 1.5625 
Q 68.75 4.6875 63.28125 7.03125 
Q 65.625 10.546875 66.796875 13.28125 
z
M 46.484375 51.171875 
L 46.484375 58.59375 
L 22.65625 58.59375 
L 22.65625 51.171875 
z
M 77.734375 51.171875 
L 77.734375 58.59375 
L 53.90625 58.59375 
L 53.90625 51.171875 
z
M 57.8125 38.671875 
Q 65.625 42.1875 71.484375 46.09375 
L 50.390625 46.09375 
Q 45.3125 42.96875 35.9375 37.890625 
Q 48.046875 38.28125 57.8125 38.671875 
z
" id="SimHei-7d2f"/>
      <path d="M 61.328125 48.4375 
L 61.328125 67.96875 
Q 61.328125 75.78125 60.9375 80.078125 
L 69.140625 80.078125 
Q 68.75 75 68.75 71.09375 
L 68.75 48.4375 
L 84.765625 48.4375 
Q 89.453125 48.4375 94.921875 48.828125 
L 94.921875 41.40625 
Q 89.0625 41.796875 85.15625 41.796875 
L 68.75 41.796875 
L 68.75 2.734375 
Q 68.75 -1.953125 69.140625 -8.59375 
L 60.9375 -8.59375 
Q 61.328125 -1.953125 61.328125 2.34375 
L 61.328125 41.796875 
L 46.09375 41.796875 
Q 40.234375 41.796875 34.375 41.40625 
L 34.375 48.828125 
Q 40.234375 48.4375 45.3125 48.4375 
z
M 27.734375 49.21875 
Q 27.34375 41.796875 27.34375 33.59375 
L 27.34375 9.765625 
Q 33.984375 16.40625 37.890625 21.875 
Q 40.234375 18.75 43.359375 15.625 
L 32.421875 4.6875 
Q 27.34375 -0.390625 22.65625 -5.46875 
Q 19.921875 -1.953125 17.578125 0.78125 
Q 20.3125 3.90625 19.921875 10.15625 
L 19.921875 42.578125 
Q 9.375 42.578125 4.296875 42.1875 
L 4.296875 49.609375 
Q 10.546875 49.21875 12.890625 49.21875 
z
M 17.96875 78.90625 
Q 23.046875 73.828125 33.984375 62.5 
Q 30.46875 59.375 27.34375 56.640625 
Q 22.265625 64.0625 12.109375 74.21875 
Q 14.84375 76.171875 17.96875 78.90625 
z
" id="SimHei-8ba1"/>
      <path d="M 79.296875 24.609375 
Q 88.28125 24.609375 94.921875 25 
L 94.921875 17.578125 
Q 88.671875 18.75 79.296875 18.359375 
L 55.46875 18.359375 
Q 62.109375 9.375 73.625 4.6875 
Q 85.15625 0 96.09375 -0.78125 
Q 93.75 -3.515625 91.40625 -8.59375 
Q 83.59375 -7.03125 77.734375 -5.078125 
Q 71.875 -3.125 64.640625 1.359375 
Q 57.421875 5.859375 50.78125 13.671875 
Q 47.265625 8.59375 43.75 5.46875 
Q 40.234375 2.34375 35.15625 -0.78125 
Q 30.078125 -3.90625 24.40625 -5.859375 
Q 18.75 -7.8125 10.9375 -9.765625 
Q 9.375 -5.859375 6.25 -1.953125 
Q 13.671875 -1.171875 19.71875 0.578125 
Q 25.78125 2.34375 30.65625 4.875 
Q 35.546875 7.421875 39.0625 10.734375 
Q 42.578125 14.0625 44.53125 18.359375 
L 20.703125 18.359375 
Q 12.890625 18.359375 5.46875 17.96875 
L 5.46875 25 
Q 12.890625 24.609375 20.703125 24.609375 
L 46.09375 24.609375 
Q 46.484375 27.34375 46.484375 30.46875 
Q 54.296875 29.296875 55.46875 29.296875 
Q 54.296875 26.953125 53.90625 24.609375 
z
M 67.578125 78.125 
Q 64.453125 75 61.328125 70.3125 
L 92.1875 70.3125 
Q 88.671875 61.71875 85.34375 56.046875 
Q 82.03125 50.390625 77.921875 45.890625 
Q 73.828125 41.40625 66.984375 37.5 
Q 60.15625 33.59375 47.65625 30.859375 
Q 45.703125 34.375 42.96875 37.890625 
Q 54.6875 38.28125 64.0625 43.75 
L 53.515625 50.78125 
Q 55.859375 53.515625 57.8125 56.25 
Q 61.71875 53.90625 64.0625 52.140625 
Q 66.40625 50.390625 69.921875 48.046875 
Q 76.5625 53.90625 80.859375 64.0625 
L 57.421875 64.0625 
Q 55.46875 61.71875 52.734375 58.59375 
Q 50 55.46875 45.3125 50 
Q 42.1875 52.734375 38.671875 54.296875 
Q 44.53125 59.375 49.796875 66.40625 
Q 55.078125 73.4375 58.59375 81.640625 
Q 63.671875 79.296875 67.578125 78.125 
z
M 38.28125 80.859375 
Q 37.890625 76.171875 37.890625 69.921875 
L 37.890625 44.921875 
Q 37.890625 39.0625 38.28125 30.859375 
L 30.078125 30.859375 
Q 30.46875 39.0625 30.46875 44.921875 
L 30.46875 47.65625 
Q 19.140625 40.234375 11.71875 35.546875 
Q 8.984375 39.84375 6.25 42.1875 
Q 12.890625 44.140625 30.46875 55.078125 
L 30.46875 69.921875 
Q 30.46875 75.78125 30.078125 80.859375 
L 38.28125 80.859375 
z
M 15.625 73.4375 
Q 23.046875 67.578125 28.125 62.890625 
L 22.265625 57.03125 
Q 17.1875 62.5 10.546875 67.96875 
Q 13.28125 70.3125 15.625 73.4375 
z
" id="SimHei-5956"/>
      <path d="M 42.578125 55.859375 
Q 48.828125 55.859375 53.125 56.25 
L 53.125 49.21875 
Q 48.4375 49.609375 42.578125 49.609375 
L 35.546875 49.609375 
Q 35.546875 44.921875 35.15625 38.28125 
L 52.734375 38.28125 
Q 51.5625 21.09375 51.171875 16.203125 
Q 50.78125 11.328125 50 5.265625 
Q 49.21875 -0.78125 46.09375 -2.140625 
Q 42.96875 -3.515625 35.546875 -4.296875 
Q 35.15625 -0.390625 32.421875 4.6875 
Q 39.453125 3.90625 41.203125 4.296875 
Q 42.96875 4.6875 43.546875 8.390625 
Q 44.140625 12.109375 44.53125 19.53125 
Q 44.921875 26.953125 44.921875 32.421875 
L 34.765625 32.421875 
Q 34.375 25 33 19.53125 
Q 31.640625 14.0625 30.078125 9.171875 
Q 28.515625 4.296875 26.359375 0.1875 
Q 24.21875 -3.90625 22.265625 -7.03125 
Q 19.53125 -3.90625 15.234375 -1.5625 
Q 18.75 1.953125 21.28125 7.21875 
Q 23.828125 12.5 25.390625 17.96875 
Q 26.953125 23.4375 27.734375 31.828125 
Q 28.515625 40.234375 28.515625 49.609375 
L 19.53125 49.609375 
Q 19.53125 41.796875 19.140625 35.34375 
Q 18.75 28.90625 17.96875 21.875 
Q 17.1875 14.84375 15.234375 6.640625 
Q 13.28125 -1.5625 9.765625 -7.8125 
Q 6.640625 -5.078125 3.125 -3.125 
Q 5.859375 1.953125 7.609375 7.609375 
Q 9.375 13.28125 10.546875 21.09375 
Q 11.71875 28.90625 11.90625 35.9375 
Q 12.109375 42.96875 12.109375 54.296875 
Q 12.109375 66.015625 11.71875 73.4375 
L 44.921875 73.4375 
Q 48.828125 73.4375 53.515625 73.828125 
L 53.515625 67.1875 
Q 49.21875 67.578125 44.921875 67.578125 
L 19.53125 67.578125 
L 19.53125 55.859375 
z
M 71.09375 -9.375 
Q 70.3125 -4.6875 67.578125 0.78125 
Q 75.390625 -0.390625 78.125 0.78125 
Q 80.859375 1.953125 81.4375 9.765625 
Q 82.03125 17.578125 82.609375 29.875 
Q 83.203125 42.1875 83.203125 53.125 
L 73.046875 53.125 
Q 72.65625 36.328125 70.703125 26.171875 
Q 68.75 16.015625 65.8125 8.984375 
Q 62.890625 1.953125 59.953125 -2.140625 
Q 57.03125 -6.25 54.296875 -10.15625 
Q 50.390625 -7.03125 47.265625 -5.859375 
Q 53.125 0.78125 56.828125 8 
Q 60.546875 15.234375 62.296875 21.28125 
Q 64.0625 27.34375 64.84375 33.984375 
Q 65.625 40.625 66.015625 53.125 
Q 59.765625 53.125 55.46875 52.734375 
L 55.46875 59.765625 
Q 61.328125 59.375 66.015625 59.375 
L 66.015625 67.96875 
Q 66.015625 72.265625 65.625 80.859375 
Q 70.3125 79.6875 74.21875 79.296875 
Q 73.828125 75.78125 73.4375 71.484375 
Q 73.046875 67.1875 73.046875 59.375 
L 91.015625 59.375 
Q 90.234375 52.734375 90.234375 41.796875 
Q 89.0625 13.28125 88.671875 7.8125 
Q 88.28125 2.34375 87.109375 -1.75 
Q 85.9375 -5.859375 81.640625 -7.421875 
Q 77.34375 -8.984375 71.09375 -9.375 
z
" id="SimHei-52b1"/>
     </defs>
     <g transform="translate(14.725 204.528)rotate(-90)scale(0.15 -0.15)">
      <use xlink:href="#SimHei-7d2f"/>
      <use x="100" xlink:href="#SimHei-8ba1"/>
      <use x="200" xlink:href="#SimHei-5956"/>
      <use x="300" xlink:href="#SimHei-52b1"/>
     </g>
    </g>
   </g>
   <g id="line2d_14">
    <path clip-path="url(#p102813b88f)" d="M 73.832727 53.568 
L 73.969079 53.878375 
L 74.085953 54.209977 
L 74.209319 54.737146 
L 74.215812 54.733312 
L 74.71577 56.833032 
L 74.767714 57.008621 
L 74.962502 57.71494 
L 76.57925 64.235362 
L 76.767546 65.078349 
L 76.774039 65.075331 
L 76.793518 65.179364 
L 76.858447 65.424195 
L 77.066222 66.371122 
L 77.585659 69.920999 
L 77.605138 70.020112 
L 78.306377 73.664819 
L 78.332349 73.718666 
L 78.449223 74.198589 
L 78.468701 74.190923 
L 78.507659 74.284968 
L 78.734913 75.495971 
L 78.864772 76.220347 
L 78.884251 76.229244 
L 79.033589 77.290679 
L 79.092026 77.408967 
L 79.247857 78.186613 
L 79.351744 78.710065 
L 79.488096 79.266696 
L 79.71535 80.105079 
L 79.897153 80.854582 
L 79.981561 81.235556 
L 80.163364 82.414611 
L 80.169857 82.411963 
L 80.221801 82.603437 
L 80.94252 87.426251 
L 81.104844 88.683792 
L 81.397027 91.003863 
L 81.435985 91.019164 
L 81.448971 91.066088 
L 81.909971 93.438708 
L 82.059309 94.198243 
L 82.228126 95.973655 
L 82.241112 95.969546 
L 82.28007 96.075438 
L 82.370971 96.748249 
L 82.695619 98.247967 
L 82.825478 99.030965 
L 83.033253 100.515316 
L 83.059225 100.58451 
L 83.396859 102.861872 
L 83.409845 102.858275 
L 83.455296 103.238155 
L 83.624113 104.420416 
L 83.630605 104.416159 
L 83.637098 104.412835 
L 83.643591 104.512139 
L 83.818901 106.185136 
L 83.825394 106.181326 
L 83.857859 106.245334 
L 84.085113 107.712286 
L 84.396775 109.750872 
L 84.578578 110.952425 
L 84.585071 110.948148 
L 84.598057 111.02916 
L 85.948593 120.678904 
L 86.078452 121.678554 
L 86.143381 121.975817 
L 86.416086 123.754269 
L 86.448551 123.968829 
L 86.682297 125.789208 
L 86.721255 125.972988 
L 86.812156 127.00036 
L 86.993959 128.278695 
L 87.357565 131.64737 
L 87.50041 132.607586 
L 87.506903 132.60545 
L 87.695199 134.067566 
L 87.838044 135.211751 
L 87.974396 137.06789 
L 87.980889 137.07508 
L 88.110749 138.160709 
L 88.117242 138.156898 
L 88.130228 138.275135 
L 88.188664 139.151696 
L 88.370467 140.870026 
L 88.389946 141.033973 
L 93.344075 178.126411 
L 93.370047 178.196183 
L 93.642751 180.726622 
L 93.805075 182.895001 
L 93.831047 182.986803 
L 94.512808 186.40855 
L 94.558259 186.492151 
L 94.804991 188.440818 
L 94.8894 188.719118 
L 95.136132 190.949543 
L 95.17509 191.126835 
L 95.915288 194.916994 
L 96.045147 195.825295 
L 96.05164 195.821145 
L 96.155527 196.394168 
L 96.16202 196.39029 
L 96.298373 197.622838 
L 96.304865 197.62072 
L 96.317851 197.622924 
L 96.330837 197.675397 
L 96.538612 199.026931 
L 96.545105 199.023137 
L 96.551598 199.039969 
L 96.681457 199.749557 
L 96.68795 199.749249 
L 96.759373 200.01562 
L 96.921697 200.976296 
L 96.947669 201.107382 
L 97.116486 202.041291 
L 97.135964 202.036335 
L 97.272317 202.655608 
L 97.441134 203.609127 
L 97.5645 204.180075 
L 97.62943 204.365689 
L 97.759289 205.048893 
L 97.921613 205.82052 
L 98.064458 207.027124 
L 98.824134 211.215613 
L 98.953994 212.078045 
L 99.583811 215.334293 
L 99.71367 216.233436 
L 99.875994 216.693944 
L 99.99936 217.385713 
L 100.012346 217.443031 
L 100.148698 218.006748 
L 100.408417 218.915843 
L 100.531783 219.607396 
L 102.369291 228.333559 
L 102.512136 229.101286 
L 102.518629 229.09853 
L 102.525122 229.193498 
L 102.551094 229.20333 
L 102.797827 230.408162 
L 102.960151 230.950761 
L 103.330249 232.86284 
L 103.525038 233.867562 
L 103.531531 233.866372 
L 103.576982 233.975653 
L 103.641911 234.222633 
L 103.797743 235.291857 
L 104.544433 239.14095 
L 104.732729 239.765024 
L 104.739222 239.763956 
L 104.875574 240.357009 
L 104.901546 240.69562 
L 104.908039 240.692443 
L 105.050884 241.479624 
L 105.089842 241.598525 
L 105.278138 242.001746 
L 105.661222 243.225688 
L 105.667715 243.221601 
L 105.804067 244.234304 
L 105.94042 244.57895 
L 106.083265 245.021704 
L 106.440378 246.215881 
L 106.518293 246.308679 
L 106.784505 247.081277 
L 106.86242 247.150997 
L 107.089674 247.623369 
L 107.284463 248.081303 
L 107.316927 248.085459 
L 107.349392 248.164102 
L 107.537688 248.471553 
L 108.005181 249.56315 
L 108.044139 249.679737 
L 108.206463 250.263119 
L 108.258407 250.356162 
L 108.758365 251.557472 
L 108.797323 251.626821 
L 108.927182 251.839752 
L 109.037562 251.988373 
L 109.25183 252.504807 
L 109.297281 252.548015 
L 109.316759 252.593221 
L 109.531027 253.054214 
L 109.628422 253.253627 
L 109.82321 253.662575 
L 109.894633 253.763994 
L 110.017999 254.118913 
L 110.102408 254.205507 
L 111.16076 256.472286 
L 111.180239 256.476543 
L 111.193225 256.540859 
L 111.219197 256.551617 
L 111.517873 257.303084 
L 111.524366 257.299385 
L 111.530859 257.295584 
L 111.563324 257.379957 
L 111.699676 257.862483 
L 112.160676 258.416902 
L 112.193141 258.414147 
L 112.206127 258.512613 
L 112.400916 258.700096 
L 112.413902 258.702516 
L 112.420395 258.790714 
L 112.433381 258.79791 
L 113.115142 259.886676 
L 113.134621 259.887772 
L 113.160592 259.980564 
L 113.459269 260.661195 
L 113.582635 260.757678 
L 113.680029 260.855945 
L 113.796903 261.091063 
L 113.887804 261.162042 
L 114.446199 262.076087 
L 114.530607 262.124312 
L 114.666959 262.452955 
L 114.718903 262.519874 
L 114.842269 262.642444 
L 114.848762 262.638778 
L 115.725312 263.992405 
L 115.855171 264.191094 
L 116.920017 266.058758 
L 117.153763 266.641019 
L 117.231679 266.698891 
L 117.374524 267.004882 
L 117.406989 267.024288 
L 117.426468 267.08614 
L 117.575806 267.336519 
L 117.705665 267.622179 
L 117.835524 267.764876 
L 117.842017 267.761676 
L 117.978369 267.976214 
L 118.127708 268.136153 
L 118.283539 268.29677 
L 118.406905 268.511593 
L 118.465342 268.545057 
L 118.471834 268.601404 
L 118.569229 268.723606 
L 118.770511 268.833505 
L 118.854919 268.905087 
L 119.088666 269.233333 
L 119.095159 269.230163 
L 119.173074 269.330434 
L 119.400328 269.494902 
L 119.517201 269.684451 
L 119.523694 269.683331 
L 120.562568 270.658082 
L 120.640483 270.767372 
L 121.789738 271.817168 
L 121.874146 271.894961 
L 122.283203 272.225304 
L 122.419555 272.479906 
L 122.516949 272.566559 
L 122.653301 272.681019 
L 122.938992 272.950506 
L 123.205203 273.332886 
L 123.425964 273.496191 
L 123.984358 274.14252 
L 124.120711 274.192998 
L 124.270049 274.461702 
L 124.276542 274.458782 
L 124.36095 274.514374 
L 124.503795 274.662945 
L 124.614176 274.748078 
L 125.120627 275.058896 
L 125.250486 275.264978 
L 125.666035 275.50216 
L 125.834852 275.799355 
L 125.841345 275.795061 
L 126.023148 275.982416 
L 126.341303 276.224715 
L 126.458177 276.420268 
L 126.568557 276.529316 
L 126.68543 276.632848 
L 126.691923 276.630133 
L 126.730881 276.690146 
L 126.834768 276.894464 
L 126.847754 276.889614 
L 127.808712 277.737308 
L 127.886628 277.787715 
L 127.893121 277.806669 
L 128.042459 277.904664 
L 128.048952 277.900964 
L 128.237248 277.949507 
L 129.698164 278.998185 
L 129.912432 279.153072 
L 130.282531 279.47664 
L 130.470827 279.533206 
L 130.613672 279.586313 
L 130.847418 279.714487 
L 131.022728 279.882798 
L 131.321404 280.229811 
L 131.327897 280.226338 
L 131.366855 280.303919 
L 131.490221 280.402714 
L 131.496714 280.400896 
L 131.594109 280.47551 
L 131.697996 280.56125 
L 131.723968 280.551083 
L 131.918757 280.611915 
L 132.723884 281.155183 
L 132.808292 281.220141 
L 132.931659 281.394163 
L 133.113462 281.460842 
L 133.334222 281.646118 
L 133.529011 281.753882 
L 133.717307 281.959818 
L 134.126364 282.277762 
L 134.236744 282.306111 
L 134.24973 282.32837 
L 134.937984 282.814613 
L 135.100308 282.96201 
L 135.197702 283.048925 
L 135.593773 283.254733 
L 135.756097 283.31786 
L 135.87297 283.418872 
L 135.976857 283.495557 
L 136.561224 283.822801 
L 136.665111 283.861595 
L 136.671604 283.875925 
L 137.281943 284.222216 
L 137.476731 284.260507 
L 137.62607 284.279047 
L 137.742943 284.343409 
L 137.976689 284.413858 
L 138.126028 284.502381 
L 138.327309 284.654148 
L 138.502619 284.700039 
L 138.72338 284.826008 
L 138.827267 284.876742 
L 138.989591 285.019114 
L 139.216845 285.179593 
L 139.35969 285.256972 
L 139.515521 285.296289 
L 139.905099 285.399252 
L 140.028465 285.47677 
L 140.041451 285.469295 
L 140.216761 285.51872 
L 140.716719 285.837361 
L 141.372508 286.138318 
L 141.534832 286.211754 
L 141.658198 286.258419 
L 141.801044 286.346601 
L 141.807537 286.342296 
L 142.015311 286.447342 
L 142.184128 286.6026 
L 142.333466 286.794302 
L 142.339959 286.791243 
L 142.463326 286.851073 
L 142.664607 286.951819 
L 142.891861 286.970561 
L 143.164565 287.105753 
L 143.274946 287.232219 
L 143.294425 287.227016 
L 143.430777 287.298766 
L 143.54765 287.354156 
L 144.430693 287.79795 
L 144.612496 287.87218 
L 144.761834 287.992096 
L 145.287764 288.146505 
L 145.417623 288.217807 
L 145.424116 288.21439 
L 145.683834 288.286159 
L 146.066919 288.460476 
L 146.28768 288.483496 
L 146.995412 288.783238 
L 147.138258 288.829529 
L 147.339539 288.854385 
L 147.553807 288.960629 
L 147.742103 288.996329 
L 147.878455 289.076117 
L 147.982342 289.092815 
L 148.001821 289.135644 
L 148.268033 289.354699 
L 148.664103 289.506573 
L 149.047188 289.58981 
L 149.164061 289.624538 
L 149.177047 289.617439 
L 149.332878 289.649262 
L 149.482216 289.696547 
L 149.586104 289.76246 
L 149.715963 289.786893 
L 149.871794 289.843934 
L 150.008146 289.887272 
L 150.378245 289.996038 
L 150.495118 290.069644 
L 150.683414 290.104901 
L 150.813273 290.150659 
L 150.975598 290.218404 
L 151.456077 290.307911 
L 151.579443 290.351984 
L 151.728781 290.347553 
L 152.254711 290.48427 
L 152.417035 290.53285 
L 152.553387 290.609135 
L 153.066331 290.670958 
L 153.189697 290.721487 
L 153.19619 290.7187 
L 153.293585 290.781233 
L 153.410458 290.8355 
L 153.416951 290.832461 
L 153.624726 290.880868 
L 154.020796 290.940612 
L 154.170134 291.034601 
L 154.345444 291.054781 
L 154.838909 291.135819 
L 155.046684 291.175554 
L 155.17005 291.184813 
L 155.390811 291.22241 
L 155.527163 291.222887 
L 156.676417 291.492437 
L 156.812769 291.531853 
L 157.072488 291.531876 
L 157.078981 291.549978 
L 157.475052 291.602731 
L 157.611404 291.656649 
L 157.747756 291.682473 
L 157.929559 291.728666 
L 158.137334 291.780279 
L 158.286672 291.854855 
L 158.293165 291.851194 
L 158.513925 291.840141 
L 158.812601 291.886505 
L 159.020376 291.893315 
L 159.1827 291.916397 
L 159.370996 291.965386 
L 159.695644 291.974315 
L 161.896758 292.463357 
L 162.020124 292.48925 
L 163.000561 292.66445 
L 164.416027 292.858293 
L 164.714703 292.915137 
L 164.922478 292.917835 
L 165.149731 292.93662 
L 165.338027 292.971393 
L 165.539309 293.014574 
L 165.675661 293.067224 
L 166.032774 293.186416 
L 166.22107 293.239541 
L 166.389887 293.264708 
L 166.734014 293.246849 
L 166.844394 293.348678 
L 166.85738 293.345075 
L 167.03269 293.417926 
L 167.233972 293.425112 
L 167.474212 293.46737 
L 167.617057 293.530662 
L 167.79886 293.554771 
L 167.928719 293.56622 
L 168.19493 293.58812 
L 171.915397 294.05656 
L 172.155636 294.082313 
L 172.291989 294.101829 
L 173.311384 294.122088 
L 173.519158 294.143251 
L 173.694468 294.178382 
L 173.850299 294.188733 
L 174.084046 294.166305 
L 174.200919 294.152421 
L 174.473624 294.186038 
L 174.798272 294.16669 
L 175.285244 294.214149 
L 177.291569 294.471825 
L 177.596738 294.432743 
L 177.791527 294.442608 
L 178.044752 294.443142 
L 178.460302 294.513274 
L 178.726513 294.507243 
L 179.284908 294.485093 
L 179.473204 294.495928 
L 180.849711 294.538219 
L 180.966585 294.556299 
L 180.973078 294.553406 
L 181.232796 294.541237 
L 181.408106 294.594677 
L 181.661331 294.592227 
L 181.797684 294.581137 
L 182.018444 294.566248 
L 186.381714 294.622374 
L 194.432986 294.783565 
L 194.59531 294.795373 
L 195.069296 294.907403 
L 195.127733 294.927432 
L 195.179676 294.90841 
L 195.419916 294.930551 
L 196.335423 295.096104 
L 196.543198 295.094006 
L 196.776945 295.284214 
L 196.991212 295.29352 
L 197.108086 295.327499 
L 197.601551 295.391453 
L 197.958664 295.481761 
L 198.231368 295.43045 
L 198.36772 295.445579 
L 198.620946 295.45989 
L 198.750805 295.46597 
L 199.042988 295.434785 
L 199.263749 295.448046 
L 199.52996 295.443434 
L 199.783186 295.444936 
L 200.146792 295.443229 
L 200.997369 295.3411 
L 201.315525 295.278261 
L 203.140047 295.24967 
L 203.263413 295.293542 
L 205.16585 295.095893 
L 205.542442 295.057564 
L 207.37995 294.959785 
L 208.392852 294.861565 
L 208.529204 294.865596 
L 208.801909 294.839689 
L 208.977219 294.783396 
L 212.48991 294.217023 
L 212.788587 294.152761 
L 212.950911 294.136688 
L 213.548263 294.02547 
L 214.139123 293.959096 
L 214.580644 293.891624 
L 214.820884 293.854883 
L 215.041644 293.849567 
L 215.223447 293.807124 
L 215.600039 293.735002 
L 216.184405 293.659152 
L 216.515546 293.581961 
L 216.684363 293.550217 
L 216.98304 293.527788 
L 217.515462 293.48201 
L 217.632336 293.496151 
L 218.385519 293.365918 
L 218.723153 293.289551 
L 221.339816 292.80325 
L 221.56707 292.77644 
L 221.963141 292.731592 
L 222.177408 292.683746 
L 222.703338 292.572019 
L 222.956564 292.53707 
L 223.521451 292.421003 
L 223.839606 292.373779 
L 224.690184 292.216427 
L 224.839522 292.194832 
L 225.170663 292.127849 
L 225.729058 292.065207 
L 225.969298 292.025391 
L 227.02765 291.834972 
L 227.689932 291.747764 
L 228.034059 291.700778 
L 228.209369 291.690407 
L 230.942906 291.155859 
L 231.300019 291.089706 
L 231.825948 290.982161 
L 231.962301 290.95745 
L 232.37785 290.877167 
L 232.520695 290.866226 
L 234.014076 290.628592 
L 234.280288 290.584947 
L 234.864654 290.451336 
L 235.747697 290.313149 
L 236.026894 290.263434 
L 236.332063 290.19703 
L 236.695669 290.138337 
L 238.331895 289.762989 
L 238.468248 289.755735 
L 239.70191 289.550387 
L 240.195375 289.440981 
L 240.377178 289.408534 
L 241.50046 289.142312 
L 241.974447 289.041282 
L 242.584785 288.910227 
L 243.850912 288.67703 
L 244.123617 288.646671 
L 244.448265 288.562087 
L 244.675518 288.509982 
L 245.253392 288.392356 
L 246.10397 288.232843 
L 246.38966 288.177518 
L 248.564802 287.661706 
L 249.071253 287.569796 
L 249.24007 287.531831 
L 249.707563 287.432516 
L 249.986761 287.384204 
L 250.33738 287.306208 
L 250.915254 287.187218 
L 251.077578 287.157654 
L 251.441184 287.093145 
L 252.006071 286.956766 
L 252.687832 286.822965 
L 252.817692 286.812343 
L 253.616326 286.608997 
L 254.044861 286.50279 
L 254.291594 286.468998 
L 254.59027 286.409589 
L 255.090228 286.313645 
L 255.317482 286.273876 
L 255.68758 286.206764 
L 255.940806 286.157881 
L 257.401722 285.795677 
L 257.622483 285.748141 
L 259.856061 285.163307 
L 260.083315 285.103516 
L 260.68716 284.927963 
L 260.881949 284.883933 
L 283.18527 279.303234 
L 283.815088 279.098188 
L 297.391869 275.234631 
L 298.099602 275.036894 
L 298.391785 274.947687 
L 300.98897 274.137251 
L 301.579829 273.963951 
L 302.183674 273.771571 
L 302.404435 273.696391 
L 304.066633 273.163441 
L 304.215971 273.120205 
L 306.80017 272.367491 
L 307.202733 272.243787 
L 307.37155 272.201384 
L 325.668715 266.756626 
L 326.493321 266.487633 
L 326.843941 266.38342 
L 330.064449 265.373829 
L 331.499394 264.919146 
L 331.934422 264.793372 
L 332.531774 264.587289 
L 333.025239 264.436762 
L 333.726479 264.238253 
L 335.667875 263.580003 
L 338.109228 262.836507 
L 338.609186 262.669417 
L 341.147934 261.850156 
L 341.459596 261.74972 
L 342.043962 261.567191 
L 342.310174 261.493248 
L 342.972456 261.296694 
L 343.128287 261.24135 
L 343.758104 261.041115 
L 344.167161 260.922924 
L 355.036377 257.332216 
L 355.731124 257.094586 
L 356.081744 256.964325 
L 358.549069 256.11324 
L 358.847746 256.02255 
L 359.633394 255.75622 
L 363.496706 254.414171 
L 367.223665 253.116473 
L 367.743102 252.950825 
L 368.710553 252.643371 
L 376.021627 250.089852 
L 376.528078 249.907535 
L 378.13184 249.356156 
L 378.664263 249.15468 
L 379.696643 248.779523 
L 382.930138 247.688112 
L 383.339195 247.552374 
L 383.904082 247.3592 
L 384.670252 247.095311 
L 385.819506 246.6749 
L 386.338943 246.485726 
L 387.507676 246.082531 
L 390.202254 245.139363 
L 390.643776 244.990184 
L 391.130748 244.801272 
L 392.383889 244.356573 
L 393.24096 244.047955 
L 393.708453 243.882914 
L 395.071975 243.347987 
L 395.260271 243.275234 
L 395.773215 243.086166 
L 396.33161 242.895698 
L 398.123667 242.277289 
L 398.487273 242.160061 
L 398.487273 242.160061 
" style="fill:none;stroke:#1f77b4;stroke-linecap:square;stroke-width:1.5;"/>
   </g>
   <g id="patch_3">
    <path d="M 57.6 307.584 
L 57.6 41.472 
" style="fill:none;stroke:#000000;stroke-linecap:square;stroke-linejoin:miter;stroke-width:0.8;"/>
   </g>
   <g id="patch_4">
    <path d="M 414.72 307.584 
L 414.72 41.472 
" style="fill:none;stroke:#000000;stroke-linecap:square;stroke-linejoin:miter;stroke-width:0.8;"/>
   </g>
   <g id="patch_5">
    <path d="M 57.6 307.584 
L 414.72 307.584 
" style="fill:none;stroke:#000000;stroke-linecap:square;stroke-linejoin:miter;stroke-width:0.8;"/>
   </g>
   <g id="patch_6">
    <path d="M 57.6 41.472 
L 414.72 41.472 
" style="fill:none;stroke:#000000;stroke-linecap:square;stroke-linejoin:miter;stroke-width:0.8;"/>
   </g>
   <g id="text_16">
    <!-- 训练过程 -->
    <defs>
     <path d="M 25.78125 51.5625 
Q 25.390625 42.578125 25.390625 34.765625 
L 25.390625 10.546875 
Q 30.46875 17.578125 32.03125 19.921875 
Q 33.984375 17.578125 36.71875 14.0625 
Q 31.640625 7.8125 28.125 3.3125 
Q 24.609375 -1.171875 20.703125 -6.640625 
Q 17.96875 -3.125 14.84375 -0.78125 
Q 17.96875 3.515625 17.96875 9.765625 
L 17.96875 44.921875 
L 15.234375 44.921875 
Q 9.375 44.921875 4.6875 44.53125 
L 4.6875 51.953125 
Q 9.375 51.5625 15.234375 51.5625 
z
M 53.515625 71.875 
Q 52.734375 67.96875 52.921875 52.53125 
Q 53.125 37.109375 52.140625 29.484375 
Q 51.171875 21.875 48.234375 13.078125 
Q 45.3125 4.296875 38.28125 -5.859375 
Q 34.765625 -3.125 30.859375 -1.953125 
Q 39.84375 7.8125 43.15625 21.28125 
Q 46.484375 34.765625 46.09375 52.140625 
Q 45.703125 69.53125 45.3125 73.046875 
Q 49.21875 72.265625 53.515625 71.875 
z
M 91.796875 73.4375 
Q 91.40625 70.3125 91.40625 62.109375 
L 91.40625 9.765625 
Q 91.40625 1.953125 91.796875 -6.25 
L 84.375 -6.25 
Q 84.765625 1.953125 84.765625 9.375 
L 84.765625 62.109375 
Q 84.765625 70.3125 84.375 73.4375 
L 91.796875 73.4375 
z
M 71.875 2.734375 
L 64.453125 2.734375 
Q 64.84375 11.328125 64.84375 17.96875 
L 64.84375 56.25 
Q 64.84375 63.28125 64.453125 67.96875 
L 71.875 67.96875 
z
M 15.625 80.46875 
Q 25.78125 71.875 32.8125 64.0625 
Q 29.296875 61.328125 27.34375 58.59375 
Q 16.40625 71.09375 10.9375 75 
Q 13.28125 77.34375 15.625 80.46875 
z
" id="SimHei-8bad"/>
     <path d="M 51.5625 59.765625 
Q 46.09375 59.765625 37.5 59.375 
L 37.5 66.40625 
Q 46.09375 66.015625 51.953125 66.015625 
L 56.640625 66.015625 
Q 60.546875 77.34375 60.9375 80.859375 
Q 65.625 78.515625 69.53125 76.953125 
Q 67.96875 75.390625 66.59375 72.0625 
Q 65.234375 68.75 64.0625 66.015625 
L 78.515625 66.015625 
Q 84.765625 66.015625 92.1875 66.40625 
L 92.1875 59.375 
Q 86.71875 59.765625 78.515625 59.765625 
L 62.109375 59.765625 
Q 60.15625 55.078125 57.8125 49.21875 
L 73.046875 49.21875 
Q 72.65625 44.921875 72.65625 38.671875 
L 72.65625 30.859375 
L 77.734375 30.859375 
Q 83.59375 30.859375 90.625 31.25 
L 90.625 24.21875 
Q 83.59375 24.609375 77.734375 24.609375 
L 72.65625 24.609375 
L 72.65625 1.953125 
Q 72.65625 -4.6875 69.71875 -6.640625 
Q 66.796875 -8.59375 57.03125 -9.765625 
Q 56.640625 -5.859375 53.90625 -1.5625 
Q 63.671875 -1.953125 64.640625 -0.390625 
Q 65.625 1.171875 65.625 5.078125 
L 65.625 24.609375 
L 53.515625 24.609375 
Q 50.78125 24.609375 48.4375 24.40625 
Q 46.09375 24.21875 42.96875 23.046875 
Q 41.40625 26.953125 39.84375 30.46875 
Q 43.75 31.640625 48.828125 43.359375 
Q 46.09375 43.359375 38.28125 42.96875 
L 38.28125 49.609375 
Q 47.265625 49.21875 50.78125 49.21875 
Q 53.125 55.078125 54.6875 59.765625 
z
M 25.78125 46.09375 
Q 29.296875 51.5625 32.8125 60.9375 
Q 36.328125 58.203125 40.234375 56.25 
Q 36.328125 51.171875 31.640625 42.96875 
Q 26.953125 34.765625 16.796875 21.09375 
Q 20.3125 21.875 37.5 24.609375 
Q 36.71875 20.3125 37.109375 17.96875 
Q 28.515625 17.1875 10.15625 12.890625 
Q 8.203125 16.796875 6.25 19.921875 
Q 9.765625 21.875 13.859375 27.140625 
Q 17.96875 32.421875 22.65625 40.234375 
Q 20.3125 40.625 15.8125 40.03125 
Q 11.328125 39.453125 7.03125 38.28125 
Q 5.46875 41.796875 3.90625 45.703125 
Q 7.8125 48.046875 12.6875 58.203125 
Q 17.578125 68.359375 20.703125 78.125 
Q 25 75.390625 28.90625 74.21875 
Q 25 68.359375 21.671875 61.90625 
Q 18.359375 55.46875 12.5 45.703125 
Q 21.484375 45.703125 25.78125 46.09375 
z
M 37.890625 10.9375 
Q 37.5 6.640625 37.890625 3.90625 
Q 31.25 2.34375 22.84375 -0.390625 
Q 14.453125 -3.125 7.421875 -6.640625 
Q 6.25 -2.34375 4.6875 1.953125 
Q 14.84375 4.296875 18.546875 5.265625 
Q 22.265625 6.25 37.890625 10.9375 
z
M 58.203125 13.671875 
Q 57.03125 12.5 51.359375 6.25 
Q 45.703125 0 38.671875 -7.421875 
Q 35.9375 -3.90625 33.59375 -1.953125 
Q 37.890625 1.5625 42.96875 7.21875 
Q 48.046875 12.890625 51.953125 19.140625 
Q 54.296875 16.40625 58.203125 13.671875 
z
M 82.421875 19.140625 
Q 92.578125 5.859375 96.875 -1.5625 
Q 92.96875 -3.125 89.84375 -5.859375 
Q 85.546875 2.734375 76.5625 14.84375 
Q 79.296875 16.40625 82.421875 19.140625 
z
M 65.625 30.859375 
L 65.625 43.359375 
L 55.859375 43.359375 
Q 51.953125 35.15625 49.609375 30.859375 
z
" id="SimHei-7ec3"/>
     <path d="M 3.90625 -3.125 
Q 16.015625 7.421875 19.921875 10.15625 
L 19.921875 38.671875 
Q 10.546875 38.671875 6.25 38.28125 
L 6.25 46.09375 
Q 9.765625 45.3125 20.703125 45.3125 
L 28.125 45.3125 
Q 27.734375 39.453125 27.734375 33.59375 
L 27.734375 9.375 
Q 39.0625 -0.390625 61.125 -0.578125 
Q 83.203125 -0.78125 96.09375 1.171875 
Q 93.75 -2.734375 92.578125 -8.59375 
L 69.140625 -8.59375 
Q 59.375 -8.59375 51.171875 -8 
Q 42.96875 -7.421875 37.296875 -4.6875 
Q 31.640625 -1.953125 27.34375 1.171875 
Q 23.046875 4.296875 19.328125 0.578125 
Q 15.625 -3.125 10.9375 -9.765625 
Q 8.59375 -5.859375 3.90625 -3.125 
z
M 56.640625 13.28125 
Q 65.625 12.890625 67.96875 13.671875 
Q 70.3125 14.453125 70.3125 20.3125 
L 70.3125 55.859375 
L 44.921875 55.859375 
Q 40.625 55.859375 35.546875 55.46875 
L 35.546875 62.890625 
Q 40.625 62.5 48.046875 62.5 
L 70.3125 62.5 
Q 70.3125 72.65625 69.53125 80.078125 
L 78.515625 80.078125 
Q 78.125 75 78.125 62.5 
Q 86.328125 62.5 92.96875 62.890625 
L 92.96875 55.46875 
Q 86.71875 55.859375 78.125 55.859375 
L 78.125 17.1875 
Q 78.125 8.203125 72.84375 6.4375 
Q 67.578125 4.6875 59.765625 4.296875 
Q 58.984375 8.59375 56.640625 13.28125 
z
M 48.828125 25 
Q 45.3125 35.546875 40.234375 44.53125 
Q 43.75 46.09375 47.65625 48.828125 
Q 54.6875 34.765625 56.640625 29.296875 
Q 53.90625 27.734375 48.828125 25 
z
M 17.96875 77.734375 
Q 21.875 73.046875 30.078125 60.546875 
Q 26.171875 58.203125 22.65625 55.46875 
Q 14.84375 68.75 10.9375 72.265625 
Q 14.453125 74.21875 17.96875 77.734375 
z
" id="SimHei-8fc7"/>
     <path d="M 91.015625 77.734375 
Q 90.625 69.140625 90.625 62.109375 
Q 90.625 55.46875 91.015625 48.828125 
L 47.265625 48.828125 
Q 47.65625 56.25 47.65625 62.890625 
Q 47.65625 69.53125 47.265625 77.734375 
L 91.015625 77.734375 
z
M 6.25 75.390625 
Q 12.890625 76.171875 21.28125 77.921875 
Q 29.6875 79.6875 35.546875 82.421875 
Q 38.28125 77.34375 41.015625 73.828125 
Q 38.28125 74.21875 35.34375 73.625 
Q 32.421875 73.046875 28.90625 72.65625 
L 28.90625 53.515625 
Q 34.375 53.515625 40.625 53.90625 
L 40.625 46.484375 
Q 34.375 46.875 28.90625 46.875 
L 28.90625 12.5 
Q 28.90625 3.90625 29.296875 -10.546875 
L 21.484375 -10.546875 
Q 21.875 3.90625 21.875 12.109375 
L 21.875 30.078125 
Q 16.40625 19.140625 9.765625 9.375 
Q 7.03125 13.28125 3.515625 16.40625 
Q 8.984375 21.875 13.28125 28.90625 
Q 17.578125 35.9375 21.09375 46.875 
Q 11.328125 46.875 6.640625 46.484375 
L 6.640625 53.90625 
Q 13.28125 53.515625 16.40625 53.515625 
L 21.875 53.515625 
L 21.875 71.09375 
Q 16.796875 69.921875 8.984375 68.75 
Q 7.8125 72.265625 6.25 75.390625 
z
M 79.6875 39.0625 
Q 85.9375 39.0625 92.96875 39.453125 
L 92.96875 32.421875 
Q 85.9375 32.8125 79.6875 32.8125 
L 72.265625 32.8125 
L 72.265625 20.3125 
L 76.5625 20.3125 
Q 82.421875 20.3125 90.234375 20.703125 
L 90.234375 13.28125 
Q 82.421875 13.671875 77.734375 13.671875 
L 72.265625 13.671875 
L 72.265625 0 
L 81.640625 0 
Q 88.671875 0 96.484375 0.390625 
L 96.484375 -7.03125 
Q 90.234375 -6.640625 81.640625 -6.640625 
L 55.46875 -6.640625 
Q 46.875 -6.640625 40.625 -7.421875 
L 40.625 0.390625 
Q 46.875 0 55.46875 0 
L 64.84375 0 
L 64.84375 13.671875 
L 59.375 13.671875 
Q 53.125 13.671875 47.65625 12.890625 
L 47.65625 20.703125 
Q 53.125 20.3125 59.375 20.3125 
L 64.84375 20.3125 
L 64.84375 32.8125 
L 58.59375 32.8125 
Q 51.5625 32.8125 45.3125 32.421875 
L 45.3125 39.453125 
Q 51.5625 39.0625 58.59375 39.0625 
z
M 82.421875 55.859375 
L 82.421875 71.09375 
L 54.6875 71.09375 
L 54.6875 55.859375 
z
M 35.9375 37.5 
Q 39.84375 31.640625 44.140625 23.828125 
Q 41.796875 22.265625 37.890625 19.140625 
Q 33.984375 27.734375 30.078125 33.203125 
Q 32.421875 35.15625 35.9375 37.5 
z
" id="SimHei-7a0b"/>
    </defs>
    <g transform="translate(206.16 35.472)scale(0.15 -0.15)">
     <use xlink:href="#SimHei-8bad"/>
     <use x="100" xlink:href="#SimHei-7ec3"/>
     <use x="200" xlink:href="#SimHei-8fc7"/>
     <use x="300" xlink:href="#SimHei-7a0b"/>
    </g>
   </g>
  </g>
 </g>
 <defs>
  <clipPath id="p102813b88f">
   <rect height="266.112" width="357.12" x="57.6" y="41.472"/>
  </clipPath>
 </defs>
</svg>
