<?xml version="1.0" encoding="utf-8" standalone="no"?>
<!DOCTYPE svg PUBLIC "-//W3C//DTD SVG 1.1//EN"
  "http://www.w3.org/Graphics/SVG/1.1/DTD/svg11.dtd">
<!-- Created with matplotlib (http://matplotlib.org/) -->
<svg height="345.6pt" version="1.1" viewBox="0 0 460.8 345.6" width="460.8pt" xmlns="http://www.w3.org/2000/svg" xmlns:xlink="http://www.w3.org/1999/xlink">
 <defs>
  <style type="text/css">
*{stroke-linecap:butt;stroke-linejoin:round;}
  </style>
 </defs>
 <g id="figure_1">
  <g id="patch_1">
   <path d="M 0 345.6 
L 460.8 345.6 
L 460.8 0 
L 0 0 
z
" style="fill:#ffffff;"/>
  </g>
  <g id="axes_1">
   <g id="patch_2">
    <path d="M 57.6 307.584 
L 414.72 307.584 
L 414.72 41.472 
L 57.6 41.472 
z
" style="fill:#ffffff;"/>
   </g>
   <g id="matplotlib.axis_1">
    <g id="xtick_1">
     <g id="line2d_1">
      <defs>
       <path d="M 0 0 
L 0 3.5 
" id="m29eee38830" style="stroke:#000000;stroke-width:0.8;"/>
      </defs>
      <g>
       <use style="stroke:#000000;stroke-width:0.8;" x="73.832727" xlink:href="#m29eee38830" y="307.584"/>
      </g>
     </g>
     <g id="text_1">
      <!-- 0 -->
      <defs>
       <path d="M 3.125 29.296875 
Q 3.90625 50 6.4375 56.046875 
Q 8.984375 62.109375 13.671875 66.015625 
Q 18.359375 69.921875 25.1875 69.921875 
Q 32.03125 69.921875 37.109375 64.25 
Q 42.1875 58.59375 43.75 50 
Q 45.3125 41.40625 44.71875 30.265625 
Q 44.140625 19.140625 40.8125 12.109375 
Q 37.5 5.078125 30.859375 2.34375 
Q 24.21875 -0.390625 17.578125 2.921875 
Q 10.9375 6.25 8.203125 11.71875 
Q 5.46875 17.1875 4.296875 23.234375 
Q 3.125 29.296875 3.90625 50 
z
M 12.890625 52.734375 
Q 10.546875 31.25 12.5 22.84375 
Q 14.453125 14.453125 18.9375 10.9375 
Q 23.4375 7.421875 28.125 9.5625 
Q 32.8125 11.71875 34.953125 18.15625 
Q 37.109375 24.609375 37.109375 32.21875 
Q 37.109375 39.84375 36.515625 46.09375 
Q 35.9375 52.34375 33 57.421875 
Q 30.078125 62.5 25.1875 62.6875 
Q 20.3125 62.890625 16.59375 57.8125 
Q 12.890625 52.734375 10.546875 31.25 
z
" id="SimHei-30"/>
      </defs>
      <g transform="translate(71.332727 321.459)scale(0.1 -0.1)">
       <use xlink:href="#SimHei-30"/>
      </g>
     </g>
    </g>
    <g id="xtick_2">
     <g id="line2d_2">
      <g>
       <use style="stroke:#000000;stroke-width:0.8;" x="127.940916" xlink:href="#m29eee38830" y="307.584"/>
      </g>
     </g>
     <g id="text_2">
      <!-- 10 -->
      <defs>
       <path d="M 21.875 56.25 
Q 16.796875 51.171875 8.984375 46.484375 
L 8.984375 53.90625 
Q 18.75 60.546875 25 69.53125 
L 29.6875 69.53125 
L 29.6875 2.34375 
L 21.875 2.34375 
z
" id="SimHei-31"/>
      </defs>
      <g transform="translate(122.940916 321.459)scale(0.1 -0.1)">
       <use xlink:href="#SimHei-31"/>
       <use x="50" xlink:href="#SimHei-30"/>
      </g>
     </g>
    </g>
    <g id="xtick_3">
     <g id="line2d_3">
      <g>
       <use style="stroke:#000000;stroke-width:0.8;" x="182.049105" xlink:href="#m29eee38830" y="307.584"/>
      </g>
     </g>
     <g id="text_3">
      <!-- 20 -->
      <defs>
       <path d="M 4.6875 3.90625 
Q 5.078125 9.765625 10.15625 14.453125 
Q 15.234375 19.140625 23.046875 29.09375 
Q 30.859375 39.0625 33.203125 44.53125 
Q 35.546875 50 34.953125 53.90625 
Q 34.375 57.8125 31.25 60.34375 
Q 28.125 62.890625 24.015625 62.5 
Q 19.921875 62.109375 16.203125 59.375 
Q 12.5 56.640625 10.546875 51.171875 
L 3.125 52.34375 
Q 6.25 61.328125 11.125 65.421875 
Q 16.015625 69.53125 22.65625 69.921875 
Q 26.5625 70.3125 29.6875 69.71875 
Q 32.8125 69.140625 36.125 66.984375 
Q 39.453125 64.84375 41.59375 60.546875 
Q 43.75 56.25 43.15625 50.1875 
Q 42.578125 44.140625 37.109375 35.734375 
Q 31.640625 27.34375 16.015625 9.375 
L 44.140625 9.375 
L 44.140625 2.34375 
L 4.6875 2.34375 
z
" id="SimHei-32"/>
      </defs>
      <g transform="translate(177.049105 321.459)scale(0.1 -0.1)">
       <use xlink:href="#SimHei-32"/>
       <use x="50" xlink:href="#SimHei-30"/>
      </g>
     </g>
    </g>
    <g id="xtick_4">
     <g id="line2d_4">
      <g>
       <use style="stroke:#000000;stroke-width:0.8;" x="236.157295" xlink:href="#m29eee38830" y="307.584"/>
      </g>
     </g>
     <g id="text_4">
      <!-- 30 -->
      <defs>
       <path d="M 3.90625 19.140625 
L 10.9375 20.3125 
Q 12.5 15.234375 16.015625 11.90625 
Q 19.53125 8.59375 24.796875 8.78125 
Q 30.078125 8.984375 33.203125 13.078125 
Q 36.328125 17.1875 35.9375 22.453125 
Q 35.546875 27.734375 31.828125 30.65625 
Q 28.125 33.59375 19.921875 34.765625 
L 19.921875 39.84375 
Q 28.125 40.625 31.828125 44.140625 
Q 35.546875 47.65625 35.15625 53.3125 
Q 34.765625 58.984375 30.078125 61.515625 
Q 25.390625 64.0625 20.109375 62.109375 
Q 14.84375 60.15625 11.71875 51.171875 
L 4.6875 52.34375 
Q 7.03125 59.375 11.125 64.0625 
Q 15.234375 68.75 22.265625 69.53125 
Q 29.296875 70.3125 34.5625 67.765625 
Q 39.84375 65.234375 41.984375 59.953125 
Q 44.140625 54.6875 42.578125 48.4375 
Q 41.015625 42.1875 33.59375 37.5 
Q 39.0625 35.15625 41.984375 30.46875 
Q 44.921875 25.78125 43.9375 18.15625 
Q 42.96875 10.546875 37.109375 5.859375 
Q 31.25 1.171875 23.828125 1.359375 
Q 16.40625 1.5625 10.9375 6.046875 
Q 5.46875 10.546875 3.90625 19.140625 
z
" id="SimHei-33"/>
      </defs>
      <g transform="translate(231.157295 321.459)scale(0.1 -0.1)">
       <use xlink:href="#SimHei-33"/>
       <use x="50" xlink:href="#SimHei-30"/>
      </g>
     </g>
    </g>
    <g id="xtick_5">
     <g id="line2d_5">
      <g>
       <use style="stroke:#000000;stroke-width:0.8;" x="290.265484" xlink:href="#m29eee38830" y="307.584"/>
      </g>
     </g>
     <g id="text_5">
      <!-- 40 -->
      <defs>
       <path d="M 31.25 17.1875 
L 1.171875 17.1875 
L 1.171875 23.828125 
L 32.8125 69.53125 
L 38.671875 69.53125 
L 38.671875 23.828125 
L 48.046875 23.828125 
L 48.046875 17.1875 
L 38.671875 17.1875 
L 38.671875 2.34375 
L 31.25 2.34375 
z
M 31.25 23.828125 
L 31.25 54.6875 
L 9.375 23.828125 
z
" id="SimHei-34"/>
      </defs>
      <g transform="translate(285.265484 321.459)scale(0.1 -0.1)">
       <use xlink:href="#SimHei-34"/>
       <use x="50" xlink:href="#SimHei-30"/>
      </g>
     </g>
    </g>
    <g id="xtick_6">
     <g id="line2d_6">
      <g>
       <use style="stroke:#000000;stroke-width:0.8;" x="344.373673" xlink:href="#m29eee38830" y="307.584"/>
      </g>
     </g>
     <g id="text_6">
      <!-- 50 -->
      <defs>
       <path d="M 8.59375 20.703125 
Q 11.328125 10.15625 17.96875 8.984375 
Q 24.609375 7.8125 28.703125 10.34375 
Q 32.8125 12.890625 34.5625 16.984375 
Q 36.328125 21.09375 36.125 26.171875 
Q 35.9375 31.25 33.390625 34.765625 
Q 30.859375 38.28125 26.953125 39.453125 
Q 23.046875 40.625 18.15625 39.453125 
Q 13.28125 38.28125 10.15625 33.984375 
L 3.515625 34.765625 
Q 4.296875 37.109375 10.9375 68.359375 
L 41.796875 68.359375 
L 41.796875 61.328125 
L 16.796875 61.328125 
Q 14.84375 50.78125 12.890625 44.53125 
Q 18.75 47.265625 23.828125 47.0625 
Q 28.90625 46.875 33.59375 44.71875 
Q 38.28125 42.578125 40.421875 38.859375 
Q 42.578125 35.15625 43.546875 31.4375 
Q 44.53125 27.734375 44.328125 23.4375 
Q 44.140625 19.140625 42.578125 14.640625 
Q 41.015625 10.15625 37.890625 7.21875 
Q 34.765625 4.296875 30.265625 2.53125 
Q 25.78125 0.78125 19.921875 1.171875 
Q 14.0625 1.5625 8.78125 5.46875 
Q 3.515625 9.375 1.5625 18.75 
z
" id="SimHei-35"/>
      </defs>
      <g transform="translate(339.373673 321.459)scale(0.1 -0.1)">
       <use xlink:href="#SimHei-35"/>
       <use x="50" xlink:href="#SimHei-30"/>
      </g>
     </g>
    </g>
    <g id="xtick_7">
     <g id="line2d_7">
      <g>
       <use style="stroke:#000000;stroke-width:0.8;" x="398.481862" xlink:href="#m29eee38830" y="307.584"/>
      </g>
     </g>
     <g id="text_7">
      <!-- 60 -->
      <defs>
       <path d="M 3.515625 19.53125 
Q 4.296875 30.859375 6.046875 34.765625 
Q 7.8125 38.671875 11.328125 44.53125 
L 27.34375 69.53125 
L 36.328125 69.53125 
L 19.921875 43.75 
Q 30.46875 46.484375 36.71875 42.96875 
Q 42.96875 39.453125 45.109375 34.953125 
Q 47.265625 30.46875 47.453125 25.1875 
Q 47.65625 19.921875 45.890625 14.84375 
Q 44.140625 9.765625 39.640625 5.65625 
Q 35.15625 1.5625 27.140625 1.171875 
Q 19.140625 0.78125 13.46875 4.09375 
Q 7.8125 7.421875 5.65625 13.46875 
Q 3.515625 19.53125 4.296875 30.859375 
z
M 12.5 16.015625 
Q 19.53125 8.59375 25.390625 8.203125 
Q 31.25 7.8125 35.15625 12.109375 
Q 39.0625 16.40625 39.0625 24.609375 
Q 39.0625 32.8125 34.171875 35.9375 
Q 29.296875 39.0625 23.234375 38.28125 
Q 17.1875 37.5 14.453125 32.421875 
Q 11.71875 27.34375 12.109375 21.671875 
Q 12.5 16.015625 19.53125 8.59375 
z
" id="SimHei-36"/>
      </defs>
      <g transform="translate(393.481862 321.459)scale(0.1 -0.1)">
       <use xlink:href="#SimHei-36"/>
       <use x="50" xlink:href="#SimHei-30"/>
      </g>
     </g>
    </g>
    <g id="text_8">
     <!-- 回合/k -->
     <defs>
      <path d="M 88.28125 75.78125 
Q 87.890625 64.453125 87.890625 53.90625 
L 87.890625 14.84375 
Q 87.890625 4.6875 88.28125 -5.859375 
L 80.46875 -5.859375 
L 80.46875 1.5625 
L 18.359375 1.5625 
L 18.359375 -5.859375 
L 10.9375 -5.859375 
Q 11.328125 3.90625 11.328125 14.84375 
L 11.328125 53.90625 
Q 11.328125 64.0625 10.9375 75.78125 
L 88.28125 75.78125 
z
M 80.46875 7.8125 
L 80.46875 69.140625 
L 18.75 69.140625 
L 18.75 7.8125 
z
M 67.578125 54.6875 
Q 67.1875 48.828125 67.1875 42.96875 
L 67.1875 33.984375 
Q 67.1875 28.90625 67.578125 21.875 
L 31.640625 21.875 
Q 32.03125 28.90625 32.03125 33.984375 
L 32.03125 43.75 
Q 32.03125 49.21875 31.640625 54.6875 
L 67.578125 54.6875 
z
M 59.765625 28.515625 
L 59.765625 48.4375 
L 39.0625 48.4375 
L 39.0625 28.515625 
z
" id="SimHei-56de"/>
      <path d="M 78.90625 28.125 
Q 78.515625 24.21875 78.515625 10.15625 
Q 78.515625 -3.90625 78.90625 -8.203125 
L 70.703125 -8.203125 
L 70.703125 -0.78125 
L 27.34375 -0.78125 
L 27.34375 -9.375 
L 19.53125 -9.375 
Q 19.921875 -4.6875 19.921875 8.59375 
Q 19.921875 22.265625 19.53125 28.125 
L 78.90625 28.125 
z
M 52.734375 75 
Q 64.0625 61.328125 71.09375 56.25 
Q 78.125 51.171875 83.984375 48.4375 
Q 89.84375 45.703125 95.3125 44.140625 
Q 91.40625 39.84375 90.234375 35.9375 
Q 82.421875 39.453125 76.171875 43.359375 
Q 69.921875 47.265625 63.46875 53.3125 
Q 57.03125 59.375 48.828125 69.921875 
Q 41.40625 59.375 34.171875 52.53125 
Q 26.953125 45.703125 21.875 41.796875 
Q 16.796875 37.890625 10.546875 33.984375 
Q 9.765625 35.546875 4.296875 40.234375 
Q 12.5 44.140625 19.921875 49.609375 
Q 27.34375 55.078125 34.765625 63.46875 
Q 42.1875 71.875 46.875 81.640625 
Q 51.171875 78.90625 54.6875 77.34375 
z
M 70.703125 5.46875 
L 70.703125 21.875 
L 27.34375 21.875 
L 27.34375 5.46875 
z
M 61.328125 44.140625 
Q 67.578125 44.140625 72.265625 44.53125 
L 72.265625 37.109375 
Q 67.1875 37.5 61.71875 37.5 
L 39.84375 37.5 
Q 31.640625 37.5 26.5625 37.109375 
L 26.5625 44.53125 
Q 33.984375 44.140625 39.84375 44.140625 
z
" id="SimHei-5408"/>
      <path d="M 46.875 71.09375 
L 5.46875 -2.734375 
L 1.5625 -0.390625 
L 42.96875 73.4375 
z
" id="SimHei-2f"/>
      <path d="M 45.703125 1.953125 
L 36.71875 1.953125 
L 22.65625 25.78125 
L 13.671875 17.1875 
L 13.671875 1.953125 
L 5.859375 1.953125 
L 5.859375 68.75 
L 13.671875 68.75 
L 13.671875 26.171875 
L 33.203125 45.703125 
L 42.96875 45.703125 
L 27.734375 30.859375 
z
" id="SimHei-6b"/>
     </defs>
     <g transform="translate(221.16 334.560562)scale(0.1 -0.1)">
      <use xlink:href="#SimHei-56de"/>
      <use x="100" xlink:href="#SimHei-5408"/>
      <use x="200" xlink:href="#SimHei-2f"/>
      <use x="250" xlink:href="#SimHei-6b"/>
     </g>
    </g>
   </g>
   <g id="matplotlib.axis_2">
    <g id="ytick_1">
     <g id="line2d_8">
      <defs>
       <path d="M 0 0 
L -3.5 0 
" id="m0b63c7f61a" style="stroke:#000000;stroke-width:0.8;"/>
      </defs>
      <g>
       <use style="stroke:#000000;stroke-width:0.8;" x="57.6" xlink:href="#m0b63c7f61a" y="296.860998"/>
      </g>
     </g>
     <g id="text_9">
      <!-- -70000 -->
      <defs>
       <path d="M 46.484375 33.203125 
L 1.953125 33.203125 
L 1.953125 39.453125 
L 46.484375 39.453125 
z
" id="SimHei-2d"/>
       <path d="M 13.28125 2.34375 
Q 20.3125 32.03125 37.890625 61.328125 
L 4.296875 61.328125 
L 4.296875 68.359375 
L 46.09375 68.359375 
L 46.09375 61.71875 
Q 27.734375 32.03125 21.875 2.34375 
L 13.28125 2.34375 
z
" id="SimHei-37"/>
      </defs>
      <g transform="translate(20.6 300.298498)scale(0.1 -0.1)">
       <use xlink:href="#SimHei-2d"/>
       <use x="50" xlink:href="#SimHei-37"/>
       <use x="100" xlink:href="#SimHei-30"/>
       <use x="150" xlink:href="#SimHei-30"/>
       <use x="200" xlink:href="#SimHei-30"/>
       <use x="250" xlink:href="#SimHei-30"/>
      </g>
     </g>
    </g>
    <g id="ytick_2">
     <g id="line2d_9">
      <g>
       <use style="stroke:#000000;stroke-width:0.8;" x="57.6" xlink:href="#m0b63c7f61a" y="262.104855"/>
      </g>
     </g>
     <g id="text_10">
      <!-- -60000 -->
      <g transform="translate(20.6 265.542355)scale(0.1 -0.1)">
       <use xlink:href="#SimHei-2d"/>
       <use x="50" xlink:href="#SimHei-36"/>
       <use x="100" xlink:href="#SimHei-30"/>
       <use x="150" xlink:href="#SimHei-30"/>
       <use x="200" xlink:href="#SimHei-30"/>
       <use x="250" xlink:href="#SimHei-30"/>
      </g>
     </g>
    </g>
    <g id="ytick_3">
     <g id="line2d_10">
      <g>
       <use style="stroke:#000000;stroke-width:0.8;" x="57.6" xlink:href="#m0b63c7f61a" y="227.348713"/>
      </g>
     </g>
     <g id="text_11">
      <!-- -50000 -->
      <g transform="translate(20.6 230.786213)scale(0.1 -0.1)">
       <use xlink:href="#SimHei-2d"/>
       <use x="50" xlink:href="#SimHei-35"/>
       <use x="100" xlink:href="#SimHei-30"/>
       <use x="150" xlink:href="#SimHei-30"/>
       <use x="200" xlink:href="#SimHei-30"/>
       <use x="250" xlink:href="#SimHei-30"/>
      </g>
     </g>
    </g>
    <g id="ytick_4">
     <g id="line2d_11">
      <g>
       <use style="stroke:#000000;stroke-width:0.8;" x="57.6" xlink:href="#m0b63c7f61a" y="192.59257"/>
      </g>
     </g>
     <g id="text_12">
      <!-- -40000 -->
      <g transform="translate(20.6 196.03007)scale(0.1 -0.1)">
       <use xlink:href="#SimHei-2d"/>
       <use x="50" xlink:href="#SimHei-34"/>
       <use x="100" xlink:href="#SimHei-30"/>
       <use x="150" xlink:href="#SimHei-30"/>
       <use x="200" xlink:href="#SimHei-30"/>
       <use x="250" xlink:href="#SimHei-30"/>
      </g>
     </g>
    </g>
    <g id="ytick_5">
     <g id="line2d_12">
      <g>
       <use style="stroke:#000000;stroke-width:0.8;" x="57.6" xlink:href="#m0b63c7f61a" y="157.836428"/>
      </g>
     </g>
     <g id="text_13">
      <!-- -30000 -->
      <g transform="translate(20.6 161.273928)scale(0.1 -0.1)">
       <use xlink:href="#SimHei-2d"/>
       <use x="50" xlink:href="#SimHei-33"/>
       <use x="100" xlink:href="#SimHei-30"/>
       <use x="150" xlink:href="#SimHei-30"/>
       <use x="200" xlink:href="#SimHei-30"/>
       <use x="250" xlink:href="#SimHei-30"/>
      </g>
     </g>
    </g>
    <g id="ytick_6">
     <g id="line2d_13">
      <g>
       <use style="stroke:#000000;stroke-width:0.8;" x="57.6" xlink:href="#m0b63c7f61a" y="123.080285"/>
      </g>
     </g>
     <g id="text_14">
      <!-- -20000 -->
      <g transform="translate(20.6 126.517785)scale(0.1 -0.1)">
       <use xlink:href="#SimHei-2d"/>
       <use x="50" xlink:href="#SimHei-32"/>
       <use x="100" xlink:href="#SimHei-30"/>
       <use x="150" xlink:href="#SimHei-30"/>
       <use x="200" xlink:href="#SimHei-30"/>
       <use x="250" xlink:href="#SimHei-30"/>
      </g>
     </g>
    </g>
    <g id="ytick_7">
     <g id="line2d_14">
      <g>
       <use style="stroke:#000000;stroke-width:0.8;" x="57.6" xlink:href="#m0b63c7f61a" y="88.324143"/>
      </g>
     </g>
     <g id="text_15">
      <!-- -10000 -->
      <g transform="translate(20.6 91.761643)scale(0.1 -0.1)">
       <use xlink:href="#SimHei-2d"/>
       <use x="50" xlink:href="#SimHei-31"/>
       <use x="100" xlink:href="#SimHei-30"/>
       <use x="150" xlink:href="#SimHei-30"/>
       <use x="200" xlink:href="#SimHei-30"/>
       <use x="250" xlink:href="#SimHei-30"/>
      </g>
     </g>
    </g>
    <g id="ytick_8">
     <g id="line2d_15">
      <g>
       <use style="stroke:#000000;stroke-width:0.8;" x="57.6" xlink:href="#m0b63c7f61a" y="53.568"/>
      </g>
     </g>
     <g id="text_16">
      <!-- 0 -->
      <g transform="translate(45.6 57.0055)scale(0.1 -0.1)">
       <use xlink:href="#SimHei-30"/>
      </g>
     </g>
    </g>
    <g id="text_17">
     <!-- 累计奖励 -->
     <defs>
      <path d="M 85.546875 78.125 
Q 85.15625 71.875 85.15625 62.109375 
Q 85.15625 52.34375 85.546875 46.09375 
L 73.046875 46.09375 
Q 75.78125 43.359375 79.296875 40.625 
Q 75 39.453125 66.203125 35.546875 
Q 57.421875 31.640625 50.96875 28.703125 
Q 44.53125 25.78125 37.5 22.265625 
Q 60.15625 23.828125 72.65625 24.609375 
Q 69.140625 26.953125 65.625 28.90625 
Q 68.359375 31.25 70.3125 33.984375 
Q 80.078125 28.125 92.1875 20.3125 
Q 89.84375 17.578125 87.109375 14.0625 
Q 83.984375 16.796875 79.6875 19.53125 
Q 66.40625 18.359375 54.296875 17.578125 
L 54.296875 0.78125 
Q 54.296875 -5.46875 50.1875 -7.21875 
Q 46.09375 -8.984375 40.625 -9.375 
Q 40.234375 -5.859375 37.109375 -0.78125 
Q 43.75 -1.171875 45.3125 -0.390625 
Q 46.875 0.390625 46.875 1.953125 
L 46.875 16.796875 
Q 37.5 16.40625 31.046875 15.8125 
Q 24.609375 15.234375 13.28125 13.671875 
Q 12.109375 17.578125 10.9375 21.09375 
Q 17.96875 21.875 24.609375 23.625 
Q 31.25 25.390625 47.265625 33.203125 
Q 27.734375 31.640625 19.53125 30.078125 
Q 18.75 34.375 17.1875 37.109375 
Q 20.703125 37.109375 27.140625 39.640625 
Q 33.59375 42.1875 38.671875 46.09375 
L 14.84375 46.09375 
Q 15.234375 52.734375 15.234375 62.109375 
Q 15.234375 71.875 14.84375 78.125 
L 85.546875 78.125 
z
M 37.890625 8.203125 
Q 34.375 6.25 27.53125 2.140625 
Q 20.703125 -1.953125 13.28125 -6.640625 
Q 10.9375 -3.515625 7.8125 -0.390625 
Q 13.28125 1.953125 19.53125 5.65625 
Q 25.78125 9.375 31.640625 14.0625 
Q 33.59375 11.328125 37.890625 8.203125 
z
M 46.484375 64.0625 
L 46.484375 72.65625 
L 22.65625 72.65625 
L 22.65625 64.0625 
z
M 77.734375 64.0625 
L 77.734375 72.65625 
L 53.90625 72.65625 
L 53.90625 64.0625 
z
M 66.796875 13.28125 
Q 74.21875 10.15625 78.90625 7.8125 
L 91.40625 1.5625 
Q 88.671875 -1.953125 87.109375 -5.859375 
Q 80.46875 -1.5625 74.609375 1.5625 
Q 68.75 4.6875 63.28125 7.03125 
Q 65.625 10.546875 66.796875 13.28125 
z
M 46.484375 51.171875 
L 46.484375 58.59375 
L 22.65625 58.59375 
L 22.65625 51.171875 
z
M 77.734375 51.171875 
L 77.734375 58.59375 
L 53.90625 58.59375 
L 53.90625 51.171875 
z
M 57.8125 38.671875 
Q 65.625 42.1875 71.484375 46.09375 
L 50.390625 46.09375 
Q 45.3125 42.96875 35.9375 37.890625 
Q 48.046875 38.28125 57.8125 38.671875 
z
" id="SimHei-7d2f"/>
      <path d="M 61.328125 48.4375 
L 61.328125 67.96875 
Q 61.328125 75.78125 60.9375 80.078125 
L 69.140625 80.078125 
Q 68.75 75 68.75 71.09375 
L 68.75 48.4375 
L 84.765625 48.4375 
Q 89.453125 48.4375 94.921875 48.828125 
L 94.921875 41.40625 
Q 89.0625 41.796875 85.15625 41.796875 
L 68.75 41.796875 
L 68.75 2.734375 
Q 68.75 -1.953125 69.140625 -8.59375 
L 60.9375 -8.59375 
Q 61.328125 -1.953125 61.328125 2.34375 
L 61.328125 41.796875 
L 46.09375 41.796875 
Q 40.234375 41.796875 34.375 41.40625 
L 34.375 48.828125 
Q 40.234375 48.4375 45.3125 48.4375 
z
M 27.734375 49.21875 
Q 27.34375 41.796875 27.34375 33.59375 
L 27.34375 9.765625 
Q 33.984375 16.40625 37.890625 21.875 
Q 40.234375 18.75 43.359375 15.625 
L 32.421875 4.6875 
Q 27.34375 -0.390625 22.65625 -5.46875 
Q 19.921875 -1.953125 17.578125 0.78125 
Q 20.3125 3.90625 19.921875 10.15625 
L 19.921875 42.578125 
Q 9.375 42.578125 4.296875 42.1875 
L 4.296875 49.609375 
Q 10.546875 49.21875 12.890625 49.21875 
z
M 17.96875 78.90625 
Q 23.046875 73.828125 33.984375 62.5 
Q 30.46875 59.375 27.34375 56.640625 
Q 22.265625 64.0625 12.109375 74.21875 
Q 14.84375 76.171875 17.96875 78.90625 
z
" id="SimHei-8ba1"/>
      <path d="M 79.296875 24.609375 
Q 88.28125 24.609375 94.921875 25 
L 94.921875 17.578125 
Q 88.671875 18.75 79.296875 18.359375 
L 55.46875 18.359375 
Q 62.109375 9.375 73.625 4.6875 
Q 85.15625 0 96.09375 -0.78125 
Q 93.75 -3.515625 91.40625 -8.59375 
Q 83.59375 -7.03125 77.734375 -5.078125 
Q 71.875 -3.125 64.640625 1.359375 
Q 57.421875 5.859375 50.78125 13.671875 
Q 47.265625 8.59375 43.75 5.46875 
Q 40.234375 2.34375 35.15625 -0.78125 
Q 30.078125 -3.90625 24.40625 -5.859375 
Q 18.75 -7.8125 10.9375 -9.765625 
Q 9.375 -5.859375 6.25 -1.953125 
Q 13.671875 -1.171875 19.71875 0.578125 
Q 25.78125 2.34375 30.65625 4.875 
Q 35.546875 7.421875 39.0625 10.734375 
Q 42.578125 14.0625 44.53125 18.359375 
L 20.703125 18.359375 
Q 12.890625 18.359375 5.46875 17.96875 
L 5.46875 25 
Q 12.890625 24.609375 20.703125 24.609375 
L 46.09375 24.609375 
Q 46.484375 27.34375 46.484375 30.46875 
Q 54.296875 29.296875 55.46875 29.296875 
Q 54.296875 26.953125 53.90625 24.609375 
z
M 67.578125 78.125 
Q 64.453125 75 61.328125 70.3125 
L 92.1875 70.3125 
Q 88.671875 61.71875 85.34375 56.046875 
Q 82.03125 50.390625 77.921875 45.890625 
Q 73.828125 41.40625 66.984375 37.5 
Q 60.15625 33.59375 47.65625 30.859375 
Q 45.703125 34.375 42.96875 37.890625 
Q 54.6875 38.28125 64.0625 43.75 
L 53.515625 50.78125 
Q 55.859375 53.515625 57.8125 56.25 
Q 61.71875 53.90625 64.0625 52.140625 
Q 66.40625 50.390625 69.921875 48.046875 
Q 76.5625 53.90625 80.859375 64.0625 
L 57.421875 64.0625 
Q 55.46875 61.71875 52.734375 58.59375 
Q 50 55.46875 45.3125 50 
Q 42.1875 52.734375 38.671875 54.296875 
Q 44.53125 59.375 49.796875 66.40625 
Q 55.078125 73.4375 58.59375 81.640625 
Q 63.671875 79.296875 67.578125 78.125 
z
M 38.28125 80.859375 
Q 37.890625 76.171875 37.890625 69.921875 
L 37.890625 44.921875 
Q 37.890625 39.0625 38.28125 30.859375 
L 30.078125 30.859375 
Q 30.46875 39.0625 30.46875 44.921875 
L 30.46875 47.65625 
Q 19.140625 40.234375 11.71875 35.546875 
Q 8.984375 39.84375 6.25 42.1875 
Q 12.890625 44.140625 30.46875 55.078125 
L 30.46875 69.921875 
Q 30.46875 75.78125 30.078125 80.859375 
L 38.28125 80.859375 
z
M 15.625 73.4375 
Q 23.046875 67.578125 28.125 62.890625 
L 22.265625 57.03125 
Q 17.1875 62.5 10.546875 67.96875 
Q 13.28125 70.3125 15.625 73.4375 
z
" id="SimHei-5956"/>
      <path d="M 42.578125 55.859375 
Q 48.828125 55.859375 53.125 56.25 
L 53.125 49.21875 
Q 48.4375 49.609375 42.578125 49.609375 
L 35.546875 49.609375 
Q 35.546875 44.921875 35.15625 38.28125 
L 52.734375 38.28125 
Q 51.5625 21.09375 51.171875 16.203125 
Q 50.78125 11.328125 50 5.265625 
Q 49.21875 -0.78125 46.09375 -2.140625 
Q 42.96875 -3.515625 35.546875 -4.296875 
Q 35.15625 -0.390625 32.421875 4.6875 
Q 39.453125 3.90625 41.203125 4.296875 
Q 42.96875 4.6875 43.546875 8.390625 
Q 44.140625 12.109375 44.53125 19.53125 
Q 44.921875 26.953125 44.921875 32.421875 
L 34.765625 32.421875 
Q 34.375 25 33 19.53125 
Q 31.640625 14.0625 30.078125 9.171875 
Q 28.515625 4.296875 26.359375 0.1875 
Q 24.21875 -3.90625 22.265625 -7.03125 
Q 19.53125 -3.90625 15.234375 -1.5625 
Q 18.75 1.953125 21.28125 7.21875 
Q 23.828125 12.5 25.390625 17.96875 
Q 26.953125 23.4375 27.734375 31.828125 
Q 28.515625 40.234375 28.515625 49.609375 
L 19.53125 49.609375 
Q 19.53125 41.796875 19.140625 35.34375 
Q 18.75 28.90625 17.96875 21.875 
Q 17.1875 14.84375 15.234375 6.640625 
Q 13.28125 -1.5625 9.765625 -7.8125 
Q 6.640625 -5.078125 3.125 -3.125 
Q 5.859375 1.953125 7.609375 7.609375 
Q 9.375 13.28125 10.546875 21.09375 
Q 11.71875 28.90625 11.90625 35.9375 
Q 12.109375 42.96875 12.109375 54.296875 
Q 12.109375 66.015625 11.71875 73.4375 
L 44.921875 73.4375 
Q 48.828125 73.4375 53.515625 73.828125 
L 53.515625 67.1875 
Q 49.21875 67.578125 44.921875 67.578125 
L 19.53125 67.578125 
L 19.53125 55.859375 
z
M 71.09375 -9.375 
Q 70.3125 -4.6875 67.578125 0.78125 
Q 75.390625 -0.390625 78.125 0.78125 
Q 80.859375 1.953125 81.4375 9.765625 
Q 82.03125 17.578125 82.609375 29.875 
Q 83.203125 42.1875 83.203125 53.125 
L 73.046875 53.125 
Q 72.65625 36.328125 70.703125 26.171875 
Q 68.75 16.015625 65.8125 8.984375 
Q 62.890625 1.953125 59.953125 -2.140625 
Q 57.03125 -6.25 54.296875 -10.15625 
Q 50.390625 -7.03125 47.265625 -5.859375 
Q 53.125 0.78125 56.828125 8 
Q 60.546875 15.234375 62.296875 21.28125 
Q 64.0625 27.34375 64.84375 33.984375 
Q 65.625 40.625 66.015625 53.125 
Q 59.765625 53.125 55.46875 52.734375 
L 55.46875 59.765625 
Q 61.328125 59.375 66.015625 59.375 
L 66.015625 67.96875 
Q 66.015625 72.265625 65.625 80.859375 
Q 70.3125 79.6875 74.21875 79.296875 
Q 73.828125 75.78125 73.4375 71.484375 
Q 73.046875 67.1875 73.046875 59.375 
L 91.015625 59.375 
Q 90.234375 52.734375 90.234375 41.796875 
Q 89.0625 13.28125 88.671875 7.8125 
Q 88.28125 2.34375 87.109375 -1.75 
Q 85.9375 -5.859375 81.640625 -7.421875 
Q 77.34375 -8.984375 71.09375 -9.375 
z
" id="SimHei-52b1"/>
     </defs>
     <g transform="translate(15.35 194.528)rotate(-90)scale(0.1 -0.1)">
      <use xlink:href="#SimHei-7d2f"/>
      <use x="100" xlink:href="#SimHei-8ba1"/>
      <use x="200" xlink:href="#SimHei-5956"/>
      <use x="300" xlink:href="#SimHei-52b1"/>
     </g>
    </g>
   </g>
   <g id="line2d_16">
    <path clip-path="url(#p70f5a5d07c)" d="M 73.832727 53.568 
L 74.211485 55.177467 
L 74.341344 55.743877 
L 74.552366 56.344268 
L 74.584831 56.452426 
L 74.752566 57.289158 
L 74.757977 57.288809 
L 74.882426 57.95377 
L 74.887837 57.952204 
L 74.958178 58.256131 
L 75.342346 60.319776 
L 75.607476 61.667335 
L 77.2199 69.68944 
L 77.225311 69.686807 
L 77.230722 69.766258 
L 77.252365 69.796574 
L 77.290241 69.913254 
L 77.539138 71.313332 
L 77.723106 72.783271 
L 77.793447 73.079128 
L 77.977415 74.085882 
L 77.982825 74.085217 
L 78.123507 75.099739 
L 78.128917 75.096507 
L 78.139739 75.191498 
L 78.789037 78.270521 
L 79.064989 79.656847 
L 79.189438 80.263453 
L 79.216492 80.327229 
L 79.357173 81.037833 
L 79.416692 81.247089 
L 79.714287 83.044903 
L 79.946953 84.317113 
L 80.13092 85.84528 
L 80.282423 86.782497 
L 80.439337 88.231373 
L 80.444748 88.229977 
L 80.677413 89.498041 
L 80.839738 90.377128 
L 81.261782 92.877171 
L 81.294247 93.369314 
L 81.299657 93.36629 
L 81.456571 94.50299 
L 81.510679 94.808161 
L 81.683826 95.767343 
L 81.808274 96.539863 
L 82.024707 98.676275 
L 82.333124 100.078843 
L 82.517092 101.627153 
L 82.533324 101.741113 
L 83.258374 106.835417 
L 83.43152 108.094244 
L 83.934726 111.804063 
L 83.940137 111.803032 
L 83.972602 111.948989 
L 84.118694 113.389592 
L 84.124105 113.387639 
L 84.335127 115.082941 
L 84.378413 115.238371 
L 84.88703 119.625198 
L 85.022301 120.573309 
L 85.28202 122.297157 
L 85.319896 122.407867 
L 85.974605 127.056165 
L 86.012481 127.391329 
L 86.163984 128.725101 
L 86.396649 130.289204 
L 86.53733 131.413178 
L 86.548152 131.449433 
L 86.786228 133.495963 
L 86.818693 133.620009 
L 87.159574 136.753406 
L 87.164985 136.750452 
L 87.229915 137.054339 
L 87.565386 140.523861 
L 87.576207 140.525205 
L 87.587029 140.613416 
L 88.160576 146.123597 
L 88.165987 146.122392 
L 88.339133 147.582664 
L 88.38783 147.688442 
L 88.571798 149.808321 
L 88.58262 149.806476 
L 88.593441 149.818005 
L 88.78282 151.334273 
L 88.901858 151.988529 
L 89.350956 155.121814 
L 89.356367 155.118836 
L 89.637729 156.871197 
L 89.832519 158.192359 
L 89.848751 158.215093 
L 89.978611 159.783608 
L 90.324903 162.269579 
L 90.487228 163.553314 
L 92.121295 173.387444 
L 92.159171 173.573607 
L 93.582216 183.225346 
L 93.73913 184.464694 
L 94.025903 186.96461 
L 94.155763 187.995384 
L 94.236925 188.210883 
L 94.377607 189.49263 
L 94.686023 190.631919 
L 94.691434 190.629115 
L 94.86458 191.954059 
L 94.869991 191.952117 
L 94.880813 191.960729 
L 94.897045 192.049006 
L 95.232516 193.745009 
L 95.292035 194.109551 
L 95.432716 194.783522 
L 95.438127 194.780626 
L 95.448949 194.818364 
L 95.45436 194.828197 
L 95.616684 195.947596 
L 95.622095 195.945512 
L 95.795241 196.716069 
L 95.925101 197.13022 
L 96.136123 198.185024 
L 96.146944 198.184382 
L 96.168588 198.273758 
L 96.179409 198.282582 
L 96.37961 199.691453 
L 96.44995 199.944786 
L 96.596042 200.773321 
L 96.606864 200.770504 
L 96.612275 200.767977 
L 96.628507 200.831986 
L 96.817886 201.781686 
L 96.834118 201.838448 
L 96.963978 202.662939 
L 97.223697 203.812595 
L 97.380611 205.009906 
L 97.386022 205.007404 
L 97.575401 205.933879 
L 97.618687 206.028201 
L 97.975801 207.582259 
L 98.489829 210.436415 
L 98.668386 211.291831 
L 98.754959 211.544463 
L 99.166181 214.090312 
L 99.171592 214.087609 
L 99.296041 214.974938 
L 99.480009 215.888058 
L 99.55576 216.351199 
L 99.707263 216.86699 
L 99.896642 217.772363 
L 100.205059 219.49663 
L 100.210469 219.495874 
L 100.464778 220.842164 
L 100.6758 221.891416 
L 100.756962 222.256642 
L 100.886822 222.736248 
L 101.617282 225.532209 
L 101.763374 226.150975 
L 101.898645 226.689224 
L 101.952753 226.844515 
L 102.093434 227.507146 
L 102.125899 227.606496 
L 103.061971 231.436715 
L 103.208063 231.776524 
L 105.669986 240.080994 
L 105.707861 240.166174 
L 105.853954 240.747946 
L 105.929705 240.879553 
L 106.081208 241.406408 
L 106.151549 241.628607 
L 106.465376 242.660748 
L 106.524895 242.726265 
L 106.649344 243.121306 
L 106.817079 243.475639 
L 106.827901 243.475018 
L 106.838723 243.572732 
L 106.844133 243.582045 
L 106.957761 243.845095 
L 107.125496 244.274009 
L 107.244534 244.550159 
L 107.363572 244.914249 
L 107.368983 244.911905 
L 107.580005 245.494077 
L 107.639524 245.594962 
L 107.834313 246.036567 
L 108.86778 248.641289 
L 109.095034 249.135741 
L 109.13291 249.235309 
L 109.289824 249.88234 
L 109.295234 249.880908 
L 109.338521 249.979219 
L 109.571186 250.458957 
L 109.576597 250.456752 
L 109.646938 250.544966 
L 110.339522 251.827315 
L 110.45856 252.127826 
L 110.474793 252.123372 
L 110.528901 252.229995 
L 110.712869 252.754436 
L 110.929302 253.022453 
L 110.940123 253.017442 
L 110.98341 253.114175 
L 111.145734 253.478978 
L 112.612066 255.967676 
L 112.736515 256.199599 
L 113.023289 256.537201 
L 113.077397 256.621203 
L 113.223489 256.823589 
L 113.315473 256.937625 
L 113.537316 257.46069 
L 113.970182 258.005464 
L 114.132507 258.326058 
L 114.343528 258.614703 
L 114.359761 258.615295 
L 114.397637 258.698935 
L 114.522085 258.780544 
L 114.635713 258.915453 
L 114.733107 259.088053 
L 114.765572 259.07771 
L 115.01447 259.42084 
L 115.187616 259.664791 
L 116.610662 261.501159 
L 116.767575 261.693302 
L 117.811863 263.052098 
L 117.963366 263.211002 
L 117.979599 263.203717 
L 118.071583 263.310377 
L 118.439518 263.790487 
L 118.509859 263.811938 
L 118.520681 263.840399 
L 118.655951 264.041255 
L 118.791222 264.241207 
L 118.953546 264.580954 
L 118.958957 264.577663 
L 119.034708 264.744861 
L 119.169979 265.056259 
L 119.359358 265.366817 
L 119.489217 265.563861 
L 119.597434 265.638376 
L 119.83551 265.952061 
L 121.171982 267.543231 
L 121.301842 267.699035 
L 121.318074 267.751284 
L 121.339717 267.751792 
L 121.469577 267.94337 
L 121.572383 268.028199 
L 121.707653 268.234757 
L 121.713064 268.233245 
L 121.729296 268.269046 
L 121.761761 268.299866 
L 121.88621 268.49948 
L 121.897032 268.496925 
L 122.048535 268.667663 
L 122.200038 268.911623 
L 122.221681 268.916629 
L 122.243324 269.013323 
L 123.731299 270.853884 
L 123.812462 270.946798 
L 123.974786 271.073129 
L 124.055948 271.139788 
L 124.218273 271.347012 
L 124.380598 271.490471 
L 124.386008 271.487238 
L 124.467171 271.600623 
L 124.651138 271.853343 
L 124.66196 271.849173 
L 124.808052 271.981765 
L 124.932501 272.120598 
L 124.986609 272.148788 
L 125.002842 272.208703 
L 125.062361 272.333175 
L 125.18681 272.464034 
L 125.803643 272.918031 
L 125.922681 273.054019 
L 125.933503 273.050014 
L 126.090416 273.229058 
L 126.382601 273.430802 
L 126.539514 273.61278 
L 126.691017 273.772253 
L 126.97238 273.973272 
L 130.337909 276.721935 
L 130.435304 276.797524 
L 130.646326 276.956154 
L 131.014262 277.175744 
L 131.1333 277.252781 
L 131.144121 277.248733 
L 131.349732 277.369937 
L 132.38861 278.050318 
L 132.534702 278.161391 
L 132.778188 278.496357 
L 132.940513 278.696154 
L 133.016265 278.75214 
L 133.021675 278.776025 
L 133.205643 279.015175 
L 133.335503 279.21258 
L 133.822477 279.688339 
L 134.114661 279.963149 
L 134.206645 280.064177 
L 134.525883 280.235522 
L 134.63951 280.315576 
L 134.780191 280.383931 
L 135.310452 280.718252 
L 135.434901 280.7779 
L 135.553939 280.836319 
L 135.559349 280.834272 
L 136.414259 281.661069 
L 136.576583 281.738532 
L 137.047325 281.937266 
L 137.41526 282.117094 
L 137.550531 282.17253 
L 137.902234 282.341283 
L 138.161953 282.442054 
L 138.686803 282.71266 
L 138.843716 282.781928 
L 138.978987 282.823934 
L 139.13049 282.871793 
L 139.363155 283.001682 
L 139.574177 283.080851 
L 139.704037 283.177336 
L 139.817664 283.220967 
L 139.823075 283.234873 
L 139.947524 283.347505 
L 139.952934 283.345686 
L 140.201832 283.491648 
L 140.337103 283.548531 
L 140.504838 283.677627 
L 140.667162 283.728263 
L 140.802433 283.800223 
L 140.997222 283.86624 
L 141.154136 283.909808 
L 141.359747 283.986745 
L 141.587002 284.076634 
L 141.738505 284.130924 
L 143.664756 285.123591 
L 143.805437 285.201491 
L 143.935297 285.289737 
L 144.346519 285.566572 
L 144.48179 285.77695 
L 145.298823 286.23698 
L 145.439505 286.30578 
L 145.904835 286.610194 
L 146.007641 286.700334 
L 146.197019 286.786727 
L 146.321468 286.883258 
L 146.337701 286.87738 
L 146.754334 287.091873 
L 146.867961 287.155132 
L 147.019464 287.249082 
L 147.12768 287.318606 
L 147.668762 287.570856 
L 147.831087 287.647708 
L 148.231487 287.74846 
L 148.442509 287.888695 
L 148.621066 287.960041 
L 148.734693 288.05666 
L 148.745515 288.052906 
L 150.785394 288.823513 
L 150.931486 288.862933 
L 151.266957 288.933716 
L 151.42387 288.992609 
L 151.824271 289.160891 
L 152.002828 289.210431 
L 152.717056 289.523498 
L 152.884792 289.585651 
L 153.155333 289.734934 
L 154.102226 290.045927 
L 154.286194 290.122367 
L 154.729881 290.191666 
L 154.908438 290.235674 
L 155.124871 290.265835 
L 158.723065 291.042012 
L 158.95573 291.06644 
L 159.485991 291.193515 
L 159.691602 291.212301 
L 160.070359 291.329313 
L 160.270559 291.389576 
L 160.422062 291.449389 
L 160.530279 291.503713 
L 160.5411 291.500651 
L 162.029076 291.903763 
L 162.164346 291.924314 
L 164.696609 292.438688 
L 164.923864 292.474179 
L 165.221459 292.557378 
L 165.454124 292.5947 
L 165.632681 292.633343 
L 165.789595 292.691417 
L 166.525466 292.751643 
L 166.698612 292.787961 
L 166.850115 292.816596 
L 167.044905 292.841335 
L 167.364143 292.893913 
L 167.494003 292.921974 
L 167.959333 293.035895 
L 168.294804 293.121217 
L 168.473361 293.147848 
L 168.706026 293.176896 
L 169.679973 293.404085 
L 169.85312 293.44742 
L 169.982979 293.466641 
L 170.242699 293.536317 
L 170.675564 293.53466 
L 170.837889 293.565383 
L 171.303219 293.588101 
L 171.433079 293.669454 
L 171.43849 293.666951 
L 171.849712 293.689531 
L 172.039091 293.695556 
L 172.244702 293.706365 
L 172.407026 293.716043 
L 172.753319 293.734013 
L 172.985984 293.774795 
L 173.705623 293.860529 
L 174.068148 293.846105 
L 174.982576 293.99101 
L 175.696804 294.024012 
L 175.815842 294.019231 
L 176.043096 294.073338 
L 176.259529 294.093904 
L 176.508427 294.150377 
L 179.430269 294.535366 
L 179.717043 294.546223 
L 180.241892 294.630136 
L 180.458325 294.613224 
L 180.750509 294.611157 
L 181.004817 294.656072 
L 181.621651 294.810209 
L 181.875959 294.805791 
L 182.059927 294.861768 
L 182.54149 294.90831 
L 182.963534 294.898756 
L 183.109626 294.941176 
L 183.353113 294.946734 
L 183.856319 294.952449 
L 183.953714 294.968532 
L 183.969946 294.96427 
L 184.300006 294.953084 
L 184.45692 294.950664 
L 185.441689 295.064131 
L 185.658122 295.08041 
L 186.210025 295.086603 
L 186.426458 295.085393 
L 186.669945 295.102926 
L 187.633071 295.12757 
L 187.871147 295.112831 
L 188.02806 295.142626 
L 188.428461 295.202073 
L 188.55291 295.209105 
L 188.801807 295.206874 
L 189.115635 295.226098 
L 189.662128 295.258728 
L 189.846096 295.273675 
L 190.20862 295.299001 
L 190.479161 295.277752 
L 195.451704 295.449809 
L 195.635672 295.466446 
L 196.631262 295.474296 
L 196.842284 295.475993 
L 197.799999 295.436792 
L 197.967735 295.433393 
L 198.811822 295.440851 
L 199.807413 295.395617 
L 199.926451 295.420151 
L 200.278154 295.383291 
L 201.338675 295.294528 
L 201.722843 295.268209 
L 202.36132 295.245092 
L 202.539877 295.258573 
L 203.329856 295.201766 
L 203.503002 295.194847 
L 204.08196 295.099509 
L 204.617631 295.023663 
L 204.866529 295.046364 
L 205.039675 295.043085 
L 206.12725 294.966957 
L 207.236468 294.92507 
L 207.360916 294.915272 
L 207.663922 294.880516 
L 207.815425 294.879256 
L 208.334864 294.852634 
L 208.843481 294.810841 
L 209.065324 294.809069 
L 210.033861 294.774652 
L 210.298991 294.758073 
L 210.428851 294.758356 
L 210.721035 294.740721 
L 211.029452 294.798145 
L 211.197187 294.873056 
L 211.397387 294.880415 
L 211.521836 295.099428 
L 211.527247 295.096826 
L 211.673339 295.135835 
L 211.992577 295.139315 
L 212.187367 295.152199 
L 212.333459 295.18316 
L 212.447086 295.302479 
L 212.457908 295.300842 
L 212.728449 295.345389 
L 212.858308 295.352986 
L 215.558307 295.255111 
L 215.920832 295.25359 
L 216.310411 295.23075 
L 216.672936 295.224389 
L 216.986763 295.20944 
L 218.047284 295.157311 
L 218.171733 295.152113 
L 218.409809 295.145173 
L 219.178145 295.09316 
L 219.616421 295.0727 
L 220.168325 295.065332 
L 220.309006 295.052922 
L 220.628244 295.060678 
L 222.857502 295.035237 
L 223.247081 294.988598 
L 223.431049 294.979307 
L 224.026239 294.9505 
L 224.356299 294.918489 
L 224.513212 294.922974 
L 225.059705 294.837065 
L 225.200386 294.819742 
L 225.519625 294.823488 
L 226.190566 294.788855 
L 226.682951 294.725022 
L 226.81281 294.734399 
L 227.429644 294.701317 
L 227.597379 294.699448 
L 227.927439 294.677355 
L 228.457699 294.645275 
L 228.901386 294.591646 
L 229.426236 294.544231 
L 229.58315 294.536019 
L 229.967318 294.499208 
L 232.737657 294.173911 
L 233.013609 294.140442 
L 233.392366 294.108103 
L 233.706194 294.099703 
L 233.965913 294.07778 
L 236.822825 293.768583 
L 237.077134 293.73912 
L 238.667915 293.520091 
L 238.857293 293.50083 
L 245.783141 292.537394 
L 246.205185 292.44744 
L 246.524424 292.411343 
L 246.984343 292.319052 
L 247.541658 292.275007 
L 247.925826 292.200598 
L 248.142258 292.165835 
L 248.531837 292.097279 
L 248.694162 292.082962 
L 249.00799 292.035748 
L 249.132438 292.020988 
L 250.4635 291.854403 
L 250.712397 291.802428 
L 251.78915 291.627819 
L 252.24907 291.545976 
L 252.427627 291.527458 
L 252.77933 291.44432 
L 254.115803 291.27007 
L 254.554079 291.184903 
L 254.802977 291.146058 
L 255.998768 290.923264 
L 257.172915 290.7183 
L 257.524618 290.65474 
L 258.888145 290.421207 
L 259.164097 290.363332 
L 259.542854 290.289242 
L 260.067703 290.199319 
L 260.619607 290.077983 
L 260.83604 290.063971 
L 261.252673 290.012611 
L 267.437239 288.896584 
L 267.832228 288.816216 
L 268.021607 288.780889 
L 268.389543 288.701942 
L 268.557278 288.676125 
L 268.914392 288.612958 
L 269.060484 288.606061 
L 269.498761 288.511856 
L 270.066897 288.393317 
L 270.905574 288.23493 
L 271.47912 288.165211 
L 271.998559 288.065742 
L 272.593749 287.96142 
L 273.05908 287.883666 
L 273.832827 287.773703 
L 274.525411 287.642765 
L 284.876308 285.433303 
L 285.28753 285.349587 
L 286.575305 285.066461 
L 286.764684 285.018117 
L 287.478912 284.810665 
L 287.760275 284.767752 
L 288.804563 284.527331 
L 290.005764 284.261959 
L 290.89855 284.052019 
L 291.23402 283.993902 
L 291.574902 283.910872 
L 291.89414 283.845441 
L 292.803158 283.64434 
L 293.14945 283.575554 
L 293.988127 283.407252 
L 294.448047 283.29974 
L 302.147642 281.647752 
L 302.548043 281.564289 
L 303.65185 281.295034 
L 304.019785 281.203627 
L 304.945035 280.970565 
L 306.119183 280.698924 
L 306.254454 280.676804 
L 308.40796 280.187884 
L 308.597338 280.138843 
L 309.73361 279.894036 
L 309.993329 279.838038 
L 310.685914 279.651812 
L 311.805954 279.37928 
L 312.368679 279.238254 
L 312.677096 279.176371 
L 313.748438 278.899537 
L 314.089319 278.828701 
L 314.446433 278.741587 
L 314.906353 278.649471 
L 315.355451 278.53333 
L 315.485311 278.511507 
L 315.956052 278.389473 
L 318.142023 277.853899 
L 318.304347 277.818117 
L 318.748034 277.71929 
L 320.484907 277.281794 
L 321.204546 277.093902 
L 360.730578 266.791506 
L 361.20673 266.645534 
L 362.007532 266.410636 
L 362.45663 266.28111 
L 373.337786 263.28261 
L 374.084479 263.041741 
L 374.544399 262.901809 
L 375.523757 262.62159 
L 381.151009 261.003791 
L 381.432372 260.910036 
L 382.092491 260.704587 
L 383.53718 260.299303 
L 384.181068 260.099713 
L 390.971645 258.066959 
L 391.815733 257.825242 
L 392.373047 257.65542 
L 393.152205 257.425623 
L 393.71493 257.258686 
L 394.50491 257.018029 
L 396.441983 256.415177 
L 396.690881 256.333319 
L 397.188676 256.187011 
L 398.048996 255.930309 
L 398.487273 255.7939 
L 398.487273 255.7939 
" style="fill:none;stroke:#1f77b4;stroke-linecap:square;stroke-width:1.5;"/>
   </g>
   <g id="patch_3">
    <path d="M 57.6 307.584 
L 57.6 41.472 
" style="fill:none;stroke:#000000;stroke-linecap:square;stroke-linejoin:miter;stroke-width:0.8;"/>
   </g>
   <g id="patch_4">
    <path d="M 414.72 307.584 
L 414.72 41.472 
" style="fill:none;stroke:#000000;stroke-linecap:square;stroke-linejoin:miter;stroke-width:0.8;"/>
   </g>
   <g id="patch_5">
    <path d="M 57.6 307.584 
L 414.72 307.584 
" style="fill:none;stroke:#000000;stroke-linecap:square;stroke-linejoin:miter;stroke-width:0.8;"/>
   </g>
   <g id="patch_6">
    <path d="M 57.6 41.472 
L 414.72 41.472 
" style="fill:none;stroke:#000000;stroke-linecap:square;stroke-linejoin:miter;stroke-width:0.8;"/>
   </g>
   <g id="text_18">
    <!-- 训练过程 -->
    <defs>
     <path d="M 25.78125 51.5625 
Q 25.390625 42.578125 25.390625 34.765625 
L 25.390625 10.546875 
Q 30.46875 17.578125 32.03125 19.921875 
Q 33.984375 17.578125 36.71875 14.0625 
Q 31.640625 7.8125 28.125 3.3125 
Q 24.609375 -1.171875 20.703125 -6.640625 
Q 17.96875 -3.125 14.84375 -0.78125 
Q 17.96875 3.515625 17.96875 9.765625 
L 17.96875 44.921875 
L 15.234375 44.921875 
Q 9.375 44.921875 4.6875 44.53125 
L 4.6875 51.953125 
Q 9.375 51.5625 15.234375 51.5625 
z
M 53.515625 71.875 
Q 52.734375 67.96875 52.921875 52.53125 
Q 53.125 37.109375 52.140625 29.484375 
Q 51.171875 21.875 48.234375 13.078125 
Q 45.3125 4.296875 38.28125 -5.859375 
Q 34.765625 -3.125 30.859375 -1.953125 
Q 39.84375 7.8125 43.15625 21.28125 
Q 46.484375 34.765625 46.09375 52.140625 
Q 45.703125 69.53125 45.3125 73.046875 
Q 49.21875 72.265625 53.515625 71.875 
z
M 91.796875 73.4375 
Q 91.40625 70.3125 91.40625 62.109375 
L 91.40625 9.765625 
Q 91.40625 1.953125 91.796875 -6.25 
L 84.375 -6.25 
Q 84.765625 1.953125 84.765625 9.375 
L 84.765625 62.109375 
Q 84.765625 70.3125 84.375 73.4375 
L 91.796875 73.4375 
z
M 71.875 2.734375 
L 64.453125 2.734375 
Q 64.84375 11.328125 64.84375 17.96875 
L 64.84375 56.25 
Q 64.84375 63.28125 64.453125 67.96875 
L 71.875 67.96875 
z
M 15.625 80.46875 
Q 25.78125 71.875 32.8125 64.0625 
Q 29.296875 61.328125 27.34375 58.59375 
Q 16.40625 71.09375 10.9375 75 
Q 13.28125 77.34375 15.625 80.46875 
z
" id="SimHei-8bad"/>
     <path d="M 51.5625 59.765625 
Q 46.09375 59.765625 37.5 59.375 
L 37.5 66.40625 
Q 46.09375 66.015625 51.953125 66.015625 
L 56.640625 66.015625 
Q 60.546875 77.34375 60.9375 80.859375 
Q 65.625 78.515625 69.53125 76.953125 
Q 67.96875 75.390625 66.59375 72.0625 
Q 65.234375 68.75 64.0625 66.015625 
L 78.515625 66.015625 
Q 84.765625 66.015625 92.1875 66.40625 
L 92.1875 59.375 
Q 86.71875 59.765625 78.515625 59.765625 
L 62.109375 59.765625 
Q 60.15625 55.078125 57.8125 49.21875 
L 73.046875 49.21875 
Q 72.65625 44.921875 72.65625 38.671875 
L 72.65625 30.859375 
L 77.734375 30.859375 
Q 83.59375 30.859375 90.625 31.25 
L 90.625 24.21875 
Q 83.59375 24.609375 77.734375 24.609375 
L 72.65625 24.609375 
L 72.65625 1.953125 
Q 72.65625 -4.6875 69.71875 -6.640625 
Q 66.796875 -8.59375 57.03125 -9.765625 
Q 56.640625 -5.859375 53.90625 -1.5625 
Q 63.671875 -1.953125 64.640625 -0.390625 
Q 65.625 1.171875 65.625 5.078125 
L 65.625 24.609375 
L 53.515625 24.609375 
Q 50.78125 24.609375 48.4375 24.40625 
Q 46.09375 24.21875 42.96875 23.046875 
Q 41.40625 26.953125 39.84375 30.46875 
Q 43.75 31.640625 48.828125 43.359375 
Q 46.09375 43.359375 38.28125 42.96875 
L 38.28125 49.609375 
Q 47.265625 49.21875 50.78125 49.21875 
Q 53.125 55.078125 54.6875 59.765625 
z
M 25.78125 46.09375 
Q 29.296875 51.5625 32.8125 60.9375 
Q 36.328125 58.203125 40.234375 56.25 
Q 36.328125 51.171875 31.640625 42.96875 
Q 26.953125 34.765625 16.796875 21.09375 
Q 20.3125 21.875 37.5 24.609375 
Q 36.71875 20.3125 37.109375 17.96875 
Q 28.515625 17.1875 10.15625 12.890625 
Q 8.203125 16.796875 6.25 19.921875 
Q 9.765625 21.875 13.859375 27.140625 
Q 17.96875 32.421875 22.65625 40.234375 
Q 20.3125 40.625 15.8125 40.03125 
Q 11.328125 39.453125 7.03125 38.28125 
Q 5.46875 41.796875 3.90625 45.703125 
Q 7.8125 48.046875 12.6875 58.203125 
Q 17.578125 68.359375 20.703125 78.125 
Q 25 75.390625 28.90625 74.21875 
Q 25 68.359375 21.671875 61.90625 
Q 18.359375 55.46875 12.5 45.703125 
Q 21.484375 45.703125 25.78125 46.09375 
z
M 37.890625 10.9375 
Q 37.5 6.640625 37.890625 3.90625 
Q 31.25 2.34375 22.84375 -0.390625 
Q 14.453125 -3.125 7.421875 -6.640625 
Q 6.25 -2.34375 4.6875 1.953125 
Q 14.84375 4.296875 18.546875 5.265625 
Q 22.265625 6.25 37.890625 10.9375 
z
M 58.203125 13.671875 
Q 57.03125 12.5 51.359375 6.25 
Q 45.703125 0 38.671875 -7.421875 
Q 35.9375 -3.90625 33.59375 -1.953125 
Q 37.890625 1.5625 42.96875 7.21875 
Q 48.046875 12.890625 51.953125 19.140625 
Q 54.296875 16.40625 58.203125 13.671875 
z
M 82.421875 19.140625 
Q 92.578125 5.859375 96.875 -1.5625 
Q 92.96875 -3.125 89.84375 -5.859375 
Q 85.546875 2.734375 76.5625 14.84375 
Q 79.296875 16.40625 82.421875 19.140625 
z
M 65.625 30.859375 
L 65.625 43.359375 
L 55.859375 43.359375 
Q 51.953125 35.15625 49.609375 30.859375 
z
" id="SimHei-7ec3"/>
     <path d="M 3.90625 -3.125 
Q 16.015625 7.421875 19.921875 10.15625 
L 19.921875 38.671875 
Q 10.546875 38.671875 6.25 38.28125 
L 6.25 46.09375 
Q 9.765625 45.3125 20.703125 45.3125 
L 28.125 45.3125 
Q 27.734375 39.453125 27.734375 33.59375 
L 27.734375 9.375 
Q 39.0625 -0.390625 61.125 -0.578125 
Q 83.203125 -0.78125 96.09375 1.171875 
Q 93.75 -2.734375 92.578125 -8.59375 
L 69.140625 -8.59375 
Q 59.375 -8.59375 51.171875 -8 
Q 42.96875 -7.421875 37.296875 -4.6875 
Q 31.640625 -1.953125 27.34375 1.171875 
Q 23.046875 4.296875 19.328125 0.578125 
Q 15.625 -3.125 10.9375 -9.765625 
Q 8.59375 -5.859375 3.90625 -3.125 
z
M 56.640625 13.28125 
Q 65.625 12.890625 67.96875 13.671875 
Q 70.3125 14.453125 70.3125 20.3125 
L 70.3125 55.859375 
L 44.921875 55.859375 
Q 40.625 55.859375 35.546875 55.46875 
L 35.546875 62.890625 
Q 40.625 62.5 48.046875 62.5 
L 70.3125 62.5 
Q 70.3125 72.65625 69.53125 80.078125 
L 78.515625 80.078125 
Q 78.125 75 78.125 62.5 
Q 86.328125 62.5 92.96875 62.890625 
L 92.96875 55.46875 
Q 86.71875 55.859375 78.125 55.859375 
L 78.125 17.1875 
Q 78.125 8.203125 72.84375 6.4375 
Q 67.578125 4.6875 59.765625 4.296875 
Q 58.984375 8.59375 56.640625 13.28125 
z
M 48.828125 25 
Q 45.3125 35.546875 40.234375 44.53125 
Q 43.75 46.09375 47.65625 48.828125 
Q 54.6875 34.765625 56.640625 29.296875 
Q 53.90625 27.734375 48.828125 25 
z
M 17.96875 77.734375 
Q 21.875 73.046875 30.078125 60.546875 
Q 26.171875 58.203125 22.65625 55.46875 
Q 14.84375 68.75 10.9375 72.265625 
Q 14.453125 74.21875 17.96875 77.734375 
z
" id="SimHei-8fc7"/>
     <path d="M 91.015625 77.734375 
Q 90.625 69.140625 90.625 62.109375 
Q 90.625 55.46875 91.015625 48.828125 
L 47.265625 48.828125 
Q 47.65625 56.25 47.65625 62.890625 
Q 47.65625 69.53125 47.265625 77.734375 
L 91.015625 77.734375 
z
M 6.25 75.390625 
Q 12.890625 76.171875 21.28125 77.921875 
Q 29.6875 79.6875 35.546875 82.421875 
Q 38.28125 77.34375 41.015625 73.828125 
Q 38.28125 74.21875 35.34375 73.625 
Q 32.421875 73.046875 28.90625 72.65625 
L 28.90625 53.515625 
Q 34.375 53.515625 40.625 53.90625 
L 40.625 46.484375 
Q 34.375 46.875 28.90625 46.875 
L 28.90625 12.5 
Q 28.90625 3.90625 29.296875 -10.546875 
L 21.484375 -10.546875 
Q 21.875 3.90625 21.875 12.109375 
L 21.875 30.078125 
Q 16.40625 19.140625 9.765625 9.375 
Q 7.03125 13.28125 3.515625 16.40625 
Q 8.984375 21.875 13.28125 28.90625 
Q 17.578125 35.9375 21.09375 46.875 
Q 11.328125 46.875 6.640625 46.484375 
L 6.640625 53.90625 
Q 13.28125 53.515625 16.40625 53.515625 
L 21.875 53.515625 
L 21.875 71.09375 
Q 16.796875 69.921875 8.984375 68.75 
Q 7.8125 72.265625 6.25 75.390625 
z
M 79.6875 39.0625 
Q 85.9375 39.0625 92.96875 39.453125 
L 92.96875 32.421875 
Q 85.9375 32.8125 79.6875 32.8125 
L 72.265625 32.8125 
L 72.265625 20.3125 
L 76.5625 20.3125 
Q 82.421875 20.3125 90.234375 20.703125 
L 90.234375 13.28125 
Q 82.421875 13.671875 77.734375 13.671875 
L 72.265625 13.671875 
L 72.265625 0 
L 81.640625 0 
Q 88.671875 0 96.484375 0.390625 
L 96.484375 -7.03125 
Q 90.234375 -6.640625 81.640625 -6.640625 
L 55.46875 -6.640625 
Q 46.875 -6.640625 40.625 -7.421875 
L 40.625 0.390625 
Q 46.875 0 55.46875 0 
L 64.84375 0 
L 64.84375 13.671875 
L 59.375 13.671875 
Q 53.125 13.671875 47.65625 12.890625 
L 47.65625 20.703125 
Q 53.125 20.3125 59.375 20.3125 
L 64.84375 20.3125 
L 64.84375 32.8125 
L 58.59375 32.8125 
Q 51.5625 32.8125 45.3125 32.421875 
L 45.3125 39.453125 
Q 51.5625 39.0625 58.59375 39.0625 
z
M 82.421875 55.859375 
L 82.421875 71.09375 
L 54.6875 71.09375 
L 54.6875 55.859375 
z
M 35.9375 37.5 
Q 39.84375 31.640625 44.140625 23.828125 
Q 41.796875 22.265625 37.890625 19.140625 
Q 33.984375 27.734375 30.078125 33.203125 
Q 32.421875 35.15625 35.9375 37.5 
z
" id="SimHei-7a0b"/>
    </defs>
    <g transform="translate(212.16 35.472)scale(0.12 -0.12)">
     <use xlink:href="#SimHei-8bad"/>
     <use x="100" xlink:href="#SimHei-7ec3"/>
     <use x="200" xlink:href="#SimHei-8fc7"/>
     <use x="300" xlink:href="#SimHei-7a0b"/>
    </g>
   </g>
  </g>
 </g>
 <defs>
  <clipPath id="p70f5a5d07c">
   <rect height="266.112" width="357.12" x="57.6" y="41.472"/>
  </clipPath>
 </defs>
</svg>
