<?xml version="1.0" encoding="utf-8" standalone="no"?>
<!DOCTYPE svg PUBLIC "-//W3C//DTD SVG 1.1//EN"
  "http://www.w3.org/Graphics/SVG/1.1/DTD/svg11.dtd">
<!-- Created with matplotlib (http://matplotlib.org/) -->
<svg height="345.6pt" version="1.1" viewBox="0 0 460.8 345.6" width="460.8pt" xmlns="http://www.w3.org/2000/svg" xmlns:xlink="http://www.w3.org/1999/xlink">
 <defs>
  <style type="text/css">
*{stroke-linecap:butt;stroke-linejoin:round;}
  </style>
 </defs>
 <g id="figure_1">
  <g id="patch_1">
   <path d="M 0 345.6 
L 460.8 345.6 
L 460.8 0 
L 0 0 
z
" style="fill:#ffffff;"/>
  </g>
  <g id="axes_1">
   <g id="patch_2">
    <path d="M 57.6 307.584 
L 414.72 307.584 
L 414.72 41.472 
L 57.6 41.472 
z
" style="fill:#ffffff;"/>
   </g>
   <g id="matplotlib.axis_1">
    <g id="xtick_1">
     <g id="line2d_1">
      <defs>
       <path d="M 0 0 
L 0 3.5 
" id="m445da2a355" style="stroke:#000000;stroke-width:0.8;"/>
      </defs>
      <g>
       <use style="stroke:#000000;stroke-width:0.8;" x="73.832727" xlink:href="#m445da2a355" y="307.584"/>
      </g>
     </g>
     <g id="text_1">
      <!-- 0 -->
      <defs>
       <path d="M 3.125 29.296875 
Q 3.90625 50 6.4375 56.046875 
Q 8.984375 62.109375 13.671875 66.015625 
Q 18.359375 69.921875 25.1875 69.921875 
Q 32.03125 69.921875 37.109375 64.25 
Q 42.1875 58.59375 43.75 50 
Q 45.3125 41.40625 44.71875 30.265625 
Q 44.140625 19.140625 40.8125 12.109375 
Q 37.5 5.078125 30.859375 2.34375 
Q 24.21875 -0.390625 17.578125 2.921875 
Q 10.9375 6.25 8.203125 11.71875 
Q 5.46875 17.1875 4.296875 23.234375 
Q 3.125 29.296875 3.90625 50 
z
M 12.890625 52.734375 
Q 10.546875 31.25 12.5 22.84375 
Q 14.453125 14.453125 18.9375 10.9375 
Q 23.4375 7.421875 28.125 9.5625 
Q 32.8125 11.71875 34.953125 18.15625 
Q 37.109375 24.609375 37.109375 32.21875 
Q 37.109375 39.84375 36.515625 46.09375 
Q 35.9375 52.34375 33 57.421875 
Q 30.078125 62.5 25.1875 62.6875 
Q 20.3125 62.890625 16.59375 57.8125 
Q 12.890625 52.734375 10.546875 31.25 
z
" id="SimHei-30"/>
      </defs>
      <g transform="translate(71.332727 321.459)scale(0.1 -0.1)">
       <use xlink:href="#SimHei-30"/>
      </g>
     </g>
    </g>
    <g id="xtick_2">
     <g id="line2d_2">
      <g>
       <use style="stroke:#000000;stroke-width:0.8;" x="138.762338" xlink:href="#m445da2a355" y="307.584"/>
      </g>
     </g>
     <g id="text_2">
      <!-- 10 -->
      <defs>
       <path d="M 21.875 56.25 
Q 16.796875 51.171875 8.984375 46.484375 
L 8.984375 53.90625 
Q 18.75 60.546875 25 69.53125 
L 29.6875 69.53125 
L 29.6875 2.34375 
L 21.875 2.34375 
z
" id="SimHei-31"/>
      </defs>
      <g transform="translate(133.762338 321.459)scale(0.1 -0.1)">
       <use xlink:href="#SimHei-31"/>
       <use x="50" xlink:href="#SimHei-30"/>
      </g>
     </g>
    </g>
    <g id="xtick_3">
     <g id="line2d_3">
      <g>
       <use style="stroke:#000000;stroke-width:0.8;" x="203.691948" xlink:href="#m445da2a355" y="307.584"/>
      </g>
     </g>
     <g id="text_3">
      <!-- 20 -->
      <defs>
       <path d="M 4.6875 3.90625 
Q 5.078125 9.765625 10.15625 14.453125 
Q 15.234375 19.140625 23.046875 29.09375 
Q 30.859375 39.0625 33.203125 44.53125 
Q 35.546875 50 34.953125 53.90625 
Q 34.375 57.8125 31.25 60.34375 
Q 28.125 62.890625 24.015625 62.5 
Q 19.921875 62.109375 16.203125 59.375 
Q 12.5 56.640625 10.546875 51.171875 
L 3.125 52.34375 
Q 6.25 61.328125 11.125 65.421875 
Q 16.015625 69.53125 22.65625 69.921875 
Q 26.5625 70.3125 29.6875 69.71875 
Q 32.8125 69.140625 36.125 66.984375 
Q 39.453125 64.84375 41.59375 60.546875 
Q 43.75 56.25 43.15625 50.1875 
Q 42.578125 44.140625 37.109375 35.734375 
Q 31.640625 27.34375 16.015625 9.375 
L 44.140625 9.375 
L 44.140625 2.34375 
L 4.6875 2.34375 
z
" id="SimHei-32"/>
      </defs>
      <g transform="translate(198.691948 321.459)scale(0.1 -0.1)">
       <use xlink:href="#SimHei-32"/>
       <use x="50" xlink:href="#SimHei-30"/>
      </g>
     </g>
    </g>
    <g id="xtick_4">
     <g id="line2d_4">
      <g>
       <use style="stroke:#000000;stroke-width:0.8;" x="268.621559" xlink:href="#m445da2a355" y="307.584"/>
      </g>
     </g>
     <g id="text_4">
      <!-- 30 -->
      <defs>
       <path d="M 3.90625 19.140625 
L 10.9375 20.3125 
Q 12.5 15.234375 16.015625 11.90625 
Q 19.53125 8.59375 24.796875 8.78125 
Q 30.078125 8.984375 33.203125 13.078125 
Q 36.328125 17.1875 35.9375 22.453125 
Q 35.546875 27.734375 31.828125 30.65625 
Q 28.125 33.59375 19.921875 34.765625 
L 19.921875 39.84375 
Q 28.125 40.625 31.828125 44.140625 
Q 35.546875 47.65625 35.15625 53.3125 
Q 34.765625 58.984375 30.078125 61.515625 
Q 25.390625 64.0625 20.109375 62.109375 
Q 14.84375 60.15625 11.71875 51.171875 
L 4.6875 52.34375 
Q 7.03125 59.375 11.125 64.0625 
Q 15.234375 68.75 22.265625 69.53125 
Q 29.296875 70.3125 34.5625 67.765625 
Q 39.84375 65.234375 41.984375 59.953125 
Q 44.140625 54.6875 42.578125 48.4375 
Q 41.015625 42.1875 33.59375 37.5 
Q 39.0625 35.15625 41.984375 30.46875 
Q 44.921875 25.78125 43.9375 18.15625 
Q 42.96875 10.546875 37.109375 5.859375 
Q 31.25 1.171875 23.828125 1.359375 
Q 16.40625 1.5625 10.9375 6.046875 
Q 5.46875 10.546875 3.90625 19.140625 
z
" id="SimHei-33"/>
      </defs>
      <g transform="translate(263.621559 321.459)scale(0.1 -0.1)">
       <use xlink:href="#SimHei-33"/>
       <use x="50" xlink:href="#SimHei-30"/>
      </g>
     </g>
    </g>
    <g id="xtick_5">
     <g id="line2d_5">
      <g>
       <use style="stroke:#000000;stroke-width:0.8;" x="333.551169" xlink:href="#m445da2a355" y="307.584"/>
      </g>
     </g>
     <g id="text_5">
      <!-- 40 -->
      <defs>
       <path d="M 31.25 17.1875 
L 1.171875 17.1875 
L 1.171875 23.828125 
L 32.8125 69.53125 
L 38.671875 69.53125 
L 38.671875 23.828125 
L 48.046875 23.828125 
L 48.046875 17.1875 
L 38.671875 17.1875 
L 38.671875 2.34375 
L 31.25 2.34375 
z
M 31.25 23.828125 
L 31.25 54.6875 
L 9.375 23.828125 
z
" id="SimHei-34"/>
      </defs>
      <g transform="translate(328.551169 321.459)scale(0.1 -0.1)">
       <use xlink:href="#SimHei-34"/>
       <use x="50" xlink:href="#SimHei-30"/>
      </g>
     </g>
    </g>
    <g id="xtick_6">
     <g id="line2d_6">
      <g>
       <use style="stroke:#000000;stroke-width:0.8;" x="398.48078" xlink:href="#m445da2a355" y="307.584"/>
      </g>
     </g>
     <g id="text_6">
      <!-- 50 -->
      <defs>
       <path d="M 8.59375 20.703125 
Q 11.328125 10.15625 17.96875 8.984375 
Q 24.609375 7.8125 28.703125 10.34375 
Q 32.8125 12.890625 34.5625 16.984375 
Q 36.328125 21.09375 36.125 26.171875 
Q 35.9375 31.25 33.390625 34.765625 
Q 30.859375 38.28125 26.953125 39.453125 
Q 23.046875 40.625 18.15625 39.453125 
Q 13.28125 38.28125 10.15625 33.984375 
L 3.515625 34.765625 
Q 4.296875 37.109375 10.9375 68.359375 
L 41.796875 68.359375 
L 41.796875 61.328125 
L 16.796875 61.328125 
Q 14.84375 50.78125 12.890625 44.53125 
Q 18.75 47.265625 23.828125 47.0625 
Q 28.90625 46.875 33.59375 44.71875 
Q 38.28125 42.578125 40.421875 38.859375 
Q 42.578125 35.15625 43.546875 31.4375 
Q 44.53125 27.734375 44.328125 23.4375 
Q 44.140625 19.140625 42.578125 14.640625 
Q 41.015625 10.15625 37.890625 7.21875 
Q 34.765625 4.296875 30.265625 2.53125 
Q 25.78125 0.78125 19.921875 1.171875 
Q 14.0625 1.5625 8.78125 5.46875 
Q 3.515625 9.375 1.5625 18.75 
z
" id="SimHei-35"/>
      </defs>
      <g transform="translate(393.48078 321.459)scale(0.1 -0.1)">
       <use xlink:href="#SimHei-35"/>
       <use x="50" xlink:href="#SimHei-30"/>
      </g>
     </g>
    </g>
    <g id="text_7">
     <!-- 回合/k -->
     <defs>
      <path d="M 88.28125 75.78125 
Q 87.890625 64.453125 87.890625 53.90625 
L 87.890625 14.84375 
Q 87.890625 4.6875 88.28125 -5.859375 
L 80.46875 -5.859375 
L 80.46875 1.5625 
L 18.359375 1.5625 
L 18.359375 -5.859375 
L 10.9375 -5.859375 
Q 11.328125 3.90625 11.328125 14.84375 
L 11.328125 53.90625 
Q 11.328125 64.0625 10.9375 75.78125 
L 88.28125 75.78125 
z
M 80.46875 7.8125 
L 80.46875 69.140625 
L 18.75 69.140625 
L 18.75 7.8125 
z
M 67.578125 54.6875 
Q 67.1875 48.828125 67.1875 42.96875 
L 67.1875 33.984375 
Q 67.1875 28.90625 67.578125 21.875 
L 31.640625 21.875 
Q 32.03125 28.90625 32.03125 33.984375 
L 32.03125 43.75 
Q 32.03125 49.21875 31.640625 54.6875 
L 67.578125 54.6875 
z
M 59.765625 28.515625 
L 59.765625 48.4375 
L 39.0625 48.4375 
L 39.0625 28.515625 
z
" id="SimHei-56de"/>
      <path d="M 78.90625 28.125 
Q 78.515625 24.21875 78.515625 10.15625 
Q 78.515625 -3.90625 78.90625 -8.203125 
L 70.703125 -8.203125 
L 70.703125 -0.78125 
L 27.34375 -0.78125 
L 27.34375 -9.375 
L 19.53125 -9.375 
Q 19.921875 -4.6875 19.921875 8.59375 
Q 19.921875 22.265625 19.53125 28.125 
L 78.90625 28.125 
z
M 52.734375 75 
Q 64.0625 61.328125 71.09375 56.25 
Q 78.125 51.171875 83.984375 48.4375 
Q 89.84375 45.703125 95.3125 44.140625 
Q 91.40625 39.84375 90.234375 35.9375 
Q 82.421875 39.453125 76.171875 43.359375 
Q 69.921875 47.265625 63.46875 53.3125 
Q 57.03125 59.375 48.828125 69.921875 
Q 41.40625 59.375 34.171875 52.53125 
Q 26.953125 45.703125 21.875 41.796875 
Q 16.796875 37.890625 10.546875 33.984375 
Q 9.765625 35.546875 4.296875 40.234375 
Q 12.5 44.140625 19.921875 49.609375 
Q 27.34375 55.078125 34.765625 63.46875 
Q 42.1875 71.875 46.875 81.640625 
Q 51.171875 78.90625 54.6875 77.34375 
z
M 70.703125 5.46875 
L 70.703125 21.875 
L 27.34375 21.875 
L 27.34375 5.46875 
z
M 61.328125 44.140625 
Q 67.578125 44.140625 72.265625 44.53125 
L 72.265625 37.109375 
Q 67.1875 37.5 61.71875 37.5 
L 39.84375 37.5 
Q 31.640625 37.5 26.5625 37.109375 
L 26.5625 44.53125 
Q 33.984375 44.140625 39.84375 44.140625 
z
" id="SimHei-5408"/>
      <path d="M 46.875 71.09375 
L 5.46875 -2.734375 
L 1.5625 -0.390625 
L 42.96875 73.4375 
z
" id="SimHei-2f"/>
      <path d="M 45.703125 1.953125 
L 36.71875 1.953125 
L 22.65625 25.78125 
L 13.671875 17.1875 
L 13.671875 1.953125 
L 5.859375 1.953125 
L 5.859375 68.75 
L 13.671875 68.75 
L 13.671875 26.171875 
L 33.203125 45.703125 
L 42.96875 45.703125 
L 27.734375 30.859375 
z
" id="SimHei-6b"/>
     </defs>
     <g transform="translate(213.66 338.486344)scale(0.15 -0.15)">
      <use xlink:href="#SimHei-56de"/>
      <use x="100" xlink:href="#SimHei-5408"/>
      <use x="200" xlink:href="#SimHei-2f"/>
      <use x="250" xlink:href="#SimHei-6b"/>
     </g>
    </g>
   </g>
   <g id="matplotlib.axis_2">
    <g id="ytick_1">
     <g id="line2d_7">
      <defs>
       <path d="M 0 0 
L -3.5 0 
" id="m2d62015b02" style="stroke:#000000;stroke-width:0.8;"/>
      </defs>
      <g>
       <use style="stroke:#000000;stroke-width:0.8;" x="57.6" xlink:href="#m2d62015b02" y="304.848901"/>
      </g>
     </g>
     <g id="text_8">
      <!-- -80000 -->
      <defs>
       <path d="M 46.484375 33.203125 
L 1.953125 33.203125 
L 1.953125 39.453125 
L 46.484375 39.453125 
z
" id="SimHei-2d"/>
       <path d="M 2.734375 16.796875 
Q 2.734375 26.171875 5.078125 30.65625 
Q 7.421875 35.15625 12.890625 37.890625 
Q 8.203125 40.625 6.640625 43.9375 
Q 5.078125 47.265625 4.875 51.5625 
Q 4.6875 55.859375 6.046875 58.984375 
Q 7.421875 62.109375 10.15625 64.84375 
Q 12.890625 67.578125 16.203125 68.546875 
Q 19.53125 69.53125 23.4375 69.53125 
Q 27.34375 69.53125 30.46875 68.75 
Q 33.59375 67.96875 37.109375 65.421875 
Q 40.625 62.890625 42.1875 58.203125 
Q 43.75 53.515625 41.984375 47.265625 
Q 40.234375 41.015625 32.8125 37.5 
Q 39.453125 35.546875 42.1875 31.4375 
Q 44.921875 27.34375 44.921875 21.484375 
Q 44.921875 15.625 43.15625 12.109375 
Q 41.40625 8.59375 39.25 6.25 
Q 37.109375 3.90625 33.390625 2.53125 
Q 29.6875 1.171875 24.015625 1.171875 
Q 18.359375 1.171875 14.25 2.53125 
Q 10.15625 3.90625 7.421875 6.640625 
Q 4.6875 9.375 3.703125 13.078125 
Q 2.734375 16.796875 2.734375 26.171875 
z
M 10.9375 26.5625 
Q 10.546875 17.1875 12.296875 13.671875 
Q 14.0625 10.15625 18.75 9.171875 
Q 23.4375 8.203125 28.515625 9.375 
Q 33.59375 10.546875 35.546875 14.84375 
Q 37.5 19.140625 36.90625 23.4375 
Q 36.328125 27.734375 32.03125 30.65625 
Q 27.734375 33.59375 22.65625 33.203125 
Q 17.578125 32.8125 14.25 29.6875 
Q 10.9375 26.5625 10.546875 17.1875 
z
M 12.109375 56.25 
Q 12.109375 48.4375 14.84375 44.921875 
Q 17.578125 41.40625 23.4375 41.40625 
Q 29.296875 41.40625 32.21875 44.921875 
Q 35.15625 48.4375 34.953125 53.3125 
Q 34.765625 58.203125 31.4375 60.546875 
Q 28.125 62.890625 22.453125 62.5 
Q 16.796875 62.109375 14.453125 59.171875 
Q 12.109375 56.25 12.109375 48.4375 
z
" id="SimHei-38"/>
      </defs>
      <g transform="translate(20.6 308.286401)scale(0.1 -0.1)">
       <use xlink:href="#SimHei-2d"/>
       <use x="50" xlink:href="#SimHei-38"/>
       <use x="100" xlink:href="#SimHei-30"/>
       <use x="150" xlink:href="#SimHei-30"/>
       <use x="200" xlink:href="#SimHei-30"/>
       <use x="250" xlink:href="#SimHei-30"/>
      </g>
     </g>
    </g>
    <g id="ytick_2">
     <g id="line2d_8">
      <g>
       <use style="stroke:#000000;stroke-width:0.8;" x="57.6" xlink:href="#m2d62015b02" y="273.43889"/>
      </g>
     </g>
     <g id="text_9">
      <!-- -70000 -->
      <defs>
       <path d="M 13.28125 2.34375 
Q 20.3125 32.03125 37.890625 61.328125 
L 4.296875 61.328125 
L 4.296875 68.359375 
L 46.09375 68.359375 
L 46.09375 61.71875 
Q 27.734375 32.03125 21.875 2.34375 
L 13.28125 2.34375 
z
" id="SimHei-37"/>
      </defs>
      <g transform="translate(20.6 276.87639)scale(0.1 -0.1)">
       <use xlink:href="#SimHei-2d"/>
       <use x="50" xlink:href="#SimHei-37"/>
       <use x="100" xlink:href="#SimHei-30"/>
       <use x="150" xlink:href="#SimHei-30"/>
       <use x="200" xlink:href="#SimHei-30"/>
       <use x="250" xlink:href="#SimHei-30"/>
      </g>
     </g>
    </g>
    <g id="ytick_3">
     <g id="line2d_9">
      <g>
       <use style="stroke:#000000;stroke-width:0.8;" x="57.6" xlink:href="#m2d62015b02" y="242.02888"/>
      </g>
     </g>
     <g id="text_10">
      <!-- -60000 -->
      <defs>
       <path d="M 3.515625 19.53125 
Q 4.296875 30.859375 6.046875 34.765625 
Q 7.8125 38.671875 11.328125 44.53125 
L 27.34375 69.53125 
L 36.328125 69.53125 
L 19.921875 43.75 
Q 30.46875 46.484375 36.71875 42.96875 
Q 42.96875 39.453125 45.109375 34.953125 
Q 47.265625 30.46875 47.453125 25.1875 
Q 47.65625 19.921875 45.890625 14.84375 
Q 44.140625 9.765625 39.640625 5.65625 
Q 35.15625 1.5625 27.140625 1.171875 
Q 19.140625 0.78125 13.46875 4.09375 
Q 7.8125 7.421875 5.65625 13.46875 
Q 3.515625 19.53125 4.296875 30.859375 
z
M 12.5 16.015625 
Q 19.53125 8.59375 25.390625 8.203125 
Q 31.25 7.8125 35.15625 12.109375 
Q 39.0625 16.40625 39.0625 24.609375 
Q 39.0625 32.8125 34.171875 35.9375 
Q 29.296875 39.0625 23.234375 38.28125 
Q 17.1875 37.5 14.453125 32.421875 
Q 11.71875 27.34375 12.109375 21.671875 
Q 12.5 16.015625 19.53125 8.59375 
z
" id="SimHei-36"/>
      </defs>
      <g transform="translate(20.6 245.46638)scale(0.1 -0.1)">
       <use xlink:href="#SimHei-2d"/>
       <use x="50" xlink:href="#SimHei-36"/>
       <use x="100" xlink:href="#SimHei-30"/>
       <use x="150" xlink:href="#SimHei-30"/>
       <use x="200" xlink:href="#SimHei-30"/>
       <use x="250" xlink:href="#SimHei-30"/>
      </g>
     </g>
    </g>
    <g id="ytick_4">
     <g id="line2d_10">
      <g>
       <use style="stroke:#000000;stroke-width:0.8;" x="57.6" xlink:href="#m2d62015b02" y="210.618869"/>
      </g>
     </g>
     <g id="text_11">
      <!-- -50000 -->
      <g transform="translate(20.6 214.056369)scale(0.1 -0.1)">
       <use xlink:href="#SimHei-2d"/>
       <use x="50" xlink:href="#SimHei-35"/>
       <use x="100" xlink:href="#SimHei-30"/>
       <use x="150" xlink:href="#SimHei-30"/>
       <use x="200" xlink:href="#SimHei-30"/>
       <use x="250" xlink:href="#SimHei-30"/>
      </g>
     </g>
    </g>
    <g id="ytick_5">
     <g id="line2d_11">
      <g>
       <use style="stroke:#000000;stroke-width:0.8;" x="57.6" xlink:href="#m2d62015b02" y="179.208859"/>
      </g>
     </g>
     <g id="text_12">
      <!-- -40000 -->
      <g transform="translate(20.6 182.646359)scale(0.1 -0.1)">
       <use xlink:href="#SimHei-2d"/>
       <use x="50" xlink:href="#SimHei-34"/>
       <use x="100" xlink:href="#SimHei-30"/>
       <use x="150" xlink:href="#SimHei-30"/>
       <use x="200" xlink:href="#SimHei-30"/>
       <use x="250" xlink:href="#SimHei-30"/>
      </g>
     </g>
    </g>
    <g id="ytick_6">
     <g id="line2d_12">
      <g>
       <use style="stroke:#000000;stroke-width:0.8;" x="57.6" xlink:href="#m2d62015b02" y="147.798848"/>
      </g>
     </g>
     <g id="text_13">
      <!-- -30000 -->
      <g transform="translate(20.6 151.236348)scale(0.1 -0.1)">
       <use xlink:href="#SimHei-2d"/>
       <use x="50" xlink:href="#SimHei-33"/>
       <use x="100" xlink:href="#SimHei-30"/>
       <use x="150" xlink:href="#SimHei-30"/>
       <use x="200" xlink:href="#SimHei-30"/>
       <use x="250" xlink:href="#SimHei-30"/>
      </g>
     </g>
    </g>
    <g id="ytick_7">
     <g id="line2d_13">
      <g>
       <use style="stroke:#000000;stroke-width:0.8;" x="57.6" xlink:href="#m2d62015b02" y="116.388838"/>
      </g>
     </g>
     <g id="text_14">
      <!-- -20000 -->
      <g transform="translate(20.6 119.826338)scale(0.1 -0.1)">
       <use xlink:href="#SimHei-2d"/>
       <use x="50" xlink:href="#SimHei-32"/>
       <use x="100" xlink:href="#SimHei-30"/>
       <use x="150" xlink:href="#SimHei-30"/>
       <use x="200" xlink:href="#SimHei-30"/>
       <use x="250" xlink:href="#SimHei-30"/>
      </g>
     </g>
    </g>
    <g id="ytick_8">
     <g id="line2d_14">
      <g>
       <use style="stroke:#000000;stroke-width:0.8;" x="57.6" xlink:href="#m2d62015b02" y="84.978827"/>
      </g>
     </g>
     <g id="text_15">
      <!-- -10000 -->
      <g transform="translate(20.6 88.416327)scale(0.1 -0.1)">
       <use xlink:href="#SimHei-2d"/>
       <use x="50" xlink:href="#SimHei-31"/>
       <use x="100" xlink:href="#SimHei-30"/>
       <use x="150" xlink:href="#SimHei-30"/>
       <use x="200" xlink:href="#SimHei-30"/>
       <use x="250" xlink:href="#SimHei-30"/>
      </g>
     </g>
    </g>
    <g id="ytick_9">
     <g id="line2d_15">
      <g>
       <use style="stroke:#000000;stroke-width:0.8;" x="57.6" xlink:href="#m2d62015b02" y="53.568817"/>
      </g>
     </g>
     <g id="text_16">
      <!-- 0 -->
      <g transform="translate(45.6 57.006317)scale(0.1 -0.1)">
       <use xlink:href="#SimHei-30"/>
      </g>
     </g>
    </g>
    <g id="text_17">
     <!-- 累计奖励 -->
     <defs>
      <path d="M 85.546875 78.125 
Q 85.15625 71.875 85.15625 62.109375 
Q 85.15625 52.34375 85.546875 46.09375 
L 73.046875 46.09375 
Q 75.78125 43.359375 79.296875 40.625 
Q 75 39.453125 66.203125 35.546875 
Q 57.421875 31.640625 50.96875 28.703125 
Q 44.53125 25.78125 37.5 22.265625 
Q 60.15625 23.828125 72.65625 24.609375 
Q 69.140625 26.953125 65.625 28.90625 
Q 68.359375 31.25 70.3125 33.984375 
Q 80.078125 28.125 92.1875 20.3125 
Q 89.84375 17.578125 87.109375 14.0625 
Q 83.984375 16.796875 79.6875 19.53125 
Q 66.40625 18.359375 54.296875 17.578125 
L 54.296875 0.78125 
Q 54.296875 -5.46875 50.1875 -7.21875 
Q 46.09375 -8.984375 40.625 -9.375 
Q 40.234375 -5.859375 37.109375 -0.78125 
Q 43.75 -1.171875 45.3125 -0.390625 
Q 46.875 0.390625 46.875 1.953125 
L 46.875 16.796875 
Q 37.5 16.40625 31.046875 15.8125 
Q 24.609375 15.234375 13.28125 13.671875 
Q 12.109375 17.578125 10.9375 21.09375 
Q 17.96875 21.875 24.609375 23.625 
Q 31.25 25.390625 47.265625 33.203125 
Q 27.734375 31.640625 19.53125 30.078125 
Q 18.75 34.375 17.1875 37.109375 
Q 20.703125 37.109375 27.140625 39.640625 
Q 33.59375 42.1875 38.671875 46.09375 
L 14.84375 46.09375 
Q 15.234375 52.734375 15.234375 62.109375 
Q 15.234375 71.875 14.84375 78.125 
L 85.546875 78.125 
z
M 37.890625 8.203125 
Q 34.375 6.25 27.53125 2.140625 
Q 20.703125 -1.953125 13.28125 -6.640625 
Q 10.9375 -3.515625 7.8125 -0.390625 
Q 13.28125 1.953125 19.53125 5.65625 
Q 25.78125 9.375 31.640625 14.0625 
Q 33.59375 11.328125 37.890625 8.203125 
z
M 46.484375 64.0625 
L 46.484375 72.65625 
L 22.65625 72.65625 
L 22.65625 64.0625 
z
M 77.734375 64.0625 
L 77.734375 72.65625 
L 53.90625 72.65625 
L 53.90625 64.0625 
z
M 66.796875 13.28125 
Q 74.21875 10.15625 78.90625 7.8125 
L 91.40625 1.5625 
Q 88.671875 -1.953125 87.109375 -5.859375 
Q 80.46875 -1.5625 74.609375 1.5625 
Q 68.75 4.6875 63.28125 7.03125 
Q 65.625 10.546875 66.796875 13.28125 
z
M 46.484375 51.171875 
L 46.484375 58.59375 
L 22.65625 58.59375 
L 22.65625 51.171875 
z
M 77.734375 51.171875 
L 77.734375 58.59375 
L 53.90625 58.59375 
L 53.90625 51.171875 
z
M 57.8125 38.671875 
Q 65.625 42.1875 71.484375 46.09375 
L 50.390625 46.09375 
Q 45.3125 42.96875 35.9375 37.890625 
Q 48.046875 38.28125 57.8125 38.671875 
z
" id="SimHei-7d2f"/>
      <path d="M 61.328125 48.4375 
L 61.328125 67.96875 
Q 61.328125 75.78125 60.9375 80.078125 
L 69.140625 80.078125 
Q 68.75 75 68.75 71.09375 
L 68.75 48.4375 
L 84.765625 48.4375 
Q 89.453125 48.4375 94.921875 48.828125 
L 94.921875 41.40625 
Q 89.0625 41.796875 85.15625 41.796875 
L 68.75 41.796875 
L 68.75 2.734375 
Q 68.75 -1.953125 69.140625 -8.59375 
L 60.9375 -8.59375 
Q 61.328125 -1.953125 61.328125 2.34375 
L 61.328125 41.796875 
L 46.09375 41.796875 
Q 40.234375 41.796875 34.375 41.40625 
L 34.375 48.828125 
Q 40.234375 48.4375 45.3125 48.4375 
z
M 27.734375 49.21875 
Q 27.34375 41.796875 27.34375 33.59375 
L 27.34375 9.765625 
Q 33.984375 16.40625 37.890625 21.875 
Q 40.234375 18.75 43.359375 15.625 
L 32.421875 4.6875 
Q 27.34375 -0.390625 22.65625 -5.46875 
Q 19.921875 -1.953125 17.578125 0.78125 
Q 20.3125 3.90625 19.921875 10.15625 
L 19.921875 42.578125 
Q 9.375 42.578125 4.296875 42.1875 
L 4.296875 49.609375 
Q 10.546875 49.21875 12.890625 49.21875 
z
M 17.96875 78.90625 
Q 23.046875 73.828125 33.984375 62.5 
Q 30.46875 59.375 27.34375 56.640625 
Q 22.265625 64.0625 12.109375 74.21875 
Q 14.84375 76.171875 17.96875 78.90625 
z
" id="SimHei-8ba1"/>
      <path d="M 79.296875 24.609375 
Q 88.28125 24.609375 94.921875 25 
L 94.921875 17.578125 
Q 88.671875 18.75 79.296875 18.359375 
L 55.46875 18.359375 
Q 62.109375 9.375 73.625 4.6875 
Q 85.15625 0 96.09375 -0.78125 
Q 93.75 -3.515625 91.40625 -8.59375 
Q 83.59375 -7.03125 77.734375 -5.078125 
Q 71.875 -3.125 64.640625 1.359375 
Q 57.421875 5.859375 50.78125 13.671875 
Q 47.265625 8.59375 43.75 5.46875 
Q 40.234375 2.34375 35.15625 -0.78125 
Q 30.078125 -3.90625 24.40625 -5.859375 
Q 18.75 -7.8125 10.9375 -9.765625 
Q 9.375 -5.859375 6.25 -1.953125 
Q 13.671875 -1.171875 19.71875 0.578125 
Q 25.78125 2.34375 30.65625 4.875 
Q 35.546875 7.421875 39.0625 10.734375 
Q 42.578125 14.0625 44.53125 18.359375 
L 20.703125 18.359375 
Q 12.890625 18.359375 5.46875 17.96875 
L 5.46875 25 
Q 12.890625 24.609375 20.703125 24.609375 
L 46.09375 24.609375 
Q 46.484375 27.34375 46.484375 30.46875 
Q 54.296875 29.296875 55.46875 29.296875 
Q 54.296875 26.953125 53.90625 24.609375 
z
M 67.578125 78.125 
Q 64.453125 75 61.328125 70.3125 
L 92.1875 70.3125 
Q 88.671875 61.71875 85.34375 56.046875 
Q 82.03125 50.390625 77.921875 45.890625 
Q 73.828125 41.40625 66.984375 37.5 
Q 60.15625 33.59375 47.65625 30.859375 
Q 45.703125 34.375 42.96875 37.890625 
Q 54.6875 38.28125 64.0625 43.75 
L 53.515625 50.78125 
Q 55.859375 53.515625 57.8125 56.25 
Q 61.71875 53.90625 64.0625 52.140625 
Q 66.40625 50.390625 69.921875 48.046875 
Q 76.5625 53.90625 80.859375 64.0625 
L 57.421875 64.0625 
Q 55.46875 61.71875 52.734375 58.59375 
Q 50 55.46875 45.3125 50 
Q 42.1875 52.734375 38.671875 54.296875 
Q 44.53125 59.375 49.796875 66.40625 
Q 55.078125 73.4375 58.59375 81.640625 
Q 63.671875 79.296875 67.578125 78.125 
z
M 38.28125 80.859375 
Q 37.890625 76.171875 37.890625 69.921875 
L 37.890625 44.921875 
Q 37.890625 39.0625 38.28125 30.859375 
L 30.078125 30.859375 
Q 30.46875 39.0625 30.46875 44.921875 
L 30.46875 47.65625 
Q 19.140625 40.234375 11.71875 35.546875 
Q 8.984375 39.84375 6.25 42.1875 
Q 12.890625 44.140625 30.46875 55.078125 
L 30.46875 69.921875 
Q 30.46875 75.78125 30.078125 80.859375 
L 38.28125 80.859375 
z
M 15.625 73.4375 
Q 23.046875 67.578125 28.125 62.890625 
L 22.265625 57.03125 
Q 17.1875 62.5 10.546875 67.96875 
Q 13.28125 70.3125 15.625 73.4375 
z
" id="SimHei-5956"/>
      <path d="M 42.578125 55.859375 
Q 48.828125 55.859375 53.125 56.25 
L 53.125 49.21875 
Q 48.4375 49.609375 42.578125 49.609375 
L 35.546875 49.609375 
Q 35.546875 44.921875 35.15625 38.28125 
L 52.734375 38.28125 
Q 51.5625 21.09375 51.171875 16.203125 
Q 50.78125 11.328125 50 5.265625 
Q 49.21875 -0.78125 46.09375 -2.140625 
Q 42.96875 -3.515625 35.546875 -4.296875 
Q 35.15625 -0.390625 32.421875 4.6875 
Q 39.453125 3.90625 41.203125 4.296875 
Q 42.96875 4.6875 43.546875 8.390625 
Q 44.140625 12.109375 44.53125 19.53125 
Q 44.921875 26.953125 44.921875 32.421875 
L 34.765625 32.421875 
Q 34.375 25 33 19.53125 
Q 31.640625 14.0625 30.078125 9.171875 
Q 28.515625 4.296875 26.359375 0.1875 
Q 24.21875 -3.90625 22.265625 -7.03125 
Q 19.53125 -3.90625 15.234375 -1.5625 
Q 18.75 1.953125 21.28125 7.21875 
Q 23.828125 12.5 25.390625 17.96875 
Q 26.953125 23.4375 27.734375 31.828125 
Q 28.515625 40.234375 28.515625 49.609375 
L 19.53125 49.609375 
Q 19.53125 41.796875 19.140625 35.34375 
Q 18.75 28.90625 17.96875 21.875 
Q 17.1875 14.84375 15.234375 6.640625 
Q 13.28125 -1.5625 9.765625 -7.8125 
Q 6.640625 -5.078125 3.125 -3.125 
Q 5.859375 1.953125 7.609375 7.609375 
Q 9.375 13.28125 10.546875 21.09375 
Q 11.71875 28.90625 11.90625 35.9375 
Q 12.109375 42.96875 12.109375 54.296875 
Q 12.109375 66.015625 11.71875 73.4375 
L 44.921875 73.4375 
Q 48.828125 73.4375 53.515625 73.828125 
L 53.515625 67.1875 
Q 49.21875 67.578125 44.921875 67.578125 
L 19.53125 67.578125 
L 19.53125 55.859375 
z
M 71.09375 -9.375 
Q 70.3125 -4.6875 67.578125 0.78125 
Q 75.390625 -0.390625 78.125 0.78125 
Q 80.859375 1.953125 81.4375 9.765625 
Q 82.03125 17.578125 82.609375 29.875 
Q 83.203125 42.1875 83.203125 53.125 
L 73.046875 53.125 
Q 72.65625 36.328125 70.703125 26.171875 
Q 68.75 16.015625 65.8125 8.984375 
Q 62.890625 1.953125 59.953125 -2.140625 
Q 57.03125 -6.25 54.296875 -10.15625 
Q 50.390625 -7.03125 47.265625 -5.859375 
Q 53.125 0.78125 56.828125 8 
Q 60.546875 15.234375 62.296875 21.28125 
Q 64.0625 27.34375 64.84375 33.984375 
Q 65.625 40.625 66.015625 53.125 
Q 59.765625 53.125 55.46875 52.734375 
L 55.46875 59.765625 
Q 61.328125 59.375 66.015625 59.375 
L 66.015625 67.96875 
Q 66.015625 72.265625 65.625 80.859375 
Q 70.3125 79.6875 74.21875 79.296875 
Q 73.828125 75.78125 73.4375 71.484375 
Q 73.046875 67.1875 73.046875 59.375 
L 91.015625 59.375 
Q 90.234375 52.734375 90.234375 41.796875 
Q 89.0625 13.28125 88.671875 7.8125 
Q 88.28125 2.34375 87.109375 -1.75 
Q 85.9375 -5.859375 81.640625 -7.421875 
Q 77.34375 -8.984375 71.09375 -9.375 
z
" id="SimHei-52b1"/>
     </defs>
     <g transform="translate(14.725 204.528)rotate(-90)scale(0.15 -0.15)">
      <use xlink:href="#SimHei-7d2f"/>
      <use x="100" xlink:href="#SimHei-8ba1"/>
      <use x="200" xlink:href="#SimHei-5956"/>
      <use x="300" xlink:href="#SimHei-52b1"/>
     </g>
    </g>
   </g>
   <g id="line2d_16">
    <path clip-path="url(#p05c8565deb)" d="M 73.832727 53.568817 
L 73.878178 53.669479 
L 74.085953 54.37479 
L 74.124911 54.545044 
L 74.274249 55.198744 
L 74.287235 55.194858 
L 74.319699 55.29366 
L 74.495009 55.94221 
L 74.644347 56.460497 
L 74.702784 56.58037 
L 74.832643 56.990972 
L 74.95601 57.401182 
L 75.105348 57.99206 
L 75.248193 58.628722 
L 76.254602 62.851216 
L 76.267588 62.867837 
L 76.390954 63.219837 
L 76.488348 63.554127 
L 76.631193 64.225904 
L 76.923377 65.30069 
L 76.968827 65.448852 
L 77.345419 67.110244 
L 77.598645 67.85408 
L 77.838884 68.651391 
L 77.845377 68.649231 
L 77.903814 68.91582 
L 78.118082 69.834182 
L 78.13756 69.855564 
L 78.26742 70.440098 
L 78.397279 70.804141 
L 78.527138 71.351772 
L 78.566096 71.445488 
L 78.780364 72.114655 
L 78.910223 72.560525 
L 78.955674 72.739565 
L 79.117998 73.489823 
L 79.150462 73.610505 
L 79.280322 74.337187 
L 79.319279 74.464651 
L 79.494589 75.460101 
L 79.546533 75.548408 
L 79.747815 76.143087 
L 81.371055 83.167722 
L 81.669731 84.732354 
L 81.68921 84.737926 
L 81.858027 85.761977 
L 81.877506 85.830126 
L 82.013858 86.570181 
L 82.033337 86.578982 
L 82.195661 87.445616 
L 82.416422 88.520382 
L 82.422915 88.518675 
L 82.45538 88.643704 
L 82.669647 89.771914 
L 82.715098 89.853303 
L 82.896901 90.697851 
L 82.929366 90.798118 
L 83.085197 91.625692 
L 83.130647 91.709757 
L 83.273493 92.480716 
L 83.494253 93.933314 
L 83.61762 94.879268 
L 83.669563 95.13878 
L 83.805915 96.167011 
L 84.383789 99.120823 
L 85.98755 107.634352 
L 86.007029 107.712373 
L 86.364142 110.146393 
L 86.409593 110.325806 
L 86.565424 111.235821 
L 86.604382 111.478291 
L 87.416002 115.65411 
L 87.532875 117.029525 
L 87.545861 117.02705 
L 87.552354 117.136552 
L 87.721171 118.237042 
L 87.727664 118.235345 
L 87.74065 118.327367 
L 87.987382 119.630196 
L 88.039326 119.850569 
L 88.292552 121.787466 
L 88.318523 121.861122 
L 88.831467 125.200386 
L 88.896397 125.434746 
L 89.026256 126.290706 
L 89.552186 129.806676 
L 90.149538 135.546176 
L 90.156031 135.544197 
L 90.162524 135.598087 
L 90.169017 135.596447 
L 90.305369 136.137569 
L 90.376792 136.446105 
L 90.59106 137.915037 
L 90.720919 138.44568 
L 90.928694 139.863429 
L 90.961159 140.042751 
L 92.051976 147.038858 
L 92.240272 148.639277 
L 92.246765 148.637311 
L 92.253258 148.67949 
L 92.396103 149.933552 
L 92.733737 151.5189 
L 92.805159 151.855754 
L 93.168765 153.764418 
L 93.37654 154.775211 
L 93.396019 154.826421 
L 93.681709 156.442285 
L 93.798583 156.609853 
L 94.266076 158.749298 
L 94.486836 159.158713 
L 94.811484 160.812817 
L 94.850442 160.917105 
L 95.071203 161.927231 
L 95.123147 162.105348 
L 95.272485 163.170039 
L 95.714006 165.108668 
L 95.804907 165.33758 
L 95.947753 165.867918 
L 95.954246 165.866986 
L 95.98671 165.909142 
L 96.149034 166.759729 
L 96.376288 168.013552 
L 96.713922 169.363962 
L 96.765866 169.477393 
L 96.999612 170.648627 
L 97.006105 170.646774 
L 97.032077 170.680273 
L 97.168429 171.587157 
L 98.66181 176.92736 
L 98.798163 177.764852 
L 98.804655 177.762869 
L 98.830627 177.828406 
L 98.979965 178.300861 
L 99.161768 178.942701 
L 99.226698 179.212346 
L 99.408501 180.018441 
L 99.71367 180.980214 
L 99.765614 181.174391 
L 99.934431 181.801883 
L 99.940924 181.800044 
L 100.421403 183.9681 
L 100.551262 184.409627 
L 100.577234 184.475021 
L 100.830459 186.054594 
L 101.414826 188.900956 
L 101.564164 189.332523 
L 101.732981 190.099943 
L 101.804403 190.164875 
L 101.953742 190.989375 
L 101.960235 190.988277 
L 102.362798 192.347211 
L 102.408249 192.450914 
L 102.544601 193.003021 
L 102.979629 194.425694 
L 103.005601 194.514486 
L 103.161432 194.943042 
L 103.934095 196.758646 
L 104.01201 196.9597 
L 104.148362 197.617974 
L 104.154855 197.616142 
L 104.343151 198.290515 
L 104.596377 199.113682 
L 104.972968 200.31969 
L 105.037898 200.562225 
L 105.193729 200.880045 
L 105.258659 200.951283 
L 105.440462 201.380062 
L 105.479419 201.524066 
L 105.680701 202.42096 
L 105.687194 202.419596 
L 105.862504 202.917318 
L 105.888476 203.041681 
L 106.102744 203.702407 
L 106.271561 204.220771 
L 106.355969 204.379433 
L 106.492321 204.619785 
L 107.161096 206.573002 
L 107.316927 207.291755 
L 108.751872 211.623681 
L 108.894717 212.358146 
L 108.972632 212.494174 
L 109.147942 213.261018 
L 109.290788 213.456901 
L 109.582971 214.402183 
L 109.738802 215.13797 
L 109.959563 215.736048 
L 109.99852 215.869588 
L 110.225774 216.608888 
L 110.258239 216.69758 
L 110.394591 216.928893 
L 110.52445 217.5143 
L 110.680281 217.946847 
L 110.712746 218.07446 
L 110.836112 218.52682 
L 110.842605 218.526028 
L 110.888056 218.621991 
L 111.076352 219.005778 
L 111.245169 219.519549 
L 111.407493 219.916666 
L 111.517873 220.226013 
L 111.699676 220.89664 
L 111.874986 221.213657 
L 111.881479 221.212079 
L 112.011338 221.575605 
L 112.063282 221.645605 
L 112.400916 222.667487 
L 112.420395 222.687343 
L 112.543761 222.961917 
L 112.576226 222.96804 
L 112.582719 223.06296 
L 112.745043 223.529482 
L 112.751536 223.52765 
L 112.861916 223.94433 
L 112.978789 224.274411 
L 113.050212 224.342469 
L 113.193057 224.579159 
L 113.19955 224.576839 
L 113.803395 226.766595 
L 113.848846 226.854337 
L 114.01117 227.3565 
L 115.504551 230.788645 
L 115.543509 230.931911 
L 115.595453 231.392401 
L 115.718819 231.893561 
L 115.725312 231.892059 
L 115.796735 231.955647 
L 115.952566 232.772485 
L 115.959059 232.770779 
L 115.991523 233.075724 
L 116.147354 233.928063 
L 116.186312 234.075288 
L 116.355129 234.385649 
L 116.381101 234.470753 
L 116.582383 235.146712 
L 116.660298 235.431564 
L 116.777172 235.920521 
L 118.231595 238.913061 
L 118.341975 239.174205 
L 118.504299 239.789862 
L 118.562736 239.872165 
L 118.958807 241.785257 
L 119.095159 242.271118 
L 119.160088 242.431715 
L 119.322412 242.719636 
L 119.354877 242.859954 
L 119.523694 243.240337 
L 120.17299 244.669048 
L 120.244413 244.764553 
L 120.465174 245.116135 
L 120.69892 245.641884 
L 120.705413 245.640041 
L 120.783329 245.728989 
L 120.965132 246.066896 
L 121.030061 246.121974 
L 121.036554 246.164809 
L 121.491061 247.50706 
L 121.620921 248.012914 
L 121.659878 248.122425 
L 122.010498 248.768151 
L 122.14685 249.227677 
L 122.250738 249.384343 
L 122.413062 250.334524 
L 122.432541 250.451817 
L 122.62733 251.40196 
L 123.042879 252.209103 
L 123.192217 252.838593 
L 123.19871 252.837462 
L 123.26364 252.88398 
L 123.393499 253.288463 
L 123.412978 253.42493 
L 123.471414 253.705268 
L 123.763598 254.279522 
L 123.796063 254.385608 
L 123.990851 254.733422 
L 124.386922 255.572779 
L 124.555739 255.87803 
L 124.653133 256.067637 
L 125.016739 256.925835 
L 125.094655 257.018909 
L 125.218021 257.230744 
L 125.276458 257.374461 
L 125.41281 257.732398 
L 125.445275 257.779284 
L 125.568641 258.074831 
L 125.640063 258.164664 
L 125.932247 258.658809 
L 126.023148 258.750562 
L 126.562064 259.789255 
L 126.568557 259.787296 
L 126.57505 259.880219 
L 126.737374 260.184953 
L 126.776332 260.240692 
L 126.782825 260.281255 
L 126.92567 260.483316 
L 127.075008 260.782803 
L 127.120459 260.878151 
L 127.523022 261.676018 
L 127.678853 261.808499 
L 127.925586 262.104328 
L 128.542417 262.964857 
L 128.704741 263.213493 
L 128.711234 263.211148 
L 128.944981 263.618924 
L 129.087826 263.775275 
L 129.139769 263.844849 
L 129.263136 264.005265 
L 129.594277 264.363696 
L 129.743615 264.561923 
L 129.892953 264.628829 
L 130.490305 265.334278 
L 130.639643 265.745222 
L 130.775996 265.872795 
L 130.827939 265.963178 
L 132.107053 267.734236 
L 132.249898 267.893863 
L 132.379757 268.034164 
L 132.91218 268.611704 
L 133.042039 268.779882 
L 133.184884 268.879283 
L 133.334222 269.245454 
L 133.418631 269.394684 
L 133.541997 269.662023 
L 133.678349 269.78471 
L 133.814701 269.954366 
L 133.821194 269.952619 
L 133.938068 270.03283 
L 134.36011 270.527807 
L 134.483476 270.630132 
L 134.665279 270.895948 
L 134.866561 271.17286 
L 134.970449 271.289788 
L 135.197702 271.593842 
L 135.366519 271.78603 
L 135.424956 271.880706 
L 135.710646 272.320903 
L 135.821026 272.417295 
L 136.11321 272.659257 
L 136.262548 272.794634 
L 137.476731 273.844107 
L 137.541661 273.924045 
L 137.665027 274.071889 
L 137.768915 274.156733 
L 137.970197 274.264716 
L 138.164985 274.370505 
L 138.418211 274.590028 
L 138.554563 274.752075 
L 138.561056 274.749767 
L 138.820774 274.938674 
L 138.918169 275.02621 
L 139.080493 275.126364 
L 139.288268 275.274586 
L 139.431113 275.365671 
L 139.82069 275.625813 
L 139.996 275.81231 
L 140.067423 275.862142 
L 140.197282 276.006473 
L 140.379085 276.136776 
L 140.638804 276.26015 
L 141.898438 277.407458 
L 142.060762 277.545112 
L 142.262044 277.65978 
L 142.456833 277.818162 
L 142.547734 277.898908 
L 142.787974 278.084775 
L 142.904847 278.157137 
L 143.106129 278.296768 
L 143.223002 278.352923 
L 143.320396 278.478823 
L 143.346368 278.474861 
L 143.54765 278.59471 
L 143.72296 278.739065 
L 143.83334 278.85539 
L 144.891693 279.647644 
L 145.086482 279.759059 
L 145.261792 279.891976 
L 146.040947 280.375994 
L 146.33313 280.631787 
L 146.482468 280.692772 
L 146.670764 280.808845 
L 146.781145 280.890366 
L 146.904511 280.996573 
L 147.092807 281.078854 
L 147.300582 281.123775 
L 147.475892 281.207386 
L 147.605751 281.277098 
L 148.144666 281.598272 
L 148.469315 281.781662 
L 148.618653 281.849389 
L 148.780977 281.976916 
L 148.910836 282.059335 
L 149.047188 282.158086 
L 149.475724 282.354286 
L 149.754921 282.48018 
L 149.943217 282.594585 
L 150.313315 282.690183 
L 150.456161 282.742146 
L 150.93664 282.95317 
L 151.085978 283.068708 
L 151.274274 283.131489 
L 151.469063 283.274249 
L 151.585936 283.348085 
L 152.527415 283.646495 
L 152.748176 283.795678 
L 152.955951 283.837167 
L 153.222162 283.967089 
L 153.403965 284.074403 
L 154.027289 284.349108 
L 154.131177 284.430115 
L 154.267529 284.489083 
L 154.42336 284.571748 
L 154.59867 284.619505 
L 155.605079 285.033063 
L 155.747924 285.106174 
L 155.93622 285.171932 
L 156.163473 285.238813 
L 156.364755 285.298362 
L 156.656938 285.390003 
L 156.851727 285.442752 
L 157.091967 285.526034 
L 157.358178 285.588777 
L 158.83208 286.030671 
L 159.715123 286.439424 
L 160.026785 286.51388 
L 160.494278 286.661928 
L 161.117603 286.855265 
L 161.28642 286.942279 
L 161.500687 287.010917 
L 161.74742 287.043399 
L 161.909744 287.118421 
L 162.156476 287.179269 
L 162.435674 287.250392 
L 162.79928 287.387856 
L 162.994068 287.411854 
L 163.565449 287.569346 
L 163.870618 287.68717 
L 164.526407 287.852823 
L 164.799112 287.932185 
L 165.039351 288.01363 
L 166.071732 288.225933 
L 166.480788 288.352479 
L 166.759986 288.461659 
L 167.480704 288.611598 
L 167.643029 288.654811 
L 170.506424 289.265378 
L 170.785622 289.297003 
L 170.954439 289.340616 
L 171.512833 289.500147 
L 171.830988 289.563272 
L 171.960848 289.580819 
L 172.49327 289.683972 
L 172.681566 289.755258 
L 172.804933 289.777465 
L 172.960764 289.801237 
L 173.162045 289.884111 
L 179.375809 291.185955 
L 179.616049 291.260026 
L 179.784866 291.295176 
L 180.070556 291.356681 
L 180.310796 291.390191 
L 181.434078 291.599994 
L 181.817162 291.661682 
L 182.84305 291.861231 
L 183.472868 291.9643 
L 183.901403 292.066903 
L 184.265009 292.123683 
L 184.615629 292.168643 
L 184.959756 292.221507 
L 185.174023 292.273478 
L 185.660995 292.282089 
L 185.829812 292.329784 
L 187.933532 292.711051 
L 188.271166 292.734749 
L 188.465955 292.743443 
L 189.59573 292.880255 
L 189.978815 292.917306 
L 190.108674 292.928187 
L 190.374885 292.957442 
L 191.543618 293.095436 
L 191.900731 293.118173 
L 192.09552 293.165475 
L 192.530548 293.201821 
L 192.848703 293.223271 
L 194.329098 293.455359 
L 194.666732 293.460572 
L 195.023845 293.540614 
L 195.51731 293.57213 
L 211.704262 294.770861 
L 212.223699 294.775475 
L 212.574319 294.783446 
L 213.041812 294.806023 
L 214.061207 294.892516 
L 214.535193 294.909855 
L 214.749461 294.925591 
L 219.891886 295.137853 
L 220.398337 295.165835 
L 225.014832 295.212505 
L 225.151185 295.226236 
L 225.378438 295.216395 
L 226.118636 295.223258 
L 226.50172 295.223474 
L 229.806638 295.321286 
L 230.877976 295.294507 
L 231.053286 295.291078 
L 231.949315 295.315377 
L 232.455766 295.327314 
L 232.631076 295.335364 
L 232.96871 295.331521 
L 233.131034 295.340952 
L 233.858245 295.368745 
L 248.097309 295.446264 
L 248.551816 295.446079 
L 249.084239 295.422184 
L 249.649127 295.409409 
L 249.87638 295.403089 
L 250.571127 295.412371 
L 251.382747 295.382177 
L 251.993086 295.364618 
L 252.694325 295.345638 
L 253.083903 295.325862 
L 253.479974 295.328823 
L 254.187706 295.309206 
L 254.901932 295.293653 
L 263.966106 294.956217 
L 264.323219 294.946007 
L 265.095881 294.916673 
L 265.316642 294.906801 
L 265.621811 294.899159 
L 266.030867 294.887417 
L 266.426938 294.877021 
L 267.719037 294.812101 
L 268.154066 294.795773 
L 268.679995 294.767018 
L 269.160475 294.737017 
L 269.816264 294.709683 
L 274.789872 294.42278 
L 275.244379 294.39593 
L 279.295987 294.22233 
L 279.76348 294.207216 
L 280.282917 294.182327 
L 281.16596 294.115454 
L 283.191763 294.001938 
L 283.561862 293.978432 
L 284.425426 293.940309 
L 284.840975 293.912052 
L 285.444821 293.875299 
L 285.892835 293.882746 
L 286.516159 293.840049 
L 286.873272 293.834059 
L 287.905653 293.762086 
L 288.386132 293.73899 
L 289.496429 293.643043 
L 290.619711 293.561742 
L 292.96367 293.393326 
L 293.307797 293.369196 
L 293.879177 293.338338 
L 294.093445 293.323149 
L 294.677811 293.320303 
L 295.242699 293.282686 
L 297.534714 293.086625 
L 297.865855 293.077843 
L 298.632025 293.040754 
L 298.826814 293.026218 
L 299.644927 292.957018 
L 299.820237 292.95609 
L 300.326688 292.925539 
L 301.307125 292.830522 
L 301.501914 292.823541 
L 331.629253 290.071975 
L 332.08376 290.036369 
L 332.343479 290.018761 
L 333.674536 289.906831 
L 333.88231 289.8871 
L 334.69393 289.793798 
L 335.408156 289.720374 
L 335.934086 289.669531 
L 337.330073 289.5525 
L 338.42089 289.414684 
L 339.193552 289.358734 
L 340.45968 289.248994 
L 340.771342 289.225644 
L 341.933582 289.081014 
L 342.693258 289.012113 
L 343.290611 288.963297 
L 344.881386 288.808148 
L 345.277457 288.76532 
L 349.075839 288.35828 
L 349.770586 288.269533 
L 351.354868 288.078905 
L 352.393742 287.928106 
L 355.016898 287.61109 
L 355.328561 287.580215 
L 356.601181 287.429208 
L 356.990759 287.392155 
L 358.549069 287.228117 
L 359.685337 287.098752 
L 359.938563 287.069106 
L 360.483972 287.021057 
L 363.561635 286.639976 
L 363.892776 286.605297 
L 365.249805 286.444799 
L 365.769242 286.391115 
L 366.600341 286.302526 
L 367.834004 286.178168 
L 368.885863 286.060845 
L 372.0804 285.721336 
L 372.5414 285.67266 
L 373.775063 285.51969 
L 377.527994 285.033903 
L 378.255206 284.946986 
L 380.780968 284.606487 
L 381.514673 284.511621 
L 393.143566 283.081525 
L 393.688975 283.002097 
L 394.046087 282.961338 
L 394.623961 282.900206 
L 396.208243 282.694223 
L 396.831568 282.621119 
L 397.31854 282.558658 
L 397.876934 282.507057 
L 398.487273 282.431286 
L 398.487273 282.431286 
" style="fill:none;stroke:#1f77b4;stroke-linecap:square;stroke-width:1.5;"/>
   </g>
   <g id="patch_3">
    <path d="M 57.6 307.584 
L 57.6 41.472 
" style="fill:none;stroke:#000000;stroke-linecap:square;stroke-linejoin:miter;stroke-width:0.8;"/>
   </g>
   <g id="patch_4">
    <path d="M 414.72 307.584 
L 414.72 41.472 
" style="fill:none;stroke:#000000;stroke-linecap:square;stroke-linejoin:miter;stroke-width:0.8;"/>
   </g>
   <g id="patch_5">
    <path d="M 57.6 307.584 
L 414.72 307.584 
" style="fill:none;stroke:#000000;stroke-linecap:square;stroke-linejoin:miter;stroke-width:0.8;"/>
   </g>
   <g id="patch_6">
    <path d="M 57.6 41.472 
L 414.72 41.472 
" style="fill:none;stroke:#000000;stroke-linecap:square;stroke-linejoin:miter;stroke-width:0.8;"/>
   </g>
   <g id="text_18">
    <!-- 训练过程 -->
    <defs>
     <path d="M 25.78125 51.5625 
Q 25.390625 42.578125 25.390625 34.765625 
L 25.390625 10.546875 
Q 30.46875 17.578125 32.03125 19.921875 
Q 33.984375 17.578125 36.71875 14.0625 
Q 31.640625 7.8125 28.125 3.3125 
Q 24.609375 -1.171875 20.703125 -6.640625 
Q 17.96875 -3.125 14.84375 -0.78125 
Q 17.96875 3.515625 17.96875 9.765625 
L 17.96875 44.921875 
L 15.234375 44.921875 
Q 9.375 44.921875 4.6875 44.53125 
L 4.6875 51.953125 
Q 9.375 51.5625 15.234375 51.5625 
z
M 53.515625 71.875 
Q 52.734375 67.96875 52.921875 52.53125 
Q 53.125 37.109375 52.140625 29.484375 
Q 51.171875 21.875 48.234375 13.078125 
Q 45.3125 4.296875 38.28125 -5.859375 
Q 34.765625 -3.125 30.859375 -1.953125 
Q 39.84375 7.8125 43.15625 21.28125 
Q 46.484375 34.765625 46.09375 52.140625 
Q 45.703125 69.53125 45.3125 73.046875 
Q 49.21875 72.265625 53.515625 71.875 
z
M 91.796875 73.4375 
Q 91.40625 70.3125 91.40625 62.109375 
L 91.40625 9.765625 
Q 91.40625 1.953125 91.796875 -6.25 
L 84.375 -6.25 
Q 84.765625 1.953125 84.765625 9.375 
L 84.765625 62.109375 
Q 84.765625 70.3125 84.375 73.4375 
L 91.796875 73.4375 
z
M 71.875 2.734375 
L 64.453125 2.734375 
Q 64.84375 11.328125 64.84375 17.96875 
L 64.84375 56.25 
Q 64.84375 63.28125 64.453125 67.96875 
L 71.875 67.96875 
z
M 15.625 80.46875 
Q 25.78125 71.875 32.8125 64.0625 
Q 29.296875 61.328125 27.34375 58.59375 
Q 16.40625 71.09375 10.9375 75 
Q 13.28125 77.34375 15.625 80.46875 
z
" id="SimHei-8bad"/>
     <path d="M 51.5625 59.765625 
Q 46.09375 59.765625 37.5 59.375 
L 37.5 66.40625 
Q 46.09375 66.015625 51.953125 66.015625 
L 56.640625 66.015625 
Q 60.546875 77.34375 60.9375 80.859375 
Q 65.625 78.515625 69.53125 76.953125 
Q 67.96875 75.390625 66.59375 72.0625 
Q 65.234375 68.75 64.0625 66.015625 
L 78.515625 66.015625 
Q 84.765625 66.015625 92.1875 66.40625 
L 92.1875 59.375 
Q 86.71875 59.765625 78.515625 59.765625 
L 62.109375 59.765625 
Q 60.15625 55.078125 57.8125 49.21875 
L 73.046875 49.21875 
Q 72.65625 44.921875 72.65625 38.671875 
L 72.65625 30.859375 
L 77.734375 30.859375 
Q 83.59375 30.859375 90.625 31.25 
L 90.625 24.21875 
Q 83.59375 24.609375 77.734375 24.609375 
L 72.65625 24.609375 
L 72.65625 1.953125 
Q 72.65625 -4.6875 69.71875 -6.640625 
Q 66.796875 -8.59375 57.03125 -9.765625 
Q 56.640625 -5.859375 53.90625 -1.5625 
Q 63.671875 -1.953125 64.640625 -0.390625 
Q 65.625 1.171875 65.625 5.078125 
L 65.625 24.609375 
L 53.515625 24.609375 
Q 50.78125 24.609375 48.4375 24.40625 
Q 46.09375 24.21875 42.96875 23.046875 
Q 41.40625 26.953125 39.84375 30.46875 
Q 43.75 31.640625 48.828125 43.359375 
Q 46.09375 43.359375 38.28125 42.96875 
L 38.28125 49.609375 
Q 47.265625 49.21875 50.78125 49.21875 
Q 53.125 55.078125 54.6875 59.765625 
z
M 25.78125 46.09375 
Q 29.296875 51.5625 32.8125 60.9375 
Q 36.328125 58.203125 40.234375 56.25 
Q 36.328125 51.171875 31.640625 42.96875 
Q 26.953125 34.765625 16.796875 21.09375 
Q 20.3125 21.875 37.5 24.609375 
Q 36.71875 20.3125 37.109375 17.96875 
Q 28.515625 17.1875 10.15625 12.890625 
Q 8.203125 16.796875 6.25 19.921875 
Q 9.765625 21.875 13.859375 27.140625 
Q 17.96875 32.421875 22.65625 40.234375 
Q 20.3125 40.625 15.8125 40.03125 
Q 11.328125 39.453125 7.03125 38.28125 
Q 5.46875 41.796875 3.90625 45.703125 
Q 7.8125 48.046875 12.6875 58.203125 
Q 17.578125 68.359375 20.703125 78.125 
Q 25 75.390625 28.90625 74.21875 
Q 25 68.359375 21.671875 61.90625 
Q 18.359375 55.46875 12.5 45.703125 
Q 21.484375 45.703125 25.78125 46.09375 
z
M 37.890625 10.9375 
Q 37.5 6.640625 37.890625 3.90625 
Q 31.25 2.34375 22.84375 -0.390625 
Q 14.453125 -3.125 7.421875 -6.640625 
Q 6.25 -2.34375 4.6875 1.953125 
Q 14.84375 4.296875 18.546875 5.265625 
Q 22.265625 6.25 37.890625 10.9375 
z
M 58.203125 13.671875 
Q 57.03125 12.5 51.359375 6.25 
Q 45.703125 0 38.671875 -7.421875 
Q 35.9375 -3.90625 33.59375 -1.953125 
Q 37.890625 1.5625 42.96875 7.21875 
Q 48.046875 12.890625 51.953125 19.140625 
Q 54.296875 16.40625 58.203125 13.671875 
z
M 82.421875 19.140625 
Q 92.578125 5.859375 96.875 -1.5625 
Q 92.96875 -3.125 89.84375 -5.859375 
Q 85.546875 2.734375 76.5625 14.84375 
Q 79.296875 16.40625 82.421875 19.140625 
z
M 65.625 30.859375 
L 65.625 43.359375 
L 55.859375 43.359375 
Q 51.953125 35.15625 49.609375 30.859375 
z
" id="SimHei-7ec3"/>
     <path d="M 3.90625 -3.125 
Q 16.015625 7.421875 19.921875 10.15625 
L 19.921875 38.671875 
Q 10.546875 38.671875 6.25 38.28125 
L 6.25 46.09375 
Q 9.765625 45.3125 20.703125 45.3125 
L 28.125 45.3125 
Q 27.734375 39.453125 27.734375 33.59375 
L 27.734375 9.375 
Q 39.0625 -0.390625 61.125 -0.578125 
Q 83.203125 -0.78125 96.09375 1.171875 
Q 93.75 -2.734375 92.578125 -8.59375 
L 69.140625 -8.59375 
Q 59.375 -8.59375 51.171875 -8 
Q 42.96875 -7.421875 37.296875 -4.6875 
Q 31.640625 -1.953125 27.34375 1.171875 
Q 23.046875 4.296875 19.328125 0.578125 
Q 15.625 -3.125 10.9375 -9.765625 
Q 8.59375 -5.859375 3.90625 -3.125 
z
M 56.640625 13.28125 
Q 65.625 12.890625 67.96875 13.671875 
Q 70.3125 14.453125 70.3125 20.3125 
L 70.3125 55.859375 
L 44.921875 55.859375 
Q 40.625 55.859375 35.546875 55.46875 
L 35.546875 62.890625 
Q 40.625 62.5 48.046875 62.5 
L 70.3125 62.5 
Q 70.3125 72.65625 69.53125 80.078125 
L 78.515625 80.078125 
Q 78.125 75 78.125 62.5 
Q 86.328125 62.5 92.96875 62.890625 
L 92.96875 55.46875 
Q 86.71875 55.859375 78.125 55.859375 
L 78.125 17.1875 
Q 78.125 8.203125 72.84375 6.4375 
Q 67.578125 4.6875 59.765625 4.296875 
Q 58.984375 8.59375 56.640625 13.28125 
z
M 48.828125 25 
Q 45.3125 35.546875 40.234375 44.53125 
Q 43.75 46.09375 47.65625 48.828125 
Q 54.6875 34.765625 56.640625 29.296875 
Q 53.90625 27.734375 48.828125 25 
z
M 17.96875 77.734375 
Q 21.875 73.046875 30.078125 60.546875 
Q 26.171875 58.203125 22.65625 55.46875 
Q 14.84375 68.75 10.9375 72.265625 
Q 14.453125 74.21875 17.96875 77.734375 
z
" id="SimHei-8fc7"/>
     <path d="M 91.015625 77.734375 
Q 90.625 69.140625 90.625 62.109375 
Q 90.625 55.46875 91.015625 48.828125 
L 47.265625 48.828125 
Q 47.65625 56.25 47.65625 62.890625 
Q 47.65625 69.53125 47.265625 77.734375 
L 91.015625 77.734375 
z
M 6.25 75.390625 
Q 12.890625 76.171875 21.28125 77.921875 
Q 29.6875 79.6875 35.546875 82.421875 
Q 38.28125 77.34375 41.015625 73.828125 
Q 38.28125 74.21875 35.34375 73.625 
Q 32.421875 73.046875 28.90625 72.65625 
L 28.90625 53.515625 
Q 34.375 53.515625 40.625 53.90625 
L 40.625 46.484375 
Q 34.375 46.875 28.90625 46.875 
L 28.90625 12.5 
Q 28.90625 3.90625 29.296875 -10.546875 
L 21.484375 -10.546875 
Q 21.875 3.90625 21.875 12.109375 
L 21.875 30.078125 
Q 16.40625 19.140625 9.765625 9.375 
Q 7.03125 13.28125 3.515625 16.40625 
Q 8.984375 21.875 13.28125 28.90625 
Q 17.578125 35.9375 21.09375 46.875 
Q 11.328125 46.875 6.640625 46.484375 
L 6.640625 53.90625 
Q 13.28125 53.515625 16.40625 53.515625 
L 21.875 53.515625 
L 21.875 71.09375 
Q 16.796875 69.921875 8.984375 68.75 
Q 7.8125 72.265625 6.25 75.390625 
z
M 79.6875 39.0625 
Q 85.9375 39.0625 92.96875 39.453125 
L 92.96875 32.421875 
Q 85.9375 32.8125 79.6875 32.8125 
L 72.265625 32.8125 
L 72.265625 20.3125 
L 76.5625 20.3125 
Q 82.421875 20.3125 90.234375 20.703125 
L 90.234375 13.28125 
Q 82.421875 13.671875 77.734375 13.671875 
L 72.265625 13.671875 
L 72.265625 0 
L 81.640625 0 
Q 88.671875 0 96.484375 0.390625 
L 96.484375 -7.03125 
Q 90.234375 -6.640625 81.640625 -6.640625 
L 55.46875 -6.640625 
Q 46.875 -6.640625 40.625 -7.421875 
L 40.625 0.390625 
Q 46.875 0 55.46875 0 
L 64.84375 0 
L 64.84375 13.671875 
L 59.375 13.671875 
Q 53.125 13.671875 47.65625 12.890625 
L 47.65625 20.703125 
Q 53.125 20.3125 59.375 20.3125 
L 64.84375 20.3125 
L 64.84375 32.8125 
L 58.59375 32.8125 
Q 51.5625 32.8125 45.3125 32.421875 
L 45.3125 39.453125 
Q 51.5625 39.0625 58.59375 39.0625 
z
M 82.421875 55.859375 
L 82.421875 71.09375 
L 54.6875 71.09375 
L 54.6875 55.859375 
z
M 35.9375 37.5 
Q 39.84375 31.640625 44.140625 23.828125 
Q 41.796875 22.265625 37.890625 19.140625 
Q 33.984375 27.734375 30.078125 33.203125 
Q 32.421875 35.15625 35.9375 37.5 
z
" id="SimHei-7a0b"/>
    </defs>
    <g transform="translate(206.16 35.472)scale(0.15 -0.15)">
     <use xlink:href="#SimHei-8bad"/>
     <use x="100" xlink:href="#SimHei-7ec3"/>
     <use x="200" xlink:href="#SimHei-8fc7"/>
     <use x="300" xlink:href="#SimHei-7a0b"/>
    </g>
   </g>
  </g>
 </g>
 <defs>
  <clipPath id="p05c8565deb">
   <rect height="266.112" width="357.12" x="57.6" y="41.472"/>
  </clipPath>
 </defs>
</svg>
