<?xml version="1.0" encoding="utf-8" standalone="no"?>
<!DOCTYPE svg PUBLIC "-//W3C//DTD SVG 1.1//EN"
  "http://www.w3.org/Graphics/SVG/1.1/DTD/svg11.dtd">
<!-- Created with matplotlib (http://matplotlib.org/) -->
<svg height="345.6pt" version="1.1" viewBox="0 0 460.8 345.6" width="460.8pt" xmlns="http://www.w3.org/2000/svg" xmlns:xlink="http://www.w3.org/1999/xlink">
 <defs>
  <style type="text/css">
*{stroke-linecap:butt;stroke-linejoin:round;}
  </style>
 </defs>
 <g id="figure_1">
  <g id="patch_1">
   <path d="M 0 345.6 
L 460.8 345.6 
L 460.8 0 
L 0 0 
z
" style="fill:#ffffff;"/>
  </g>
  <g id="axes_1">
   <g id="patch_2">
    <path d="M 57.6 307.584 
L 414.72 307.584 
L 414.72 41.472 
L 57.6 41.472 
z
" style="fill:#ffffff;"/>
   </g>
   <g id="matplotlib.axis_1">
    <g id="xtick_1">
     <g id="line2d_1">
      <defs>
       <path d="M 0 0 
L 0 3.5 
" id="m931f2d3d52" style="stroke:#000000;stroke-width:0.8;"/>
      </defs>
      <g>
       <use style="stroke:#000000;stroke-width:0.8;" x="67.207124" xlink:href="#m931f2d3d52" y="307.584"/>
      </g>
     </g>
     <g id="text_1">
      <!-- 0 -->
      <defs>
       <path d="M 3.125 29.296875 
Q 3.90625 50 6.4375 56.046875 
Q 8.984375 62.109375 13.671875 66.015625 
Q 18.359375 69.921875 25.1875 69.921875 
Q 32.03125 69.921875 37.109375 64.25 
Q 42.1875 58.59375 43.75 50 
Q 45.3125 41.40625 44.71875 30.265625 
Q 44.140625 19.140625 40.8125 12.109375 
Q 37.5 5.078125 30.859375 2.34375 
Q 24.21875 -0.390625 17.578125 2.921875 
Q 10.9375 6.25 8.203125 11.71875 
Q 5.46875 17.1875 4.296875 23.234375 
Q 3.125 29.296875 3.90625 50 
z
M 12.890625 52.734375 
Q 10.546875 31.25 12.5 22.84375 
Q 14.453125 14.453125 18.9375 10.9375 
Q 23.4375 7.421875 28.125 9.5625 
Q 32.8125 11.71875 34.953125 18.15625 
Q 37.109375 24.609375 37.109375 32.21875 
Q 37.109375 39.84375 36.515625 46.09375 
Q 35.9375 52.34375 33 57.421875 
Q 30.078125 62.5 25.1875 62.6875 
Q 20.3125 62.890625 16.59375 57.8125 
Q 12.890625 52.734375 10.546875 31.25 
z
" id="SimHei-30"/>
      </defs>
      <g transform="translate(64.707124 321.459)scale(0.1 -0.1)">
       <use xlink:href="#SimHei-30"/>
      </g>
     </g>
    </g>
    <g id="xtick_2">
     <g id="line2d_2">
      <g>
       <use style="stroke:#000000;stroke-width:0.8;" x="133.463154" xlink:href="#m931f2d3d52" y="307.584"/>
      </g>
     </g>
     <g id="text_2">
      <!-- 10 -->
      <defs>
       <path d="M 21.875 56.25 
Q 16.796875 51.171875 8.984375 46.484375 
L 8.984375 53.90625 
Q 18.75 60.546875 25 69.53125 
L 29.6875 69.53125 
L 29.6875 2.34375 
L 21.875 2.34375 
z
" id="SimHei-31"/>
      </defs>
      <g transform="translate(128.463154 321.459)scale(0.1 -0.1)">
       <use xlink:href="#SimHei-31"/>
       <use x="50" xlink:href="#SimHei-30"/>
      </g>
     </g>
    </g>
    <g id="xtick_3">
     <g id="line2d_3">
      <g>
       <use style="stroke:#000000;stroke-width:0.8;" x="199.719184" xlink:href="#m931f2d3d52" y="307.584"/>
      </g>
     </g>
     <g id="text_3">
      <!-- 20 -->
      <defs>
       <path d="M 4.6875 3.90625 
Q 5.078125 9.765625 10.15625 14.453125 
Q 15.234375 19.140625 23.046875 29.09375 
Q 30.859375 39.0625 33.203125 44.53125 
Q 35.546875 50 34.953125 53.90625 
Q 34.375 57.8125 31.25 60.34375 
Q 28.125 62.890625 24.015625 62.5 
Q 19.921875 62.109375 16.203125 59.375 
Q 12.5 56.640625 10.546875 51.171875 
L 3.125 52.34375 
Q 6.25 61.328125 11.125 65.421875 
Q 16.015625 69.53125 22.65625 69.921875 
Q 26.5625 70.3125 29.6875 69.71875 
Q 32.8125 69.140625 36.125 66.984375 
Q 39.453125 64.84375 41.59375 60.546875 
Q 43.75 56.25 43.15625 50.1875 
Q 42.578125 44.140625 37.109375 35.734375 
Q 31.640625 27.34375 16.015625 9.375 
L 44.140625 9.375 
L 44.140625 2.34375 
L 4.6875 2.34375 
z
" id="SimHei-32"/>
      </defs>
      <g transform="translate(194.719184 321.459)scale(0.1 -0.1)">
       <use xlink:href="#SimHei-32"/>
       <use x="50" xlink:href="#SimHei-30"/>
      </g>
     </g>
    </g>
    <g id="xtick_4">
     <g id="line2d_4">
      <g>
       <use style="stroke:#000000;stroke-width:0.8;" x="265.975213" xlink:href="#m931f2d3d52" y="307.584"/>
      </g>
     </g>
     <g id="text_4">
      <!-- 30 -->
      <defs>
       <path d="M 3.90625 19.140625 
L 10.9375 20.3125 
Q 12.5 15.234375 16.015625 11.90625 
Q 19.53125 8.59375 24.796875 8.78125 
Q 30.078125 8.984375 33.203125 13.078125 
Q 36.328125 17.1875 35.9375 22.453125 
Q 35.546875 27.734375 31.828125 30.65625 
Q 28.125 33.59375 19.921875 34.765625 
L 19.921875 39.84375 
Q 28.125 40.625 31.828125 44.140625 
Q 35.546875 47.65625 35.15625 53.3125 
Q 34.765625 58.984375 30.078125 61.515625 
Q 25.390625 64.0625 20.109375 62.109375 
Q 14.84375 60.15625 11.71875 51.171875 
L 4.6875 52.34375 
Q 7.03125 59.375 11.125 64.0625 
Q 15.234375 68.75 22.265625 69.53125 
Q 29.296875 70.3125 34.5625 67.765625 
Q 39.84375 65.234375 41.984375 59.953125 
Q 44.140625 54.6875 42.578125 48.4375 
Q 41.015625 42.1875 33.59375 37.5 
Q 39.0625 35.15625 41.984375 30.46875 
Q 44.921875 25.78125 43.9375 18.15625 
Q 42.96875 10.546875 37.109375 5.859375 
Q 31.25 1.171875 23.828125 1.359375 
Q 16.40625 1.5625 10.9375 6.046875 
Q 5.46875 10.546875 3.90625 19.140625 
z
" id="SimHei-33"/>
      </defs>
      <g transform="translate(260.975213 321.459)scale(0.1 -0.1)">
       <use xlink:href="#SimHei-33"/>
       <use x="50" xlink:href="#SimHei-30"/>
      </g>
     </g>
    </g>
    <g id="xtick_5">
     <g id="line2d_5">
      <g>
       <use style="stroke:#000000;stroke-width:0.8;" x="332.231243" xlink:href="#m931f2d3d52" y="307.584"/>
      </g>
     </g>
     <g id="text_5">
      <!-- 40 -->
      <defs>
       <path d="M 31.25 17.1875 
L 1.171875 17.1875 
L 1.171875 23.828125 
L 32.8125 69.53125 
L 38.671875 69.53125 
L 38.671875 23.828125 
L 48.046875 23.828125 
L 48.046875 17.1875 
L 38.671875 17.1875 
L 38.671875 2.34375 
L 31.25 2.34375 
z
M 31.25 23.828125 
L 31.25 54.6875 
L 9.375 23.828125 
z
" id="SimHei-34"/>
      </defs>
      <g transform="translate(327.231243 321.459)scale(0.1 -0.1)">
       <use xlink:href="#SimHei-34"/>
       <use x="50" xlink:href="#SimHei-30"/>
      </g>
     </g>
    </g>
    <g id="xtick_6">
     <g id="line2d_6">
      <g>
       <use style="stroke:#000000;stroke-width:0.8;" x="398.487273" xlink:href="#m931f2d3d52" y="307.584"/>
      </g>
     </g>
     <g id="text_6">
      <!-- 50 -->
      <defs>
       <path d="M 8.59375 20.703125 
Q 11.328125 10.15625 17.96875 8.984375 
Q 24.609375 7.8125 28.703125 10.34375 
Q 32.8125 12.890625 34.5625 16.984375 
Q 36.328125 21.09375 36.125 26.171875 
Q 35.9375 31.25 33.390625 34.765625 
Q 30.859375 38.28125 26.953125 39.453125 
Q 23.046875 40.625 18.15625 39.453125 
Q 13.28125 38.28125 10.15625 33.984375 
L 3.515625 34.765625 
Q 4.296875 37.109375 10.9375 68.359375 
L 41.796875 68.359375 
L 41.796875 61.328125 
L 16.796875 61.328125 
Q 14.84375 50.78125 12.890625 44.53125 
Q 18.75 47.265625 23.828125 47.0625 
Q 28.90625 46.875 33.59375 44.71875 
Q 38.28125 42.578125 40.421875 38.859375 
Q 42.578125 35.15625 43.546875 31.4375 
Q 44.53125 27.734375 44.328125 23.4375 
Q 44.140625 19.140625 42.578125 14.640625 
Q 41.015625 10.15625 37.890625 7.21875 
Q 34.765625 4.296875 30.265625 2.53125 
Q 25.78125 0.78125 19.921875 1.171875 
Q 14.0625 1.5625 8.78125 5.46875 
Q 3.515625 9.375 1.5625 18.75 
z
" id="SimHei-35"/>
      </defs>
      <g transform="translate(393.487273 321.459)scale(0.1 -0.1)">
       <use xlink:href="#SimHei-35"/>
       <use x="50" xlink:href="#SimHei-30"/>
      </g>
     </g>
    </g>
    <g id="text_7">
     <!-- 回合/k -->
     <defs>
      <path d="M 88.28125 75.78125 
Q 87.890625 64.453125 87.890625 53.90625 
L 87.890625 14.84375 
Q 87.890625 4.6875 88.28125 -5.859375 
L 80.46875 -5.859375 
L 80.46875 1.5625 
L 18.359375 1.5625 
L 18.359375 -5.859375 
L 10.9375 -5.859375 
Q 11.328125 3.90625 11.328125 14.84375 
L 11.328125 53.90625 
Q 11.328125 64.0625 10.9375 75.78125 
L 88.28125 75.78125 
z
M 80.46875 7.8125 
L 80.46875 69.140625 
L 18.75 69.140625 
L 18.75 7.8125 
z
M 67.578125 54.6875 
Q 67.1875 48.828125 67.1875 42.96875 
L 67.1875 33.984375 
Q 67.1875 28.90625 67.578125 21.875 
L 31.640625 21.875 
Q 32.03125 28.90625 32.03125 33.984375 
L 32.03125 43.75 
Q 32.03125 49.21875 31.640625 54.6875 
L 67.578125 54.6875 
z
M 59.765625 28.515625 
L 59.765625 48.4375 
L 39.0625 48.4375 
L 39.0625 28.515625 
z
" id="SimHei-56de"/>
      <path d="M 78.90625 28.125 
Q 78.515625 24.21875 78.515625 10.15625 
Q 78.515625 -3.90625 78.90625 -8.203125 
L 70.703125 -8.203125 
L 70.703125 -0.78125 
L 27.34375 -0.78125 
L 27.34375 -9.375 
L 19.53125 -9.375 
Q 19.921875 -4.6875 19.921875 8.59375 
Q 19.921875 22.265625 19.53125 28.125 
L 78.90625 28.125 
z
M 52.734375 75 
Q 64.0625 61.328125 71.09375 56.25 
Q 78.125 51.171875 83.984375 48.4375 
Q 89.84375 45.703125 95.3125 44.140625 
Q 91.40625 39.84375 90.234375 35.9375 
Q 82.421875 39.453125 76.171875 43.359375 
Q 69.921875 47.265625 63.46875 53.3125 
Q 57.03125 59.375 48.828125 69.921875 
Q 41.40625 59.375 34.171875 52.53125 
Q 26.953125 45.703125 21.875 41.796875 
Q 16.796875 37.890625 10.546875 33.984375 
Q 9.765625 35.546875 4.296875 40.234375 
Q 12.5 44.140625 19.921875 49.609375 
Q 27.34375 55.078125 34.765625 63.46875 
Q 42.1875 71.875 46.875 81.640625 
Q 51.171875 78.90625 54.6875 77.34375 
z
M 70.703125 5.46875 
L 70.703125 21.875 
L 27.34375 21.875 
L 27.34375 5.46875 
z
M 61.328125 44.140625 
Q 67.578125 44.140625 72.265625 44.53125 
L 72.265625 37.109375 
Q 67.1875 37.5 61.71875 37.5 
L 39.84375 37.5 
Q 31.640625 37.5 26.5625 37.109375 
L 26.5625 44.53125 
Q 33.984375 44.140625 39.84375 44.140625 
z
" id="SimHei-5408"/>
      <path d="M 46.875 71.09375 
L 5.46875 -2.734375 
L 1.5625 -0.390625 
L 42.96875 73.4375 
z
" id="SimHei-2f"/>
      <path d="M 45.703125 1.953125 
L 36.71875 1.953125 
L 22.65625 25.78125 
L 13.671875 17.1875 
L 13.671875 1.953125 
L 5.859375 1.953125 
L 5.859375 68.75 
L 13.671875 68.75 
L 13.671875 26.171875 
L 33.203125 45.703125 
L 42.96875 45.703125 
L 27.734375 30.859375 
z
" id="SimHei-6b"/>
     </defs>
     <g transform="translate(213.66 338.486344)scale(0.15 -0.15)">
      <use xlink:href="#SimHei-56de"/>
      <use x="100" xlink:href="#SimHei-5408"/>
      <use x="200" xlink:href="#SimHei-2f"/>
      <use x="250" xlink:href="#SimHei-6b"/>
     </g>
    </g>
   </g>
   <g id="matplotlib.axis_2">
    <g id="ytick_1">
     <g id="line2d_7">
      <defs>
       <path d="M 0 0 
L -3.5 0 
" id="mda6c99681c" style="stroke:#000000;stroke-width:0.8;"/>
      </defs>
      <g>
       <use style="stroke:#000000;stroke-width:0.8;" x="57.6" xlink:href="#mda6c99681c" y="307.584"/>
      </g>
     </g>
     <g id="text_8">
      <!-- 0 -->
      <g transform="translate(45.6 311.0215)scale(0.1 -0.1)">
       <use xlink:href="#SimHei-30"/>
      </g>
     </g>
    </g>
    <g id="ytick_2">
     <g id="line2d_8">
      <g>
       <use style="stroke:#000000;stroke-width:0.8;" x="57.6" xlink:href="#mda6c99681c" y="254.3616"/>
      </g>
     </g>
     <g id="text_9">
      <!-- 20 -->
      <g transform="translate(40.6 257.7991)scale(0.1 -0.1)">
       <use xlink:href="#SimHei-32"/>
       <use x="50" xlink:href="#SimHei-30"/>
      </g>
     </g>
    </g>
    <g id="ytick_3">
     <g id="line2d_9">
      <g>
       <use style="stroke:#000000;stroke-width:0.8;" x="57.6" xlink:href="#mda6c99681c" y="201.1392"/>
      </g>
     </g>
     <g id="text_10">
      <!-- 40 -->
      <g transform="translate(40.6 204.5767)scale(0.1 -0.1)">
       <use xlink:href="#SimHei-34"/>
       <use x="50" xlink:href="#SimHei-30"/>
      </g>
     </g>
    </g>
    <g id="ytick_4">
     <g id="line2d_10">
      <g>
       <use style="stroke:#000000;stroke-width:0.8;" x="57.6" xlink:href="#mda6c99681c" y="147.9168"/>
      </g>
     </g>
     <g id="text_11">
      <!-- 60 -->
      <defs>
       <path d="M 3.515625 19.53125 
Q 4.296875 30.859375 6.046875 34.765625 
Q 7.8125 38.671875 11.328125 44.53125 
L 27.34375 69.53125 
L 36.328125 69.53125 
L 19.921875 43.75 
Q 30.46875 46.484375 36.71875 42.96875 
Q 42.96875 39.453125 45.109375 34.953125 
Q 47.265625 30.46875 47.453125 25.1875 
Q 47.65625 19.921875 45.890625 14.84375 
Q 44.140625 9.765625 39.640625 5.65625 
Q 35.15625 1.5625 27.140625 1.171875 
Q 19.140625 0.78125 13.46875 4.09375 
Q 7.8125 7.421875 5.65625 13.46875 
Q 3.515625 19.53125 4.296875 30.859375 
z
M 12.5 16.015625 
Q 19.53125 8.59375 25.390625 8.203125 
Q 31.25 7.8125 35.15625 12.109375 
Q 39.0625 16.40625 39.0625 24.609375 
Q 39.0625 32.8125 34.171875 35.9375 
Q 29.296875 39.0625 23.234375 38.28125 
Q 17.1875 37.5 14.453125 32.421875 
Q 11.71875 27.34375 12.109375 21.671875 
Q 12.5 16.015625 19.53125 8.59375 
z
" id="SimHei-36"/>
      </defs>
      <g transform="translate(40.6 151.3543)scale(0.1 -0.1)">
       <use xlink:href="#SimHei-36"/>
       <use x="50" xlink:href="#SimHei-30"/>
      </g>
     </g>
    </g>
    <g id="ytick_5">
     <g id="line2d_11">
      <g>
       <use style="stroke:#000000;stroke-width:0.8;" x="57.6" xlink:href="#mda6c99681c" y="94.6944"/>
      </g>
     </g>
     <g id="text_12">
      <!-- 80 -->
      <defs>
       <path d="M 2.734375 16.796875 
Q 2.734375 26.171875 5.078125 30.65625 
Q 7.421875 35.15625 12.890625 37.890625 
Q 8.203125 40.625 6.640625 43.9375 
Q 5.078125 47.265625 4.875 51.5625 
Q 4.6875 55.859375 6.046875 58.984375 
Q 7.421875 62.109375 10.15625 64.84375 
Q 12.890625 67.578125 16.203125 68.546875 
Q 19.53125 69.53125 23.4375 69.53125 
Q 27.34375 69.53125 30.46875 68.75 
Q 33.59375 67.96875 37.109375 65.421875 
Q 40.625 62.890625 42.1875 58.203125 
Q 43.75 53.515625 41.984375 47.265625 
Q 40.234375 41.015625 32.8125 37.5 
Q 39.453125 35.546875 42.1875 31.4375 
Q 44.921875 27.34375 44.921875 21.484375 
Q 44.921875 15.625 43.15625 12.109375 
Q 41.40625 8.59375 39.25 6.25 
Q 37.109375 3.90625 33.390625 2.53125 
Q 29.6875 1.171875 24.015625 1.171875 
Q 18.359375 1.171875 14.25 2.53125 
Q 10.15625 3.90625 7.421875 6.640625 
Q 4.6875 9.375 3.703125 13.078125 
Q 2.734375 16.796875 2.734375 26.171875 
z
M 10.9375 26.5625 
Q 10.546875 17.1875 12.296875 13.671875 
Q 14.0625 10.15625 18.75 9.171875 
Q 23.4375 8.203125 28.515625 9.375 
Q 33.59375 10.546875 35.546875 14.84375 
Q 37.5 19.140625 36.90625 23.4375 
Q 36.328125 27.734375 32.03125 30.65625 
Q 27.734375 33.59375 22.65625 33.203125 
Q 17.578125 32.8125 14.25 29.6875 
Q 10.9375 26.5625 10.546875 17.1875 
z
M 12.109375 56.25 
Q 12.109375 48.4375 14.84375 44.921875 
Q 17.578125 41.40625 23.4375 41.40625 
Q 29.296875 41.40625 32.21875 44.921875 
Q 35.15625 48.4375 34.953125 53.3125 
Q 34.765625 58.203125 31.4375 60.546875 
Q 28.125 62.890625 22.453125 62.5 
Q 16.796875 62.109375 14.453125 59.171875 
Q 12.109375 56.25 12.109375 48.4375 
z
" id="SimHei-38"/>
      </defs>
      <g transform="translate(40.6 98.1319)scale(0.1 -0.1)">
       <use xlink:href="#SimHei-38"/>
       <use x="50" xlink:href="#SimHei-30"/>
      </g>
     </g>
    </g>
    <g id="ytick_6">
     <g id="line2d_12">
      <g>
       <use style="stroke:#000000;stroke-width:0.8;" x="57.6" xlink:href="#mda6c99681c" y="41.472"/>
      </g>
     </g>
     <g id="text_13">
      <!-- 100 -->
      <g transform="translate(35.6 44.9095)scale(0.1 -0.1)">
       <use xlink:href="#SimHei-31"/>
       <use x="50" xlink:href="#SimHei-30"/>
       <use x="100" xlink:href="#SimHei-30"/>
      </g>
     </g>
    </g>
    <g id="text_14">
     <!-- 相似度/% -->
     <defs>
      <path d="M 92.1875 75.390625 
Q 91.796875 66.015625 91.796875 55.859375 
L 91.796875 11.71875 
Q 91.796875 1.171875 92.1875 -8.984375 
L 84.375 -8.984375 
L 84.375 -1.5625 
L 55.078125 -1.5625 
L 55.078125 -9.765625 
L 47.265625 -9.765625 
Q 47.65625 1.953125 47.65625 10.546875 
L 47.65625 56.25 
Q 47.65625 66.40625 47.265625 75.390625 
L 92.1875 75.390625 
z
M 21.875 59.765625 
Q 21.875 75.78125 21.484375 81.25 
L 30.078125 81.25 
Q 29.6875 75.390625 29.6875 59.765625 
Q 39.0625 59.765625 44.140625 60.15625 
L 44.140625 52.734375 
Q 39.453125 53.125 29.6875 53.125 
L 29.6875 38.28125 
Q 31.640625 40.234375 33.984375 42.96875 
Q 41.015625 35.546875 46.09375 28.515625 
Q 43.75 26.953125 40.234375 23.4375 
Q 35.9375 30.859375 29.6875 37.109375 
L 29.6875 7.421875 
Q 29.6875 0.78125 30.078125 -9.765625 
L 21.484375 -9.765625 
Q 21.875 0.78125 21.875 7.03125 
L 21.875 33.59375 
Q 16.796875 19.140625 10.15625 10.546875 
Q 7.421875 14.84375 4.6875 17.1875 
Q 7.421875 19.53125 12.5 29.484375 
Q 17.578125 39.453125 20.3125 53.125 
Q 11.71875 53.125 6.25 52.734375 
L 6.25 60.15625 
Q 13.28125 59.765625 21.875 59.765625 
z
M 84.375 5.078125 
L 84.375 23.046875 
L 55.078125 23.046875 
L 55.078125 5.078125 
z
M 84.375 51.5625 
L 84.375 68.75 
L 55.078125 68.75 
L 55.078125 51.5625 
z
M 84.375 29.6875 
L 84.375 45.3125 
L 55.078125 45.3125 
L 55.078125 29.6875 
z
" id="SimHei-76f8"/>
      <path d="M 82.421875 76.5625 
Q 81.25 72.65625 81.25 52.734375 
Q 81.25 33.203125 78.90625 21.09375 
Q 91.796875 7.421875 96.875 -0.390625 
Q 94.53125 -0.78125 89.84375 -5.46875 
Q 85.546875 1.953125 75.390625 14.0625 
Q 66.40625 0 51.171875 -10.9375 
Q 49.609375 -7.421875 44.53125 -5.46875 
Q 58.59375 2.734375 65.625 13.28125 
Q 72.65625 23.828125 73.625 36.515625 
Q 74.609375 49.21875 73.4375 78.125 
Q 78.125 76.953125 82.421875 76.5625 
z
M 30.46875 77.734375 
Q 28.125 73.046875 24.21875 62.109375 
L 24.21875 9.375 
Q 24.21875 -1.5625 24.609375 -8.984375 
L 16.40625 -8.984375 
Q 16.796875 0 16.796875 9.375 
L 16.796875 45.3125 
Q 14.84375 40.625 10.15625 32.8125 
Q 8.984375 35.15625 4.296875 38.671875 
Q 9.765625 46.484375 14.84375 58.59375 
Q 19.921875 70.703125 21.875 80.859375 
Q 23.4375 79.296875 30.46875 77.734375 
z
M 44.53125 65.234375 
Q 44.140625 59.375 44.140625 52.34375 
L 44.140625 18.75 
Q 52.734375 27.34375 55.859375 32.421875 
Q 59.375 28.125 61.328125 26.953125 
Q 46.09375 10.15625 41.015625 4.6875 
Q 38.671875 7.8125 35.15625 11.328125 
Q 37.5 14.453125 37.109375 19.140625 
L 37.109375 51.953125 
Q 37.109375 60.15625 36.71875 65.234375 
L 44.53125 65.234375 
z
M 54.6875 78.515625 
Q 62.890625 65.625 67.578125 55.859375 
Q 65.625 54.6875 60.546875 51.953125 
Q 57.03125 60.546875 48.4375 75 
Q 51.171875 75.78125 54.6875 78.515625 
z
" id="SimHei-4f3c"/>
      <path d="M 27.34375 26.171875 
Q 38.28125 25.78125 44.921875 25.78125 
L 81.25 25.78125 
Q 77.734375 19.53125 72.65625 13.28125 
Q 67.578125 7.03125 62.890625 3.125 
Q 67.96875 0.78125 77.34375 -0.78125 
Q 86.71875 -2.34375 95.3125 -2.34375 
Q 92.96875 -4.6875 91.015625 -10.15625 
Q 79.6875 -8.59375 71.09375 -6.4375 
Q 62.5 -4.296875 56.640625 -1.5625 
Q 48.4375 -5.078125 40.421875 -7.21875 
Q 32.421875 -9.375 23.828125 -10.546875 
Q 22.65625 -7.421875 19.140625 -3.90625 
Q 26.171875 -3.90625 35.15625 -1.953125 
Q 44.140625 0 50.78125 3.125 
Q 44.140625 8.59375 37.5 19.921875 
L 27.34375 19.53125 
z
M 46.484375 79.296875 
Q 50.78125 80.46875 54.296875 82.03125 
Q 56.640625 77.734375 58.984375 70.703125 
L 73.4375 70.703125 
Q 77.734375 70.703125 89.0625 71.09375 
L 89.0625 64.0625 
Q 78.125 64.453125 72.65625 64.453125 
L 21.484375 64.453125 
Q 21.484375 46.875 21.09375 36.125 
Q 20.703125 25.390625 18.9375 14.84375 
Q 17.1875 4.296875 11.328125 -8.203125 
Q 7.8125 -5.859375 3.90625 -4.6875 
Q 10.15625 6.25 11.90625 16.796875 
Q 13.671875 27.34375 13.859375 43.75 
Q 14.0625 60.15625 13.671875 70.703125 
L 50 70.703125 
Q 48.4375 75.78125 46.484375 79.296875 
z
M 38.671875 51.5625 
Q 38.671875 57.8125 38.28125 61.328125 
L 46.484375 61.328125 
Q 46.09375 58.203125 46.09375 51.5625 
L 67.1875 51.5625 
Q 67.1875 57.8125 66.796875 61.71875 
L 75 61.71875 
Q 74.609375 57.03125 74.609375 51.5625 
Q 83.203125 51.5625 89.453125 51.953125 
L 89.453125 45.3125 
Q 83.59375 45.703125 74.609375 45.703125 
Q 74.609375 35.15625 75 30.46875 
L 38.28125 30.46875 
Q 38.671875 36.71875 38.671875 45.703125 
Q 33.984375 45.703125 25 45.3125 
L 25 51.953125 
Q 33.984375 51.5625 38.671875 51.5625 
z
M 67.1875 36.71875 
L 67.1875 45.703125 
L 46.09375 45.703125 
L 46.09375 36.71875 
z
M 44.921875 19.921875 
Q 50 12.109375 57.03125 6.640625 
Q 62.890625 10.9375 69.140625 19.921875 
L 45.3125 19.921875 
z
" id="SimHei-5ea6"/>
      <path d="M 21.875 51.953125 
Q 21.875 40.625 18.546875 37.5 
Q 15.234375 34.375 12.109375 34.375 
Q 8.984375 34.375 5.65625 37.5 
Q 2.34375 40.625 2.34375 51.953125 
Q 2.34375 63.28125 5.65625 66.40625 
Q 8.984375 69.53125 12.109375 69.53125 
Q 15.234375 69.53125 18.546875 66.40625 
Q 21.875 63.28125 21.875 51.953125 
z
M 41.015625 68.359375 
L 10.9375 1.171875 
L 7.8125 2.34375 
L 37.890625 69.53125 
z
M 46.484375 18.75 
Q 46.484375 7.421875 43.15625 4.296875 
Q 39.84375 1.171875 36.71875 1.171875 
Q 33.59375 1.171875 30.265625 4.296875 
Q 26.953125 7.421875 26.953125 18.75 
Q 26.953125 30.078125 30.265625 33.203125 
Q 33.59375 36.328125 36.71875 36.328125 
Q 39.84375 36.328125 43.15625 33.203125 
Q 46.484375 30.078125 46.484375 18.75 
z
M 15.625 51.953125 
Q 15.625 58.984375 14.84375 61.328125 
Q 14.0625 63.671875 12.109375 63.671875 
Q 10.15625 63.671875 9.375 61.328125 
Q 8.59375 58.984375 8.59375 51.953125 
Q 8.59375 44.921875 9.375 42.578125 
Q 10.15625 40.234375 12.109375 40.234375 
Q 14.0625 40.234375 14.84375 42.578125 
Q 15.625 44.921875 15.625 51.953125 
z
M 40.234375 18.75 
Q 40.234375 25.78125 39.453125 28.125 
Q 38.671875 30.46875 36.71875 30.46875 
Q 34.765625 30.46875 33.984375 28.125 
Q 33.203125 25.78125 33.203125 18.75 
Q 33.203125 11.71875 33.984375 9.375 
Q 34.765625 7.03125 36.71875 7.03125 
Q 38.671875 7.03125 39.453125 9.375 
Q 40.234375 11.71875 40.234375 18.75 
z
" id="SimHei-25"/>
     </defs>
     <g transform="translate(29.725 204.528)rotate(-90)scale(0.15 -0.15)">
      <use xlink:href="#SimHei-76f8"/>
      <use x="100" xlink:href="#SimHei-4f3c"/>
      <use x="200" xlink:href="#SimHei-5ea6"/>
      <use x="300" xlink:href="#SimHei-2f"/>
      <use x="350" xlink:href="#SimHei-25"/>
     </g>
    </g>
   </g>
   <g id="line2d_13">
    <path clip-path="url(#p02b3ce27b7)" d="M 73.832727 113.32224 
L 80.45833 97.35552 
L 87.083933 129.28896 
L 93.709536 100.01664 
L 100.335139 105.33888 
L 106.960742 94.6944 
L 113.586345 113.32224 
L 120.211948 108 
L 126.837551 126.62784 
L 133.463154 115.98336 
L 140.088757 113.32224 
L 146.71436 105.33888 
L 153.339963 113.32224 
L 159.965566 97.35552 
L 166.591169 121.3056 
L 173.216772 113.32224 
L 179.842375 92.03328 
L 186.467978 113.32224 
L 193.093581 123.96672 
L 199.719184 105.33888 
L 206.344787 102.67776 
L 212.97039 100.01664 
L 219.595993 115.98336 
L 226.221596 108 
L 232.847199 113.32224 
L 239.472801 105.33888 
L 246.098404 137.27232 
L 252.724007 110.66112 
L 259.34961 108 
L 265.975213 100.01664 
L 272.600816 97.35552 
L 279.226419 118.64448 
L 285.852022 113.32224 
L 292.477625 108 
L 299.103228 110.66112 
L 305.728831 97.35552 
L 312.354434 97.35552 
L 318.980037 115.98336 
L 325.60564 105.33888 
L 332.231243 108 
L 338.856846 110.66112 
L 345.482449 100.01664 
L 352.108052 121.3056 
L 358.733655 105.33888 
L 365.359258 102.67776 
L 371.984861 113.32224 
L 378.610464 110.66112 
L 385.236067 92.03328 
L 391.86167 123.96672 
L 398.487273 118.64448 
" style="fill:none;stroke:#1f77b4;stroke-linecap:square;stroke-width:1.5;"/>
    <defs>
     <path d="M 0 2 
C 0.530406 2 1.03916 1.789267 1.414214 1.414214 
C 1.789267 1.03916 2 0.530406 2 0 
C 2 -0.530406 1.789267 -1.03916 1.414214 -1.414214 
C 1.03916 -1.789267 0.530406 -2 0 -2 
C -0.530406 -2 -1.03916 -1.789267 -1.414214 -1.414214 
C -1.789267 -1.03916 -2 -0.530406 -2 0 
C -2 0.530406 -1.789267 1.03916 -1.414214 1.414214 
C -1.03916 1.789267 -0.530406 2 0 2 
z
" id="mcff3b5e29c" style="stroke:#1f77b4;"/>
    </defs>
    <g clip-path="url(#p02b3ce27b7)">
     <use style="fill:#1f77b4;stroke:#1f77b4;" x="73.832727" xlink:href="#mcff3b5e29c" y="113.32224"/>
     <use style="fill:#1f77b4;stroke:#1f77b4;" x="80.45833" xlink:href="#mcff3b5e29c" y="97.35552"/>
     <use style="fill:#1f77b4;stroke:#1f77b4;" x="87.083933" xlink:href="#mcff3b5e29c" y="129.28896"/>
     <use style="fill:#1f77b4;stroke:#1f77b4;" x="93.709536" xlink:href="#mcff3b5e29c" y="100.01664"/>
     <use style="fill:#1f77b4;stroke:#1f77b4;" x="100.335139" xlink:href="#mcff3b5e29c" y="105.33888"/>
     <use style="fill:#1f77b4;stroke:#1f77b4;" x="106.960742" xlink:href="#mcff3b5e29c" y="94.6944"/>
     <use style="fill:#1f77b4;stroke:#1f77b4;" x="113.586345" xlink:href="#mcff3b5e29c" y="113.32224"/>
     <use style="fill:#1f77b4;stroke:#1f77b4;" x="120.211948" xlink:href="#mcff3b5e29c" y="108"/>
     <use style="fill:#1f77b4;stroke:#1f77b4;" x="126.837551" xlink:href="#mcff3b5e29c" y="126.62784"/>
     <use style="fill:#1f77b4;stroke:#1f77b4;" x="133.463154" xlink:href="#mcff3b5e29c" y="115.98336"/>
     <use style="fill:#1f77b4;stroke:#1f77b4;" x="140.088757" xlink:href="#mcff3b5e29c" y="113.32224"/>
     <use style="fill:#1f77b4;stroke:#1f77b4;" x="146.71436" xlink:href="#mcff3b5e29c" y="105.33888"/>
     <use style="fill:#1f77b4;stroke:#1f77b4;" x="153.339963" xlink:href="#mcff3b5e29c" y="113.32224"/>
     <use style="fill:#1f77b4;stroke:#1f77b4;" x="159.965566" xlink:href="#mcff3b5e29c" y="97.35552"/>
     <use style="fill:#1f77b4;stroke:#1f77b4;" x="166.591169" xlink:href="#mcff3b5e29c" y="121.3056"/>
     <use style="fill:#1f77b4;stroke:#1f77b4;" x="173.216772" xlink:href="#mcff3b5e29c" y="113.32224"/>
     <use style="fill:#1f77b4;stroke:#1f77b4;" x="179.842375" xlink:href="#mcff3b5e29c" y="92.03328"/>
     <use style="fill:#1f77b4;stroke:#1f77b4;" x="186.467978" xlink:href="#mcff3b5e29c" y="113.32224"/>
     <use style="fill:#1f77b4;stroke:#1f77b4;" x="193.093581" xlink:href="#mcff3b5e29c" y="123.96672"/>
     <use style="fill:#1f77b4;stroke:#1f77b4;" x="199.719184" xlink:href="#mcff3b5e29c" y="105.33888"/>
     <use style="fill:#1f77b4;stroke:#1f77b4;" x="206.344787" xlink:href="#mcff3b5e29c" y="102.67776"/>
     <use style="fill:#1f77b4;stroke:#1f77b4;" x="212.97039" xlink:href="#mcff3b5e29c" y="100.01664"/>
     <use style="fill:#1f77b4;stroke:#1f77b4;" x="219.595993" xlink:href="#mcff3b5e29c" y="115.98336"/>
     <use style="fill:#1f77b4;stroke:#1f77b4;" x="226.221596" xlink:href="#mcff3b5e29c" y="108"/>
     <use style="fill:#1f77b4;stroke:#1f77b4;" x="232.847199" xlink:href="#mcff3b5e29c" y="113.32224"/>
     <use style="fill:#1f77b4;stroke:#1f77b4;" x="239.472801" xlink:href="#mcff3b5e29c" y="105.33888"/>
     <use style="fill:#1f77b4;stroke:#1f77b4;" x="246.098404" xlink:href="#mcff3b5e29c" y="137.27232"/>
     <use style="fill:#1f77b4;stroke:#1f77b4;" x="252.724007" xlink:href="#mcff3b5e29c" y="110.66112"/>
     <use style="fill:#1f77b4;stroke:#1f77b4;" x="259.34961" xlink:href="#mcff3b5e29c" y="108"/>
     <use style="fill:#1f77b4;stroke:#1f77b4;" x="265.975213" xlink:href="#mcff3b5e29c" y="100.01664"/>
     <use style="fill:#1f77b4;stroke:#1f77b4;" x="272.600816" xlink:href="#mcff3b5e29c" y="97.35552"/>
     <use style="fill:#1f77b4;stroke:#1f77b4;" x="279.226419" xlink:href="#mcff3b5e29c" y="118.64448"/>
     <use style="fill:#1f77b4;stroke:#1f77b4;" x="285.852022" xlink:href="#mcff3b5e29c" y="113.32224"/>
     <use style="fill:#1f77b4;stroke:#1f77b4;" x="292.477625" xlink:href="#mcff3b5e29c" y="108"/>
     <use style="fill:#1f77b4;stroke:#1f77b4;" x="299.103228" xlink:href="#mcff3b5e29c" y="110.66112"/>
     <use style="fill:#1f77b4;stroke:#1f77b4;" x="305.728831" xlink:href="#mcff3b5e29c" y="97.35552"/>
     <use style="fill:#1f77b4;stroke:#1f77b4;" x="312.354434" xlink:href="#mcff3b5e29c" y="97.35552"/>
     <use style="fill:#1f77b4;stroke:#1f77b4;" x="318.980037" xlink:href="#mcff3b5e29c" y="115.98336"/>
     <use style="fill:#1f77b4;stroke:#1f77b4;" x="325.60564" xlink:href="#mcff3b5e29c" y="105.33888"/>
     <use style="fill:#1f77b4;stroke:#1f77b4;" x="332.231243" xlink:href="#mcff3b5e29c" y="108"/>
     <use style="fill:#1f77b4;stroke:#1f77b4;" x="338.856846" xlink:href="#mcff3b5e29c" y="110.66112"/>
     <use style="fill:#1f77b4;stroke:#1f77b4;" x="345.482449" xlink:href="#mcff3b5e29c" y="100.01664"/>
     <use style="fill:#1f77b4;stroke:#1f77b4;" x="352.108052" xlink:href="#mcff3b5e29c" y="121.3056"/>
     <use style="fill:#1f77b4;stroke:#1f77b4;" x="358.733655" xlink:href="#mcff3b5e29c" y="105.33888"/>
     <use style="fill:#1f77b4;stroke:#1f77b4;" x="365.359258" xlink:href="#mcff3b5e29c" y="102.67776"/>
     <use style="fill:#1f77b4;stroke:#1f77b4;" x="371.984861" xlink:href="#mcff3b5e29c" y="113.32224"/>
     <use style="fill:#1f77b4;stroke:#1f77b4;" x="378.610464" xlink:href="#mcff3b5e29c" y="110.66112"/>
     <use style="fill:#1f77b4;stroke:#1f77b4;" x="385.236067" xlink:href="#mcff3b5e29c" y="92.03328"/>
     <use style="fill:#1f77b4;stroke:#1f77b4;" x="391.86167" xlink:href="#mcff3b5e29c" y="123.96672"/>
     <use style="fill:#1f77b4;stroke:#1f77b4;" x="398.487273" xlink:href="#mcff3b5e29c" y="118.64448"/>
    </g>
   </g>
   <g id="line2d_14">
    <path clip-path="url(#p02b3ce27b7)" d="M 73.832727 304.92288 
L 80.45833 307.584 
L 87.083933 299.60064 
L 93.709536 283.63392 
L 100.335139 265.00608 
L 106.960742 249.03936 
L 113.586345 230.41152 
L 120.211948 171.86688 
L 126.837551 185.17248 
L 133.463154 145.25568 
L 140.088757 137.27232 
L 146.71436 142.59456 
L 153.339963 121.3056 
L 159.965566 171.86688 
L 166.591169 171.86688 
L 173.216772 147.9168 
L 179.842375 134.6112 
L 186.467978 121.3056 
L 193.093581 129.28896 
L 199.719184 134.6112 
L 206.344787 97.35552 
L 212.97039 92.03328 
L 219.595993 121.3056 
L 226.221596 118.64448 
L 232.847199 89.37216 
L 239.472801 118.64448 
L 246.098404 108 
L 252.724007 100.01664 
L 259.34961 86.71104 
L 265.975213 86.71104 
L 272.600816 105.33888 
L 279.226419 100.01664 
L 285.852022 105.33888 
L 292.477625 110.66112 
L 299.103228 105.33888 
L 305.728831 113.32224 
L 312.354434 92.03328 
L 318.980037 113.32224 
L 325.60564 92.03328 
L 332.231243 89.37216 
L 338.856846 108 
L 345.482449 92.03328 
L 352.108052 102.67776 
L 358.733655 89.37216 
L 365.359258 92.03328 
L 371.984861 94.6944 
L 378.610464 102.67776 
L 385.236067 105.33888 
L 391.86167 102.67776 
L 398.487273 92.03328 
" style="fill:none;stroke:#ff7f0e;stroke-linecap:square;stroke-width:1.5;"/>
    <defs>
     <path d="M -0 2 
L 2 -2 
L -2 -2 
z
" id="mc641463be0" style="stroke:#ff7f0e;stroke-linejoin:miter;"/>
    </defs>
    <g clip-path="url(#p02b3ce27b7)">
     <use style="fill:#ff7f0e;stroke:#ff7f0e;stroke-linejoin:miter;" x="73.832727" xlink:href="#mc641463be0" y="304.92288"/>
     <use style="fill:#ff7f0e;stroke:#ff7f0e;stroke-linejoin:miter;" x="80.45833" xlink:href="#mc641463be0" y="307.584"/>
     <use style="fill:#ff7f0e;stroke:#ff7f0e;stroke-linejoin:miter;" x="87.083933" xlink:href="#mc641463be0" y="299.60064"/>
     <use style="fill:#ff7f0e;stroke:#ff7f0e;stroke-linejoin:miter;" x="93.709536" xlink:href="#mc641463be0" y="283.63392"/>
     <use style="fill:#ff7f0e;stroke:#ff7f0e;stroke-linejoin:miter;" x="100.335139" xlink:href="#mc641463be0" y="265.00608"/>
     <use style="fill:#ff7f0e;stroke:#ff7f0e;stroke-linejoin:miter;" x="106.960742" xlink:href="#mc641463be0" y="249.03936"/>
     <use style="fill:#ff7f0e;stroke:#ff7f0e;stroke-linejoin:miter;" x="113.586345" xlink:href="#mc641463be0" y="230.41152"/>
     <use style="fill:#ff7f0e;stroke:#ff7f0e;stroke-linejoin:miter;" x="120.211948" xlink:href="#mc641463be0" y="171.86688"/>
     <use style="fill:#ff7f0e;stroke:#ff7f0e;stroke-linejoin:miter;" x="126.837551" xlink:href="#mc641463be0" y="185.17248"/>
     <use style="fill:#ff7f0e;stroke:#ff7f0e;stroke-linejoin:miter;" x="133.463154" xlink:href="#mc641463be0" y="145.25568"/>
     <use style="fill:#ff7f0e;stroke:#ff7f0e;stroke-linejoin:miter;" x="140.088757" xlink:href="#mc641463be0" y="137.27232"/>
     <use style="fill:#ff7f0e;stroke:#ff7f0e;stroke-linejoin:miter;" x="146.71436" xlink:href="#mc641463be0" y="142.59456"/>
     <use style="fill:#ff7f0e;stroke:#ff7f0e;stroke-linejoin:miter;" x="153.339963" xlink:href="#mc641463be0" y="121.3056"/>
     <use style="fill:#ff7f0e;stroke:#ff7f0e;stroke-linejoin:miter;" x="159.965566" xlink:href="#mc641463be0" y="171.86688"/>
     <use style="fill:#ff7f0e;stroke:#ff7f0e;stroke-linejoin:miter;" x="166.591169" xlink:href="#mc641463be0" y="171.86688"/>
     <use style="fill:#ff7f0e;stroke:#ff7f0e;stroke-linejoin:miter;" x="173.216772" xlink:href="#mc641463be0" y="147.9168"/>
     <use style="fill:#ff7f0e;stroke:#ff7f0e;stroke-linejoin:miter;" x="179.842375" xlink:href="#mc641463be0" y="134.6112"/>
     <use style="fill:#ff7f0e;stroke:#ff7f0e;stroke-linejoin:miter;" x="186.467978" xlink:href="#mc641463be0" y="121.3056"/>
     <use style="fill:#ff7f0e;stroke:#ff7f0e;stroke-linejoin:miter;" x="193.093581" xlink:href="#mc641463be0" y="129.28896"/>
     <use style="fill:#ff7f0e;stroke:#ff7f0e;stroke-linejoin:miter;" x="199.719184" xlink:href="#mc641463be0" y="134.6112"/>
     <use style="fill:#ff7f0e;stroke:#ff7f0e;stroke-linejoin:miter;" x="206.344787" xlink:href="#mc641463be0" y="97.35552"/>
     <use style="fill:#ff7f0e;stroke:#ff7f0e;stroke-linejoin:miter;" x="212.97039" xlink:href="#mc641463be0" y="92.03328"/>
     <use style="fill:#ff7f0e;stroke:#ff7f0e;stroke-linejoin:miter;" x="219.595993" xlink:href="#mc641463be0" y="121.3056"/>
     <use style="fill:#ff7f0e;stroke:#ff7f0e;stroke-linejoin:miter;" x="226.221596" xlink:href="#mc641463be0" y="118.64448"/>
     <use style="fill:#ff7f0e;stroke:#ff7f0e;stroke-linejoin:miter;" x="232.847199" xlink:href="#mc641463be0" y="89.37216"/>
     <use style="fill:#ff7f0e;stroke:#ff7f0e;stroke-linejoin:miter;" x="239.472801" xlink:href="#mc641463be0" y="118.64448"/>
     <use style="fill:#ff7f0e;stroke:#ff7f0e;stroke-linejoin:miter;" x="246.098404" xlink:href="#mc641463be0" y="108"/>
     <use style="fill:#ff7f0e;stroke:#ff7f0e;stroke-linejoin:miter;" x="252.724007" xlink:href="#mc641463be0" y="100.01664"/>
     <use style="fill:#ff7f0e;stroke:#ff7f0e;stroke-linejoin:miter;" x="259.34961" xlink:href="#mc641463be0" y="86.71104"/>
     <use style="fill:#ff7f0e;stroke:#ff7f0e;stroke-linejoin:miter;" x="265.975213" xlink:href="#mc641463be0" y="86.71104"/>
     <use style="fill:#ff7f0e;stroke:#ff7f0e;stroke-linejoin:miter;" x="272.600816" xlink:href="#mc641463be0" y="105.33888"/>
     <use style="fill:#ff7f0e;stroke:#ff7f0e;stroke-linejoin:miter;" x="279.226419" xlink:href="#mc641463be0" y="100.01664"/>
     <use style="fill:#ff7f0e;stroke:#ff7f0e;stroke-linejoin:miter;" x="285.852022" xlink:href="#mc641463be0" y="105.33888"/>
     <use style="fill:#ff7f0e;stroke:#ff7f0e;stroke-linejoin:miter;" x="292.477625" xlink:href="#mc641463be0" y="110.66112"/>
     <use style="fill:#ff7f0e;stroke:#ff7f0e;stroke-linejoin:miter;" x="299.103228" xlink:href="#mc641463be0" y="105.33888"/>
     <use style="fill:#ff7f0e;stroke:#ff7f0e;stroke-linejoin:miter;" x="305.728831" xlink:href="#mc641463be0" y="113.32224"/>
     <use style="fill:#ff7f0e;stroke:#ff7f0e;stroke-linejoin:miter;" x="312.354434" xlink:href="#mc641463be0" y="92.03328"/>
     <use style="fill:#ff7f0e;stroke:#ff7f0e;stroke-linejoin:miter;" x="318.980037" xlink:href="#mc641463be0" y="113.32224"/>
     <use style="fill:#ff7f0e;stroke:#ff7f0e;stroke-linejoin:miter;" x="325.60564" xlink:href="#mc641463be0" y="92.03328"/>
     <use style="fill:#ff7f0e;stroke:#ff7f0e;stroke-linejoin:miter;" x="332.231243" xlink:href="#mc641463be0" y="89.37216"/>
     <use style="fill:#ff7f0e;stroke:#ff7f0e;stroke-linejoin:miter;" x="338.856846" xlink:href="#mc641463be0" y="108"/>
     <use style="fill:#ff7f0e;stroke:#ff7f0e;stroke-linejoin:miter;" x="345.482449" xlink:href="#mc641463be0" y="92.03328"/>
     <use style="fill:#ff7f0e;stroke:#ff7f0e;stroke-linejoin:miter;" x="352.108052" xlink:href="#mc641463be0" y="102.67776"/>
     <use style="fill:#ff7f0e;stroke:#ff7f0e;stroke-linejoin:miter;" x="358.733655" xlink:href="#mc641463be0" y="89.37216"/>
     <use style="fill:#ff7f0e;stroke:#ff7f0e;stroke-linejoin:miter;" x="365.359258" xlink:href="#mc641463be0" y="92.03328"/>
     <use style="fill:#ff7f0e;stroke:#ff7f0e;stroke-linejoin:miter;" x="371.984861" xlink:href="#mc641463be0" y="94.6944"/>
     <use style="fill:#ff7f0e;stroke:#ff7f0e;stroke-linejoin:miter;" x="378.610464" xlink:href="#mc641463be0" y="102.67776"/>
     <use style="fill:#ff7f0e;stroke:#ff7f0e;stroke-linejoin:miter;" x="385.236067" xlink:href="#mc641463be0" y="105.33888"/>
     <use style="fill:#ff7f0e;stroke:#ff7f0e;stroke-linejoin:miter;" x="391.86167" xlink:href="#mc641463be0" y="102.67776"/>
     <use style="fill:#ff7f0e;stroke:#ff7f0e;stroke-linejoin:miter;" x="398.487273" xlink:href="#mc641463be0" y="92.03328"/>
    </g>
   </g>
   <g id="patch_3">
    <path d="M 57.6 307.584 
L 57.6 41.472 
" style="fill:none;stroke:#000000;stroke-linecap:square;stroke-linejoin:miter;stroke-width:0.8;"/>
   </g>
   <g id="patch_4">
    <path d="M 414.72 307.584 
L 414.72 41.472 
" style="fill:none;stroke:#000000;stroke-linecap:square;stroke-linejoin:miter;stroke-width:0.8;"/>
   </g>
   <g id="patch_5">
    <path d="M 57.6 307.584 
L 414.72 307.584 
" style="fill:none;stroke:#000000;stroke-linecap:square;stroke-linejoin:miter;stroke-width:0.8;"/>
   </g>
   <g id="patch_6">
    <path d="M 57.6 41.472 
L 414.72 41.472 
" style="fill:none;stroke:#000000;stroke-linecap:square;stroke-linejoin:miter;stroke-width:0.8;"/>
   </g>
   <g id="legend_1">
    <g id="patch_7">
     <path d="M 305.52 86.423562 
L 405.62 86.423562 
Q 408.22 86.423562 408.22 83.823562 
L 408.22 50.572 
Q 408.22 47.972 405.62 47.972 
L 305.52 47.972 
Q 302.92 47.972 302.92 50.572 
L 302.92 83.823562 
Q 302.92 86.423562 305.52 86.423562 
z
" style="fill:#ffffff;opacity:0.8;stroke:#cccccc;stroke-linejoin:miter;"/>
    </g>
    <g id="line2d_15">
     <path d="M 308.12 57.722 
L 334.12 57.722 
" style="fill:none;stroke:#1f77b4;stroke-linecap:square;stroke-width:1.5;"/>
    </g>
    <g id="line2d_16">
     <g>
      <use style="fill:#1f77b4;stroke:#1f77b4;" x="321.12" xlink:href="#mcff3b5e29c" y="57.722"/>
     </g>
    </g>
    <g id="text_15">
     <!-- Heuristic -->
     <defs>
      <path d="M 44.53125 1.953125 
L 35.546875 1.953125 
L 35.546875 33.203125 
L 13.28125 33.203125 
L 13.28125 1.953125 
L 4.296875 1.953125 
L 4.296875 68.75 
L 13.28125 68.75 
L 13.28125 40.625 
L 35.546875 40.625 
L 35.546875 68.75 
L 44.53125 68.75 
z
" id="SimHei-48"/>
      <path d="M 44.53125 16.796875 
Q 43.75 9.765625 38.28125 5.46875 
Q 32.8125 1.171875 25.390625 1.171875 
Q 16.015625 1.171875 9.953125 7.21875 
Q 3.90625 13.28125 3.90625 23.828125 
Q 3.90625 34.375 9.953125 40.421875 
Q 16.015625 46.484375 25.390625 46.484375 
Q 33.59375 46.484375 38.859375 41.203125 
Q 44.140625 35.9375 44.140625 23.828125 
L 12.5 23.828125 
Q 12.5 15.234375 16.203125 11.71875 
Q 19.921875 8.203125 25.390625 8.203125 
Q 29.6875 8.203125 32.421875 10.34375 
Q 35.15625 12.5 35.9375 16.796875 
z
M 35.15625 30.078125 
Q 34.375 35.546875 31.640625 37.6875 
Q 28.90625 39.84375 24.609375 39.84375 
Q 20.703125 39.84375 17.578125 37.6875 
Q 14.453125 35.546875 12.890625 30.078125 
z
" id="SimHei-65"/>
      <path d="M 43.75 1.953125 
L 35.9375 1.953125 
L 35.9375 10.15625 
Q 32.8125 5.859375 29.09375 3.515625 
Q 25.390625 1.171875 19.53125 1.171875 
Q 12.5 1.171875 8.984375 5.078125 
Q 5.46875 8.984375 5.46875 14.84375 
L 5.46875 45.703125 
L 13.28125 45.703125 
L 13.28125 17.578125 
Q 13.28125 12.890625 15.625 10.15625 
Q 17.96875 7.421875 21.875 7.421875 
Q 26.953125 7.421875 31.4375 12.6875 
Q 35.9375 17.96875 35.9375 25.78125 
L 35.9375 45.703125 
L 43.75 45.703125 
z
" id="SimHei-75"/>
      <path d="M 39.0625 37.890625 
Q 31.640625 39.0625 26.5625 35.734375 
Q 21.484375 32.421875 17.96875 24.21875 
L 17.96875 1.953125 
L 10.15625 1.953125 
L 10.15625 45.703125 
L 17.96875 45.703125 
L 17.96875 34.375 
Q 21.484375 40.625 26.75 43.546875 
Q 32.03125 46.484375 39.0625 46.484375 
z
" id="SimHei-72"/>
      <path d="M 28.125 58.203125 
L 20.3125 58.203125 
L 20.3125 68.359375 
L 28.125 68.359375 
z
M 28.125 1.953125 
L 20.3125 1.953125 
L 20.3125 45.703125 
L 28.125 45.703125 
z
" id="SimHei-69"/>
      <path d="M 42.96875 14.0625 
Q 42.96875 7.8125 38.078125 4.484375 
Q 33.203125 1.171875 25.78125 1.171875 
Q 16.40625 1.171875 11.328125 4.875 
Q 6.25 8.59375 6.25 15.625 
L 14.0625 15.625 
Q 14.0625 10.9375 17.375 9.375 
Q 20.703125 7.8125 25.390625 7.8125 
Q 30.078125 7.8125 32.421875 9.5625 
Q 34.765625 11.328125 34.765625 14.0625 
Q 34.765625 16.015625 32.8125 17.96875 
Q 30.859375 19.921875 23.046875 21.09375 
Q 14.0625 22.265625 10.734375 25.578125 
Q 7.421875 28.90625 7.421875 34.375 
Q 7.421875 39.0625 11.90625 42.765625 
Q 16.40625 46.484375 25 46.484375 
Q 32.8125 46.484375 37.296875 42.96875 
Q 41.796875 39.453125 41.796875 33.59375 
L 33.984375 33.59375 
Q 33.984375 37.109375 31.4375 38.46875 
Q 28.90625 39.84375 25 39.84375 
Q 19.921875 39.84375 17.765625 38.078125 
Q 15.625 36.328125 15.625 33.984375 
Q 15.625 31.25 17.578125 29.6875 
Q 19.53125 28.125 25.78125 27.34375 
Q 35.9375 25.78125 39.453125 22.453125 
Q 42.96875 19.140625 42.96875 14.0625 
z
" id="SimHei-73"/>
      <path d="M 42.96875 3.125 
Q 41.015625 2.34375 38.46875 1.75 
Q 35.9375 1.171875 31.640625 1.171875 
Q 24.609375 1.171875 20.3125 5.078125 
Q 16.015625 8.984375 16.015625 16.015625 
L 16.015625 39.453125 
L 2.734375 39.453125 
L 2.734375 45.703125 
L 16.015625 45.703125 
L 16.015625 60.9375 
L 23.828125 60.9375 
L 23.828125 45.703125 
L 39.84375 45.703125 
L 39.84375 39.453125 
L 23.828125 39.453125 
L 23.828125 15.625 
Q 23.828125 12.5 25.390625 10.34375 
Q 26.953125 8.203125 31.25 8.203125 
Q 35.546875 8.203125 38.28125 8.984375 
Q 41.015625 9.765625 42.96875 10.9375 
z
" id="SimHei-74"/>
      <path d="M 44.53125 19.53125 
Q 44.53125 11.328125 38.859375 6.25 
Q 33.203125 1.171875 24.609375 1.171875 
Q 16.015625 1.171875 9.765625 7.21875 
Q 3.515625 13.28125 3.515625 23.828125 
Q 3.515625 34.375 9.765625 40.421875 
Q 16.015625 46.484375 24.609375 46.484375 
Q 33.203125 46.484375 38.28125 41.984375 
Q 43.359375 37.5 43.359375 31.25 
L 34.765625 31.25 
Q 34.375 35.9375 31.4375 37.6875 
Q 28.515625 39.453125 24.609375 39.453125 
Q 19.921875 39.453125 16.015625 35.734375 
Q 12.109375 32.03125 12.109375 23.828125 
Q 12.109375 15.625 16.015625 11.90625 
Q 19.921875 8.203125 24.609375 8.203125 
Q 29.6875 8.203125 32.8125 10.9375 
Q 35.9375 13.671875 35.9375 19.53125 
z
" id="SimHei-63"/>
     </defs>
     <g transform="translate(344.52 62.272)scale(0.13 -0.13)">
      <use xlink:href="#SimHei-48"/>
      <use x="50" xlink:href="#SimHei-65"/>
      <use x="100" xlink:href="#SimHei-75"/>
      <use x="150" xlink:href="#SimHei-72"/>
      <use x="200" xlink:href="#SimHei-69"/>
      <use x="250" xlink:href="#SimHei-73"/>
      <use x="300" xlink:href="#SimHei-74"/>
      <use x="350" xlink:href="#SimHei-69"/>
      <use x="400" xlink:href="#SimHei-63"/>
     </g>
    </g>
    <g id="line2d_17">
     <path d="M 308.12 74.947 
L 334.12 74.947 
" style="fill:none;stroke:#ff7f0e;stroke-linecap:square;stroke-width:1.5;"/>
    </g>
    <g id="line2d_18">
     <g>
      <use style="fill:#ff7f0e;stroke:#ff7f0e;stroke-linejoin:miter;" x="321.12" xlink:href="#mc641463be0" y="74.947"/>
     </g>
    </g>
    <g id="text_16">
     <!-- DQN_1 -->
     <defs>
      <path d="M 45.703125 35.15625 
Q 45.703125 17.1875 38.078125 9.5625 
Q 30.46875 1.953125 17.578125 1.953125 
L 4.296875 1.953125 
L 4.296875 68.75 
L 17.578125 68.75 
Q 32.03125 68.75 38.859375 60.9375 
Q 45.703125 53.125 45.703125 35.15625 
z
M 36.328125 35.15625 
Q 36.328125 49.609375 31.640625 55.46875 
Q 26.953125 61.328125 17.578125 61.328125 
L 13.28125 61.328125 
L 13.28125 9.375 
L 17.578125 9.375 
Q 26.953125 9.375 31.640625 15.03125 
Q 36.328125 20.703125 36.328125 35.15625 
z
" id="SimHei-44"/>
      <path d="M 46.09375 35.546875 
Q 46.09375 26.171875 44.71875 19.71875 
Q 43.359375 13.28125 40.234375 9.375 
L 43.359375 3.515625 
L 37.109375 -3.125 
L 33.59375 3.515625 
Q 32.03125 2.34375 29.6875 1.75 
Q 27.34375 1.171875 24.609375 1.171875 
Q 14.453125 1.171875 8.59375 9.171875 
Q 2.734375 17.1875 2.734375 35.546875 
Q 2.734375 53.90625 8.59375 61.71875 
Q 14.453125 69.53125 24.609375 69.53125 
Q 34.765625 69.53125 40.421875 61.71875 
Q 46.09375 53.90625 46.09375 35.546875 
z
M 36.71875 35.546875 
Q 36.71875 51.953125 33.203125 57.03125 
Q 29.6875 62.109375 24.609375 62.109375 
Q 19.53125 62.109375 15.8125 57.03125 
Q 12.109375 51.953125 12.109375 35.546875 
Q 12.109375 19.140625 15.8125 13.859375 
Q 19.53125 8.59375 24.609375 8.59375 
Q 26.5625 8.59375 28.125 9.171875 
Q 29.6875 9.765625 30.46875 10.546875 
L 24.21875 22.65625 
L 29.6875 29.296875 
L 35.15625 18.75 
Q 35.9375 22.65625 36.328125 25.78125 
Q 36.71875 28.90625 36.71875 35.546875 
z
" id="SimHei-51"/>
      <path d="M 44.53125 1.953125 
L 34.765625 1.953125 
L 13.28125 50.390625 
L 12.890625 50.390625 
L 12.890625 1.953125 
L 3.90625 1.953125 
L 3.90625 68.75 
L 13.671875 68.75 
L 35.15625 20.3125 
L 35.546875 20.3125 
L 35.546875 68.75 
L 44.53125 68.75 
z
" id="SimHei-4e"/>
      <path d="M 49.21875 -13.28125 
L 0 -13.28125 
L 0 -8.59375 
L 49.21875 -8.59375 
z
" id="SimHei-5f"/>
     </defs>
     <g transform="translate(344.52 79.497)scale(0.13 -0.13)">
      <use xlink:href="#SimHei-44"/>
      <use x="50" xlink:href="#SimHei-51"/>
      <use x="100" xlink:href="#SimHei-4e"/>
      <use x="150" xlink:href="#SimHei-5f"/>
      <use x="200" xlink:href="#SimHei-31"/>
     </g>
    </g>
   </g>
  </g>
 </g>
 <defs>
  <clipPath id="p02b3ce27b7">
   <rect height="266.112" width="357.12" x="57.6" y="41.472"/>
  </clipPath>
 </defs>
</svg>
