<?xml version="1.0" encoding="utf-8" standalone="no"?>
<!DOCTYPE svg PUBLIC "-//W3C//DTD SVG 1.1//EN"
  "http://www.w3.org/Graphics/SVG/1.1/DTD/svg11.dtd">
<!-- Created with matplotlib (http://matplotlib.org/) -->
<svg height="769.457344pt" version="1.1" viewBox="0 0 778.992188 769.457344" width="778.992188pt" xmlns="http://www.w3.org/2000/svg" xmlns:xlink="http://www.w3.org/1999/xlink">
 <defs>
  <style type="text/css">
*{stroke-linecap:butt;stroke-linejoin:round;}
  </style>
 </defs>
 <g id="figure_1">
  <g id="patch_1">
   <path d="M 0 769.457344 
L 778.992188 769.457344 
L 778.992188 0 
L 0 0 
z
" style="fill:#ffffff;"/>
  </g>
  <g id="axes_1">
   <g id="LineCollection_1">
    <path clip-path="url(#pcb0ce5861e)" d="M 152.167188 623.149219 
L 275.392187 623.149219 
" style="fill:none;stroke:#000000;"/>
    <path clip-path="url(#pcb0ce5861e)" d="M 152.167188 623.149219 
L 152.167188 500.719219 
" style="fill:none;stroke:#000000;"/>
    <path clip-path="url(#pcb0ce5861e)" d="M 152.167188 500.719219 
L 275.392187 500.719219 
" style="fill:none;stroke:#000000;"/>
    <path clip-path="url(#pcb0ce5861e)" d="M 152.167188 500.719219 
L 152.167188 378.289219 
" style="fill:none;stroke:#000000;"/>
    <path clip-path="url(#pcb0ce5861e)" d="M 152.167188 378.289219 
L 275.392187 378.289219 
" style="fill:none;stroke:#000000;"/>
    <path clip-path="url(#pcb0ce5861e)" d="M 152.167188 378.289219 
L 152.167188 255.859219 
" style="fill:none;stroke:#000000;"/>
    <path clip-path="url(#pcb0ce5861e)" d="M 152.167188 255.859219 
L 275.392187 255.859219 
" style="fill:none;stroke:#000000;"/>
    <path clip-path="url(#pcb0ce5861e)" d="M 152.167188 255.859219 
L 152.167188 133.429219 
" style="fill:none;stroke:#000000;"/>
    <path clip-path="url(#pcb0ce5861e)" d="M 152.167188 133.429219 
L 275.392187 133.429219 
" style="fill:none;stroke:#000000;"/>
    <path clip-path="url(#pcb0ce5861e)" d="M 275.392187 623.149219 
L 398.617188 623.149219 
" style="fill:none;stroke:#000000;"/>
    <path clip-path="url(#pcb0ce5861e)" d="M 275.392187 623.149219 
L 275.392187 500.719219 
" style="fill:none;stroke:#000000;"/>
    <path clip-path="url(#pcb0ce5861e)" d="M 275.392187 500.719219 
L 398.617188 500.719219 
" style="fill:none;stroke:#000000;"/>
    <path clip-path="url(#pcb0ce5861e)" d="M 275.392187 500.719219 
L 275.392187 378.289219 
" style="fill:none;stroke:#000000;"/>
    <path clip-path="url(#pcb0ce5861e)" d="M 275.392187 378.289219 
L 398.617188 378.289219 
" style="fill:none;stroke:#000000;"/>
    <path clip-path="url(#pcb0ce5861e)" d="M 275.392187 378.289219 
L 275.392187 255.859219 
" style="fill:none;stroke:#000000;"/>
    <path clip-path="url(#pcb0ce5861e)" d="M 275.392187 255.859219 
L 398.617188 255.859219 
" style="fill:none;stroke:#000000;"/>
    <path clip-path="url(#pcb0ce5861e)" d="M 275.392187 255.859219 
L 275.392187 133.429219 
" style="fill:none;stroke:#000000;"/>
    <path clip-path="url(#pcb0ce5861e)" d="M 275.392187 133.429219 
L 398.617188 133.429219 
" style="fill:none;stroke:#000000;"/>
    <path clip-path="url(#pcb0ce5861e)" d="M 398.617188 623.149219 
L 521.842187 623.149219 
" style="fill:none;stroke:#000000;"/>
    <path clip-path="url(#pcb0ce5861e)" d="M 398.617188 623.149219 
L 398.617188 500.719219 
" style="fill:none;stroke:#000000;"/>
    <path clip-path="url(#pcb0ce5861e)" d="M 398.617188 500.719219 
L 521.842187 500.719219 
" style="fill:none;stroke:#000000;"/>
    <path clip-path="url(#pcb0ce5861e)" d="M 398.617188 500.719219 
L 398.617188 378.289219 
" style="fill:none;stroke:#000000;"/>
    <path clip-path="url(#pcb0ce5861e)" d="M 398.617188 378.289219 
L 521.842187 378.289219 
" style="fill:none;stroke:#000000;"/>
    <path clip-path="url(#pcb0ce5861e)" d="M 398.617188 378.289219 
L 398.617188 255.859219 
" style="fill:none;stroke:#000000;"/>
    <path clip-path="url(#pcb0ce5861e)" d="M 398.617188 255.859219 
L 521.842187 255.859219 
" style="fill:none;stroke:#000000;"/>
    <path clip-path="url(#pcb0ce5861e)" d="M 398.617188 255.859219 
L 398.617188 133.429219 
" style="fill:none;stroke:#000000;"/>
    <path clip-path="url(#pcb0ce5861e)" d="M 398.617188 133.429219 
L 521.842187 133.429219 
" style="fill:none;stroke:#000000;"/>
    <path clip-path="url(#pcb0ce5861e)" d="M 521.842187 623.149219 
L 645.067188 623.149219 
" style="fill:none;stroke:#000000;"/>
    <path clip-path="url(#pcb0ce5861e)" d="M 521.842187 623.149219 
L 521.842187 500.719219 
" style="fill:none;stroke:#000000;"/>
    <path clip-path="url(#pcb0ce5861e)" d="M 521.842187 500.719219 
L 645.067188 500.719219 
" style="fill:none;stroke:#000000;"/>
    <path clip-path="url(#pcb0ce5861e)" d="M 521.842187 500.719219 
L 521.842187 378.289219 
" style="fill:none;stroke:#000000;"/>
    <path clip-path="url(#pcb0ce5861e)" d="M 521.842187 378.289219 
L 645.067188 378.289219 
" style="fill:none;stroke:#000000;"/>
    <path clip-path="url(#pcb0ce5861e)" d="M 521.842187 378.289219 
L 521.842187 255.859219 
" style="fill:none;stroke:#000000;"/>
    <path clip-path="url(#pcb0ce5861e)" d="M 521.842187 255.859219 
L 645.067188 255.859219 
" style="fill:none;stroke:#000000;"/>
    <path clip-path="url(#pcb0ce5861e)" d="M 521.842187 255.859219 
L 521.842187 133.429219 
" style="fill:none;stroke:#000000;"/>
    <path clip-path="url(#pcb0ce5861e)" d="M 521.842187 133.429219 
L 645.067188 133.429219 
" style="fill:none;stroke:#000000;"/>
    <path clip-path="url(#pcb0ce5861e)" d="M 645.067188 623.149219 
L 645.067188 500.719219 
" style="fill:none;stroke:#000000;"/>
    <path clip-path="url(#pcb0ce5861e)" d="M 645.067188 500.719219 
L 645.067188 378.289219 
" style="fill:none;stroke:#000000;"/>
    <path clip-path="url(#pcb0ce5861e)" d="M 645.067188 378.289219 
L 645.067188 255.859219 
" style="fill:none;stroke:#000000;"/>
    <path clip-path="url(#pcb0ce5861e)" d="M 645.067188 255.859219 
L 645.067188 133.429219 
" style="fill:none;stroke:#000000;"/>
   </g>
   <g id="LineCollection_2">
    <path clip-path="url(#pcb0ce5861e)" d="M 275.392187 378.289219 
L 398.617188 378.289219 
" style="fill:none;stroke:#ff0000;stroke-width:6;"/>
    <path clip-path="url(#pcb0ce5861e)" d="M 275.392187 378.289219 
L 275.392187 255.859219 
" style="fill:none;stroke:#ff0000;stroke-width:6;"/>
    <path clip-path="url(#pcb0ce5861e)" d="M 398.617188 500.719219 
L 521.842187 500.719219 
" style="fill:none;stroke:#ff0000;stroke-width:6;"/>
    <path clip-path="url(#pcb0ce5861e)" d="M 398.617188 500.719219 
L 398.617188 378.289219 
" style="fill:none;stroke:#ff0000;stroke-width:6;"/>
   </g>
   <g id="text_1">
    <g id="patch_2">
     <path clip-path="url(#pcb0ce5861e)" d="M 188.844531 634.907813 
L 238.714844 634.907813 
Q 243.214844 634.907813 243.214844 630.407813 
L 243.214844 615.890625 
Q 243.214844 611.390625 238.714844 611.390625 
L 188.844531 611.390625 
Q 184.344531 611.390625 184.344531 615.890625 
L 184.344531 630.407813 
Q 184.344531 634.907813 188.844531 634.907813 
z
" style="fill:#ffffff;stroke:#ffffff;stroke-linejoin:miter;"/>
    </g>
    <g clip-path="url(#pcb0ce5861e)">
     <!-- (5, 18) -->
     <defs>
      <path d="M 31 75.875 
Q 24.46875 64.65625 21.28125 53.65625 
Q 18.109375 42.671875 18.109375 31.390625 
Q 18.109375 20.125 21.3125 9.0625 
Q 24.515625 -2 31 -13.1875 
L 23.1875 -13.1875 
Q 15.875 -1.703125 12.234375 9.375 
Q 8.59375 20.453125 8.59375 31.390625 
Q 8.59375 42.28125 12.203125 53.3125 
Q 15.828125 64.359375 23.1875 75.875 
z
" id="DejaVuSans-28"/>
      <path d="M 10.796875 72.90625 
L 49.515625 72.90625 
L 49.515625 64.59375 
L 19.828125 64.59375 
L 19.828125 46.734375 
Q 21.96875 47.46875 24.109375 47.828125 
Q 26.265625 48.1875 28.421875 48.1875 
Q 40.625 48.1875 47.75 41.5 
Q 54.890625 34.8125 54.890625 23.390625 
Q 54.890625 11.625 47.5625 5.09375 
Q 40.234375 -1.421875 26.90625 -1.421875 
Q 22.3125 -1.421875 17.546875 -0.640625 
Q 12.796875 0.140625 7.71875 1.703125 
L 7.71875 11.625 
Q 12.109375 9.234375 16.796875 8.0625 
Q 21.484375 6.890625 26.703125 6.890625 
Q 35.15625 6.890625 40.078125 11.328125 
Q 45.015625 15.765625 45.015625 23.390625 
Q 45.015625 31 40.078125 35.4375 
Q 35.15625 39.890625 26.703125 39.890625 
Q 22.75 39.890625 18.8125 39.015625 
Q 14.890625 38.140625 10.796875 36.28125 
z
" id="DejaVuSans-35"/>
      <path d="M 11.71875 12.40625 
L 22.015625 12.40625 
L 22.015625 4 
L 14.015625 -11.625 
L 7.71875 -11.625 
L 11.71875 4 
z
" id="DejaVuSans-2c"/>
      <path id="DejaVuSans-20"/>
      <path d="M 12.40625 8.296875 
L 28.515625 8.296875 
L 28.515625 63.921875 
L 10.984375 60.40625 
L 10.984375 69.390625 
L 28.421875 72.90625 
L 38.28125 72.90625 
L 38.28125 8.296875 
L 54.390625 8.296875 
L 54.390625 0 
L 12.40625 0 
z
" id="DejaVuSans-31"/>
      <path d="M 31.78125 34.625 
Q 24.75 34.625 20.71875 30.859375 
Q 16.703125 27.09375 16.703125 20.515625 
Q 16.703125 13.921875 20.71875 10.15625 
Q 24.75 6.390625 31.78125 6.390625 
Q 38.8125 6.390625 42.859375 10.171875 
Q 46.921875 13.96875 46.921875 20.515625 
Q 46.921875 27.09375 42.890625 30.859375 
Q 38.875 34.625 31.78125 34.625 
z
M 21.921875 38.8125 
Q 15.578125 40.375 12.03125 44.71875 
Q 8.5 49.078125 8.5 55.328125 
Q 8.5 64.0625 14.71875 69.140625 
Q 20.953125 74.21875 31.78125 74.21875 
Q 42.671875 74.21875 48.875 69.140625 
Q 55.078125 64.0625 55.078125 55.328125 
Q 55.078125 49.078125 51.53125 44.71875 
Q 48 40.375 41.703125 38.8125 
Q 48.828125 37.15625 52.796875 32.3125 
Q 56.78125 27.484375 56.78125 20.515625 
Q 56.78125 9.90625 50.3125 4.234375 
Q 43.84375 -1.421875 31.78125 -1.421875 
Q 19.734375 -1.421875 13.25 4.234375 
Q 6.78125 9.90625 6.78125 20.515625 
Q 6.78125 27.484375 10.78125 32.3125 
Q 14.796875 37.15625 21.921875 38.8125 
z
M 18.3125 54.390625 
Q 18.3125 48.734375 21.84375 45.5625 
Q 25.390625 42.390625 31.78125 42.390625 
Q 38.140625 42.390625 41.71875 45.5625 
Q 45.3125 48.734375 45.3125 54.390625 
Q 45.3125 60.0625 41.71875 63.234375 
Q 38.140625 66.40625 31.78125 66.40625 
Q 25.390625 66.40625 21.84375 63.234375 
Q 18.3125 60.0625 18.3125 54.390625 
z
" id="DejaVuSans-38"/>
      <path d="M 8.015625 75.875 
L 15.828125 75.875 
Q 23.140625 64.359375 26.78125 53.3125 
Q 30.421875 42.28125 30.421875 31.390625 
Q 30.421875 20.453125 26.78125 9.375 
Q 23.140625 -1.703125 15.828125 -13.1875 
L 8.015625 -13.1875 
Q 14.5 -2 17.703125 9.0625 
Q 20.90625 20.125 20.90625 31.390625 
Q 20.90625 42.671875 17.703125 53.65625 
Q 14.5 64.65625 8.015625 75.875 
z
" id="DejaVuSans-29"/>
     </defs>
     <g transform="translate(188.844531 627.288281)scale(0.15 -0.15)">
      <use xlink:href="#DejaVuSans-28"/>
      <use x="39.013672" xlink:href="#DejaVuSans-35"/>
      <use x="102.636719" xlink:href="#DejaVuSans-2c"/>
      <use x="134.423828" xlink:href="#DejaVuSans-20"/>
      <use x="166.210938" xlink:href="#DejaVuSans-31"/>
      <use x="229.833984" xlink:href="#DejaVuSans-38"/>
      <use x="293.457031" xlink:href="#DejaVuSans-29"/>
     </g>
    </g>
   </g>
   <g id="text_2">
    <g id="patch_3">
     <path clip-path="url(#pcb0ce5861e)" d="M 163.925781 591.64125 
L 163.925781 532.227188 
Q 163.925781 527.727188 159.425781 527.727188 
L 144.908594 527.727188 
Q 140.408594 527.727188 140.408594 532.227188 
L 140.408594 591.64125 
Q 140.408594 596.14125 144.908594 596.14125 
L 159.425781 596.14125 
Q 163.925781 596.14125 163.925781 591.64125 
z
" style="fill:#ffffff;stroke:#ffffff;stroke-linejoin:miter;"/>
    </g>
    <g clip-path="url(#pcb0ce5861e)">
     <!-- (20, 14) -->
     <defs>
      <path d="M 19.1875 8.296875 
L 53.609375 8.296875 
L 53.609375 0 
L 7.328125 0 
L 7.328125 8.296875 
Q 12.9375 14.109375 22.625 23.890625 
Q 32.328125 33.6875 34.8125 36.53125 
Q 39.546875 41.84375 41.421875 45.53125 
Q 43.3125 49.21875 43.3125 52.78125 
Q 43.3125 58.59375 39.234375 62.25 
Q 35.15625 65.921875 28.609375 65.921875 
Q 23.96875 65.921875 18.8125 64.3125 
Q 13.671875 62.703125 7.8125 59.421875 
L 7.8125 69.390625 
Q 13.765625 71.78125 18.9375 73 
Q 24.125 74.21875 28.421875 74.21875 
Q 39.75 74.21875 46.484375 68.546875 
Q 53.21875 62.890625 53.21875 53.421875 
Q 53.21875 48.921875 51.53125 44.890625 
Q 49.859375 40.875 45.40625 35.40625 
Q 44.1875 33.984375 37.640625 27.21875 
Q 31.109375 20.453125 19.1875 8.296875 
z
" id="DejaVuSans-32"/>
      <path d="M 31.78125 66.40625 
Q 24.171875 66.40625 20.328125 58.90625 
Q 16.5 51.421875 16.5 36.375 
Q 16.5 21.390625 20.328125 13.890625 
Q 24.171875 6.390625 31.78125 6.390625 
Q 39.453125 6.390625 43.28125 13.890625 
Q 47.125 21.390625 47.125 36.375 
Q 47.125 51.421875 43.28125 58.90625 
Q 39.453125 66.40625 31.78125 66.40625 
z
M 31.78125 74.21875 
Q 44.046875 74.21875 50.515625 64.515625 
Q 56.984375 54.828125 56.984375 36.375 
Q 56.984375 17.96875 50.515625 8.265625 
Q 44.046875 -1.421875 31.78125 -1.421875 
Q 19.53125 -1.421875 13.0625 8.265625 
Q 6.59375 17.96875 6.59375 36.375 
Q 6.59375 54.828125 13.0625 64.515625 
Q 19.53125 74.21875 31.78125 74.21875 
z
" id="DejaVuSans-30"/>
      <path d="M 37.796875 64.3125 
L 12.890625 25.390625 
L 37.796875 25.390625 
z
M 35.203125 72.90625 
L 47.609375 72.90625 
L 47.609375 25.390625 
L 58.015625 25.390625 
L 58.015625 17.1875 
L 47.609375 17.1875 
L 47.609375 0 
L 37.796875 0 
L 37.796875 17.1875 
L 4.890625 17.1875 
L 4.890625 26.703125 
z
" id="DejaVuSans-34"/>
     </defs>
     <g transform="translate(156.30625 591.64125)rotate(-90)scale(0.15 -0.15)">
      <use xlink:href="#DejaVuSans-28"/>
      <use x="39.013672" xlink:href="#DejaVuSans-32"/>
      <use x="102.636719" xlink:href="#DejaVuSans-30"/>
      <use x="166.259766" xlink:href="#DejaVuSans-2c"/>
      <use x="198.046875" xlink:href="#DejaVuSans-20"/>
      <use x="229.833984" xlink:href="#DejaVuSans-31"/>
      <use x="293.457031" xlink:href="#DejaVuSans-34"/>
      <use x="357.080078" xlink:href="#DejaVuSans-29"/>
     </g>
    </g>
   </g>
   <g id="text_3">
    <g id="patch_4">
     <path clip-path="url(#pcb0ce5861e)" d="M 188.844531 512.477813 
L 238.714844 512.477813 
Q 243.214844 512.477813 243.214844 507.977813 
L 243.214844 493.460625 
Q 243.214844 488.960625 238.714844 488.960625 
L 188.844531 488.960625 
Q 184.344531 488.960625 184.344531 493.460625 
L 184.344531 507.977813 
Q 184.344531 512.477813 188.844531 512.477813 
z
" style="fill:#ffffff;stroke:#ffffff;stroke-linejoin:miter;"/>
    </g>
    <g clip-path="url(#pcb0ce5861e)">
     <!-- (19, 3) -->
     <defs>
      <path d="M 10.984375 1.515625 
L 10.984375 10.5 
Q 14.703125 8.734375 18.5 7.8125 
Q 22.3125 6.890625 25.984375 6.890625 
Q 35.75 6.890625 40.890625 13.453125 
Q 46.046875 20.015625 46.78125 33.40625 
Q 43.953125 29.203125 39.59375 26.953125 
Q 35.25 24.703125 29.984375 24.703125 
Q 19.046875 24.703125 12.671875 31.3125 
Q 6.296875 37.9375 6.296875 49.421875 
Q 6.296875 60.640625 12.9375 67.421875 
Q 19.578125 74.21875 30.609375 74.21875 
Q 43.265625 74.21875 49.921875 64.515625 
Q 56.59375 54.828125 56.59375 36.375 
Q 56.59375 19.140625 48.40625 8.859375 
Q 40.234375 -1.421875 26.421875 -1.421875 
Q 22.703125 -1.421875 18.890625 -0.6875 
Q 15.09375 0.046875 10.984375 1.515625 
z
M 30.609375 32.421875 
Q 37.25 32.421875 41.125 36.953125 
Q 45.015625 41.5 45.015625 49.421875 
Q 45.015625 57.28125 41.125 61.84375 
Q 37.25 66.40625 30.609375 66.40625 
Q 23.96875 66.40625 20.09375 61.84375 
Q 16.21875 57.28125 16.21875 49.421875 
Q 16.21875 41.5 20.09375 36.953125 
Q 23.96875 32.421875 30.609375 32.421875 
z
" id="DejaVuSans-39"/>
      <path d="M 40.578125 39.3125 
Q 47.65625 37.796875 51.625 33 
Q 55.609375 28.21875 55.609375 21.1875 
Q 55.609375 10.40625 48.1875 4.484375 
Q 40.765625 -1.421875 27.09375 -1.421875 
Q 22.515625 -1.421875 17.65625 -0.515625 
Q 12.796875 0.390625 7.625 2.203125 
L 7.625 11.71875 
Q 11.71875 9.328125 16.59375 8.109375 
Q 21.484375 6.890625 26.8125 6.890625 
Q 36.078125 6.890625 40.9375 10.546875 
Q 45.796875 14.203125 45.796875 21.1875 
Q 45.796875 27.640625 41.28125 31.265625 
Q 36.765625 34.90625 28.71875 34.90625 
L 20.21875 34.90625 
L 20.21875 43.015625 
L 29.109375 43.015625 
Q 36.375 43.015625 40.234375 45.921875 
Q 44.09375 48.828125 44.09375 54.296875 
Q 44.09375 59.90625 40.109375 62.90625 
Q 36.140625 65.921875 28.71875 65.921875 
Q 24.65625 65.921875 20.015625 65.03125 
Q 15.375 64.15625 9.8125 62.3125 
L 9.8125 71.09375 
Q 15.4375 72.65625 20.34375 73.4375 
Q 25.25 74.21875 29.59375 74.21875 
Q 40.828125 74.21875 47.359375 69.109375 
Q 53.90625 64.015625 53.90625 55.328125 
Q 53.90625 49.265625 50.4375 45.09375 
Q 46.96875 40.921875 40.578125 39.3125 
z
" id="DejaVuSans-33"/>
     </defs>
     <g transform="translate(188.844531 504.858281)scale(0.15 -0.15)">
      <use xlink:href="#DejaVuSans-28"/>
      <use x="39.013672" xlink:href="#DejaVuSans-31"/>
      <use x="102.636719" xlink:href="#DejaVuSans-39"/>
      <use x="166.259766" xlink:href="#DejaVuSans-2c"/>
      <use x="198.046875" xlink:href="#DejaVuSans-20"/>
      <use x="229.833984" xlink:href="#DejaVuSans-33"/>
      <use x="293.457031" xlink:href="#DejaVuSans-29"/>
     </g>
    </g>
   </g>
   <g id="text_4">
    <g id="patch_5">
     <path clip-path="url(#pcb0ce5861e)" d="M 163.925781 459.6675 
L 163.925781 419.340938 
Q 163.925781 414.840938 159.425781 414.840938 
L 144.908594 414.840938 
Q 140.408594 414.840938 140.408594 419.340938 
L 140.408594 459.6675 
Q 140.408594 464.1675 144.908594 464.1675 
L 159.425781 464.1675 
Q 163.925781 464.1675 163.925781 459.6675 
z
" style="fill:#ffffff;stroke:#ffffff;stroke-linejoin:miter;"/>
    </g>
    <g clip-path="url(#pcb0ce5861e)">
     <!-- (3, 7) -->
     <defs>
      <path d="M 8.203125 72.90625 
L 55.078125 72.90625 
L 55.078125 68.703125 
L 28.609375 0 
L 18.3125 0 
L 43.21875 64.59375 
L 8.203125 64.59375 
z
" id="DejaVuSans-37"/>
     </defs>
     <g transform="translate(156.30625 459.6675)rotate(-90)scale(0.15 -0.15)">
      <use xlink:href="#DejaVuSans-28"/>
      <use x="39.013672" xlink:href="#DejaVuSans-33"/>
      <use x="102.636719" xlink:href="#DejaVuSans-2c"/>
      <use x="134.423828" xlink:href="#DejaVuSans-20"/>
      <use x="166.210938" xlink:href="#DejaVuSans-37"/>
      <use x="229.833984" xlink:href="#DejaVuSans-29"/>
     </g>
    </g>
   </g>
   <g id="text_5">
    <g id="patch_6">
     <path clip-path="url(#pcb0ce5861e)" d="M 184.072656 390.047813 
L 243.486719 390.047813 
Q 247.986719 390.047813 247.986719 385.547813 
L 247.986719 371.030625 
Q 247.986719 366.530625 243.486719 366.530625 
L 184.072656 366.530625 
Q 179.572656 366.530625 179.572656 371.030625 
L 179.572656 385.547813 
Q 179.572656 390.047813 184.072656 390.047813 
z
" style="fill:#ffffff;stroke:#ffffff;stroke-linejoin:miter;"/>
    </g>
    <g clip-path="url(#pcb0ce5861e)">
     <!-- (13, 11) -->
     <g transform="translate(184.072656 382.428281)scale(0.15 -0.15)">
      <use xlink:href="#DejaVuSans-28"/>
      <use x="39.013672" xlink:href="#DejaVuSans-31"/>
      <use x="102.636719" xlink:href="#DejaVuSans-33"/>
      <use x="166.259766" xlink:href="#DejaVuSans-2c"/>
      <use x="198.046875" xlink:href="#DejaVuSans-20"/>
      <use x="229.833984" xlink:href="#DejaVuSans-31"/>
      <use x="293.457031" xlink:href="#DejaVuSans-31"/>
      <use x="357.080078" xlink:href="#DejaVuSans-29"/>
     </g>
    </g>
   </g>
   <g id="text_6">
    <g id="patch_7">
     <path clip-path="url(#pcb0ce5861e)" d="M 163.925781 342.009375 
L 163.925781 292.139063 
Q 163.925781 287.639063 159.425781 287.639063 
L 144.908594 287.639063 
Q 140.408594 287.639063 140.408594 292.139063 
L 140.408594 342.009375 
Q 140.408594 346.509375 144.908594 346.509375 
L 159.425781 346.509375 
Q 163.925781 346.509375 163.925781 342.009375 
z
" style="fill:#ffffff;stroke:#ffffff;stroke-linejoin:miter;"/>
    </g>
    <g clip-path="url(#pcb0ce5861e)">
     <!-- (20, 8) -->
     <g transform="translate(156.30625 342.009375)rotate(-90)scale(0.15 -0.15)">
      <use xlink:href="#DejaVuSans-28"/>
      <use x="39.013672" xlink:href="#DejaVuSans-32"/>
      <use x="102.636719" xlink:href="#DejaVuSans-30"/>
      <use x="166.259766" xlink:href="#DejaVuSans-2c"/>
      <use x="198.046875" xlink:href="#DejaVuSans-20"/>
      <use x="229.833984" xlink:href="#DejaVuSans-38"/>
      <use x="293.457031" xlink:href="#DejaVuSans-29"/>
     </g>
    </g>
   </g>
   <g id="text_7">
    <g id="patch_8">
     <path clip-path="url(#pcb0ce5861e)" d="M 193.616406 267.617813 
L 233.942969 267.617813 
Q 238.442969 267.617813 238.442969 263.117813 
L 238.442969 248.600625 
Q 238.442969 244.100625 233.942969 244.100625 
L 193.616406 244.100625 
Q 189.116406 244.100625 189.116406 248.600625 
L 189.116406 263.117813 
Q 189.116406 267.617813 193.616406 267.617813 
z
" style="fill:#ffffff;stroke:#ffffff;stroke-linejoin:miter;"/>
    </g>
    <g clip-path="url(#pcb0ce5861e)">
     <!-- (2, 6) -->
     <defs>
      <path d="M 33.015625 40.375 
Q 26.375 40.375 22.484375 35.828125 
Q 18.609375 31.296875 18.609375 23.390625 
Q 18.609375 15.53125 22.484375 10.953125 
Q 26.375 6.390625 33.015625 6.390625 
Q 39.65625 6.390625 43.53125 10.953125 
Q 47.40625 15.53125 47.40625 23.390625 
Q 47.40625 31.296875 43.53125 35.828125 
Q 39.65625 40.375 33.015625 40.375 
z
M 52.59375 71.296875 
L 52.59375 62.3125 
Q 48.875 64.0625 45.09375 64.984375 
Q 41.3125 65.921875 37.59375 65.921875 
Q 27.828125 65.921875 22.671875 59.328125 
Q 17.53125 52.734375 16.796875 39.40625 
Q 19.671875 43.65625 24.015625 45.921875 
Q 28.375 48.1875 33.59375 48.1875 
Q 44.578125 48.1875 50.953125 41.515625 
Q 57.328125 34.859375 57.328125 23.390625 
Q 57.328125 12.15625 50.6875 5.359375 
Q 44.046875 -1.421875 33.015625 -1.421875 
Q 20.359375 -1.421875 13.671875 8.265625 
Q 6.984375 17.96875 6.984375 36.375 
Q 6.984375 53.65625 15.1875 63.9375 
Q 23.390625 74.21875 37.203125 74.21875 
Q 40.921875 74.21875 44.703125 73.484375 
Q 48.484375 72.75 52.59375 71.296875 
z
" id="DejaVuSans-36"/>
     </defs>
     <g transform="translate(193.616406 259.998281)scale(0.15 -0.15)">
      <use xlink:href="#DejaVuSans-28"/>
      <use x="39.013672" xlink:href="#DejaVuSans-32"/>
      <use x="102.636719" xlink:href="#DejaVuSans-2c"/>
      <use x="134.423828" xlink:href="#DejaVuSans-20"/>
      <use x="166.210938" xlink:href="#DejaVuSans-36"/>
      <use x="229.833984" xlink:href="#DejaVuSans-29"/>
     </g>
    </g>
   </g>
   <g id="text_8">
    <g id="patch_9">
     <path clip-path="url(#pcb0ce5861e)" d="M 163.925781 219.579375 
L 163.925781 169.709063 
Q 163.925781 165.209063 159.425781 165.209063 
L 144.908594 165.209063 
Q 140.408594 165.209063 140.408594 169.709063 
L 140.408594 219.579375 
Q 140.408594 224.079375 144.908594 224.079375 
L 159.425781 224.079375 
Q 163.925781 224.079375 163.925781 219.579375 
z
" style="fill:#ffffff;stroke:#ffffff;stroke-linejoin:miter;"/>
    </g>
    <g clip-path="url(#pcb0ce5861e)">
     <!-- (12, 4) -->
     <g transform="translate(156.30625 219.579375)rotate(-90)scale(0.15 -0.15)">
      <use xlink:href="#DejaVuSans-28"/>
      <use x="39.013672" xlink:href="#DejaVuSans-31"/>
      <use x="102.636719" xlink:href="#DejaVuSans-32"/>
      <use x="166.259766" xlink:href="#DejaVuSans-2c"/>
      <use x="198.046875" xlink:href="#DejaVuSans-20"/>
      <use x="229.833984" xlink:href="#DejaVuSans-34"/>
      <use x="293.457031" xlink:href="#DejaVuSans-29"/>
     </g>
    </g>
   </g>
   <g id="text_9">
    <g id="patch_10">
     <path clip-path="url(#pcb0ce5861e)" d="M 188.844531 145.187813 
L 238.714844 145.187813 
Q 243.214844 145.187813 243.214844 140.687813 
L 243.214844 126.170625 
Q 243.214844 121.670625 238.714844 121.670625 
L 188.844531 121.670625 
Q 184.344531 121.670625 184.344531 126.170625 
L 184.344531 140.687813 
Q 184.344531 145.187813 188.844531 145.187813 
z
" style="fill:#ffffff;stroke:#ffffff;stroke-linejoin:miter;"/>
    </g>
    <g clip-path="url(#pcb0ce5861e)">
     <!-- (18, 2) -->
     <g transform="translate(188.844531 137.568281)scale(0.15 -0.15)">
      <use xlink:href="#DejaVuSans-28"/>
      <use x="39.013672" xlink:href="#DejaVuSans-31"/>
      <use x="102.636719" xlink:href="#DejaVuSans-38"/>
      <use x="166.259766" xlink:href="#DejaVuSans-2c"/>
      <use x="198.046875" xlink:href="#DejaVuSans-20"/>
      <use x="229.833984" xlink:href="#DejaVuSans-32"/>
      <use x="293.457031" xlink:href="#DejaVuSans-29"/>
     </g>
    </g>
   </g>
   <g id="text_10">
    <g id="patch_11">
     <path clip-path="url(#pcb0ce5861e)" d="M 307.297656 634.907813 
L 366.711719 634.907813 
Q 371.211719 634.907813 371.211719 630.407813 
L 371.211719 615.890625 
Q 371.211719 611.390625 366.711719 611.390625 
L 307.297656 611.390625 
Q 302.797656 611.390625 302.797656 615.890625 
L 302.797656 630.407813 
Q 302.797656 634.907813 307.297656 634.907813 
z
" style="fill:#ffffff;stroke:#ffffff;stroke-linejoin:miter;"/>
    </g>
    <g clip-path="url(#pcb0ce5861e)">
     <!-- (20, 12) -->
     <g transform="translate(307.297656 627.288281)scale(0.15 -0.15)">
      <use xlink:href="#DejaVuSans-28"/>
      <use x="39.013672" xlink:href="#DejaVuSans-32"/>
      <use x="102.636719" xlink:href="#DejaVuSans-30"/>
      <use x="166.259766" xlink:href="#DejaVuSans-2c"/>
      <use x="198.046875" xlink:href="#DejaVuSans-20"/>
      <use x="229.833984" xlink:href="#DejaVuSans-31"/>
      <use x="293.457031" xlink:href="#DejaVuSans-32"/>
      <use x="357.080078" xlink:href="#DejaVuSans-29"/>
     </g>
    </g>
   </g>
   <g id="text_11">
    <g id="patch_12">
     <path clip-path="url(#pcb0ce5861e)" d="M 287.150781 591.64125 
L 287.150781 532.227188 
Q 287.150781 527.727188 282.650781 527.727188 
L 268.133594 527.727188 
Q 263.633594 527.727188 263.633594 532.227188 
L 263.633594 591.64125 
Q 263.633594 596.14125 268.133594 596.14125 
L 282.650781 596.14125 
Q 287.150781 596.14125 287.150781 591.64125 
z
" style="fill:#ffffff;stroke:#ffffff;stroke-linejoin:miter;"/>
    </g>
    <g clip-path="url(#pcb0ce5861e)">
     <!-- (17, 10) -->
     <g transform="translate(279.53125 591.64125)rotate(-90)scale(0.15 -0.15)">
      <use xlink:href="#DejaVuSans-28"/>
      <use x="39.013672" xlink:href="#DejaVuSans-31"/>
      <use x="102.636719" xlink:href="#DejaVuSans-37"/>
      <use x="166.259766" xlink:href="#DejaVuSans-2c"/>
      <use x="198.046875" xlink:href="#DejaVuSans-20"/>
      <use x="229.833984" xlink:href="#DejaVuSans-31"/>
      <use x="293.457031" xlink:href="#DejaVuSans-30"/>
      <use x="357.080078" xlink:href="#DejaVuSans-29"/>
     </g>
    </g>
   </g>
   <g id="text_12">
    <g id="patch_13">
     <path clip-path="url(#pcb0ce5861e)" d="M 307.297656 512.477813 
L 366.711719 512.477813 
Q 371.211719 512.477813 371.211719 507.977813 
L 371.211719 493.460625 
Q 371.211719 488.960625 366.711719 488.960625 
L 307.297656 488.960625 
Q 302.797656 488.960625 302.797656 493.460625 
L 302.797656 507.977813 
Q 302.797656 512.477813 307.297656 512.477813 
z
" style="fill:#ffffff;stroke:#ffffff;stroke-linejoin:miter;"/>
    </g>
    <g clip-path="url(#pcb0ce5861e)">
     <!-- (19, 10) -->
     <g transform="translate(307.297656 504.858281)scale(0.15 -0.15)">
      <use xlink:href="#DejaVuSans-28"/>
      <use x="39.013672" xlink:href="#DejaVuSans-31"/>
      <use x="102.636719" xlink:href="#DejaVuSans-39"/>
      <use x="166.259766" xlink:href="#DejaVuSans-2c"/>
      <use x="198.046875" xlink:href="#DejaVuSans-20"/>
      <use x="229.833984" xlink:href="#DejaVuSans-31"/>
      <use x="293.457031" xlink:href="#DejaVuSans-30"/>
      <use x="357.080078" xlink:href="#DejaVuSans-29"/>
     </g>
    </g>
   </g>
   <g id="text_13">
    <g id="patch_14">
     <path clip-path="url(#pcb0ce5861e)" d="M 287.150781 469.21125 
L 287.150781 409.797188 
Q 287.150781 405.297188 282.650781 405.297188 
L 268.133594 405.297188 
Q 263.633594 405.297188 263.633594 409.797188 
L 263.633594 469.21125 
Q 263.633594 473.71125 268.133594 473.71125 
L 282.650781 473.71125 
Q 287.150781 473.71125 287.150781 469.21125 
z
" style="fill:#ffffff;stroke:#ffffff;stroke-linejoin:miter;"/>
    </g>
    <g clip-path="url(#pcb0ce5861e)">
     <!-- (15, 17) -->
     <g transform="translate(279.53125 469.21125)rotate(-90)scale(0.15 -0.15)">
      <use xlink:href="#DejaVuSans-28"/>
      <use x="39.013672" xlink:href="#DejaVuSans-31"/>
      <use x="102.636719" xlink:href="#DejaVuSans-35"/>
      <use x="166.259766" xlink:href="#DejaVuSans-2c"/>
      <use x="198.046875" xlink:href="#DejaVuSans-20"/>
      <use x="229.833984" xlink:href="#DejaVuSans-31"/>
      <use x="293.457031" xlink:href="#DejaVuSans-37"/>
      <use x="357.080078" xlink:href="#DejaVuSans-29"/>
     </g>
    </g>
   </g>
   <g id="text_14">
    <g id="patch_15">
     <path clip-path="url(#pcb0ce5861e)" d="M 316.841406 390.047813 
L 357.167969 390.047813 
Q 361.667969 390.047813 361.667969 385.547813 
L 361.667969 371.030625 
Q 361.667969 366.530625 357.167969 366.530625 
L 316.841406 366.530625 
Q 312.341406 366.530625 312.341406 371.030625 
L 312.341406 385.547813 
Q 312.341406 390.047813 316.841406 390.047813 
z
" style="fill:#ffffff;stroke:#ffffff;stroke-linejoin:miter;"/>
    </g>
    <g clip-path="url(#pcb0ce5861e)">
     <!-- (2, 3) -->
     <g transform="translate(316.841406 382.428281)scale(0.15 -0.15)">
      <use xlink:href="#DejaVuSans-28"/>
      <use x="39.013672" xlink:href="#DejaVuSans-32"/>
      <use x="102.636719" xlink:href="#DejaVuSans-2c"/>
      <use x="134.423828" xlink:href="#DejaVuSans-20"/>
      <use x="166.210938" xlink:href="#DejaVuSans-33"/>
      <use x="229.833984" xlink:href="#DejaVuSans-29"/>
     </g>
    </g>
   </g>
   <g id="text_15">
    <g id="patch_16">
     <path clip-path="url(#pcb0ce5861e)" d="M 287.150781 346.78125 
L 287.150781 287.367188 
Q 287.150781 282.867188 282.650781 282.867188 
L 268.133594 282.867188 
Q 263.633594 282.867188 263.633594 287.367188 
L 263.633594 346.78125 
Q 263.633594 351.28125 268.133594 351.28125 
L 282.650781 351.28125 
Q 287.150781 351.28125 287.150781 346.78125 
z
" style="fill:#ffffff;stroke:#ffffff;stroke-linejoin:miter;"/>
    </g>
    <g clip-path="url(#pcb0ce5861e)">
     <!-- (19, 15) -->
     <g transform="translate(279.53125 346.78125)rotate(-90)scale(0.15 -0.15)">
      <use xlink:href="#DejaVuSans-28"/>
      <use x="39.013672" xlink:href="#DejaVuSans-31"/>
      <use x="102.636719" xlink:href="#DejaVuSans-39"/>
      <use x="166.259766" xlink:href="#DejaVuSans-2c"/>
      <use x="198.046875" xlink:href="#DejaVuSans-20"/>
      <use x="229.833984" xlink:href="#DejaVuSans-31"/>
      <use x="293.457031" xlink:href="#DejaVuSans-35"/>
      <use x="357.080078" xlink:href="#DejaVuSans-29"/>
     </g>
    </g>
   </g>
   <g id="text_16">
    <g id="patch_17">
     <path clip-path="url(#pcb0ce5861e)" d="M 307.297656 267.617813 
L 366.711719 267.617813 
Q 371.211719 267.617813 371.211719 263.117813 
L 371.211719 248.600625 
Q 371.211719 244.100625 366.711719 244.100625 
L 307.297656 244.100625 
Q 302.797656 244.100625 302.797656 248.600625 
L 302.797656 263.117813 
Q 302.797656 267.617813 307.297656 267.617813 
z
" style="fill:#ffffff;stroke:#ffffff;stroke-linejoin:miter;"/>
    </g>
    <g clip-path="url(#pcb0ce5861e)">
     <!-- (15, 12) -->
     <g transform="translate(307.297656 259.998281)scale(0.15 -0.15)">
      <use xlink:href="#DejaVuSans-28"/>
      <use x="39.013672" xlink:href="#DejaVuSans-31"/>
      <use x="102.636719" xlink:href="#DejaVuSans-35"/>
      <use x="166.259766" xlink:href="#DejaVuSans-2c"/>
      <use x="198.046875" xlink:href="#DejaVuSans-20"/>
      <use x="229.833984" xlink:href="#DejaVuSans-31"/>
      <use x="293.457031" xlink:href="#DejaVuSans-32"/>
      <use x="357.080078" xlink:href="#DejaVuSans-29"/>
     </g>
    </g>
   </g>
   <g id="text_17">
    <g id="patch_18">
     <path clip-path="url(#pcb0ce5861e)" d="M 287.150781 224.35125 
L 287.150781 164.937188 
Q 287.150781 160.437188 282.650781 160.437188 
L 268.133594 160.437188 
Q 263.633594 160.437188 263.633594 164.937188 
L 263.633594 224.35125 
Q 263.633594 228.85125 268.133594 228.85125 
L 282.650781 228.85125 
Q 287.150781 228.85125 287.150781 224.35125 
z
" style="fill:#ffffff;stroke:#ffffff;stroke-linejoin:miter;"/>
    </g>
    <g clip-path="url(#pcb0ce5861e)">
     <!-- (16, 11) -->
     <g transform="translate(279.53125 224.35125)rotate(-90)scale(0.15 -0.15)">
      <use xlink:href="#DejaVuSans-28"/>
      <use x="39.013672" xlink:href="#DejaVuSans-31"/>
      <use x="102.636719" xlink:href="#DejaVuSans-36"/>
      <use x="166.259766" xlink:href="#DejaVuSans-2c"/>
      <use x="198.046875" xlink:href="#DejaVuSans-20"/>
      <use x="229.833984" xlink:href="#DejaVuSans-31"/>
      <use x="293.457031" xlink:href="#DejaVuSans-31"/>
      <use x="357.080078" xlink:href="#DejaVuSans-29"/>
     </g>
    </g>
   </g>
   <g id="text_18">
    <g id="patch_19">
     <path clip-path="url(#pcb0ce5861e)" d="M 312.069531 145.187813 
L 361.939844 145.187813 
Q 366.439844 145.187813 366.439844 140.687813 
L 366.439844 126.170625 
Q 366.439844 121.670625 361.939844 121.670625 
L 312.069531 121.670625 
Q 307.569531 121.670625 307.569531 126.170625 
L 307.569531 140.687813 
Q 307.569531 145.187813 312.069531 145.187813 
z
" style="fill:#ffffff;stroke:#ffffff;stroke-linejoin:miter;"/>
    </g>
    <g clip-path="url(#pcb0ce5861e)">
     <!-- (16, 2) -->
     <g transform="translate(312.069531 137.568281)scale(0.15 -0.15)">
      <use xlink:href="#DejaVuSans-28"/>
      <use x="39.013672" xlink:href="#DejaVuSans-31"/>
      <use x="102.636719" xlink:href="#DejaVuSans-36"/>
      <use x="166.259766" xlink:href="#DejaVuSans-2c"/>
      <use x="198.046875" xlink:href="#DejaVuSans-20"/>
      <use x="229.833984" xlink:href="#DejaVuSans-32"/>
      <use x="293.457031" xlink:href="#DejaVuSans-29"/>
     </g>
    </g>
   </g>
   <g id="text_19">
    <g id="patch_20">
     <path clip-path="url(#pcb0ce5861e)" d="M 430.522656 634.907813 
L 489.936719 634.907813 
Q 494.436719 634.907813 494.436719 630.407813 
L 494.436719 615.890625 
Q 494.436719 611.390625 489.936719 611.390625 
L 430.522656 611.390625 
Q 426.022656 611.390625 426.022656 615.890625 
L 426.022656 630.407813 
Q 426.022656 634.907813 430.522656 634.907813 
z
" style="fill:#ffffff;stroke:#ffffff;stroke-linejoin:miter;"/>
    </g>
    <g clip-path="url(#pcb0ce5861e)">
     <!-- (11, 12) -->
     <g transform="translate(430.522656 627.288281)scale(0.15 -0.15)">
      <use xlink:href="#DejaVuSans-28"/>
      <use x="39.013672" xlink:href="#DejaVuSans-31"/>
      <use x="102.636719" xlink:href="#DejaVuSans-31"/>
      <use x="166.259766" xlink:href="#DejaVuSans-2c"/>
      <use x="198.046875" xlink:href="#DejaVuSans-20"/>
      <use x="229.833984" xlink:href="#DejaVuSans-31"/>
      <use x="293.457031" xlink:href="#DejaVuSans-32"/>
      <use x="357.080078" xlink:href="#DejaVuSans-29"/>
     </g>
    </g>
   </g>
   <g id="text_20">
    <g id="patch_21">
     <path clip-path="url(#pcb0ce5861e)" d="M 410.375781 586.869375 
L 410.375781 536.999063 
Q 410.375781 532.499063 405.875781 532.499063 
L 391.358594 532.499063 
Q 386.858594 532.499063 386.858594 536.999063 
L 386.858594 586.869375 
Q 386.858594 591.369375 391.358594 591.369375 
L 405.875781 591.369375 
Q 410.375781 591.369375 410.375781 586.869375 
z
" style="fill:#ffffff;stroke:#ffffff;stroke-linejoin:miter;"/>
    </g>
    <g clip-path="url(#pcb0ce5861e)">
     <!-- (18, 6) -->
     <g transform="translate(402.75625 586.869375)rotate(-90)scale(0.15 -0.15)">
      <use xlink:href="#DejaVuSans-28"/>
      <use x="39.013672" xlink:href="#DejaVuSans-31"/>
      <use x="102.636719" xlink:href="#DejaVuSans-38"/>
      <use x="166.259766" xlink:href="#DejaVuSans-2c"/>
      <use x="198.046875" xlink:href="#DejaVuSans-20"/>
      <use x="229.833984" xlink:href="#DejaVuSans-36"/>
      <use x="293.457031" xlink:href="#DejaVuSans-29"/>
     </g>
    </g>
   </g>
   <g id="text_21">
    <g id="patch_22">
     <path clip-path="url(#pcb0ce5861e)" d="M 435.294531 512.477813 
L 485.164844 512.477813 
Q 489.664844 512.477813 489.664844 507.977813 
L 489.664844 493.460625 
Q 489.664844 488.960625 485.164844 488.960625 
L 435.294531 488.960625 
Q 430.794531 488.960625 430.794531 493.460625 
L 430.794531 507.977813 
Q 430.794531 512.477813 435.294531 512.477813 
z
" style="fill:#ffffff;stroke:#ffffff;stroke-linejoin:miter;"/>
    </g>
    <g clip-path="url(#pcb0ce5861e)">
     <!-- (10, 3) -->
     <g transform="translate(435.294531 504.858281)scale(0.15 -0.15)">
      <use xlink:href="#DejaVuSans-28"/>
      <use x="39.013672" xlink:href="#DejaVuSans-31"/>
      <use x="102.636719" xlink:href="#DejaVuSans-30"/>
      <use x="166.259766" xlink:href="#DejaVuSans-2c"/>
      <use x="198.046875" xlink:href="#DejaVuSans-20"/>
      <use x="229.833984" xlink:href="#DejaVuSans-33"/>
      <use x="293.457031" xlink:href="#DejaVuSans-29"/>
     </g>
    </g>
   </g>
   <g id="text_22">
    <g id="patch_23">
     <path clip-path="url(#pcb0ce5861e)" d="M 410.375781 469.21125 
L 410.375781 409.797188 
Q 410.375781 405.297188 405.875781 405.297188 
L 391.358594 405.297188 
Q 386.858594 405.297188 386.858594 409.797188 
L 386.858594 469.21125 
Q 386.858594 473.71125 391.358594 473.71125 
L 405.875781 473.71125 
Q 410.375781 473.71125 410.375781 469.21125 
z
" style="fill:#ffffff;stroke:#ffffff;stroke-linejoin:miter;"/>
    </g>
    <g clip-path="url(#pcb0ce5861e)">
     <!-- (17, 18) -->
     <g transform="translate(402.75625 469.21125)rotate(-90)scale(0.15 -0.15)">
      <use xlink:href="#DejaVuSans-28"/>
      <use x="39.013672" xlink:href="#DejaVuSans-31"/>
      <use x="102.636719" xlink:href="#DejaVuSans-37"/>
      <use x="166.259766" xlink:href="#DejaVuSans-2c"/>
      <use x="198.046875" xlink:href="#DejaVuSans-20"/>
      <use x="229.833984" xlink:href="#DejaVuSans-31"/>
      <use x="293.457031" xlink:href="#DejaVuSans-38"/>
      <use x="357.080078" xlink:href="#DejaVuSans-29"/>
     </g>
    </g>
   </g>
   <g id="text_23">
    <g id="patch_24">
     <path clip-path="url(#pcb0ce5861e)" d="M 430.522656 390.047813 
L 489.936719 390.047813 
Q 494.436719 390.047813 494.436719 385.547813 
L 494.436719 371.030625 
Q 494.436719 366.530625 489.936719 366.530625 
L 430.522656 366.530625 
Q 426.022656 366.530625 426.022656 371.030625 
L 426.022656 385.547813 
Q 426.022656 390.047813 430.522656 390.047813 
z
" style="fill:#ffffff;stroke:#ffffff;stroke-linejoin:miter;"/>
    </g>
    <g clip-path="url(#pcb0ce5861e)">
     <!-- (10, 13) -->
     <g transform="translate(430.522656 382.428281)scale(0.15 -0.15)">
      <use xlink:href="#DejaVuSans-28"/>
      <use x="39.013672" xlink:href="#DejaVuSans-31"/>
      <use x="102.636719" xlink:href="#DejaVuSans-30"/>
      <use x="166.259766" xlink:href="#DejaVuSans-2c"/>
      <use x="198.046875" xlink:href="#DejaVuSans-20"/>
      <use x="229.833984" xlink:href="#DejaVuSans-31"/>
      <use x="293.457031" xlink:href="#DejaVuSans-33"/>
      <use x="357.080078" xlink:href="#DejaVuSans-29"/>
     </g>
    </g>
   </g>
   <g id="text_24">
    <g id="patch_25">
     <path clip-path="url(#pcb0ce5861e)" d="M 410.375781 342.009375 
L 410.375781 292.139063 
Q 410.375781 287.639063 405.875781 287.639063 
L 391.358594 287.639063 
Q 386.858594 287.639063 386.858594 292.139063 
L 386.858594 342.009375 
Q 386.858594 346.509375 391.358594 346.509375 
L 405.875781 346.509375 
Q 410.375781 346.509375 410.375781 342.009375 
z
" style="fill:#ffffff;stroke:#ffffff;stroke-linejoin:miter;"/>
    </g>
    <g clip-path="url(#pcb0ce5861e)">
     <!-- (17, 1) -->
     <g transform="translate(402.75625 342.009375)rotate(-90)scale(0.15 -0.15)">
      <use xlink:href="#DejaVuSans-28"/>
      <use x="39.013672" xlink:href="#DejaVuSans-31"/>
      <use x="102.636719" xlink:href="#DejaVuSans-37"/>
      <use x="166.259766" xlink:href="#DejaVuSans-2c"/>
      <use x="198.046875" xlink:href="#DejaVuSans-20"/>
      <use x="229.833984" xlink:href="#DejaVuSans-31"/>
      <use x="293.457031" xlink:href="#DejaVuSans-29"/>
     </g>
    </g>
   </g>
   <g id="text_25">
    <g id="patch_26">
     <path clip-path="url(#pcb0ce5861e)" d="M 435.294531 267.617813 
L 485.164844 267.617813 
Q 489.664844 267.617813 489.664844 263.117813 
L 489.664844 248.600625 
Q 489.664844 244.100625 485.164844 244.100625 
L 435.294531 244.100625 
Q 430.794531 244.100625 430.794531 248.600625 
L 430.794531 263.117813 
Q 430.794531 267.617813 435.294531 267.617813 
z
" style="fill:#ffffff;stroke:#ffffff;stroke-linejoin:miter;"/>
    </g>
    <g clip-path="url(#pcb0ce5861e)">
     <!-- (5, 13) -->
     <g transform="translate(435.294531 259.998281)scale(0.15 -0.15)">
      <use xlink:href="#DejaVuSans-28"/>
      <use x="39.013672" xlink:href="#DejaVuSans-35"/>
      <use x="102.636719" xlink:href="#DejaVuSans-2c"/>
      <use x="134.423828" xlink:href="#DejaVuSans-20"/>
      <use x="166.210938" xlink:href="#DejaVuSans-31"/>
      <use x="229.833984" xlink:href="#DejaVuSans-33"/>
      <use x="293.457031" xlink:href="#DejaVuSans-29"/>
     </g>
    </g>
   </g>
   <g id="text_26">
    <g id="patch_27">
     <path clip-path="url(#pcb0ce5861e)" d="M 410.375781 224.35125 
L 410.375781 164.937188 
Q 410.375781 160.437188 405.875781 160.437188 
L 391.358594 160.437188 
Q 386.858594 160.437188 386.858594 164.937188 
L 386.858594 224.35125 
Q 386.858594 228.85125 391.358594 228.85125 
L 405.875781 228.85125 
Q 410.375781 228.85125 410.375781 224.35125 
z
" style="fill:#ffffff;stroke:#ffffff;stroke-linejoin:miter;"/>
    </g>
    <g clip-path="url(#pcb0ce5861e)">
     <!-- (10, 11) -->
     <g transform="translate(402.75625 224.35125)rotate(-90)scale(0.15 -0.15)">
      <use xlink:href="#DejaVuSans-28"/>
      <use x="39.013672" xlink:href="#DejaVuSans-31"/>
      <use x="102.636719" xlink:href="#DejaVuSans-30"/>
      <use x="166.259766" xlink:href="#DejaVuSans-2c"/>
      <use x="198.046875" xlink:href="#DejaVuSans-20"/>
      <use x="229.833984" xlink:href="#DejaVuSans-31"/>
      <use x="293.457031" xlink:href="#DejaVuSans-31"/>
      <use x="357.080078" xlink:href="#DejaVuSans-29"/>
     </g>
    </g>
   </g>
   <g id="text_27">
    <g id="patch_28">
     <path clip-path="url(#pcb0ce5861e)" d="M 435.294531 145.187813 
L 485.164844 145.187813 
Q 489.664844 145.187813 489.664844 140.687813 
L 489.664844 126.170625 
Q 489.664844 121.670625 485.164844 121.670625 
L 435.294531 121.670625 
Q 430.794531 121.670625 430.794531 126.170625 
L 430.794531 140.687813 
Q 430.794531 145.187813 435.294531 145.187813 
z
" style="fill:#ffffff;stroke:#ffffff;stroke-linejoin:miter;"/>
    </g>
    <g clip-path="url(#pcb0ce5861e)">
     <!-- (16, 9) -->
     <g transform="translate(435.294531 137.568281)scale(0.15 -0.15)">
      <use xlink:href="#DejaVuSans-28"/>
      <use x="39.013672" xlink:href="#DejaVuSans-31"/>
      <use x="102.636719" xlink:href="#DejaVuSans-36"/>
      <use x="166.259766" xlink:href="#DejaVuSans-2c"/>
      <use x="198.046875" xlink:href="#DejaVuSans-20"/>
      <use x="229.833984" xlink:href="#DejaVuSans-39"/>
      <use x="293.457031" xlink:href="#DejaVuSans-29"/>
     </g>
    </g>
   </g>
   <g id="text_28">
    <g id="patch_29">
     <path clip-path="url(#pcb0ce5861e)" d="M 558.519531 634.907813 
L 608.389844 634.907813 
Q 612.889844 634.907813 612.889844 630.407813 
L 612.889844 615.890625 
Q 612.889844 611.390625 608.389844 611.390625 
L 558.519531 611.390625 
Q 554.019531 611.390625 554.019531 615.890625 
L 554.019531 630.407813 
Q 554.019531 634.907813 558.519531 634.907813 
z
" style="fill:#ffffff;stroke:#ffffff;stroke-linejoin:miter;"/>
    </g>
    <g clip-path="url(#pcb0ce5861e)">
     <!-- (16, 6) -->
     <g transform="translate(558.519531 627.288281)scale(0.15 -0.15)">
      <use xlink:href="#DejaVuSans-28"/>
      <use x="39.013672" xlink:href="#DejaVuSans-31"/>
      <use x="102.636719" xlink:href="#DejaVuSans-36"/>
      <use x="166.259766" xlink:href="#DejaVuSans-2c"/>
      <use x="198.046875" xlink:href="#DejaVuSans-20"/>
      <use x="229.833984" xlink:href="#DejaVuSans-36"/>
      <use x="293.457031" xlink:href="#DejaVuSans-29"/>
     </g>
    </g>
   </g>
   <g id="text_29">
    <g id="patch_30">
     <path clip-path="url(#pcb0ce5861e)" d="M 533.600781 582.0975 
L 533.600781 541.770938 
Q 533.600781 537.270938 529.100781 537.270938 
L 514.583594 537.270938 
Q 510.083594 537.270938 510.083594 541.770938 
L 510.083594 582.0975 
Q 510.083594 586.5975 514.583594 586.5975 
L 529.100781 586.5975 
Q 533.600781 586.5975 533.600781 582.0975 
z
" style="fill:#ffffff;stroke:#ffffff;stroke-linejoin:miter;"/>
    </g>
    <g clip-path="url(#pcb0ce5861e)">
     <!-- (3, 5) -->
     <g transform="translate(525.98125 582.0975)rotate(-90)scale(0.15 -0.15)">
      <use xlink:href="#DejaVuSans-28"/>
      <use x="39.013672" xlink:href="#DejaVuSans-33"/>
      <use x="102.636719" xlink:href="#DejaVuSans-2c"/>
      <use x="134.423828" xlink:href="#DejaVuSans-20"/>
      <use x="166.210938" xlink:href="#DejaVuSans-35"/>
      <use x="229.833984" xlink:href="#DejaVuSans-29"/>
     </g>
    </g>
   </g>
   <g id="text_30">
    <g id="patch_31">
     <path clip-path="url(#pcb0ce5861e)" d="M 558.519531 512.477813 
L 608.389844 512.477813 
Q 612.889844 512.477813 612.889844 507.977813 
L 612.889844 493.460625 
Q 612.889844 488.960625 608.389844 488.960625 
L 558.519531 488.960625 
Q 554.019531 488.960625 554.019531 493.460625 
L 554.019531 507.977813 
Q 554.019531 512.477813 558.519531 512.477813 
z
" style="fill:#ffffff;stroke:#ffffff;stroke-linejoin:miter;"/>
    </g>
    <g clip-path="url(#pcb0ce5861e)">
     <!-- (2, 14) -->
     <g transform="translate(558.519531 504.858281)scale(0.15 -0.15)">
      <use xlink:href="#DejaVuSans-28"/>
      <use x="39.013672" xlink:href="#DejaVuSans-32"/>
      <use x="102.636719" xlink:href="#DejaVuSans-2c"/>
      <use x="134.423828" xlink:href="#DejaVuSans-20"/>
      <use x="166.210938" xlink:href="#DejaVuSans-31"/>
      <use x="229.833984" xlink:href="#DejaVuSans-34"/>
      <use x="293.457031" xlink:href="#DejaVuSans-29"/>
     </g>
    </g>
   </g>
   <g id="text_31">
    <g id="patch_32">
     <path clip-path="url(#pcb0ce5861e)" d="M 533.600781 469.21125 
L 533.600781 409.797188 
Q 533.600781 405.297188 529.100781 405.297188 
L 514.583594 405.297188 
Q 510.083594 405.297188 510.083594 409.797188 
L 510.083594 469.21125 
Q 510.083594 473.71125 514.583594 473.71125 
L 529.100781 473.71125 
Q 533.600781 473.71125 533.600781 469.21125 
z
" style="fill:#ffffff;stroke:#ffffff;stroke-linejoin:miter;"/>
    </g>
    <g clip-path="url(#pcb0ce5861e)">
     <!-- (16, 16) -->
     <g transform="translate(525.98125 469.21125)rotate(-90)scale(0.15 -0.15)">
      <use xlink:href="#DejaVuSans-28"/>
      <use x="39.013672" xlink:href="#DejaVuSans-31"/>
      <use x="102.636719" xlink:href="#DejaVuSans-36"/>
      <use x="166.259766" xlink:href="#DejaVuSans-2c"/>
      <use x="198.046875" xlink:href="#DejaVuSans-20"/>
      <use x="229.833984" xlink:href="#DejaVuSans-31"/>
      <use x="293.457031" xlink:href="#DejaVuSans-36"/>
      <use x="357.080078" xlink:href="#DejaVuSans-29"/>
     </g>
    </g>
   </g>
   <g id="text_32">
    <g id="patch_33">
     <path clip-path="url(#pcb0ce5861e)" d="M 558.519531 390.047813 
L 608.389844 390.047813 
Q 612.889844 390.047813 612.889844 385.547813 
L 612.889844 371.030625 
Q 612.889844 366.530625 608.389844 366.530625 
L 558.519531 366.530625 
Q 554.019531 366.530625 554.019531 371.030625 
L 554.019531 385.547813 
Q 554.019531 390.047813 558.519531 390.047813 
z
" style="fill:#ffffff;stroke:#ffffff;stroke-linejoin:miter;"/>
    </g>
    <g clip-path="url(#pcb0ce5861e)">
     <!-- (18, 8) -->
     <g transform="translate(558.519531 382.428281)scale(0.15 -0.15)">
      <use xlink:href="#DejaVuSans-28"/>
      <use x="39.013672" xlink:href="#DejaVuSans-31"/>
      <use x="102.636719" xlink:href="#DejaVuSans-38"/>
      <use x="166.259766" xlink:href="#DejaVuSans-2c"/>
      <use x="198.046875" xlink:href="#DejaVuSans-20"/>
      <use x="229.833984" xlink:href="#DejaVuSans-38"/>
      <use x="293.457031" xlink:href="#DejaVuSans-29"/>
     </g>
    </g>
   </g>
   <g id="text_33">
    <g id="patch_34">
     <path clip-path="url(#pcb0ce5861e)" d="M 533.600781 342.009375 
L 533.600781 292.139063 
Q 533.600781 287.639063 529.100781 287.639063 
L 514.583594 287.639063 
Q 510.083594 287.639063 510.083594 292.139063 
L 510.083594 342.009375 
Q 510.083594 346.509375 514.583594 346.509375 
L 529.100781 346.509375 
Q 533.600781 346.509375 533.600781 342.009375 
z
" style="fill:#ffffff;stroke:#ffffff;stroke-linejoin:miter;"/>
    </g>
    <g clip-path="url(#pcb0ce5861e)">
     <!-- (14, 7) -->
     <g transform="translate(525.98125 342.009375)rotate(-90)scale(0.15 -0.15)">
      <use xlink:href="#DejaVuSans-28"/>
      <use x="39.013672" xlink:href="#DejaVuSans-31"/>
      <use x="102.636719" xlink:href="#DejaVuSans-34"/>
      <use x="166.259766" xlink:href="#DejaVuSans-2c"/>
      <use x="198.046875" xlink:href="#DejaVuSans-20"/>
      <use x="229.833984" xlink:href="#DejaVuSans-37"/>
      <use x="293.457031" xlink:href="#DejaVuSans-29"/>
     </g>
    </g>
   </g>
   <g id="text_34">
    <g id="patch_35">
     <path clip-path="url(#pcb0ce5861e)" d="M 553.747656 267.617813 
L 613.161719 267.617813 
Q 617.661719 267.617813 617.661719 263.117813 
L 617.661719 248.600625 
Q 617.661719 244.100625 613.161719 244.100625 
L 553.747656 244.100625 
Q 549.247656 244.100625 549.247656 248.600625 
L 549.247656 263.117813 
Q 549.247656 267.617813 553.747656 267.617813 
z
" style="fill:#ffffff;stroke:#ffffff;stroke-linejoin:miter;"/>
    </g>
    <g clip-path="url(#pcb0ce5861e)">
     <!-- (10, 18) -->
     <g transform="translate(553.747656 259.998281)scale(0.15 -0.15)">
      <use xlink:href="#DejaVuSans-28"/>
      <use x="39.013672" xlink:href="#DejaVuSans-31"/>
      <use x="102.636719" xlink:href="#DejaVuSans-30"/>
      <use x="166.259766" xlink:href="#DejaVuSans-2c"/>
      <use x="198.046875" xlink:href="#DejaVuSans-20"/>
      <use x="229.833984" xlink:href="#DejaVuSans-31"/>
      <use x="293.457031" xlink:href="#DejaVuSans-38"/>
      <use x="357.080078" xlink:href="#DejaVuSans-29"/>
     </g>
    </g>
   </g>
   <g id="text_35">
    <g id="patch_36">
     <path clip-path="url(#pcb0ce5861e)" d="M 533.600781 219.579375 
L 533.600781 169.709063 
Q 533.600781 165.209063 529.100781 165.209063 
L 514.583594 165.209063 
Q 510.083594 165.209063 510.083594 169.709063 
L 510.083594 219.579375 
Q 510.083594 224.079375 514.583594 224.079375 
L 529.100781 224.079375 
Q 533.600781 224.079375 533.600781 219.579375 
z
" style="fill:#ffffff;stroke:#ffffff;stroke-linejoin:miter;"/>
    </g>
    <g clip-path="url(#pcb0ce5861e)">
     <!-- (15, 7) -->
     <g transform="translate(525.98125 219.579375)rotate(-90)scale(0.15 -0.15)">
      <use xlink:href="#DejaVuSans-28"/>
      <use x="39.013672" xlink:href="#DejaVuSans-31"/>
      <use x="102.636719" xlink:href="#DejaVuSans-35"/>
      <use x="166.259766" xlink:href="#DejaVuSans-2c"/>
      <use x="198.046875" xlink:href="#DejaVuSans-20"/>
      <use x="229.833984" xlink:href="#DejaVuSans-37"/>
      <use x="293.457031" xlink:href="#DejaVuSans-29"/>
     </g>
    </g>
   </g>
   <g id="text_36">
    <g id="patch_37">
     <path clip-path="url(#pcb0ce5861e)" d="M 558.519531 145.187813 
L 608.389844 145.187813 
Q 612.889844 145.187813 612.889844 140.687813 
L 612.889844 126.170625 
Q 612.889844 121.670625 608.389844 121.670625 
L 558.519531 121.670625 
Q 554.019531 121.670625 554.019531 126.170625 
L 554.019531 140.687813 
Q 554.019531 145.187813 558.519531 145.187813 
z
" style="fill:#ffffff;stroke:#ffffff;stroke-linejoin:miter;"/>
    </g>
    <g clip-path="url(#pcb0ce5861e)">
     <!-- (11, 6) -->
     <g transform="translate(558.519531 137.568281)scale(0.15 -0.15)">
      <use xlink:href="#DejaVuSans-28"/>
      <use x="39.013672" xlink:href="#DejaVuSans-31"/>
      <use x="102.636719" xlink:href="#DejaVuSans-31"/>
      <use x="166.259766" xlink:href="#DejaVuSans-2c"/>
      <use x="198.046875" xlink:href="#DejaVuSans-20"/>
      <use x="229.833984" xlink:href="#DejaVuSans-36"/>
      <use x="293.457031" xlink:href="#DejaVuSans-29"/>
     </g>
    </g>
   </g>
   <g id="text_37">
    <g id="patch_38">
     <path clip-path="url(#pcb0ce5861e)" d="M 656.825781 586.869375 
L 656.825781 536.999063 
Q 656.825781 532.499063 652.325781 532.499063 
L 637.808594 532.499063 
Q 633.308594 532.499063 633.308594 536.999063 
L 633.308594 586.869375 
Q 633.308594 591.369375 637.808594 591.369375 
L 652.325781 591.369375 
Q 656.825781 591.369375 656.825781 586.869375 
z
" style="fill:#ffffff;stroke:#ffffff;stroke-linejoin:miter;"/>
    </g>
    <g clip-path="url(#pcb0ce5861e)">
     <!-- (5, 17) -->
     <g transform="translate(649.20625 586.869375)rotate(-90)scale(0.15 -0.15)">
      <use xlink:href="#DejaVuSans-28"/>
      <use x="39.013672" xlink:href="#DejaVuSans-35"/>
      <use x="102.636719" xlink:href="#DejaVuSans-2c"/>
      <use x="134.423828" xlink:href="#DejaVuSans-20"/>
      <use x="166.210938" xlink:href="#DejaVuSans-31"/>
      <use x="229.833984" xlink:href="#DejaVuSans-37"/>
      <use x="293.457031" xlink:href="#DejaVuSans-29"/>
     </g>
    </g>
   </g>
   <g id="text_38">
    <g id="patch_39">
     <path clip-path="url(#pcb0ce5861e)" d="M 656.825781 459.6675 
L 656.825781 419.340938 
Q 656.825781 414.840938 652.325781 414.840938 
L 637.808594 414.840938 
Q 633.308594 414.840938 633.308594 419.340938 
L 633.308594 459.6675 
Q 633.308594 464.1675 637.808594 464.1675 
L 652.325781 464.1675 
Q 656.825781 464.1675 656.825781 459.6675 
z
" style="fill:#ffffff;stroke:#ffffff;stroke-linejoin:miter;"/>
    </g>
    <g clip-path="url(#pcb0ce5861e)">
     <!-- (9, 9) -->
     <g transform="translate(649.20625 459.6675)rotate(-90)scale(0.15 -0.15)">
      <use xlink:href="#DejaVuSans-28"/>
      <use x="39.013672" xlink:href="#DejaVuSans-39"/>
      <use x="102.636719" xlink:href="#DejaVuSans-2c"/>
      <use x="134.423828" xlink:href="#DejaVuSans-20"/>
      <use x="166.210938" xlink:href="#DejaVuSans-39"/>
      <use x="229.833984" xlink:href="#DejaVuSans-29"/>
     </g>
    </g>
   </g>
   <g id="text_39">
    <g id="patch_40">
     <path clip-path="url(#pcb0ce5861e)" d="M 656.825781 337.2375 
L 656.825781 296.910938 
Q 656.825781 292.410938 652.325781 292.410938 
L 637.808594 292.410938 
Q 633.308594 292.410938 633.308594 296.910938 
L 633.308594 337.2375 
Q 633.308594 341.7375 637.808594 341.7375 
L 652.325781 341.7375 
Q 656.825781 341.7375 656.825781 337.2375 
z
" style="fill:#ffffff;stroke:#ffffff;stroke-linejoin:miter;"/>
    </g>
    <g clip-path="url(#pcb0ce5861e)">
     <!-- (8, 4) -->
     <g transform="translate(649.20625 337.2375)rotate(-90)scale(0.15 -0.15)">
      <use xlink:href="#DejaVuSans-28"/>
      <use x="39.013672" xlink:href="#DejaVuSans-38"/>
      <use x="102.636719" xlink:href="#DejaVuSans-2c"/>
      <use x="134.423828" xlink:href="#DejaVuSans-20"/>
      <use x="166.210938" xlink:href="#DejaVuSans-34"/>
      <use x="229.833984" xlink:href="#DejaVuSans-29"/>
     </g>
    </g>
   </g>
   <g id="text_40">
    <g id="patch_41">
     <path clip-path="url(#pcb0ce5861e)" d="M 656.825781 219.579375 
L 656.825781 169.709063 
Q 656.825781 165.209063 652.325781 165.209063 
L 637.808594 165.209063 
Q 633.308594 165.209063 633.308594 169.709063 
L 633.308594 219.579375 
Q 633.308594 224.079375 637.808594 224.079375 
L 652.325781 224.079375 
Q 656.825781 224.079375 656.825781 219.579375 
z
" style="fill:#ffffff;stroke:#ffffff;stroke-linejoin:miter;"/>
    </g>
    <g clip-path="url(#pcb0ce5861e)">
     <!-- (20, 9) -->
     <g transform="translate(649.20625 219.579375)rotate(-90)scale(0.15 -0.15)">
      <use xlink:href="#DejaVuSans-28"/>
      <use x="39.013672" xlink:href="#DejaVuSans-32"/>
      <use x="102.636719" xlink:href="#DejaVuSans-30"/>
      <use x="166.259766" xlink:href="#DejaVuSans-2c"/>
      <use x="198.046875" xlink:href="#DejaVuSans-20"/>
      <use x="229.833984" xlink:href="#DejaVuSans-39"/>
      <use x="293.457031" xlink:href="#DejaVuSans-29"/>
     </g>
    </g>
   </g>
   <g id="PathCollection_1">
    <defs>
     <path d="M 0 8.660254 
C 2.296726 8.660254 4.499694 7.747755 6.123724 6.123724 
C 7.747755 4.499694 8.660254 2.296726 8.660254 0 
C 8.660254 -2.296726 7.747755 -4.499694 6.123724 -6.123724 
C 4.499694 -7.747755 2.296726 -8.660254 0 -8.660254 
C -2.296726 -8.660254 -4.499694 -7.747755 -6.123724 -6.123724 
C -7.747755 -4.499694 -8.660254 -2.296726 -8.660254 0 
C -8.660254 2.296726 -7.747755 4.499694 -6.123724 6.123724 
C -4.499694 7.747755 -2.296726 8.660254 0 8.660254 
z
" id="mf1741493b0" style="stroke:#ff0000;"/>
    </defs>
    <g clip-path="url(#pcb0ce5861e)">
     <use style="fill:#ff0000;stroke:#ff0000;" x="152.167188" xlink:href="#mf1741493b0" y="623.149219"/>
     <use style="fill:#ff0000;stroke:#ff0000;" x="152.167188" xlink:href="#mf1741493b0" y="500.719219"/>
     <use style="fill:#ff0000;stroke:#ff0000;" x="152.167188" xlink:href="#mf1741493b0" y="378.289219"/>
     <use style="fill:#ff0000;stroke:#ff0000;" x="152.167188" xlink:href="#mf1741493b0" y="255.859219"/>
     <use style="fill:#ff0000;stroke:#ff0000;" x="152.167188" xlink:href="#mf1741493b0" y="133.429219"/>
     <use style="fill:#ff0000;stroke:#ff0000;" x="275.392187" xlink:href="#mf1741493b0" y="623.149219"/>
     <use style="fill:#ff0000;stroke:#ff0000;" x="275.392187" xlink:href="#mf1741493b0" y="500.719219"/>
     <use style="fill:#ff0000;stroke:#ff0000;" x="275.392187" xlink:href="#mf1741493b0" y="378.289219"/>
     <use style="fill:#ff0000;stroke:#ff0000;" x="275.392187" xlink:href="#mf1741493b0" y="255.859219"/>
     <use style="fill:#ff0000;stroke:#ff0000;" x="275.392187" xlink:href="#mf1741493b0" y="133.429219"/>
     <use style="fill:#ff0000;stroke:#ff0000;" x="398.617188" xlink:href="#mf1741493b0" y="623.149219"/>
     <use style="fill:#ff0000;stroke:#ff0000;" x="398.617188" xlink:href="#mf1741493b0" y="500.719219"/>
     <use style="fill:#ff0000;stroke:#ff0000;" x="398.617188" xlink:href="#mf1741493b0" y="378.289219"/>
     <use style="fill:#ff0000;stroke:#ff0000;" x="398.617188" xlink:href="#mf1741493b0" y="255.859219"/>
     <use style="fill:#ff0000;stroke:#ff0000;" x="398.617188" xlink:href="#mf1741493b0" y="133.429219"/>
     <use style="fill:#ff0000;stroke:#ff0000;" x="521.842187" xlink:href="#mf1741493b0" y="623.149219"/>
     <use style="fill:#ff0000;stroke:#ff0000;" x="521.842187" xlink:href="#mf1741493b0" y="500.719219"/>
     <use style="fill:#ff0000;stroke:#ff0000;" x="521.842187" xlink:href="#mf1741493b0" y="378.289219"/>
     <use style="fill:#ff0000;stroke:#ff0000;" x="521.842187" xlink:href="#mf1741493b0" y="255.859219"/>
     <use style="fill:#ff0000;stroke:#ff0000;" x="521.842187" xlink:href="#mf1741493b0" y="133.429219"/>
     <use style="fill:#ff0000;stroke:#ff0000;" x="645.067188" xlink:href="#mf1741493b0" y="623.149219"/>
     <use style="fill:#ff0000;stroke:#ff0000;" x="645.067188" xlink:href="#mf1741493b0" y="500.719219"/>
     <use style="fill:#ff0000;stroke:#ff0000;" x="645.067188" xlink:href="#mf1741493b0" y="378.289219"/>
     <use style="fill:#ff0000;stroke:#ff0000;" x="645.067188" xlink:href="#mf1741493b0" y="255.859219"/>
     <use style="fill:#ff0000;stroke:#ff0000;" x="645.067188" xlink:href="#mf1741493b0" y="133.429219"/>
    </g>
   </g>
   <g id="PathCollection_2">
    <defs>
     <path d="M 0 14.142136 
C 3.750538 14.142136 7.347969 12.652031 10 10 
C 12.652031 7.347969 14.142136 3.750538 14.142136 0 
C 14.142136 -3.750538 12.652031 -7.347969 10 -10 
C 7.347969 -12.652031 3.750538 -14.142136 0 -14.142136 
C -3.750538 -14.142136 -7.347969 -12.652031 -10 -10 
C -12.652031 -7.347969 -14.142136 -3.750538 -14.142136 0 
C -14.142136 3.750538 -12.652031 7.347969 -10 10 
C -7.347969 12.652031 -3.750538 14.142136 0 14.142136 
z
" id="m93b80751c8" style="stroke:#ffa500;"/>
    </defs>
    <g clip-path="url(#pcb0ce5861e)">
     <use style="fill:#ffa500;stroke:#ffa500;" x="152.167188" xlink:href="#m93b80751c8" y="623.149219"/>
     <use style="fill:#ffa500;stroke:#ffa500;" x="152.167188" xlink:href="#m93b80751c8" y="500.719219"/>
     <use style="fill:#ffa500;stroke:#ffa500;" x="152.167188" xlink:href="#m93b80751c8" y="378.289219"/>
     <use style="fill:#ffa500;stroke:#ffa500;" x="152.167188" xlink:href="#m93b80751c8" y="255.859219"/>
     <use style="fill:#ffa500;stroke:#ffa500;" x="152.167188" xlink:href="#m93b80751c8" y="133.429219"/>
     <use style="fill:#ffa500;stroke:#ffa500;" x="275.392187" xlink:href="#m93b80751c8" y="623.149219"/>
     <use style="fill:#ffa500;stroke:#ffa500;" x="275.392187" xlink:href="#m93b80751c8" y="500.719219"/>
     <use style="fill:#ffa500;stroke:#ffa500;" x="275.392187" xlink:href="#m93b80751c8" y="378.289219"/>
     <use style="fill:#ffa500;stroke:#ffa500;" x="275.392187" xlink:href="#m93b80751c8" y="255.859219"/>
     <use style="fill:#ffa500;stroke:#ffa500;" x="275.392187" xlink:href="#m93b80751c8" y="133.429219"/>
     <use style="fill:#ffa500;stroke:#ffa500;" x="398.617188" xlink:href="#m93b80751c8" y="623.149219"/>
     <use style="fill:#ffa500;stroke:#ffa500;" x="398.617188" xlink:href="#m93b80751c8" y="500.719219"/>
     <use style="fill:#ffa500;stroke:#ffa500;" x="398.617188" xlink:href="#m93b80751c8" y="378.289219"/>
     <use style="fill:#ffa500;stroke:#ffa500;" x="398.617188" xlink:href="#m93b80751c8" y="255.859219"/>
     <use style="fill:#ffa500;stroke:#ffa500;" x="398.617188" xlink:href="#m93b80751c8" y="133.429219"/>
     <use style="fill:#ffa500;stroke:#ffa500;" x="521.842187" xlink:href="#m93b80751c8" y="623.149219"/>
     <use style="fill:#ffa500;stroke:#ffa500;" x="521.842187" xlink:href="#m93b80751c8" y="500.719219"/>
     <use style="fill:#ffa500;stroke:#ffa500;" x="521.842187" xlink:href="#m93b80751c8" y="378.289219"/>
     <use style="fill:#ffa500;stroke:#ffa500;" x="521.842187" xlink:href="#m93b80751c8" y="255.859219"/>
     <use style="fill:#ffa500;stroke:#ffa500;" x="521.842187" xlink:href="#m93b80751c8" y="133.429219"/>
     <use style="fill:#ffa500;stroke:#ffa500;" x="645.067188" xlink:href="#m93b80751c8" y="623.149219"/>
     <use style="fill:#ffa500;stroke:#ffa500;" x="645.067188" xlink:href="#m93b80751c8" y="500.719219"/>
     <use style="fill:#ffa500;stroke:#ffa500;" x="645.067188" xlink:href="#m93b80751c8" y="378.289219"/>
     <use style="fill:#ffa500;stroke:#ffa500;" x="645.067188" xlink:href="#m93b80751c8" y="255.859219"/>
     <use style="fill:#ffa500;stroke:#ffa500;" x="645.067188" xlink:href="#m93b80751c8" y="133.429219"/>
    </g>
   </g>
   <g id="PathCollection_3">
    <defs>
     <path d="M 0 14.142136 
C 3.750538 14.142136 7.347969 12.652031 10 10 
C 12.652031 7.347969 14.142136 3.750538 14.142136 0 
C 14.142136 -3.750538 12.652031 -7.347969 10 -10 
C 7.347969 -12.652031 3.750538 -14.142136 0 -14.142136 
C -3.750538 -14.142136 -7.347969 -12.652031 -10 -10 
C -12.652031 -7.347969 -14.142136 -3.750538 -14.142136 0 
C -14.142136 3.750538 -12.652031 7.347969 -10 10 
C -7.347969 12.652031 -3.750538 14.142136 0 14.142136 
z
" id="mb023375201" style="stroke:#00ff7f;"/>
    </defs>
    <g clip-path="url(#pcb0ce5861e)">
     <use style="fill:#00ff7f;stroke:#00ff7f;" x="275.392187" xlink:href="#mb023375201" y="255.859219"/>
    </g>
   </g>
   <g id="PathCollection_4">
    <defs>
     <path d="M 0 14.142136 
C 3.750538 14.142136 7.347969 12.652031 10 10 
C 12.652031 7.347969 14.142136 3.750538 14.142136 0 
C 14.142136 -3.750538 12.652031 -7.347969 10 -10 
C 7.347969 -12.652031 3.750538 -14.142136 0 -14.142136 
C -3.750538 -14.142136 -7.347969 -12.652031 -10 -10 
C -12.652031 -7.347969 -14.142136 -3.750538 -14.142136 0 
C -14.142136 3.750538 -12.652031 7.347969 -10 10 
C -7.347969 12.652031 -3.750538 14.142136 0 14.142136 
z
" id="md3247094ff" style="stroke:#ff0000;"/>
    </defs>
    <g clip-path="url(#pcb0ce5861e)">
     <use style="fill:#ff0000;stroke:#ff0000;" x="521.842187" xlink:href="#md3247094ff" y="500.719219"/>
    </g>
   </g>
   <g id="text_41">
    <g clip-path="url(#pcb0ce5861e)">
     <!-- (0, 0) -->
     <g transform="translate(136.036563 626.460469)scale(0.12 -0.12)">
      <use xlink:href="#DejaVuSans-28"/>
      <use x="39.013672" xlink:href="#DejaVuSans-30"/>
      <use x="102.636719" xlink:href="#DejaVuSans-2c"/>
      <use x="134.423828" xlink:href="#DejaVuSans-20"/>
      <use x="166.210938" xlink:href="#DejaVuSans-30"/>
      <use x="229.833984" xlink:href="#DejaVuSans-29"/>
     </g>
    </g>
   </g>
   <g id="text_42">
    <g clip-path="url(#pcb0ce5861e)">
     <!-- (0, 1) -->
     <g transform="translate(136.036563 504.030469)scale(0.12 -0.12)">
      <use xlink:href="#DejaVuSans-28"/>
      <use x="39.013672" xlink:href="#DejaVuSans-30"/>
      <use x="102.636719" xlink:href="#DejaVuSans-2c"/>
      <use x="134.423828" xlink:href="#DejaVuSans-20"/>
      <use x="166.210938" xlink:href="#DejaVuSans-31"/>
      <use x="229.833984" xlink:href="#DejaVuSans-29"/>
     </g>
    </g>
   </g>
   <g id="text_43">
    <g clip-path="url(#pcb0ce5861e)">
     <!-- (0, 2) -->
     <g transform="translate(136.036563 381.600469)scale(0.12 -0.12)">
      <use xlink:href="#DejaVuSans-28"/>
      <use x="39.013672" xlink:href="#DejaVuSans-30"/>
      <use x="102.636719" xlink:href="#DejaVuSans-2c"/>
      <use x="134.423828" xlink:href="#DejaVuSans-20"/>
      <use x="166.210938" xlink:href="#DejaVuSans-32"/>
      <use x="229.833984" xlink:href="#DejaVuSans-29"/>
     </g>
    </g>
   </g>
   <g id="text_44">
    <g clip-path="url(#pcb0ce5861e)">
     <!-- (0, 3) -->
     <g transform="translate(136.036563 259.170469)scale(0.12 -0.12)">
      <use xlink:href="#DejaVuSans-28"/>
      <use x="39.013672" xlink:href="#DejaVuSans-30"/>
      <use x="102.636719" xlink:href="#DejaVuSans-2c"/>
      <use x="134.423828" xlink:href="#DejaVuSans-20"/>
      <use x="166.210938" xlink:href="#DejaVuSans-33"/>
      <use x="229.833984" xlink:href="#DejaVuSans-29"/>
     </g>
    </g>
   </g>
   <g id="text_45">
    <g clip-path="url(#pcb0ce5861e)">
     <!-- (0, 4) -->
     <g transform="translate(136.036563 136.740469)scale(0.12 -0.12)">
      <use xlink:href="#DejaVuSans-28"/>
      <use x="39.013672" xlink:href="#DejaVuSans-30"/>
      <use x="102.636719" xlink:href="#DejaVuSans-2c"/>
      <use x="134.423828" xlink:href="#DejaVuSans-20"/>
      <use x="166.210938" xlink:href="#DejaVuSans-34"/>
      <use x="229.833984" xlink:href="#DejaVuSans-29"/>
     </g>
    </g>
   </g>
   <g id="text_46">
    <g clip-path="url(#pcb0ce5861e)">
     <!-- (1, 0) -->
     <g transform="translate(259.261562 626.460469)scale(0.12 -0.12)">
      <use xlink:href="#DejaVuSans-28"/>
      <use x="39.013672" xlink:href="#DejaVuSans-31"/>
      <use x="102.636719" xlink:href="#DejaVuSans-2c"/>
      <use x="134.423828" xlink:href="#DejaVuSans-20"/>
      <use x="166.210938" xlink:href="#DejaVuSans-30"/>
      <use x="229.833984" xlink:href="#DejaVuSans-29"/>
     </g>
    </g>
   </g>
   <g id="text_47">
    <g clip-path="url(#pcb0ce5861e)">
     <!-- (1, 1) -->
     <g transform="translate(259.261562 504.030469)scale(0.12 -0.12)">
      <use xlink:href="#DejaVuSans-28"/>
      <use x="39.013672" xlink:href="#DejaVuSans-31"/>
      <use x="102.636719" xlink:href="#DejaVuSans-2c"/>
      <use x="134.423828" xlink:href="#DejaVuSans-20"/>
      <use x="166.210938" xlink:href="#DejaVuSans-31"/>
      <use x="229.833984" xlink:href="#DejaVuSans-29"/>
     </g>
    </g>
   </g>
   <g id="text_48">
    <g clip-path="url(#pcb0ce5861e)">
     <!-- (1, 2) -->
     <g transform="translate(259.261562 381.600469)scale(0.12 -0.12)">
      <use xlink:href="#DejaVuSans-28"/>
      <use x="39.013672" xlink:href="#DejaVuSans-31"/>
      <use x="102.636719" xlink:href="#DejaVuSans-2c"/>
      <use x="134.423828" xlink:href="#DejaVuSans-20"/>
      <use x="166.210938" xlink:href="#DejaVuSans-32"/>
      <use x="229.833984" xlink:href="#DejaVuSans-29"/>
     </g>
    </g>
   </g>
   <g id="text_49">
    <g clip-path="url(#pcb0ce5861e)">
     <!-- (1, 3) -->
     <g transform="translate(259.261562 259.170469)scale(0.12 -0.12)">
      <use xlink:href="#DejaVuSans-28"/>
      <use x="39.013672" xlink:href="#DejaVuSans-31"/>
      <use x="102.636719" xlink:href="#DejaVuSans-2c"/>
      <use x="134.423828" xlink:href="#DejaVuSans-20"/>
      <use x="166.210938" xlink:href="#DejaVuSans-33"/>
      <use x="229.833984" xlink:href="#DejaVuSans-29"/>
     </g>
    </g>
   </g>
   <g id="text_50">
    <g clip-path="url(#pcb0ce5861e)">
     <!-- (1, 4) -->
     <g transform="translate(259.261562 136.740469)scale(0.12 -0.12)">
      <use xlink:href="#DejaVuSans-28"/>
      <use x="39.013672" xlink:href="#DejaVuSans-31"/>
      <use x="102.636719" xlink:href="#DejaVuSans-2c"/>
      <use x="134.423828" xlink:href="#DejaVuSans-20"/>
      <use x="166.210938" xlink:href="#DejaVuSans-34"/>
      <use x="229.833984" xlink:href="#DejaVuSans-29"/>
     </g>
    </g>
   </g>
   <g id="text_51">
    <g clip-path="url(#pcb0ce5861e)">
     <!-- (2, 0) -->
     <g transform="translate(382.486562 626.460469)scale(0.12 -0.12)">
      <use xlink:href="#DejaVuSans-28"/>
      <use x="39.013672" xlink:href="#DejaVuSans-32"/>
      <use x="102.636719" xlink:href="#DejaVuSans-2c"/>
      <use x="134.423828" xlink:href="#DejaVuSans-20"/>
      <use x="166.210938" xlink:href="#DejaVuSans-30"/>
      <use x="229.833984" xlink:href="#DejaVuSans-29"/>
     </g>
    </g>
   </g>
   <g id="text_52">
    <g clip-path="url(#pcb0ce5861e)">
     <!-- (2, 1) -->
     <g transform="translate(382.486562 504.030469)scale(0.12 -0.12)">
      <use xlink:href="#DejaVuSans-28"/>
      <use x="39.013672" xlink:href="#DejaVuSans-32"/>
      <use x="102.636719" xlink:href="#DejaVuSans-2c"/>
      <use x="134.423828" xlink:href="#DejaVuSans-20"/>
      <use x="166.210938" xlink:href="#DejaVuSans-31"/>
      <use x="229.833984" xlink:href="#DejaVuSans-29"/>
     </g>
    </g>
   </g>
   <g id="text_53">
    <g clip-path="url(#pcb0ce5861e)">
     <!-- (2, 2) -->
     <g transform="translate(382.486562 381.600469)scale(0.12 -0.12)">
      <use xlink:href="#DejaVuSans-28"/>
      <use x="39.013672" xlink:href="#DejaVuSans-32"/>
      <use x="102.636719" xlink:href="#DejaVuSans-2c"/>
      <use x="134.423828" xlink:href="#DejaVuSans-20"/>
      <use x="166.210938" xlink:href="#DejaVuSans-32"/>
      <use x="229.833984" xlink:href="#DejaVuSans-29"/>
     </g>
    </g>
   </g>
   <g id="text_54">
    <g clip-path="url(#pcb0ce5861e)">
     <!-- (2, 3) -->
     <g transform="translate(382.486562 259.170469)scale(0.12 -0.12)">
      <use xlink:href="#DejaVuSans-28"/>
      <use x="39.013672" xlink:href="#DejaVuSans-32"/>
      <use x="102.636719" xlink:href="#DejaVuSans-2c"/>
      <use x="134.423828" xlink:href="#DejaVuSans-20"/>
      <use x="166.210938" xlink:href="#DejaVuSans-33"/>
      <use x="229.833984" xlink:href="#DejaVuSans-29"/>
     </g>
    </g>
   </g>
   <g id="text_55">
    <g clip-path="url(#pcb0ce5861e)">
     <!-- (2, 4) -->
     <g transform="translate(382.486562 136.740469)scale(0.12 -0.12)">
      <use xlink:href="#DejaVuSans-28"/>
      <use x="39.013672" xlink:href="#DejaVuSans-32"/>
      <use x="102.636719" xlink:href="#DejaVuSans-2c"/>
      <use x="134.423828" xlink:href="#DejaVuSans-20"/>
      <use x="166.210938" xlink:href="#DejaVuSans-34"/>
      <use x="229.833984" xlink:href="#DejaVuSans-29"/>
     </g>
    </g>
   </g>
   <g id="text_56">
    <g clip-path="url(#pcb0ce5861e)">
     <!-- (3, 0) -->
     <g transform="translate(505.711562 626.460469)scale(0.12 -0.12)">
      <use xlink:href="#DejaVuSans-28"/>
      <use x="39.013672" xlink:href="#DejaVuSans-33"/>
      <use x="102.636719" xlink:href="#DejaVuSans-2c"/>
      <use x="134.423828" xlink:href="#DejaVuSans-20"/>
      <use x="166.210938" xlink:href="#DejaVuSans-30"/>
      <use x="229.833984" xlink:href="#DejaVuSans-29"/>
     </g>
    </g>
   </g>
   <g id="text_57">
    <g clip-path="url(#pcb0ce5861e)">
     <!-- (3, 1) -->
     <g transform="translate(505.711562 504.030469)scale(0.12 -0.12)">
      <use xlink:href="#DejaVuSans-28"/>
      <use x="39.013672" xlink:href="#DejaVuSans-33"/>
      <use x="102.636719" xlink:href="#DejaVuSans-2c"/>
      <use x="134.423828" xlink:href="#DejaVuSans-20"/>
      <use x="166.210938" xlink:href="#DejaVuSans-31"/>
      <use x="229.833984" xlink:href="#DejaVuSans-29"/>
     </g>
    </g>
   </g>
   <g id="text_58">
    <g clip-path="url(#pcb0ce5861e)">
     <!-- (3, 2) -->
     <g transform="translate(505.711562 381.600469)scale(0.12 -0.12)">
      <use xlink:href="#DejaVuSans-28"/>
      <use x="39.013672" xlink:href="#DejaVuSans-33"/>
      <use x="102.636719" xlink:href="#DejaVuSans-2c"/>
      <use x="134.423828" xlink:href="#DejaVuSans-20"/>
      <use x="166.210938" xlink:href="#DejaVuSans-32"/>
      <use x="229.833984" xlink:href="#DejaVuSans-29"/>
     </g>
    </g>
   </g>
   <g id="text_59">
    <g clip-path="url(#pcb0ce5861e)">
     <!-- (3, 3) -->
     <g transform="translate(505.711562 259.170469)scale(0.12 -0.12)">
      <use xlink:href="#DejaVuSans-28"/>
      <use x="39.013672" xlink:href="#DejaVuSans-33"/>
      <use x="102.636719" xlink:href="#DejaVuSans-2c"/>
      <use x="134.423828" xlink:href="#DejaVuSans-20"/>
      <use x="166.210938" xlink:href="#DejaVuSans-33"/>
      <use x="229.833984" xlink:href="#DejaVuSans-29"/>
     </g>
    </g>
   </g>
   <g id="text_60">
    <g clip-path="url(#pcb0ce5861e)">
     <!-- (3, 4) -->
     <g transform="translate(505.711562 136.740469)scale(0.12 -0.12)">
      <use xlink:href="#DejaVuSans-28"/>
      <use x="39.013672" xlink:href="#DejaVuSans-33"/>
      <use x="102.636719" xlink:href="#DejaVuSans-2c"/>
      <use x="134.423828" xlink:href="#DejaVuSans-20"/>
      <use x="166.210938" xlink:href="#DejaVuSans-34"/>
      <use x="229.833984" xlink:href="#DejaVuSans-29"/>
     </g>
    </g>
   </g>
   <g id="text_61">
    <g clip-path="url(#pcb0ce5861e)">
     <!-- (4, 0) -->
     <g transform="translate(628.936563 626.460469)scale(0.12 -0.12)">
      <use xlink:href="#DejaVuSans-28"/>
      <use x="39.013672" xlink:href="#DejaVuSans-34"/>
      <use x="102.636719" xlink:href="#DejaVuSans-2c"/>
      <use x="134.423828" xlink:href="#DejaVuSans-20"/>
      <use x="166.210938" xlink:href="#DejaVuSans-30"/>
      <use x="229.833984" xlink:href="#DejaVuSans-29"/>
     </g>
    </g>
   </g>
   <g id="text_62">
    <g clip-path="url(#pcb0ce5861e)">
     <!-- (4, 1) -->
     <g transform="translate(628.936563 504.030469)scale(0.12 -0.12)">
      <use xlink:href="#DejaVuSans-28"/>
      <use x="39.013672" xlink:href="#DejaVuSans-34"/>
      <use x="102.636719" xlink:href="#DejaVuSans-2c"/>
      <use x="134.423828" xlink:href="#DejaVuSans-20"/>
      <use x="166.210938" xlink:href="#DejaVuSans-31"/>
      <use x="229.833984" xlink:href="#DejaVuSans-29"/>
     </g>
    </g>
   </g>
   <g id="text_63">
    <g clip-path="url(#pcb0ce5861e)">
     <!-- (4, 2) -->
     <g transform="translate(628.936563 381.600469)scale(0.12 -0.12)">
      <use xlink:href="#DejaVuSans-28"/>
      <use x="39.013672" xlink:href="#DejaVuSans-34"/>
      <use x="102.636719" xlink:href="#DejaVuSans-2c"/>
      <use x="134.423828" xlink:href="#DejaVuSans-20"/>
      <use x="166.210938" xlink:href="#DejaVuSans-32"/>
      <use x="229.833984" xlink:href="#DejaVuSans-29"/>
     </g>
    </g>
   </g>
   <g id="text_64">
    <g clip-path="url(#pcb0ce5861e)">
     <!-- (4, 3) -->
     <g transform="translate(628.936563 259.170469)scale(0.12 -0.12)">
      <use xlink:href="#DejaVuSans-28"/>
      <use x="39.013672" xlink:href="#DejaVuSans-34"/>
      <use x="102.636719" xlink:href="#DejaVuSans-2c"/>
      <use x="134.423828" xlink:href="#DejaVuSans-20"/>
      <use x="166.210938" xlink:href="#DejaVuSans-33"/>
      <use x="229.833984" xlink:href="#DejaVuSans-29"/>
     </g>
    </g>
   </g>
   <g id="text_65">
    <g clip-path="url(#pcb0ce5861e)">
     <!-- (4, 4) -->
     <g transform="translate(628.936563 136.740469)scale(0.12 -0.12)">
      <use xlink:href="#DejaVuSans-28"/>
      <use x="39.013672" xlink:href="#DejaVuSans-34"/>
      <use x="102.636719" xlink:href="#DejaVuSans-2c"/>
      <use x="134.423828" xlink:href="#DejaVuSans-20"/>
      <use x="166.210938" xlink:href="#DejaVuSans-34"/>
      <use x="229.833984" xlink:href="#DejaVuSans-29"/>
     </g>
    </g>
   </g>
  </g>
 </g>
 <defs>
  <clipPath id="pcb0ce5861e">
   <rect height="734.58" width="739.35" x="28.942188" y="10.999219"/>
  </clipPath>
 </defs>
</svg>
