<?xml version="1.0" encoding="utf-8" standalone="no"?>
<!DOCTYPE svg PUBLIC "-//W3C//DTD SVG 1.1//EN"
  "http://www.w3.org/Graphics/SVG/1.1/DTD/svg11.dtd">
<!-- Created with matplotlib (http://matplotlib.org/) -->
<svg height="345.6pt" version="1.1" viewBox="0 0 460.8 345.6" width="460.8pt" xmlns="http://www.w3.org/2000/svg" xmlns:xlink="http://www.w3.org/1999/xlink">
 <defs>
  <style type="text/css">
*{stroke-linecap:butt;stroke-linejoin:round;}
  </style>
 </defs>
 <g id="figure_1">
  <g id="patch_1">
   <path d="M 0 345.6 
L 460.8 345.6 
L 460.8 0 
L 0 0 
z
" style="fill:#ffffff;"/>
  </g>
  <g id="axes_1">
   <g id="patch_2">
    <path d="M 57.6 307.584 
L 414.72 307.584 
L 414.72 41.472 
L 57.6 41.472 
z
" style="fill:#ffffff;"/>
   </g>
   <g id="matplotlib.axis_1">
    <g id="xtick_1">
     <g id="line2d_1">
      <defs>
       <path d="M 0 0 
L 0 3.5 
" id="m722df452dc" style="stroke:#000000;stroke-width:0.8;"/>
      </defs>
      <g>
       <use style="stroke:#000000;stroke-width:0.8;" x="73.832727" xlink:href="#m722df452dc" y="307.584"/>
      </g>
     </g>
     <g id="text_1">
      <!-- 0 -->
      <defs>
       <path d="M 3.125 29.296875 
Q 3.90625 50 6.4375 56.046875 
Q 8.984375 62.109375 13.671875 66.015625 
Q 18.359375 69.921875 25.1875 69.921875 
Q 32.03125 69.921875 37.109375 64.25 
Q 42.1875 58.59375 43.75 50 
Q 45.3125 41.40625 44.71875 30.265625 
Q 44.140625 19.140625 40.8125 12.109375 
Q 37.5 5.078125 30.859375 2.34375 
Q 24.21875 -0.390625 17.578125 2.921875 
Q 10.9375 6.25 8.203125 11.71875 
Q 5.46875 17.1875 4.296875 23.234375 
Q 3.125 29.296875 3.90625 50 
z
M 12.890625 52.734375 
Q 10.546875 31.25 12.5 22.84375 
Q 14.453125 14.453125 18.9375 10.9375 
Q 23.4375 7.421875 28.125 9.5625 
Q 32.8125 11.71875 34.953125 18.15625 
Q 37.109375 24.609375 37.109375 32.21875 
Q 37.109375 39.84375 36.515625 46.09375 
Q 35.9375 52.34375 33 57.421875 
Q 30.078125 62.5 25.1875 62.6875 
Q 20.3125 62.890625 16.59375 57.8125 
Q 12.890625 52.734375 10.546875 31.25 
z
" id="SimHei-30"/>
      </defs>
      <g transform="translate(71.332727 321.459)scale(0.1 -0.1)">
       <use xlink:href="#SimHei-30"/>
      </g>
     </g>
    </g>
    <g id="xtick_2">
     <g id="line2d_2">
      <g>
       <use style="stroke:#000000;stroke-width:0.8;" x="127.940916" xlink:href="#m722df452dc" y="307.584"/>
      </g>
     </g>
     <g id="text_2">
      <!-- 10 -->
      <defs>
       <path d="M 21.875 56.25 
Q 16.796875 51.171875 8.984375 46.484375 
L 8.984375 53.90625 
Q 18.75 60.546875 25 69.53125 
L 29.6875 69.53125 
L 29.6875 2.34375 
L 21.875 2.34375 
z
" id="SimHei-31"/>
      </defs>
      <g transform="translate(122.940916 321.459)scale(0.1 -0.1)">
       <use xlink:href="#SimHei-31"/>
       <use x="50" xlink:href="#SimHei-30"/>
      </g>
     </g>
    </g>
    <g id="xtick_3">
     <g id="line2d_3">
      <g>
       <use style="stroke:#000000;stroke-width:0.8;" x="182.049105" xlink:href="#m722df452dc" y="307.584"/>
      </g>
     </g>
     <g id="text_3">
      <!-- 20 -->
      <defs>
       <path d="M 4.6875 3.90625 
Q 5.078125 9.765625 10.15625 14.453125 
Q 15.234375 19.140625 23.046875 29.09375 
Q 30.859375 39.0625 33.203125 44.53125 
Q 35.546875 50 34.953125 53.90625 
Q 34.375 57.8125 31.25 60.34375 
Q 28.125 62.890625 24.015625 62.5 
Q 19.921875 62.109375 16.203125 59.375 
Q 12.5 56.640625 10.546875 51.171875 
L 3.125 52.34375 
Q 6.25 61.328125 11.125 65.421875 
Q 16.015625 69.53125 22.65625 69.921875 
Q 26.5625 70.3125 29.6875 69.71875 
Q 32.8125 69.140625 36.125 66.984375 
Q 39.453125 64.84375 41.59375 60.546875 
Q 43.75 56.25 43.15625 50.1875 
Q 42.578125 44.140625 37.109375 35.734375 
Q 31.640625 27.34375 16.015625 9.375 
L 44.140625 9.375 
L 44.140625 2.34375 
L 4.6875 2.34375 
z
" id="SimHei-32"/>
      </defs>
      <g transform="translate(177.049105 321.459)scale(0.1 -0.1)">
       <use xlink:href="#SimHei-32"/>
       <use x="50" xlink:href="#SimHei-30"/>
      </g>
     </g>
    </g>
    <g id="xtick_4">
     <g id="line2d_4">
      <g>
       <use style="stroke:#000000;stroke-width:0.8;" x="236.157295" xlink:href="#m722df452dc" y="307.584"/>
      </g>
     </g>
     <g id="text_4">
      <!-- 30 -->
      <defs>
       <path d="M 3.90625 19.140625 
L 10.9375 20.3125 
Q 12.5 15.234375 16.015625 11.90625 
Q 19.53125 8.59375 24.796875 8.78125 
Q 30.078125 8.984375 33.203125 13.078125 
Q 36.328125 17.1875 35.9375 22.453125 
Q 35.546875 27.734375 31.828125 30.65625 
Q 28.125 33.59375 19.921875 34.765625 
L 19.921875 39.84375 
Q 28.125 40.625 31.828125 44.140625 
Q 35.546875 47.65625 35.15625 53.3125 
Q 34.765625 58.984375 30.078125 61.515625 
Q 25.390625 64.0625 20.109375 62.109375 
Q 14.84375 60.15625 11.71875 51.171875 
L 4.6875 52.34375 
Q 7.03125 59.375 11.125 64.0625 
Q 15.234375 68.75 22.265625 69.53125 
Q 29.296875 70.3125 34.5625 67.765625 
Q 39.84375 65.234375 41.984375 59.953125 
Q 44.140625 54.6875 42.578125 48.4375 
Q 41.015625 42.1875 33.59375 37.5 
Q 39.0625 35.15625 41.984375 30.46875 
Q 44.921875 25.78125 43.9375 18.15625 
Q 42.96875 10.546875 37.109375 5.859375 
Q 31.25 1.171875 23.828125 1.359375 
Q 16.40625 1.5625 10.9375 6.046875 
Q 5.46875 10.546875 3.90625 19.140625 
z
" id="SimHei-33"/>
      </defs>
      <g transform="translate(231.157295 321.459)scale(0.1 -0.1)">
       <use xlink:href="#SimHei-33"/>
       <use x="50" xlink:href="#SimHei-30"/>
      </g>
     </g>
    </g>
    <g id="xtick_5">
     <g id="line2d_5">
      <g>
       <use style="stroke:#000000;stroke-width:0.8;" x="290.265484" xlink:href="#m722df452dc" y="307.584"/>
      </g>
     </g>
     <g id="text_5">
      <!-- 40 -->
      <defs>
       <path d="M 31.25 17.1875 
L 1.171875 17.1875 
L 1.171875 23.828125 
L 32.8125 69.53125 
L 38.671875 69.53125 
L 38.671875 23.828125 
L 48.046875 23.828125 
L 48.046875 17.1875 
L 38.671875 17.1875 
L 38.671875 2.34375 
L 31.25 2.34375 
z
M 31.25 23.828125 
L 31.25 54.6875 
L 9.375 23.828125 
z
" id="SimHei-34"/>
      </defs>
      <g transform="translate(285.265484 321.459)scale(0.1 -0.1)">
       <use xlink:href="#SimHei-34"/>
       <use x="50" xlink:href="#SimHei-30"/>
      </g>
     </g>
    </g>
    <g id="xtick_6">
     <g id="line2d_6">
      <g>
       <use style="stroke:#000000;stroke-width:0.8;" x="344.373673" xlink:href="#m722df452dc" y="307.584"/>
      </g>
     </g>
     <g id="text_6">
      <!-- 50 -->
      <defs>
       <path d="M 8.59375 20.703125 
Q 11.328125 10.15625 17.96875 8.984375 
Q 24.609375 7.8125 28.703125 10.34375 
Q 32.8125 12.890625 34.5625 16.984375 
Q 36.328125 21.09375 36.125 26.171875 
Q 35.9375 31.25 33.390625 34.765625 
Q 30.859375 38.28125 26.953125 39.453125 
Q 23.046875 40.625 18.15625 39.453125 
Q 13.28125 38.28125 10.15625 33.984375 
L 3.515625 34.765625 
Q 4.296875 37.109375 10.9375 68.359375 
L 41.796875 68.359375 
L 41.796875 61.328125 
L 16.796875 61.328125 
Q 14.84375 50.78125 12.890625 44.53125 
Q 18.75 47.265625 23.828125 47.0625 
Q 28.90625 46.875 33.59375 44.71875 
Q 38.28125 42.578125 40.421875 38.859375 
Q 42.578125 35.15625 43.546875 31.4375 
Q 44.53125 27.734375 44.328125 23.4375 
Q 44.140625 19.140625 42.578125 14.640625 
Q 41.015625 10.15625 37.890625 7.21875 
Q 34.765625 4.296875 30.265625 2.53125 
Q 25.78125 0.78125 19.921875 1.171875 
Q 14.0625 1.5625 8.78125 5.46875 
Q 3.515625 9.375 1.5625 18.75 
z
" id="SimHei-35"/>
      </defs>
      <g transform="translate(339.373673 321.459)scale(0.1 -0.1)">
       <use xlink:href="#SimHei-35"/>
       <use x="50" xlink:href="#SimHei-30"/>
      </g>
     </g>
    </g>
    <g id="xtick_7">
     <g id="line2d_7">
      <g>
       <use style="stroke:#000000;stroke-width:0.8;" x="398.481862" xlink:href="#m722df452dc" y="307.584"/>
      </g>
     </g>
     <g id="text_7">
      <!-- 60 -->
      <defs>
       <path d="M 3.515625 19.53125 
Q 4.296875 30.859375 6.046875 34.765625 
Q 7.8125 38.671875 11.328125 44.53125 
L 27.34375 69.53125 
L 36.328125 69.53125 
L 19.921875 43.75 
Q 30.46875 46.484375 36.71875 42.96875 
Q 42.96875 39.453125 45.109375 34.953125 
Q 47.265625 30.46875 47.453125 25.1875 
Q 47.65625 19.921875 45.890625 14.84375 
Q 44.140625 9.765625 39.640625 5.65625 
Q 35.15625 1.5625 27.140625 1.171875 
Q 19.140625 0.78125 13.46875 4.09375 
Q 7.8125 7.421875 5.65625 13.46875 
Q 3.515625 19.53125 4.296875 30.859375 
z
M 12.5 16.015625 
Q 19.53125 8.59375 25.390625 8.203125 
Q 31.25 7.8125 35.15625 12.109375 
Q 39.0625 16.40625 39.0625 24.609375 
Q 39.0625 32.8125 34.171875 35.9375 
Q 29.296875 39.0625 23.234375 38.28125 
Q 17.1875 37.5 14.453125 32.421875 
Q 11.71875 27.34375 12.109375 21.671875 
Q 12.5 16.015625 19.53125 8.59375 
z
" id="SimHei-36"/>
      </defs>
      <g transform="translate(393.481862 321.459)scale(0.1 -0.1)">
       <use xlink:href="#SimHei-36"/>
       <use x="50" xlink:href="#SimHei-30"/>
      </g>
     </g>
    </g>
    <g id="text_8">
     <!-- 回合/k -->
     <defs>
      <path d="M 88.28125 75.78125 
Q 87.890625 64.453125 87.890625 53.90625 
L 87.890625 14.84375 
Q 87.890625 4.6875 88.28125 -5.859375 
L 80.46875 -5.859375 
L 80.46875 1.5625 
L 18.359375 1.5625 
L 18.359375 -5.859375 
L 10.9375 -5.859375 
Q 11.328125 3.90625 11.328125 14.84375 
L 11.328125 53.90625 
Q 11.328125 64.0625 10.9375 75.78125 
L 88.28125 75.78125 
z
M 80.46875 7.8125 
L 80.46875 69.140625 
L 18.75 69.140625 
L 18.75 7.8125 
z
M 67.578125 54.6875 
Q 67.1875 48.828125 67.1875 42.96875 
L 67.1875 33.984375 
Q 67.1875 28.90625 67.578125 21.875 
L 31.640625 21.875 
Q 32.03125 28.90625 32.03125 33.984375 
L 32.03125 43.75 
Q 32.03125 49.21875 31.640625 54.6875 
L 67.578125 54.6875 
z
M 59.765625 28.515625 
L 59.765625 48.4375 
L 39.0625 48.4375 
L 39.0625 28.515625 
z
" id="SimHei-56de"/>
      <path d="M 78.90625 28.125 
Q 78.515625 24.21875 78.515625 10.15625 
Q 78.515625 -3.90625 78.90625 -8.203125 
L 70.703125 -8.203125 
L 70.703125 -0.78125 
L 27.34375 -0.78125 
L 27.34375 -9.375 
L 19.53125 -9.375 
Q 19.921875 -4.6875 19.921875 8.59375 
Q 19.921875 22.265625 19.53125 28.125 
L 78.90625 28.125 
z
M 52.734375 75 
Q 64.0625 61.328125 71.09375 56.25 
Q 78.125 51.171875 83.984375 48.4375 
Q 89.84375 45.703125 95.3125 44.140625 
Q 91.40625 39.84375 90.234375 35.9375 
Q 82.421875 39.453125 76.171875 43.359375 
Q 69.921875 47.265625 63.46875 53.3125 
Q 57.03125 59.375 48.828125 69.921875 
Q 41.40625 59.375 34.171875 52.53125 
Q 26.953125 45.703125 21.875 41.796875 
Q 16.796875 37.890625 10.546875 33.984375 
Q 9.765625 35.546875 4.296875 40.234375 
Q 12.5 44.140625 19.921875 49.609375 
Q 27.34375 55.078125 34.765625 63.46875 
Q 42.1875 71.875 46.875 81.640625 
Q 51.171875 78.90625 54.6875 77.34375 
z
M 70.703125 5.46875 
L 70.703125 21.875 
L 27.34375 21.875 
L 27.34375 5.46875 
z
M 61.328125 44.140625 
Q 67.578125 44.140625 72.265625 44.53125 
L 72.265625 37.109375 
Q 67.1875 37.5 61.71875 37.5 
L 39.84375 37.5 
Q 31.640625 37.5 26.5625 37.109375 
L 26.5625 44.53125 
Q 33.984375 44.140625 39.84375 44.140625 
z
" id="SimHei-5408"/>
      <path d="M 46.875 71.09375 
L 5.46875 -2.734375 
L 1.5625 -0.390625 
L 42.96875 73.4375 
z
" id="SimHei-2f"/>
      <path d="M 45.703125 1.953125 
L 36.71875 1.953125 
L 22.65625 25.78125 
L 13.671875 17.1875 
L 13.671875 1.953125 
L 5.859375 1.953125 
L 5.859375 68.75 
L 13.671875 68.75 
L 13.671875 26.171875 
L 33.203125 45.703125 
L 42.96875 45.703125 
L 27.734375 30.859375 
z
" id="SimHei-6b"/>
     </defs>
     <g transform="translate(213.66 338.486344)scale(0.15 -0.15)">
      <use xlink:href="#SimHei-56de"/>
      <use x="100" xlink:href="#SimHei-5408"/>
      <use x="200" xlink:href="#SimHei-2f"/>
      <use x="250" xlink:href="#SimHei-6b"/>
     </g>
    </g>
   </g>
   <g id="matplotlib.axis_2">
    <g id="ytick_1">
     <g id="line2d_8">
      <defs>
       <path d="M 0 0 
L -3.5 0 
" id="maa96d8d155" style="stroke:#000000;stroke-width:0.8;"/>
      </defs>
      <g>
       <use style="stroke:#000000;stroke-width:0.8;" x="57.6" xlink:href="#maa96d8d155" y="267.004877"/>
      </g>
     </g>
     <g id="text_9">
      <!-- -40000 -->
      <defs>
       <path d="M 46.484375 33.203125 
L 1.953125 33.203125 
L 1.953125 39.453125 
L 46.484375 39.453125 
z
" id="SimHei-2d"/>
      </defs>
      <g transform="translate(20.6 270.442377)scale(0.1 -0.1)">
       <use xlink:href="#SimHei-2d"/>
       <use x="50" xlink:href="#SimHei-34"/>
       <use x="100" xlink:href="#SimHei-30"/>
       <use x="150" xlink:href="#SimHei-30"/>
       <use x="200" xlink:href="#SimHei-30"/>
       <use x="250" xlink:href="#SimHei-30"/>
      </g>
     </g>
    </g>
    <g id="ytick_2">
     <g id="line2d_9">
      <g>
       <use style="stroke:#000000;stroke-width:0.8;" x="57.6" xlink:href="#maa96d8d155" y="213.645658"/>
      </g>
     </g>
     <g id="text_10">
      <!-- -30000 -->
      <g transform="translate(20.6 217.083158)scale(0.1 -0.1)">
       <use xlink:href="#SimHei-2d"/>
       <use x="50" xlink:href="#SimHei-33"/>
       <use x="100" xlink:href="#SimHei-30"/>
       <use x="150" xlink:href="#SimHei-30"/>
       <use x="200" xlink:href="#SimHei-30"/>
       <use x="250" xlink:href="#SimHei-30"/>
      </g>
     </g>
    </g>
    <g id="ytick_3">
     <g id="line2d_10">
      <g>
       <use style="stroke:#000000;stroke-width:0.8;" x="57.6" xlink:href="#maa96d8d155" y="160.286439"/>
      </g>
     </g>
     <g id="text_11">
      <!-- -20000 -->
      <g transform="translate(20.6 163.723939)scale(0.1 -0.1)">
       <use xlink:href="#SimHei-2d"/>
       <use x="50" xlink:href="#SimHei-32"/>
       <use x="100" xlink:href="#SimHei-30"/>
       <use x="150" xlink:href="#SimHei-30"/>
       <use x="200" xlink:href="#SimHei-30"/>
       <use x="250" xlink:href="#SimHei-30"/>
      </g>
     </g>
    </g>
    <g id="ytick_4">
     <g id="line2d_11">
      <g>
       <use style="stroke:#000000;stroke-width:0.8;" x="57.6" xlink:href="#maa96d8d155" y="106.927219"/>
      </g>
     </g>
     <g id="text_12">
      <!-- -10000 -->
      <g transform="translate(20.6 110.364719)scale(0.1 -0.1)">
       <use xlink:href="#SimHei-2d"/>
       <use x="50" xlink:href="#SimHei-31"/>
       <use x="100" xlink:href="#SimHei-30"/>
       <use x="150" xlink:href="#SimHei-30"/>
       <use x="200" xlink:href="#SimHei-30"/>
       <use x="250" xlink:href="#SimHei-30"/>
      </g>
     </g>
    </g>
    <g id="ytick_5">
     <g id="line2d_12">
      <g>
       <use style="stroke:#000000;stroke-width:0.8;" x="57.6" xlink:href="#maa96d8d155" y="53.568"/>
      </g>
     </g>
     <g id="text_13">
      <!-- 0 -->
      <g transform="translate(45.6 57.0055)scale(0.1 -0.1)">
       <use xlink:href="#SimHei-30"/>
      </g>
     </g>
    </g>
    <g id="text_14">
     <!-- 累计奖励 -->
     <defs>
      <path d="M 85.546875 78.125 
Q 85.15625 71.875 85.15625 62.109375 
Q 85.15625 52.34375 85.546875 46.09375 
L 73.046875 46.09375 
Q 75.78125 43.359375 79.296875 40.625 
Q 75 39.453125 66.203125 35.546875 
Q 57.421875 31.640625 50.96875 28.703125 
Q 44.53125 25.78125 37.5 22.265625 
Q 60.15625 23.828125 72.65625 24.609375 
Q 69.140625 26.953125 65.625 28.90625 
Q 68.359375 31.25 70.3125 33.984375 
Q 80.078125 28.125 92.1875 20.3125 
Q 89.84375 17.578125 87.109375 14.0625 
Q 83.984375 16.796875 79.6875 19.53125 
Q 66.40625 18.359375 54.296875 17.578125 
L 54.296875 0.78125 
Q 54.296875 -5.46875 50.1875 -7.21875 
Q 46.09375 -8.984375 40.625 -9.375 
Q 40.234375 -5.859375 37.109375 -0.78125 
Q 43.75 -1.171875 45.3125 -0.390625 
Q 46.875 0.390625 46.875 1.953125 
L 46.875 16.796875 
Q 37.5 16.40625 31.046875 15.8125 
Q 24.609375 15.234375 13.28125 13.671875 
Q 12.109375 17.578125 10.9375 21.09375 
Q 17.96875 21.875 24.609375 23.625 
Q 31.25 25.390625 47.265625 33.203125 
Q 27.734375 31.640625 19.53125 30.078125 
Q 18.75 34.375 17.1875 37.109375 
Q 20.703125 37.109375 27.140625 39.640625 
Q 33.59375 42.1875 38.671875 46.09375 
L 14.84375 46.09375 
Q 15.234375 52.734375 15.234375 62.109375 
Q 15.234375 71.875 14.84375 78.125 
L 85.546875 78.125 
z
M 37.890625 8.203125 
Q 34.375 6.25 27.53125 2.140625 
Q 20.703125 -1.953125 13.28125 -6.640625 
Q 10.9375 -3.515625 7.8125 -0.390625 
Q 13.28125 1.953125 19.53125 5.65625 
Q 25.78125 9.375 31.640625 14.0625 
Q 33.59375 11.328125 37.890625 8.203125 
z
M 46.484375 64.0625 
L 46.484375 72.65625 
L 22.65625 72.65625 
L 22.65625 64.0625 
z
M 77.734375 64.0625 
L 77.734375 72.65625 
L 53.90625 72.65625 
L 53.90625 64.0625 
z
M 66.796875 13.28125 
Q 74.21875 10.15625 78.90625 7.8125 
L 91.40625 1.5625 
Q 88.671875 -1.953125 87.109375 -5.859375 
Q 80.46875 -1.5625 74.609375 1.5625 
Q 68.75 4.6875 63.28125 7.03125 
Q 65.625 10.546875 66.796875 13.28125 
z
M 46.484375 51.171875 
L 46.484375 58.59375 
L 22.65625 58.59375 
L 22.65625 51.171875 
z
M 77.734375 51.171875 
L 77.734375 58.59375 
L 53.90625 58.59375 
L 53.90625 51.171875 
z
M 57.8125 38.671875 
Q 65.625 42.1875 71.484375 46.09375 
L 50.390625 46.09375 
Q 45.3125 42.96875 35.9375 37.890625 
Q 48.046875 38.28125 57.8125 38.671875 
z
" id="SimHei-7d2f"/>
      <path d="M 61.328125 48.4375 
L 61.328125 67.96875 
Q 61.328125 75.78125 60.9375 80.078125 
L 69.140625 80.078125 
Q 68.75 75 68.75 71.09375 
L 68.75 48.4375 
L 84.765625 48.4375 
Q 89.453125 48.4375 94.921875 48.828125 
L 94.921875 41.40625 
Q 89.0625 41.796875 85.15625 41.796875 
L 68.75 41.796875 
L 68.75 2.734375 
Q 68.75 -1.953125 69.140625 -8.59375 
L 60.9375 -8.59375 
Q 61.328125 -1.953125 61.328125 2.34375 
L 61.328125 41.796875 
L 46.09375 41.796875 
Q 40.234375 41.796875 34.375 41.40625 
L 34.375 48.828125 
Q 40.234375 48.4375 45.3125 48.4375 
z
M 27.734375 49.21875 
Q 27.34375 41.796875 27.34375 33.59375 
L 27.34375 9.765625 
Q 33.984375 16.40625 37.890625 21.875 
Q 40.234375 18.75 43.359375 15.625 
L 32.421875 4.6875 
Q 27.34375 -0.390625 22.65625 -5.46875 
Q 19.921875 -1.953125 17.578125 0.78125 
Q 20.3125 3.90625 19.921875 10.15625 
L 19.921875 42.578125 
Q 9.375 42.578125 4.296875 42.1875 
L 4.296875 49.609375 
Q 10.546875 49.21875 12.890625 49.21875 
z
M 17.96875 78.90625 
Q 23.046875 73.828125 33.984375 62.5 
Q 30.46875 59.375 27.34375 56.640625 
Q 22.265625 64.0625 12.109375 74.21875 
Q 14.84375 76.171875 17.96875 78.90625 
z
" id="SimHei-8ba1"/>
      <path d="M 79.296875 24.609375 
Q 88.28125 24.609375 94.921875 25 
L 94.921875 17.578125 
Q 88.671875 18.75 79.296875 18.359375 
L 55.46875 18.359375 
Q 62.109375 9.375 73.625 4.6875 
Q 85.15625 0 96.09375 -0.78125 
Q 93.75 -3.515625 91.40625 -8.59375 
Q 83.59375 -7.03125 77.734375 -5.078125 
Q 71.875 -3.125 64.640625 1.359375 
Q 57.421875 5.859375 50.78125 13.671875 
Q 47.265625 8.59375 43.75 5.46875 
Q 40.234375 2.34375 35.15625 -0.78125 
Q 30.078125 -3.90625 24.40625 -5.859375 
Q 18.75 -7.8125 10.9375 -9.765625 
Q 9.375 -5.859375 6.25 -1.953125 
Q 13.671875 -1.171875 19.71875 0.578125 
Q 25.78125 2.34375 30.65625 4.875 
Q 35.546875 7.421875 39.0625 10.734375 
Q 42.578125 14.0625 44.53125 18.359375 
L 20.703125 18.359375 
Q 12.890625 18.359375 5.46875 17.96875 
L 5.46875 25 
Q 12.890625 24.609375 20.703125 24.609375 
L 46.09375 24.609375 
Q 46.484375 27.34375 46.484375 30.46875 
Q 54.296875 29.296875 55.46875 29.296875 
Q 54.296875 26.953125 53.90625 24.609375 
z
M 67.578125 78.125 
Q 64.453125 75 61.328125 70.3125 
L 92.1875 70.3125 
Q 88.671875 61.71875 85.34375 56.046875 
Q 82.03125 50.390625 77.921875 45.890625 
Q 73.828125 41.40625 66.984375 37.5 
Q 60.15625 33.59375 47.65625 30.859375 
Q 45.703125 34.375 42.96875 37.890625 
Q 54.6875 38.28125 64.0625 43.75 
L 53.515625 50.78125 
Q 55.859375 53.515625 57.8125 56.25 
Q 61.71875 53.90625 64.0625 52.140625 
Q 66.40625 50.390625 69.921875 48.046875 
Q 76.5625 53.90625 80.859375 64.0625 
L 57.421875 64.0625 
Q 55.46875 61.71875 52.734375 58.59375 
Q 50 55.46875 45.3125 50 
Q 42.1875 52.734375 38.671875 54.296875 
Q 44.53125 59.375 49.796875 66.40625 
Q 55.078125 73.4375 58.59375 81.640625 
Q 63.671875 79.296875 67.578125 78.125 
z
M 38.28125 80.859375 
Q 37.890625 76.171875 37.890625 69.921875 
L 37.890625 44.921875 
Q 37.890625 39.0625 38.28125 30.859375 
L 30.078125 30.859375 
Q 30.46875 39.0625 30.46875 44.921875 
L 30.46875 47.65625 
Q 19.140625 40.234375 11.71875 35.546875 
Q 8.984375 39.84375 6.25 42.1875 
Q 12.890625 44.140625 30.46875 55.078125 
L 30.46875 69.921875 
Q 30.46875 75.78125 30.078125 80.859375 
L 38.28125 80.859375 
z
M 15.625 73.4375 
Q 23.046875 67.578125 28.125 62.890625 
L 22.265625 57.03125 
Q 17.1875 62.5 10.546875 67.96875 
Q 13.28125 70.3125 15.625 73.4375 
z
" id="SimHei-5956"/>
      <path d="M 42.578125 55.859375 
Q 48.828125 55.859375 53.125 56.25 
L 53.125 49.21875 
Q 48.4375 49.609375 42.578125 49.609375 
L 35.546875 49.609375 
Q 35.546875 44.921875 35.15625 38.28125 
L 52.734375 38.28125 
Q 51.5625 21.09375 51.171875 16.203125 
Q 50.78125 11.328125 50 5.265625 
Q 49.21875 -0.78125 46.09375 -2.140625 
Q 42.96875 -3.515625 35.546875 -4.296875 
Q 35.15625 -0.390625 32.421875 4.6875 
Q 39.453125 3.90625 41.203125 4.296875 
Q 42.96875 4.6875 43.546875 8.390625 
Q 44.140625 12.109375 44.53125 19.53125 
Q 44.921875 26.953125 44.921875 32.421875 
L 34.765625 32.421875 
Q 34.375 25 33 19.53125 
Q 31.640625 14.0625 30.078125 9.171875 
Q 28.515625 4.296875 26.359375 0.1875 
Q 24.21875 -3.90625 22.265625 -7.03125 
Q 19.53125 -3.90625 15.234375 -1.5625 
Q 18.75 1.953125 21.28125 7.21875 
Q 23.828125 12.5 25.390625 17.96875 
Q 26.953125 23.4375 27.734375 31.828125 
Q 28.515625 40.234375 28.515625 49.609375 
L 19.53125 49.609375 
Q 19.53125 41.796875 19.140625 35.34375 
Q 18.75 28.90625 17.96875 21.875 
Q 17.1875 14.84375 15.234375 6.640625 
Q 13.28125 -1.5625 9.765625 -7.8125 
Q 6.640625 -5.078125 3.125 -3.125 
Q 5.859375 1.953125 7.609375 7.609375 
Q 9.375 13.28125 10.546875 21.09375 
Q 11.71875 28.90625 11.90625 35.9375 
Q 12.109375 42.96875 12.109375 54.296875 
Q 12.109375 66.015625 11.71875 73.4375 
L 44.921875 73.4375 
Q 48.828125 73.4375 53.515625 73.828125 
L 53.515625 67.1875 
Q 49.21875 67.578125 44.921875 67.578125 
L 19.53125 67.578125 
L 19.53125 55.859375 
z
M 71.09375 -9.375 
Q 70.3125 -4.6875 67.578125 0.78125 
Q 75.390625 -0.390625 78.125 0.78125 
Q 80.859375 1.953125 81.4375 9.765625 
Q 82.03125 17.578125 82.609375 29.875 
Q 83.203125 42.1875 83.203125 53.125 
L 73.046875 53.125 
Q 72.65625 36.328125 70.703125 26.171875 
Q 68.75 16.015625 65.8125 8.984375 
Q 62.890625 1.953125 59.953125 -2.140625 
Q 57.03125 -6.25 54.296875 -10.15625 
Q 50.390625 -7.03125 47.265625 -5.859375 
Q 53.125 0.78125 56.828125 8 
Q 60.546875 15.234375 62.296875 21.28125 
Q 64.0625 27.34375 64.84375 33.984375 
Q 65.625 40.625 66.015625 53.125 
Q 59.765625 53.125 55.46875 52.734375 
L 55.46875 59.765625 
Q 61.328125 59.375 66.015625 59.375 
L 66.015625 67.96875 
Q 66.015625 72.265625 65.625 80.859375 
Q 70.3125 79.6875 74.21875 79.296875 
Q 73.828125 75.78125 73.4375 71.484375 
Q 73.046875 67.1875 73.046875 59.375 
L 91.015625 59.375 
Q 90.234375 52.734375 90.234375 41.796875 
Q 89.0625 13.28125 88.671875 7.8125 
Q 88.28125 2.34375 87.109375 -1.75 
Q 85.9375 -5.859375 81.640625 -7.421875 
Q 77.34375 -8.984375 71.09375 -9.375 
z
" id="SimHei-52b1"/>
     </defs>
     <g transform="translate(14.725 204.528)rotate(-90)scale(0.15 -0.15)">
      <use xlink:href="#SimHei-7d2f"/>
      <use x="100" xlink:href="#SimHei-8ba1"/>
      <use x="200" xlink:href="#SimHei-5956"/>
      <use x="300" xlink:href="#SimHei-52b1"/>
     </g>
    </g>
   </g>
   <g id="line2d_13">
    <path clip-path="url(#p5cabffeeb1)" d="M 73.832727 53.568 
L 74.162787 55.329202 
L 74.298058 56.397817 
L 74.438739 56.99494 
L 75.558779 64.99647 
L 75.704871 65.749491 
L 75.780622 66.117441 
L 75.915893 67.136396 
L 75.921303 67.131317 
L 75.937536 67.195227 
L 76.089039 67.840923 
L 76.105271 67.842308 
L 76.22972 68.581524 
L 77.858377 80.382287 
L 77.88002 80.397535 
L 77.890841 80.474418 
L 78.031523 81.254625 
L 78.34535 83.602621 
L 78.350761 83.599119 
L 78.356172 83.700605 
L 78.594248 85.63433 
L 78.599659 85.629242 
L 78.60507 85.685705 
L 78.61048 85.680019 
L 78.794448 87.15807 
L 79.378817 92.148348 
L 79.514087 93.279056 
L 79.519498 93.278345 
L 79.595249 93.880231 
L 79.741342 95.224724 
L 79.963185 97.136478 
L 79.974007 97.240099 
L 80.185029 99.909718 
L 80.190439 99.905871 
L 80.212083 99.917481 
L 80.385229 101.88043 
L 80.39064 101.875852 
L 80.406872 102.005625 
L 80.623305 104.738748 
L 80.845149 106.144192 
L 80.98583 107.018441 
L 81.305068 109.734597 
L 81.364587 110.152298 
L 81.570198 112.018857 
L 81.597252 112.318663 
L 81.905669 115.804016 
L 82.122102 119.966897 
L 82.473805 123.45463 
L 82.490038 123.613578 
L 82.733524 126.396605 
L 83.550558 135.343413 
L 83.994245 140.878137 
L 84.02671 141.15761 
L 84.167391 142.318667 
L 84.172802 142.31683 
L 84.708473 148.331875 
L 84.735527 148.712236 
L 86.423703 162.959119 
L 86.564384 164.062871 
L 87.392239 171.718623 
L 87.435526 171.813021 
L 87.559975 172.607842 
L 87.565386 172.604836 
L 87.900856 174.936379 
L 88.05777 175.991019 
L 88.263381 177.480199 
L 88.485225 179.453373 
L 88.490636 179.450779 
L 88.506868 179.529248 
L 88.663782 180.549597 
L 88.669193 180.545862 
L 88.685425 180.623358 
L 88.690836 180.617671 
L 88.84775 181.828073 
L 88.858571 181.824055 
L 88.891036 181.838033 
L 88.907269 181.858454 
L 89.080415 182.932608 
L 89.085826 182.929086 
L 89.291437 183.72555 
L 89.307669 183.768556 
L 89.31308 183.763767 
L 89.459172 185.131362 
L 89.480816 185.363721 
L 89.610675 186.117577 
L 89.686427 186.368473 
L 89.821697 187.347169 
L 89.84334 187.440917 
L 90.005665 188.657701 
L 90.070595 189.016811 
L 90.184222 189.913003 
L 90.189633 189.910185 
L 90.200454 189.914354 
L 90.330314 190.400266 
L 90.335725 190.397545 
L 90.357368 190.502647 
L 90.362779 190.508287 
L 90.470995 191.407976 
L 90.622498 192.20662 
L 90.63332 192.19655 
L 90.649552 192.289898 
L 90.817288 193.279042 
L 90.822699 193.277975 
L 90.952558 193.839147 
L 91.09865 194.354163 
L 91.104061 194.351574 
L 91.125705 194.452064 
L 91.271797 195.884888 
L 91.531516 197.66752 
L 91.68843 198.304048 
L 92.148349 200.966466 
L 92.289031 202.163751 
L 92.94374 206.996383 
L 92.94915 206.992871 
L 92.965383 206.989234 
L 92.976205 207.083451 
L 92.981615 207.087826 
L 93.122297 208.279571 
L 93.149351 208.383171 
L 93.360373 209.213935 
L 93.495643 209.89193 
L 93.533519 209.994065 
L 93.701254 210.992644 
L 93.706665 210.989333 
L 93.728308 211.160245 
L 94.06919 212.87435 
L 94.074601 212.873342 
L 94.112477 212.892389 
L 94.117887 212.963078 
L 94.26939 213.561538 
L 94.301855 213.6675 
L 94.339731 213.961838 
L 94.572396 214.94579 
L 94.610272 215.052752 
L 94.799651 215.621216 
L 94.967386 216.449982 
L 94.972797 216.448766 
L 96.173999 221.914276 
L 96.228107 221.940823 
L 96.238928 221.997167 
L 96.271393 222.173176 
L 96.471594 222.781023 
L 96.477004 222.777513 
L 96.482415 222.838256 
L 96.628507 223.276813 
L 97.023497 224.667486 
L 97.028908 224.663198 
L 97.050551 224.77907 
L 97.055962 224.775265 
L 97.294038 225.404783 
L 97.299449 225.400173 
L 97.418487 225.850203 
L 97.423898 225.849583 
L 97.429309 225.845083 
L 97.467184 225.946675 
L 97.618687 226.478298 
L 97.63492 226.480955 
L 97.64033 226.529264 
L 97.759368 226.976396 
L 97.764779 226.974682 
L 97.948747 227.682371 
L 97.954158 227.679374 
L 98.138126 228.690313 
L 98.143537 228.688339 
L 98.16518 228.685222 
L 98.181412 228.711697 
L 98.332915 229.485337 
L 98.662975 230.506584 
L 98.700851 230.659658 
L 98.906462 231.502204 
L 98.96057 231.549622 
L 99.095841 231.94312 
L 99.171592 232.027561 
L 99.604458 233.287225 
L 99.626101 233.28989 
L 99.642333 233.339758 
L 99.777604 233.670115 
L 99.783015 233.667032 
L 99.858766 233.739246 
L 100.134718 234.515508 
L 100.48101 235.209487 
L 100.583816 235.827224 
L 100.616281 235.821353 
L 100.670389 235.930444 
L 100.81107 236.19944 
L 100.838124 236.26267 
L 100.967984 236.737183 
L 100.978806 236.728851 
L 101.027503 236.819168 
L 101.368385 238.282714 
L 101.373796 238.277828 
L 101.384617 238.270532 
L 101.390028 238.371501 
L 101.40085 238.376444 
L 102.374797 241.326673 
L 102.407262 241.35497 
L 102.412673 241.424024 
L 102.428905 241.415382 
L 102.959165 242.55281 
L 102.964576 242.550339 
L 103.072793 242.645798 
L 104.328103 245.347329 
L 104.468784 245.586792 
L 104.739325 246.136532 
L 104.890828 246.427232 
L 104.912471 246.434619 
L 104.928704 246.495941 
L 104.955758 246.49897 
L 105.080206 246.879516 
L 105.155958 247.003398 
L 105.361569 247.403004 
L 105.372391 247.394833 
L 105.377802 247.390671 
L 105.404856 247.452321 
L 105.540126 247.774909 
L 105.56718 247.768556 
L 105.583413 247.882897 
L 106.075797 248.592752 
L 106.205657 248.845001 
L 106.719685 249.584614 
L 106.725095 249.580462 
L 106.800847 249.676132 
L 107.201247 250.540522 
L 107.21748 250.530944 
L 107.260767 250.568201 
L 107.271588 250.609394 
L 107.433913 250.905265 
L 107.498843 250.924425 
L 107.520486 250.962716 
L 107.753151 251.403642 
L 107.883011 251.596907 
L 108.045335 251.944412 
L 108.061568 251.93688 
L 108.072389 252.015834 
L 108.202249 252.385837 
L 108.20766 252.380768 
L 108.294233 252.516233 
L 108.418682 252.760019 
L 108.424093 252.755537 
L 108.467379 252.86237 
L 108.911066 253.694714 
L 108.916477 253.691245 
L 108.965174 253.786423 
L 110.491025 256.96494 
L 110.512669 257.04564 
L 110.550544 257.058104 
L 110.691226 257.198255 
L 110.71828 257.187397 
L 110.761566 257.247387 
L 110.929302 257.626992 
L 110.934713 257.622064 
L 110.967177 257.725607 
L 110.977999 257.727504 
L 111.205253 257.953968 
L 111.329702 258.299549 
L 111.383811 258.430644 
L 111.481205 258.49986 
L 111.502849 258.490102 
L 111.816676 259.02237 
L 111.930303 259.09951 
L 112.146736 259.401154 
L 112.152147 259.396174 
L 112.17379 259.424977 
L 112.233309 259.468236 
L 112.395634 259.712048 
L 112.563369 259.996775 
L 112.585012 259.987335 
L 112.671585 260.038652 
L 112.676996 260.057529 
L 112.839321 260.301428 
L 113.169381 260.717999 
L 113.331705 261.019865 
L 113.337116 261.015516 
L 113.705052 261.655128 
L 113.75916 261.680291 
L 113.775392 261.741026 
L 113.981004 262.093894 
L 114.132507 262.289822 
L 114.21908 262.298049 
L 114.235312 262.35725 
L 114.386815 262.508598 
L 114.430102 262.552067 
L 114.440923 262.589358 
L 114.603248 262.95111 
L 114.608659 262.949242 
L 114.635713 262.934069 
L 114.646534 263.021624 
L 114.668178 263.029955 
L 114.819681 263.16185 
L 115.414871 263.708061 
L 115.555552 263.953158 
L 115.571784 263.94526 
L 115.67459 264.024339 
L 115.853147 264.301511 
L 115.93972 264.378 
L 116.172385 264.628928 
L 116.340121 264.868052 
L 116.345531 264.864126 
L 116.377996 264.896731 
L 116.383407 264.940811 
L 116.388818 264.942368 
L 116.518678 265.094674 
L 116.653948 265.159804 
L 118.060761 266.926746 
L 118.147334 266.957764 
L 118.271783 267.066329 
L 118.753346 267.587482 
L 118.91026 267.725157 
L 121.052944 270.485569 
L 121.209858 270.54633 
L 121.383004 270.7557 
L 121.648134 270.993039 
L 121.696831 270.995345 
L 121.723885 271.056853 
L 121.875388 271.251548 
L 121.880799 271.248568 
L 121.994426 271.372763 
L 122.21627 271.606496 
L 122.405649 271.733268 
L 122.427292 271.756099 
L 122.503043 271.786888 
L 122.87639 272.024197 
L 123.00625 272.113076 
L 123.179396 272.40322 
L 123.190217 272.392833 
L 123.980197 273.318146 
L 123.985608 273.312952 
L 124.315668 273.467251 
L 124.905447 274.028148 
L 125.035307 274.228549 
L 125.040717 274.227543 
L 125.181399 274.303126 
L 125.414064 274.477949 
L 125.52228 274.561018 
L 125.722481 274.782857 
L 125.771178 274.839111 
L 125.798232 274.835236 
L 125.922681 274.970649 
L 125.933503 274.96479 
L 126.020076 275.032179 
L 126.204044 275.200447 
L 126.404244 275.295963 
L 126.523282 275.374207 
L 126.528693 275.371986 
L 126.609855 275.40899 
L 126.626087 275.427865 
L 127.259153 275.979989 
L 127.383602 276.058494 
L 127.394424 276.0541 
L 127.416067 276.052744 
L 127.421478 276.086122 
L 127.475586 276.121071 
L 128.849934 277.280854 
L 128.968972 277.373765 
L 128.979794 277.368626 
L 129.580395 277.793582 
L 129.726487 277.884293 
L 129.856346 277.953412 
L 130.197228 278.19668 
L 130.392017 278.396123 
L 130.456947 278.439545 
L 130.467769 278.466063 
L 130.640915 278.565067 
L 130.900634 278.67348 
L 131.06837 278.884051 
L 131.073781 278.881862 
L 131.20364 278.907028 
L 131.696025 279.336791 
L 131.852938 279.395897 
L 131.977387 279.544918 
L 132.096425 279.60837 
L 132.577988 279.973705 
L 132.669972 280.024379 
L 132.675383 280.032685 
L 133.108248 280.362136 
L 133.232697 280.444962 
L 133.416665 280.617152 
L 133.524881 280.632646 
L 133.535703 280.650328 
L 133.703439 280.761546 
L 133.833298 280.88024 
L 133.973979 280.997707 
L 134.83971 281.488472 
L 135.002035 281.703481 
L 135.007446 281.699491 
L 135.16436 281.725876 
L 135.305041 281.769497 
L 135.397025 281.821029 
L 135.521474 281.951092 
L 136.251934 282.550777 
L 136.333097 282.584763 
L 136.452135 282.747559 
L 136.587405 282.788201 
L 138.995219 284.253934 
L 139.141312 284.368132 
L 139.422674 284.47843 
L 139.568766 284.509343 
L 139.796021 284.68792 
L 139.888005 284.757252 
L 139.915059 284.735578 
L 140.531892 285.050419 
L 140.602233 285.070521 
L 140.607643 285.084523 
L 140.726681 285.215568 
L 140.889006 285.29135 
L 141.040509 285.42505 
L 142.111851 286.014205 
L 142.230889 286.039243 
L 142.414857 286.179102 
L 142.555538 286.272231 
L 142.712452 286.307345 
L 142.869366 286.316993 
L 143.112853 286.635631 
L 143.118263 286.63336 
L 144.227481 287.184813 
L 144.389806 287.250992 
L 145.547721 287.754413 
L 145.699224 287.799823 
L 145.839905 287.830935 
L 148.24772 288.784148 
L 148.420866 288.924164 
L 148.783391 289.078534 
L 148.902429 289.135939 
L 151.477979 289.984263 
L 151.624071 290.152939 
L 151.840504 290.128672 
L 151.959542 290.169877 
L 152.14892 290.147726 
L 152.273369 290.193031 
L 152.511445 290.239545 
L 152.652126 290.28622 
L 152.717056 290.319532 
L 152.80904 290.423393 
L 152.830683 290.414684 
L 152.846916 290.432609 
L 152.965954 290.423759 
L 153.057938 290.41855 
L 153.07417 290.407741 
L 153.279781 290.415538 
L 153.285192 290.430112 
L 153.512447 290.573172 
L 153.663949 290.633334 
L 153.923669 290.6891 
L 154.026474 290.729622 
L 154.042707 290.71635 
L 154.12928 290.745555 
L 154.145512 290.767669 
L 154.767757 291.016027 
L 154.978778 291.003751 
L 155.065352 291.057178 
L 155.103227 291.038568 
L 155.281784 291.129459 
L 155.866153 291.297525 
L 156.001423 291.355097 
L 156.282786 291.39395 
L 156.412645 291.47873 
L 157.083587 291.767015 
L 157.175571 291.840513 
L 157.375771 291.968203 
L 157.527274 292.017235 
L 158.398416 292.273818 
L 158.787995 292.34354 
L 158.928676 292.372386 
L 159.177574 292.424847 
L 159.302023 292.407389 
L 160.221862 292.527836 
L 160.330078 292.540467 
L 160.3409 292.534022 
L 160.514046 292.629255 
L 161.179577 292.795223 
L 161.298615 292.808676 
L 161.309437 292.801713 
L 161.471761 292.886228 
L 161.666551 292.936373 
L 161.785589 292.959902 
L 161.904627 292.96532 
L 162.050719 293.024485 
L 162.175168 293.061244 
L 162.3916 293.12414 
L 162.591801 293.110108 
L 162.737893 293.123965 
L 162.85152 293.153031 
L 162.970558 293.166354 
L 162.975969 293.161978 
L 163.479175 293.179508 
L 163.598213 293.167153 
L 163.798413 293.20839 
L 163.933684 293.211273 
L 164.155527 293.224999 
L 164.453122 293.274259 
L 164.534285 293.296577 
L 164.57216 293.269775 
L 164.794004 293.266007 
L 165.859935 293.346176 
L 166.925867 293.438329 
L 167.104424 293.521866 
L 167.732079 293.509003 
L 167.921457 293.524754 
L 168.056728 293.556645 
L 168.191998 293.609793 
L 170.161536 293.971876 
L 170.307628 294.068974 
L 170.313039 294.066043 
L 170.951516 294.268782 
L 171.092197 294.376357 
L 171.11384 294.365 
L 171.135484 294.392789 
L 171.292397 294.349296 
L 171.433079 294.355202 
L 171.562938 294.405553 
L 171.692798 294.434523 
L 173.862536 294.611613 
L 173.970753 294.636233 
L 173.981574 294.629218 
L 174.127667 294.645287 
L 174.398208 294.662385 
L 174.538889 294.66625 
L 174.684981 294.66219 
L 174.695803 294.675025 
L 174.858127 294.678433 
L 175.961934 294.578789 
L 176.167545 294.570214 
L 176.383978 294.567095 
L 177.141493 294.616246 
L 177.303817 294.642251 
L 179.073155 294.650708 
L 179.208426 294.6649 
L 179.213836 294.661001 
L 180.56113 294.623219 
L 180.983174 294.619677 
L 181.340288 294.673236 
L 181.459326 294.701656 
L 181.356521 294.697184 
L 181.464737 294.714308 
L 181.659527 294.754604 
L 182.103214 294.856351 
L 182.254717 295.006135 
L 182.281771 294.98771 
L 182.481971 294.983283 
L 182.60642 295.038086 
L 182.611831 295.034012 
L 182.747101 295.066991 
L 184.624655 295.284851 
L 184.770747 295.281073 
L 184.873553 295.352891 
L 184.895196 295.348093 
L 185.273954 295.400334 
L 185.403813 295.392636 
L 185.414635 295.415726 
L 185.539084 295.416618 
L 185.728462 295.452651 
L 185.901609 295.460082 
L 191.371946 295.33446 
L 191.507217 295.350684 
L 191.956315 295.336643 
L 192.134872 295.29572 
L 192.145694 295.309736 
L 192.372948 295.280045 
L 192.6489 295.291577 
L 192.757116 295.267241 
L 192.762527 295.262162 
L 193.162928 295.168821 
L 193.455112 295.171864 
L 193.96914 295.117157 
L 194.071945 295.135875 
L 194.088178 295.130281 
L 195.95491 294.953997 
L 196.111824 294.894763 
L 196.436473 294.778613 
L 196.441884 294.787002 
L 196.555511 294.77551 
L 196.88016 294.710037 
L 196.890982 294.719662 
L 196.977555 294.667712 
L 197.237274 294.716072 
L 197.40501 294.694514 
L 197.697194 294.625285 
L 197.810821 294.628091 
L 197.816232 294.62416 
L 198.243686 294.536116 
L 198.4006 294.502697 
L 200.786771 294.16595 
L 201.089777 294.078356 
L 201.203404 294.064795 
L 201.43607 294.020113 
L 201.657913 294.001784 
L 201.798595 293.988042 
L 202.009616 293.964902 
L 202.150298 293.935641 
L 202.599396 293.87286 
L 202.702201 293.872394 
L 202.713023 293.865708 
L 202.918634 293.845709 
L 203.308213 293.733651 
L 204.022441 293.551879 
L 204.136068 293.59602 
L 204.157712 293.579722 
L 204.433663 293.51919 
L 204.855707 293.450099 
L 205.088372 293.415742 
L 205.147891 293.451324 
L 205.202 293.438025 
L 205.461719 293.39131 
L 205.596989 293.396468 
L 205.780957 293.386941 
L 206.078552 293.368936 
L 207.360916 293.289875 
L 207.366327 293.376162 
L 207.474544 293.358272 
L 208.280756 293.37849 
L 208.480956 293.396189 
L 211.110614 292.900247 
L 211.299993 292.863523 
L 211.305403 292.870711 
L 211.694982 292.990386 
L 211.938469 292.93783 
L 212.47414 292.793479 
L 212.625643 292.806134 
L 212.787968 292.763955 
L 212.993579 292.724814 
L 213.112617 292.721389 
L 213.691574 292.680672 
L 213.783558 292.69853 
L 213.810612 292.686064 
L 214.38957 292.612216 
L 214.514019 292.624877 
L 214.627646 292.577281 
L 214.833257 292.538438 
L 215.000993 292.501474 
L 215.206604 292.473182 
L 215.347285 292.421773 
L 215.612415 292.349663 
L 216.185962 292.222575 
L 216.43486 292.159633 
L 216.624238 292.168869 
L 220.633655 291.204329 
L 221.044877 291.076563 
L 221.396581 290.98304 
L 221.661711 290.918239 
L 221.737462 290.885964 
L 221.759105 290.87281 
L 222.38135 290.656007 
L 222.505798 290.641274 
L 222.868323 290.58181 
L 224.123633 290.236365 
L 224.524034 290.153474 
L 230.741065 288.897972 
L 230.865514 288.887403 
L 231.200984 288.790433 
L 231.374131 288.749452 
L 232.342667 288.525472 
L 232.467116 288.496041 
L 232.862106 288.352982 
L 233.035252 288.323342 
L 233.316615 288.243135 
L 233.441063 288.217714 
L 233.630442 288.203994 
L 233.895572 288.1447 
L 234.106594 288.072504 
L 234.112005 288.0808 
L 234.323027 288.043391 
L 234.447476 288.013442 
L 234.631444 287.988891 
L 234.956093 287.879095 
L 236.13024 287.523689 
L 236.249279 287.494785 
L 236.384549 287.45527 
L 236.671322 287.398525 
L 237.001382 287.269564 
L 237.239458 287.21838 
L 237.369318 287.177527 
L 237.618216 287.104238 
L 237.791362 287.035541 
L 238.30539 286.841644 
L 238.797774 286.680433 
L 239.10078 286.56373 
L 239.425429 286.435024 
L 239.836651 286.331901 
L 241.833244 285.657826 
L 241.979336 285.608459 
L 242.260698 285.506151 
L 243.045267 285.282989 
L 243.369916 285.210798 
L 243.488954 285.168123 
L 243.943463 285.022641 
L 244.192361 284.941529 
L 244.646869 284.784757 
L 244.820016 284.730808 
L 245.426027 284.50713 
L 245.712801 284.429526 
L 245.858893 284.41247 
L 246.069915 284.370188 
L 246.529834 284.179543 
L 246.670516 284.130953 
L 246.946467 284.056861 
L 247.449674 284.04039 
L 247.568712 284.002422 
L 249.711396 283.348495 
L 249.873721 283.341429 
L 250.13344 283.260701 
L 252.898368 282.401793 
L 253.482737 282.179319 
L 253.596364 282.163723 
L 256.209789 281.238196 
L 256.48033 281.142915 
L 256.572314 281.127832 
L 256.588547 281.113727 
L 257.021412 280.953482 
L 258.471512 280.389739 
L 258.747464 280.340336 
L 260.100168 279.826449 
L 260.235439 279.788537 
L 260.446461 279.740088 
L 261.387943 279.382957 
L 261.815398 279.217186 
L 262.037241 279.155275 
L 262.35648 279.027823 
L 263.02201 278.795959 
L 263.178924 278.733663 
L 263.460287 278.614298 
L 264.385537 278.237197 
L 264.73724 278.121551 
L 264.948262 278.055667 
L 265.72742 277.745955 
L 265.86269 277.703934 
L 266.290145 277.509573 
L 266.414594 277.474375 
L 266.571508 277.412816 
L 267.285736 277.112176 
L 267.410185 277.077739 
L 267.745655 276.945781 
L 270.672908 275.839329 
L 270.954271 275.74161 
L 271.484531 275.54596 
L 272.312387 275.205553 
L 272.4693 275.150111 
L 273.172707 274.877256 
L 273.475713 274.763632 
L 274.90958 274.185358 
L 275.580521 273.909922 
L 275.894349 273.782591 
L 276.083727 273.698506 
L 276.43002 273.546341 
L 277.468897 273.108466 
L 278.588936 272.67286 
L 278.729618 272.610451 
L 278.994748 272.494946 
L 279.259878 272.387291 
L 279.368094 272.353479 
L 279.568295 272.327649 
L 279.676511 272.274535 
L 279.968695 272.152139 
L 280.444847 271.937336 
L 280.920999 271.740941 
L 281.743444 271.382303 
L 282.04645 271.262575 
L 282.717391 270.927266 
L 282.836429 270.882302 
L 283.664285 270.550859 
L 288.171497 268.569955 
L 289.259071 268.097682 
L 289.718991 267.886572 
L 289.854261 267.821187 
L 290.941836 267.384684 
L 291.201555 267.286307 
L 291.358469 267.230675 
L 292.294541 266.75618 
L 292.408168 266.703236 
L 292.727406 266.550382 
L 292.911374 266.493908 
L 293.268488 266.331506 
L 293.782516 266.115611 
L 294.323598 265.859081 
L 297.846041 264.245115 
L 298.863275 263.807185 
L 298.879507 263.813221 
L 298.96067 263.766626 
L 300.372893 263.038341 
L 300.513575 262.978576 
L 301.373895 262.601436 
L 301.649847 262.477876 
L 302.050247 262.316868 
L 302.959265 261.887247 
L 303.613974 261.586296 
L 304.696138 261.078977 
L 305.020787 260.922209 
L 305.134414 260.883031 
L 305.707961 260.60341 
L 306.102951 260.39515 
L 307.88311 259.57145 
L 308.353851 259.358412 
L 308.67309 259.225529 
L 308.813771 259.161953 
L 309.089723 259.046325 
L 309.657859 258.80028 
L 309.847237 258.704574 
L 310.171886 258.568048 
L 310.772487 258.28699 
L 311.51918 257.912412 
L 311.676094 257.848577 
L 313.69974 256.932234 
L 314.576293 256.566216 
L 314.781904 256.460466 
L 315.301343 256.20997 
L 315.588116 256.070727 
L 316.123787 255.798135 
L 316.329398 255.692223 
L 316.810961 255.469672 
L 317.189719 255.278103 
L 317.557654 255.110345 
L 317.719979 255.027411 
L 332.951434 247.501885 
L 333.3843 247.286082 
L 334.807345 246.621114 
L 335.018367 246.499086 
L 335.70013 246.137117 
L 340.488705 243.629992 
L 340.607743 243.571604 
L 341.906339 242.899378 
L 342.04161 242.840596 
L 342.972271 242.340962 
L 343.091309 242.27689 
L 343.908342 241.863202 
L 344.02197 241.809184 
L 344.563051 241.52214 
L 346.316157 240.605439 
L 346.510946 240.50166 
L 347.014152 240.239052 
L 350.69892 238.294214 
L 351.007337 238.133942 
L 351.873068 237.6762 
L 352.073268 237.586991 
L 352.809139 237.2096 
L 353.187897 237.010315 
L 353.485492 236.860834 
L 353.853428 236.719425 
L 354.091504 236.577182 
L 354.46485 236.407002 
L 354.686694 236.285594 
L 357.738396 234.733289 
L 357.944007 234.650862 
L 358.328175 234.448445 
L 358.512143 234.3567 
L 363.392701 231.767278 
L 363.950016 231.468815 
L 364.106929 231.387649 
L 364.436989 231.201733 
L 364.886087 231.004441 
L 365.659834 230.587727 
L 366.15763 230.293092 
L 366.282079 230.234161 
L 366.725766 229.981489 
L 366.898912 229.889373 
L 368.80352 228.845294 
L 369.220153 228.615509 
L 369.869452 228.253319 
L 371.752416 227.261529 
L 372.271855 227.002406 
L 372.596504 226.814892 
L 374.511934 225.827087 
L 375.80512 225.144746 
L 376.081072 225.01984 
L 376.470651 224.811295 
L 376.584278 224.764962 
L 377.017143 224.524043 
L 378.932573 223.479563 
L 381.123955 222.293165 
L 381.345798 222.173982 
L 381.995097 221.815404 
L 382.406319 221.573329 
L 384.007921 220.709137 
L 384.98728 220.185182 
L 385.495897 219.906829 
L 386.361628 219.450566 
L 386.718742 219.238763 
L 387.270645 218.9361 
L 387.790084 218.660388 
L 387.909122 218.606433 
L 388.42856 218.309124 
L 389.305113 217.81024 
L 390.490082 217.154843 
L 391.831965 216.430186 
L 392.627356 216.010969 
L 398.487273 212.791223 
L 398.487273 212.791223 
" style="fill:none;stroke:#1f77b4;stroke-linecap:square;stroke-width:1.5;"/>
   </g>
   <g id="patch_3">
    <path d="M 57.6 307.584 
L 57.6 41.472 
" style="fill:none;stroke:#000000;stroke-linecap:square;stroke-linejoin:miter;stroke-width:0.8;"/>
   </g>
   <g id="patch_4">
    <path d="M 414.72 307.584 
L 414.72 41.472 
" style="fill:none;stroke:#000000;stroke-linecap:square;stroke-linejoin:miter;stroke-width:0.8;"/>
   </g>
   <g id="patch_5">
    <path d="M 57.6 307.584 
L 414.72 307.584 
" style="fill:none;stroke:#000000;stroke-linecap:square;stroke-linejoin:miter;stroke-width:0.8;"/>
   </g>
   <g id="patch_6">
    <path d="M 57.6 41.472 
L 414.72 41.472 
" style="fill:none;stroke:#000000;stroke-linecap:square;stroke-linejoin:miter;stroke-width:0.8;"/>
   </g>
   <g id="text_15">
    <!-- 训练过程 -->
    <defs>
     <path d="M 25.78125 51.5625 
Q 25.390625 42.578125 25.390625 34.765625 
L 25.390625 10.546875 
Q 30.46875 17.578125 32.03125 19.921875 
Q 33.984375 17.578125 36.71875 14.0625 
Q 31.640625 7.8125 28.125 3.3125 
Q 24.609375 -1.171875 20.703125 -6.640625 
Q 17.96875 -3.125 14.84375 -0.78125 
Q 17.96875 3.515625 17.96875 9.765625 
L 17.96875 44.921875 
L 15.234375 44.921875 
Q 9.375 44.921875 4.6875 44.53125 
L 4.6875 51.953125 
Q 9.375 51.5625 15.234375 51.5625 
z
M 53.515625 71.875 
Q 52.734375 67.96875 52.921875 52.53125 
Q 53.125 37.109375 52.140625 29.484375 
Q 51.171875 21.875 48.234375 13.078125 
Q 45.3125 4.296875 38.28125 -5.859375 
Q 34.765625 -3.125 30.859375 -1.953125 
Q 39.84375 7.8125 43.15625 21.28125 
Q 46.484375 34.765625 46.09375 52.140625 
Q 45.703125 69.53125 45.3125 73.046875 
Q 49.21875 72.265625 53.515625 71.875 
z
M 91.796875 73.4375 
Q 91.40625 70.3125 91.40625 62.109375 
L 91.40625 9.765625 
Q 91.40625 1.953125 91.796875 -6.25 
L 84.375 -6.25 
Q 84.765625 1.953125 84.765625 9.375 
L 84.765625 62.109375 
Q 84.765625 70.3125 84.375 73.4375 
L 91.796875 73.4375 
z
M 71.875 2.734375 
L 64.453125 2.734375 
Q 64.84375 11.328125 64.84375 17.96875 
L 64.84375 56.25 
Q 64.84375 63.28125 64.453125 67.96875 
L 71.875 67.96875 
z
M 15.625 80.46875 
Q 25.78125 71.875 32.8125 64.0625 
Q 29.296875 61.328125 27.34375 58.59375 
Q 16.40625 71.09375 10.9375 75 
Q 13.28125 77.34375 15.625 80.46875 
z
" id="SimHei-8bad"/>
     <path d="M 51.5625 59.765625 
Q 46.09375 59.765625 37.5 59.375 
L 37.5 66.40625 
Q 46.09375 66.015625 51.953125 66.015625 
L 56.640625 66.015625 
Q 60.546875 77.34375 60.9375 80.859375 
Q 65.625 78.515625 69.53125 76.953125 
Q 67.96875 75.390625 66.59375 72.0625 
Q 65.234375 68.75 64.0625 66.015625 
L 78.515625 66.015625 
Q 84.765625 66.015625 92.1875 66.40625 
L 92.1875 59.375 
Q 86.71875 59.765625 78.515625 59.765625 
L 62.109375 59.765625 
Q 60.15625 55.078125 57.8125 49.21875 
L 73.046875 49.21875 
Q 72.65625 44.921875 72.65625 38.671875 
L 72.65625 30.859375 
L 77.734375 30.859375 
Q 83.59375 30.859375 90.625 31.25 
L 90.625 24.21875 
Q 83.59375 24.609375 77.734375 24.609375 
L 72.65625 24.609375 
L 72.65625 1.953125 
Q 72.65625 -4.6875 69.71875 -6.640625 
Q 66.796875 -8.59375 57.03125 -9.765625 
Q 56.640625 -5.859375 53.90625 -1.5625 
Q 63.671875 -1.953125 64.640625 -0.390625 
Q 65.625 1.171875 65.625 5.078125 
L 65.625 24.609375 
L 53.515625 24.609375 
Q 50.78125 24.609375 48.4375 24.40625 
Q 46.09375 24.21875 42.96875 23.046875 
Q 41.40625 26.953125 39.84375 30.46875 
Q 43.75 31.640625 48.828125 43.359375 
Q 46.09375 43.359375 38.28125 42.96875 
L 38.28125 49.609375 
Q 47.265625 49.21875 50.78125 49.21875 
Q 53.125 55.078125 54.6875 59.765625 
z
M 25.78125 46.09375 
Q 29.296875 51.5625 32.8125 60.9375 
Q 36.328125 58.203125 40.234375 56.25 
Q 36.328125 51.171875 31.640625 42.96875 
Q 26.953125 34.765625 16.796875 21.09375 
Q 20.3125 21.875 37.5 24.609375 
Q 36.71875 20.3125 37.109375 17.96875 
Q 28.515625 17.1875 10.15625 12.890625 
Q 8.203125 16.796875 6.25 19.921875 
Q 9.765625 21.875 13.859375 27.140625 
Q 17.96875 32.421875 22.65625 40.234375 
Q 20.3125 40.625 15.8125 40.03125 
Q 11.328125 39.453125 7.03125 38.28125 
Q 5.46875 41.796875 3.90625 45.703125 
Q 7.8125 48.046875 12.6875 58.203125 
Q 17.578125 68.359375 20.703125 78.125 
Q 25 75.390625 28.90625 74.21875 
Q 25 68.359375 21.671875 61.90625 
Q 18.359375 55.46875 12.5 45.703125 
Q 21.484375 45.703125 25.78125 46.09375 
z
M 37.890625 10.9375 
Q 37.5 6.640625 37.890625 3.90625 
Q 31.25 2.34375 22.84375 -0.390625 
Q 14.453125 -3.125 7.421875 -6.640625 
Q 6.25 -2.34375 4.6875 1.953125 
Q 14.84375 4.296875 18.546875 5.265625 
Q 22.265625 6.25 37.890625 10.9375 
z
M 58.203125 13.671875 
Q 57.03125 12.5 51.359375 6.25 
Q 45.703125 0 38.671875 -7.421875 
Q 35.9375 -3.90625 33.59375 -1.953125 
Q 37.890625 1.5625 42.96875 7.21875 
Q 48.046875 12.890625 51.953125 19.140625 
Q 54.296875 16.40625 58.203125 13.671875 
z
M 82.421875 19.140625 
Q 92.578125 5.859375 96.875 -1.5625 
Q 92.96875 -3.125 89.84375 -5.859375 
Q 85.546875 2.734375 76.5625 14.84375 
Q 79.296875 16.40625 82.421875 19.140625 
z
M 65.625 30.859375 
L 65.625 43.359375 
L 55.859375 43.359375 
Q 51.953125 35.15625 49.609375 30.859375 
z
" id="SimHei-7ec3"/>
     <path d="M 3.90625 -3.125 
Q 16.015625 7.421875 19.921875 10.15625 
L 19.921875 38.671875 
Q 10.546875 38.671875 6.25 38.28125 
L 6.25 46.09375 
Q 9.765625 45.3125 20.703125 45.3125 
L 28.125 45.3125 
Q 27.734375 39.453125 27.734375 33.59375 
L 27.734375 9.375 
Q 39.0625 -0.390625 61.125 -0.578125 
Q 83.203125 -0.78125 96.09375 1.171875 
Q 93.75 -2.734375 92.578125 -8.59375 
L 69.140625 -8.59375 
Q 59.375 -8.59375 51.171875 -8 
Q 42.96875 -7.421875 37.296875 -4.6875 
Q 31.640625 -1.953125 27.34375 1.171875 
Q 23.046875 4.296875 19.328125 0.578125 
Q 15.625 -3.125 10.9375 -9.765625 
Q 8.59375 -5.859375 3.90625 -3.125 
z
M 56.640625 13.28125 
Q 65.625 12.890625 67.96875 13.671875 
Q 70.3125 14.453125 70.3125 20.3125 
L 70.3125 55.859375 
L 44.921875 55.859375 
Q 40.625 55.859375 35.546875 55.46875 
L 35.546875 62.890625 
Q 40.625 62.5 48.046875 62.5 
L 70.3125 62.5 
Q 70.3125 72.65625 69.53125 80.078125 
L 78.515625 80.078125 
Q 78.125 75 78.125 62.5 
Q 86.328125 62.5 92.96875 62.890625 
L 92.96875 55.46875 
Q 86.71875 55.859375 78.125 55.859375 
L 78.125 17.1875 
Q 78.125 8.203125 72.84375 6.4375 
Q 67.578125 4.6875 59.765625 4.296875 
Q 58.984375 8.59375 56.640625 13.28125 
z
M 48.828125 25 
Q 45.3125 35.546875 40.234375 44.53125 
Q 43.75 46.09375 47.65625 48.828125 
Q 54.6875 34.765625 56.640625 29.296875 
Q 53.90625 27.734375 48.828125 25 
z
M 17.96875 77.734375 
Q 21.875 73.046875 30.078125 60.546875 
Q 26.171875 58.203125 22.65625 55.46875 
Q 14.84375 68.75 10.9375 72.265625 
Q 14.453125 74.21875 17.96875 77.734375 
z
" id="SimHei-8fc7"/>
     <path d="M 91.015625 77.734375 
Q 90.625 69.140625 90.625 62.109375 
Q 90.625 55.46875 91.015625 48.828125 
L 47.265625 48.828125 
Q 47.65625 56.25 47.65625 62.890625 
Q 47.65625 69.53125 47.265625 77.734375 
L 91.015625 77.734375 
z
M 6.25 75.390625 
Q 12.890625 76.171875 21.28125 77.921875 
Q 29.6875 79.6875 35.546875 82.421875 
Q 38.28125 77.34375 41.015625 73.828125 
Q 38.28125 74.21875 35.34375 73.625 
Q 32.421875 73.046875 28.90625 72.65625 
L 28.90625 53.515625 
Q 34.375 53.515625 40.625 53.90625 
L 40.625 46.484375 
Q 34.375 46.875 28.90625 46.875 
L 28.90625 12.5 
Q 28.90625 3.90625 29.296875 -10.546875 
L 21.484375 -10.546875 
Q 21.875 3.90625 21.875 12.109375 
L 21.875 30.078125 
Q 16.40625 19.140625 9.765625 9.375 
Q 7.03125 13.28125 3.515625 16.40625 
Q 8.984375 21.875 13.28125 28.90625 
Q 17.578125 35.9375 21.09375 46.875 
Q 11.328125 46.875 6.640625 46.484375 
L 6.640625 53.90625 
Q 13.28125 53.515625 16.40625 53.515625 
L 21.875 53.515625 
L 21.875 71.09375 
Q 16.796875 69.921875 8.984375 68.75 
Q 7.8125 72.265625 6.25 75.390625 
z
M 79.6875 39.0625 
Q 85.9375 39.0625 92.96875 39.453125 
L 92.96875 32.421875 
Q 85.9375 32.8125 79.6875 32.8125 
L 72.265625 32.8125 
L 72.265625 20.3125 
L 76.5625 20.3125 
Q 82.421875 20.3125 90.234375 20.703125 
L 90.234375 13.28125 
Q 82.421875 13.671875 77.734375 13.671875 
L 72.265625 13.671875 
L 72.265625 0 
L 81.640625 0 
Q 88.671875 0 96.484375 0.390625 
L 96.484375 -7.03125 
Q 90.234375 -6.640625 81.640625 -6.640625 
L 55.46875 -6.640625 
Q 46.875 -6.640625 40.625 -7.421875 
L 40.625 0.390625 
Q 46.875 0 55.46875 0 
L 64.84375 0 
L 64.84375 13.671875 
L 59.375 13.671875 
Q 53.125 13.671875 47.65625 12.890625 
L 47.65625 20.703125 
Q 53.125 20.3125 59.375 20.3125 
L 64.84375 20.3125 
L 64.84375 32.8125 
L 58.59375 32.8125 
Q 51.5625 32.8125 45.3125 32.421875 
L 45.3125 39.453125 
Q 51.5625 39.0625 58.59375 39.0625 
z
M 82.421875 55.859375 
L 82.421875 71.09375 
L 54.6875 71.09375 
L 54.6875 55.859375 
z
M 35.9375 37.5 
Q 39.84375 31.640625 44.140625 23.828125 
Q 41.796875 22.265625 37.890625 19.140625 
Q 33.984375 27.734375 30.078125 33.203125 
Q 32.421875 35.15625 35.9375 37.5 
z
" id="SimHei-7a0b"/>
    </defs>
    <g transform="translate(206.16 35.472)scale(0.15 -0.15)">
     <use xlink:href="#SimHei-8bad"/>
     <use x="100" xlink:href="#SimHei-7ec3"/>
     <use x="200" xlink:href="#SimHei-8fc7"/>
     <use x="300" xlink:href="#SimHei-7a0b"/>
    </g>
   </g>
  </g>
 </g>
 <defs>
  <clipPath id="p5cabffeeb1">
   <rect height="266.112" width="357.12" x="57.6" y="41.472"/>
  </clipPath>
 </defs>
</svg>
