<?xml version="1.0" encoding="utf-8" standalone="no"?>
<!DOCTYPE svg PUBLIC "-//W3C//DTD SVG 1.1//EN"
  "http://www.w3.org/Graphics/SVG/1.1/DTD/svg11.dtd">
<!-- Created with matplotlib (http://matplotlib.org/) -->
<svg height="345.6pt" version="1.1" viewBox="0 0 460.8 345.6" width="460.8pt" xmlns="http://www.w3.org/2000/svg" xmlns:xlink="http://www.w3.org/1999/xlink">
 <defs>
  <style type="text/css">
*{stroke-linecap:butt;stroke-linejoin:round;}
  </style>
 </defs>
 <g id="figure_1">
  <g id="patch_1">
   <path d="M 0 345.6 
L 460.8 345.6 
L 460.8 0 
L 0 0 
z
" style="fill:#ffffff;"/>
  </g>
  <g id="axes_1">
   <g id="patch_2">
    <path d="M 57.6 307.584 
L 414.72 307.584 
L 414.72 41.472 
L 57.6 41.472 
z
" style="fill:#ffffff;"/>
   </g>
   <g id="matplotlib.axis_1">
    <g id="xtick_1">
     <g id="line2d_1">
      <defs>
       <path d="M 0 0 
L 0 3.5 
" id="m0e084c07a0" style="stroke:#000000;stroke-width:0.8;"/>
      </defs>
      <g>
       <use style="stroke:#000000;stroke-width:0.8;" x="113.535415" xlink:href="#m0e084c07a0" y="307.584"/>
      </g>
     </g>
     <g id="text_1">
      <!-- 10 -->
      <defs>
       <path d="M 21.875 56.25 
Q 16.796875 51.171875 8.984375 46.484375 
L 8.984375 53.90625 
Q 18.75 60.546875 25 69.53125 
L 29.6875 69.53125 
L 29.6875 2.34375 
L 21.875 2.34375 
z
" id="SimHei-31"/>
       <path d="M 3.125 29.296875 
Q 3.90625 50 6.4375 56.046875 
Q 8.984375 62.109375 13.671875 66.015625 
Q 18.359375 69.921875 25.1875 69.921875 
Q 32.03125 69.921875 37.109375 64.25 
Q 42.1875 58.59375 43.75 50 
Q 45.3125 41.40625 44.71875 30.265625 
Q 44.140625 19.140625 40.8125 12.109375 
Q 37.5 5.078125 30.859375 2.34375 
Q 24.21875 -0.390625 17.578125 2.921875 
Q 10.9375 6.25 8.203125 11.71875 
Q 5.46875 17.1875 4.296875 23.234375 
Q 3.125 29.296875 3.90625 50 
z
M 12.890625 52.734375 
Q 10.546875 31.25 12.5 22.84375 
Q 14.453125 14.453125 18.9375 10.9375 
Q 23.4375 7.421875 28.125 9.5625 
Q 32.8125 11.71875 34.953125 18.15625 
Q 37.109375 24.609375 37.109375 32.21875 
Q 37.109375 39.84375 36.515625 46.09375 
Q 35.9375 52.34375 33 57.421875 
Q 30.078125 62.5 25.1875 62.6875 
Q 20.3125 62.890625 16.59375 57.8125 
Q 12.890625 52.734375 10.546875 31.25 
z
" id="SimHei-30"/>
      </defs>
      <g transform="translate(108.535415 321.459)scale(0.1 -0.1)">
       <use xlink:href="#SimHei-31"/>
       <use x="50" xlink:href="#SimHei-30"/>
      </g>
     </g>
    </g>
    <g id="xtick_2">
     <g id="line2d_2">
      <g>
       <use style="stroke:#000000;stroke-width:0.8;" x="170.253539" xlink:href="#m0e084c07a0" y="307.584"/>
      </g>
     </g>
     <g id="text_2">
      <!-- 20 -->
      <defs>
       <path d="M 4.6875 3.90625 
Q 5.078125 9.765625 10.15625 14.453125 
Q 15.234375 19.140625 23.046875 29.09375 
Q 30.859375 39.0625 33.203125 44.53125 
Q 35.546875 50 34.953125 53.90625 
Q 34.375 57.8125 31.25 60.34375 
Q 28.125 62.890625 24.015625 62.5 
Q 19.921875 62.109375 16.203125 59.375 
Q 12.5 56.640625 10.546875 51.171875 
L 3.125 52.34375 
Q 6.25 61.328125 11.125 65.421875 
Q 16.015625 69.53125 22.65625 69.921875 
Q 26.5625 70.3125 29.6875 69.71875 
Q 32.8125 69.140625 36.125 66.984375 
Q 39.453125 64.84375 41.59375 60.546875 
Q 43.75 56.25 43.15625 50.1875 
Q 42.578125 44.140625 37.109375 35.734375 
Q 31.640625 27.34375 16.015625 9.375 
L 44.140625 9.375 
L 44.140625 2.34375 
L 4.6875 2.34375 
z
" id="SimHei-32"/>
      </defs>
      <g transform="translate(165.253539 321.459)scale(0.1 -0.1)">
       <use xlink:href="#SimHei-32"/>
       <use x="50" xlink:href="#SimHei-30"/>
      </g>
     </g>
    </g>
    <g id="xtick_3">
     <g id="line2d_3">
      <g>
       <use style="stroke:#000000;stroke-width:0.8;" x="226.971664" xlink:href="#m0e084c07a0" y="307.584"/>
      </g>
     </g>
     <g id="text_3">
      <!-- 30 -->
      <defs>
       <path d="M 3.90625 19.140625 
L 10.9375 20.3125 
Q 12.5 15.234375 16.015625 11.90625 
Q 19.53125 8.59375 24.796875 8.78125 
Q 30.078125 8.984375 33.203125 13.078125 
Q 36.328125 17.1875 35.9375 22.453125 
Q 35.546875 27.734375 31.828125 30.65625 
Q 28.125 33.59375 19.921875 34.765625 
L 19.921875 39.84375 
Q 28.125 40.625 31.828125 44.140625 
Q 35.546875 47.65625 35.15625 53.3125 
Q 34.765625 58.984375 30.078125 61.515625 
Q 25.390625 64.0625 20.109375 62.109375 
Q 14.84375 60.15625 11.71875 51.171875 
L 4.6875 52.34375 
Q 7.03125 59.375 11.125 64.0625 
Q 15.234375 68.75 22.265625 69.53125 
Q 29.296875 70.3125 34.5625 67.765625 
Q 39.84375 65.234375 41.984375 59.953125 
Q 44.140625 54.6875 42.578125 48.4375 
Q 41.015625 42.1875 33.59375 37.5 
Q 39.0625 35.15625 41.984375 30.46875 
Q 44.921875 25.78125 43.9375 18.15625 
Q 42.96875 10.546875 37.109375 5.859375 
Q 31.25 1.171875 23.828125 1.359375 
Q 16.40625 1.5625 10.9375 6.046875 
Q 5.46875 10.546875 3.90625 19.140625 
z
" id="SimHei-33"/>
      </defs>
      <g transform="translate(221.971664 321.459)scale(0.1 -0.1)">
       <use xlink:href="#SimHei-33"/>
       <use x="50" xlink:href="#SimHei-30"/>
      </g>
     </g>
    </g>
    <g id="xtick_4">
     <g id="line2d_4">
      <g>
       <use style="stroke:#000000;stroke-width:0.8;" x="283.689788" xlink:href="#m0e084c07a0" y="307.584"/>
      </g>
     </g>
     <g id="text_4">
      <!-- 40 -->
      <defs>
       <path d="M 31.25 17.1875 
L 1.171875 17.1875 
L 1.171875 23.828125 
L 32.8125 69.53125 
L 38.671875 69.53125 
L 38.671875 23.828125 
L 48.046875 23.828125 
L 48.046875 17.1875 
L 38.671875 17.1875 
L 38.671875 2.34375 
L 31.25 2.34375 
z
M 31.25 23.828125 
L 31.25 54.6875 
L 9.375 23.828125 
z
" id="SimHei-34"/>
      </defs>
      <g transform="translate(278.689788 321.459)scale(0.1 -0.1)">
       <use xlink:href="#SimHei-34"/>
       <use x="50" xlink:href="#SimHei-30"/>
      </g>
     </g>
    </g>
    <g id="xtick_5">
     <g id="line2d_5">
      <g>
       <use style="stroke:#000000;stroke-width:0.8;" x="340.407913" xlink:href="#m0e084c07a0" y="307.584"/>
      </g>
     </g>
     <g id="text_5">
      <!-- 50 -->
      <defs>
       <path d="M 8.59375 20.703125 
Q 11.328125 10.15625 17.96875 8.984375 
Q 24.609375 7.8125 28.703125 10.34375 
Q 32.8125 12.890625 34.5625 16.984375 
Q 36.328125 21.09375 36.125 26.171875 
Q 35.9375 31.25 33.390625 34.765625 
Q 30.859375 38.28125 26.953125 39.453125 
Q 23.046875 40.625 18.15625 39.453125 
Q 13.28125 38.28125 10.15625 33.984375 
L 3.515625 34.765625 
Q 4.296875 37.109375 10.9375 68.359375 
L 41.796875 68.359375 
L 41.796875 61.328125 
L 16.796875 61.328125 
Q 14.84375 50.78125 12.890625 44.53125 
Q 18.75 47.265625 23.828125 47.0625 
Q 28.90625 46.875 33.59375 44.71875 
Q 38.28125 42.578125 40.421875 38.859375 
Q 42.578125 35.15625 43.546875 31.4375 
Q 44.53125 27.734375 44.328125 23.4375 
Q 44.140625 19.140625 42.578125 14.640625 
Q 41.015625 10.15625 37.890625 7.21875 
Q 34.765625 4.296875 30.265625 2.53125 
Q 25.78125 0.78125 19.921875 1.171875 
Q 14.0625 1.5625 8.78125 5.46875 
Q 3.515625 9.375 1.5625 18.75 
z
" id="SimHei-35"/>
      </defs>
      <g transform="translate(335.407913 321.459)scale(0.1 -0.1)">
       <use xlink:href="#SimHei-35"/>
       <use x="50" xlink:href="#SimHei-30"/>
      </g>
     </g>
    </g>
    <g id="xtick_6">
     <g id="line2d_6">
      <g>
       <use style="stroke:#000000;stroke-width:0.8;" x="397.126038" xlink:href="#m0e084c07a0" y="307.584"/>
      </g>
     </g>
     <g id="text_6">
      <!-- 60 -->
      <defs>
       <path d="M 3.515625 19.53125 
Q 4.296875 30.859375 6.046875 34.765625 
Q 7.8125 38.671875 11.328125 44.53125 
L 27.34375 69.53125 
L 36.328125 69.53125 
L 19.921875 43.75 
Q 30.46875 46.484375 36.71875 42.96875 
Q 42.96875 39.453125 45.109375 34.953125 
Q 47.265625 30.46875 47.453125 25.1875 
Q 47.65625 19.921875 45.890625 14.84375 
Q 44.140625 9.765625 39.640625 5.65625 
Q 35.15625 1.5625 27.140625 1.171875 
Q 19.140625 0.78125 13.46875 4.09375 
Q 7.8125 7.421875 5.65625 13.46875 
Q 3.515625 19.53125 4.296875 30.859375 
z
M 12.5 16.015625 
Q 19.53125 8.59375 25.390625 8.203125 
Q 31.25 7.8125 35.15625 12.109375 
Q 39.0625 16.40625 39.0625 24.609375 
Q 39.0625 32.8125 34.171875 35.9375 
Q 29.296875 39.0625 23.234375 38.28125 
Q 17.1875 37.5 14.453125 32.421875 
Q 11.71875 27.34375 12.109375 21.671875 
Q 12.5 16.015625 19.53125 8.59375 
z
" id="SimHei-36"/>
      </defs>
      <g transform="translate(392.126038 321.459)scale(0.1 -0.1)">
       <use xlink:href="#SimHei-36"/>
       <use x="50" xlink:href="#SimHei-30"/>
      </g>
     </g>
    </g>
    <g id="text_7">
     <!-- 回合/k -->
     <defs>
      <path d="M 88.28125 75.78125 
Q 87.890625 64.453125 87.890625 53.90625 
L 87.890625 14.84375 
Q 87.890625 4.6875 88.28125 -5.859375 
L 80.46875 -5.859375 
L 80.46875 1.5625 
L 18.359375 1.5625 
L 18.359375 -5.859375 
L 10.9375 -5.859375 
Q 11.328125 3.90625 11.328125 14.84375 
L 11.328125 53.90625 
Q 11.328125 64.0625 10.9375 75.78125 
L 88.28125 75.78125 
z
M 80.46875 7.8125 
L 80.46875 69.140625 
L 18.75 69.140625 
L 18.75 7.8125 
z
M 67.578125 54.6875 
Q 67.1875 48.828125 67.1875 42.96875 
L 67.1875 33.984375 
Q 67.1875 28.90625 67.578125 21.875 
L 31.640625 21.875 
Q 32.03125 28.90625 32.03125 33.984375 
L 32.03125 43.75 
Q 32.03125 49.21875 31.640625 54.6875 
L 67.578125 54.6875 
z
M 59.765625 28.515625 
L 59.765625 48.4375 
L 39.0625 48.4375 
L 39.0625 28.515625 
z
" id="SimHei-56de"/>
      <path d="M 78.90625 28.125 
Q 78.515625 24.21875 78.515625 10.15625 
Q 78.515625 -3.90625 78.90625 -8.203125 
L 70.703125 -8.203125 
L 70.703125 -0.78125 
L 27.34375 -0.78125 
L 27.34375 -9.375 
L 19.53125 -9.375 
Q 19.921875 -4.6875 19.921875 8.59375 
Q 19.921875 22.265625 19.53125 28.125 
L 78.90625 28.125 
z
M 52.734375 75 
Q 64.0625 61.328125 71.09375 56.25 
Q 78.125 51.171875 83.984375 48.4375 
Q 89.84375 45.703125 95.3125 44.140625 
Q 91.40625 39.84375 90.234375 35.9375 
Q 82.421875 39.453125 76.171875 43.359375 
Q 69.921875 47.265625 63.46875 53.3125 
Q 57.03125 59.375 48.828125 69.921875 
Q 41.40625 59.375 34.171875 52.53125 
Q 26.953125 45.703125 21.875 41.796875 
Q 16.796875 37.890625 10.546875 33.984375 
Q 9.765625 35.546875 4.296875 40.234375 
Q 12.5 44.140625 19.921875 49.609375 
Q 27.34375 55.078125 34.765625 63.46875 
Q 42.1875 71.875 46.875 81.640625 
Q 51.171875 78.90625 54.6875 77.34375 
z
M 70.703125 5.46875 
L 70.703125 21.875 
L 27.34375 21.875 
L 27.34375 5.46875 
z
M 61.328125 44.140625 
Q 67.578125 44.140625 72.265625 44.53125 
L 72.265625 37.109375 
Q 67.1875 37.5 61.71875 37.5 
L 39.84375 37.5 
Q 31.640625 37.5 26.5625 37.109375 
L 26.5625 44.53125 
Q 33.984375 44.140625 39.84375 44.140625 
z
" id="SimHei-5408"/>
      <path d="M 46.875 71.09375 
L 5.46875 -2.734375 
L 1.5625 -0.390625 
L 42.96875 73.4375 
z
" id="SimHei-2f"/>
      <path d="M 45.703125 1.953125 
L 36.71875 1.953125 
L 22.65625 25.78125 
L 13.671875 17.1875 
L 13.671875 1.953125 
L 5.859375 1.953125 
L 5.859375 68.75 
L 13.671875 68.75 
L 13.671875 26.171875 
L 33.203125 45.703125 
L 42.96875 45.703125 
L 27.734375 30.859375 
z
" id="SimHei-6b"/>
     </defs>
     <g transform="translate(213.66 338.486344)scale(0.15 -0.15)">
      <use xlink:href="#SimHei-56de"/>
      <use x="100" xlink:href="#SimHei-5408"/>
      <use x="200" xlink:href="#SimHei-2f"/>
      <use x="250" xlink:href="#SimHei-6b"/>
     </g>
    </g>
   </g>
   <g id="matplotlib.axis_2">
    <g id="ytick_1">
     <g id="line2d_7">
      <defs>
       <path d="M 0 0 
L -3.5 0 
" id="m5153fe7056" style="stroke:#000000;stroke-width:0.8;"/>
      </defs>
      <g>
       <use style="stroke:#000000;stroke-width:0.8;" x="57.6" xlink:href="#m5153fe7056" y="299.968"/>
      </g>
     </g>
     <g id="text_8">
      <!-- 0 -->
      <g transform="translate(45.6 303.4055)scale(0.1 -0.1)">
       <use xlink:href="#SimHei-30"/>
      </g>
     </g>
    </g>
    <g id="ytick_2">
     <g id="line2d_8">
      <g>
       <use style="stroke:#000000;stroke-width:0.8;" x="57.6" xlink:href="#m5153fe7056" y="255.168"/>
      </g>
     </g>
     <g id="text_9">
      <!-- 100 -->
      <g transform="translate(35.6 258.6055)scale(0.1 -0.1)">
       <use xlink:href="#SimHei-31"/>
       <use x="50" xlink:href="#SimHei-30"/>
       <use x="100" xlink:href="#SimHei-30"/>
      </g>
     </g>
    </g>
    <g id="ytick_3">
     <g id="line2d_9">
      <g>
       <use style="stroke:#000000;stroke-width:0.8;" x="57.6" xlink:href="#m5153fe7056" y="210.368"/>
      </g>
     </g>
     <g id="text_10">
      <!-- 200 -->
      <g transform="translate(35.6 213.8055)scale(0.1 -0.1)">
       <use xlink:href="#SimHei-32"/>
       <use x="50" xlink:href="#SimHei-30"/>
       <use x="100" xlink:href="#SimHei-30"/>
      </g>
     </g>
    </g>
    <g id="ytick_4">
     <g id="line2d_10">
      <g>
       <use style="stroke:#000000;stroke-width:0.8;" x="57.6" xlink:href="#m5153fe7056" y="165.568"/>
      </g>
     </g>
     <g id="text_11">
      <!-- 300 -->
      <g transform="translate(35.6 169.0055)scale(0.1 -0.1)">
       <use xlink:href="#SimHei-33"/>
       <use x="50" xlink:href="#SimHei-30"/>
       <use x="100" xlink:href="#SimHei-30"/>
      </g>
     </g>
    </g>
    <g id="ytick_5">
     <g id="line2d_11">
      <g>
       <use style="stroke:#000000;stroke-width:0.8;" x="57.6" xlink:href="#m5153fe7056" y="120.768"/>
      </g>
     </g>
     <g id="text_12">
      <!-- 400 -->
      <g transform="translate(35.6 124.2055)scale(0.1 -0.1)">
       <use xlink:href="#SimHei-34"/>
       <use x="50" xlink:href="#SimHei-30"/>
       <use x="100" xlink:href="#SimHei-30"/>
      </g>
     </g>
    </g>
    <g id="ytick_6">
     <g id="line2d_12">
      <g>
       <use style="stroke:#000000;stroke-width:0.8;" x="57.6" xlink:href="#m5153fe7056" y="75.968"/>
      </g>
     </g>
     <g id="text_13">
      <!-- 500 -->
      <g transform="translate(35.6 79.4055)scale(0.1 -0.1)">
       <use xlink:href="#SimHei-35"/>
       <use x="50" xlink:href="#SimHei-30"/>
       <use x="100" xlink:href="#SimHei-30"/>
      </g>
     </g>
    </g>
    <g id="text_14">
     <!-- 时间/ms -->
     <defs>
      <path d="M 39.453125 71.484375 
Q 39.0625 57.421875 39.0625 37.5 
Q 39.0625 17.578125 39.453125 6.25 
L 31.25 6.25 
L 31.25 13.671875 
L 15.625 13.671875 
L 15.625 0.78125 
L 7.421875 0.78125 
Q 7.8125 18.75 7.8125 36.71875 
Q 7.8125 55.078125 7.421875 71.484375 
L 39.453125 71.484375 
z
M 76.171875 59.765625 
Q 76.171875 71.484375 75.78125 81.640625 
L 84.375 81.640625 
Q 83.984375 71.484375 83.984375 59.765625 
Q 89.84375 59.765625 96.484375 60.15625 
L 96.484375 52.734375 
Q 89.84375 53.125 83.984375 53.125 
L 83.984375 0.78125 
Q 83.984375 -5.078125 79.296875 -6.640625 
Q 74.609375 -8.203125 67.1875 -8.984375 
Q 67.1875 -4.296875 62.890625 0 
Q 70.3125 -0.78125 73.234375 -0.390625 
Q 76.171875 0 76.171875 4.6875 
L 76.171875 53.125 
Q 56.640625 53.125 43.359375 52.734375 
L 43.359375 60.15625 
Q 55.859375 59.765625 76.171875 59.765625 
z
M 31.25 20.3125 
L 31.25 39.84375 
L 15.625 39.84375 
L 15.625 20.3125 
z
M 31.25 46.484375 
L 31.25 64.84375 
L 15.625 64.84375 
L 15.625 46.484375 
z
M 55.46875 42.578125 
Q 60.546875 34.375 65.234375 25 
Q 61.328125 23.828125 57.03125 21.484375 
Q 53.90625 30.859375 48.046875 39.0625 
Q 51.5625 40.625 55.46875 42.578125 
z
" id="SimHei-65f6"/>
      <path d="M 69.53125 55.46875 
Q 69.140625 48.046875 69.140625 42.578125 
L 69.140625 21.875 
Q 69.140625 16.796875 69.53125 9.765625 
L 30.078125 9.765625 
Q 30.46875 16.796875 30.46875 22.265625 
L 30.46875 42.578125 
Q 30.46875 48.046875 30.078125 55.46875 
L 69.53125 55.46875 
z
M 90.625 76.171875 
Q 90.234375 68.75 90.234375 61.328125 
L 90.234375 3.90625 
Q 90.625 -5.078125 85.34375 -7.03125 
Q 80.078125 -8.984375 73.828125 -9.765625 
Q 73.4375 -5.078125 70.703125 -0.390625 
Q 78.125 -0.78125 80.265625 0.390625 
Q 82.421875 1.5625 82.421875 5.46875 
L 82.421875 69.53125 
L 58.984375 69.53125 
Q 49.609375 69.53125 41.40625 69.140625 
L 41.40625 76.5625 
Q 49.609375 76.171875 58.984375 76.171875 
z
M 8.59375 -8.203125 
Q 9.375 -0.390625 9.375 8.203125 
L 9.375 49.21875 
Q 9.375 57.421875 8.59375 62.890625 
L 17.578125 62.890625 
Q 17.1875 57.03125 17.1875 51.5625 
L 17.1875 7.8125 
Q 17.1875 0 17.578125 -8.203125 
z
M 61.71875 16.015625 
L 61.71875 30.46875 
L 37.890625 30.46875 
L 37.890625 16.015625 
z
M 61.71875 36.71875 
L 61.71875 49.21875 
L 37.890625 49.21875 
L 37.890625 36.71875 
z
M 23.828125 82.8125 
Q 27.34375 78.125 34.765625 67.96875 
Q 30.46875 66.015625 26.5625 63.671875 
Q 22.65625 71.484375 16.796875 78.515625 
Q 21.09375 81.640625 23.828125 82.8125 
z
" id="SimHei-95f4"/>
      <path d="M 47.65625 1.953125 
L 39.84375 1.953125 
L 39.84375 33.59375 
Q 39.84375 35.9375 39.0625 37.5 
Q 38.28125 39.0625 35.9375 39.0625 
Q 33.203125 39.0625 30.859375 36.125 
Q 28.515625 33.203125 28.515625 28.515625 
L 28.515625 1.953125 
L 20.703125 1.953125 
L 20.703125 33.59375 
Q 20.703125 35.9375 19.921875 37.5 
Q 19.140625 39.0625 16.796875 39.0625 
Q 14.0625 39.0625 11.71875 36.125 
Q 9.375 33.203125 9.375 28.515625 
L 9.375 1.953125 
L 1.5625 1.953125 
L 1.5625 45.703125 
L 9.375 45.703125 
L 9.375 39.84375 
Q 11.328125 42.96875 14.0625 44.71875 
Q 16.796875 46.484375 19.921875 46.484375 
Q 23.046875 46.484375 25.1875 44.71875 
Q 27.34375 42.96875 28.125 39.84375 
Q 30.078125 42.96875 32.609375 44.71875 
Q 35.15625 46.484375 38.28125 46.484375 
Q 42.96875 46.484375 45.3125 43.9375 
Q 47.65625 41.40625 47.65625 36.71875 
z
" id="SimHei-6d"/>
      <path d="M 42.96875 14.0625 
Q 42.96875 7.8125 38.078125 4.484375 
Q 33.203125 1.171875 25.78125 1.171875 
Q 16.40625 1.171875 11.328125 4.875 
Q 6.25 8.59375 6.25 15.625 
L 14.0625 15.625 
Q 14.0625 10.9375 17.375 9.375 
Q 20.703125 7.8125 25.390625 7.8125 
Q 30.078125 7.8125 32.421875 9.5625 
Q 34.765625 11.328125 34.765625 14.0625 
Q 34.765625 16.015625 32.8125 17.96875 
Q 30.859375 19.921875 23.046875 21.09375 
Q 14.0625 22.265625 10.734375 25.578125 
Q 7.421875 28.90625 7.421875 34.375 
Q 7.421875 39.0625 11.90625 42.765625 
Q 16.40625 46.484375 25 46.484375 
Q 32.8125 46.484375 37.296875 42.96875 
Q 41.796875 39.453125 41.796875 33.59375 
L 33.984375 33.59375 
Q 33.984375 37.109375 31.4375 38.46875 
Q 28.90625 39.84375 25 39.84375 
Q 19.921875 39.84375 17.765625 38.078125 
Q 15.625 36.328125 15.625 33.984375 
Q 15.625 31.25 17.578125 29.6875 
Q 19.53125 28.125 25.78125 27.34375 
Q 35.9375 25.78125 39.453125 22.453125 
Q 42.96875 19.140625 42.96875 14.0625 
z
" id="SimHei-73"/>
     </defs>
     <g transform="translate(29.725 200.778)rotate(-90)scale(0.15 -0.15)">
      <use xlink:href="#SimHei-65f6"/>
      <use x="100" xlink:href="#SimHei-95f4"/>
      <use x="200" xlink:href="#SimHei-2f"/>
      <use x="250" xlink:href="#SimHei-6d"/>
      <use x="300" xlink:href="#SimHei-73"/>
     </g>
    </g>
   </g>
   <g id="line2d_13">
    <path clip-path="url(#p7772db7848)" d="M 73.832727 291.008 
L 90.848165 295.488 
L 107.863602 295.488 
L 124.879039 295.488 
L 141.894477 295.488 
L 158.909914 291.008 
L 175.925352 295.488 
L 192.940789 295.488 
L 209.956226 295.488 
L 226.971664 291.008 
L 243.987101 291.008 
L 261.002539 291.008 
L 278.017976 291.008 
L 295.033413 291.008 
L 312.048851 291.008 
L 329.064288 295.488 
L 346.079726 295.488 
L 363.095163 295.488 
L 380.1106 295.488 
L 397.126038 295.488 
" style="fill:none;stroke:#1f77b4;stroke-linecap:square;stroke-opacity:0.7;stroke-width:1.5;"/>
    <defs>
     <path d="M 0 1.5 
C 0.397805 1.5 0.77937 1.341951 1.06066 1.06066 
C 1.341951 0.77937 1.5 0.397805 1.5 0 
C 1.5 -0.397805 1.341951 -0.77937 1.06066 -1.06066 
C 0.77937 -1.341951 0.397805 -1.5 0 -1.5 
C -0.397805 -1.5 -0.77937 -1.341951 -1.06066 -1.06066 
C -1.341951 -0.77937 -1.5 -0.397805 -1.5 0 
C -1.5 0.397805 -1.341951 0.77937 -1.06066 1.06066 
C -0.77937 1.341951 -0.397805 1.5 0 1.5 
z
" id="md692f6d3b7" style="stroke:#1f77b4;stroke-opacity:0.7;"/>
    </defs>
    <g clip-path="url(#p7772db7848)">
     <use style="fill:#1f77b4;fill-opacity:0.7;stroke:#1f77b4;stroke-opacity:0.7;" x="73.832727" xlink:href="#md692f6d3b7" y="291.008"/>
     <use style="fill:#1f77b4;fill-opacity:0.7;stroke:#1f77b4;stroke-opacity:0.7;" x="90.848165" xlink:href="#md692f6d3b7" y="295.488"/>
     <use style="fill:#1f77b4;fill-opacity:0.7;stroke:#1f77b4;stroke-opacity:0.7;" x="107.863602" xlink:href="#md692f6d3b7" y="295.488"/>
     <use style="fill:#1f77b4;fill-opacity:0.7;stroke:#1f77b4;stroke-opacity:0.7;" x="124.879039" xlink:href="#md692f6d3b7" y="295.488"/>
     <use style="fill:#1f77b4;fill-opacity:0.7;stroke:#1f77b4;stroke-opacity:0.7;" x="141.894477" xlink:href="#md692f6d3b7" y="295.488"/>
     <use style="fill:#1f77b4;fill-opacity:0.7;stroke:#1f77b4;stroke-opacity:0.7;" x="158.909914" xlink:href="#md692f6d3b7" y="291.008"/>
     <use style="fill:#1f77b4;fill-opacity:0.7;stroke:#1f77b4;stroke-opacity:0.7;" x="175.925352" xlink:href="#md692f6d3b7" y="295.488"/>
     <use style="fill:#1f77b4;fill-opacity:0.7;stroke:#1f77b4;stroke-opacity:0.7;" x="192.940789" xlink:href="#md692f6d3b7" y="295.488"/>
     <use style="fill:#1f77b4;fill-opacity:0.7;stroke:#1f77b4;stroke-opacity:0.7;" x="209.956226" xlink:href="#md692f6d3b7" y="295.488"/>
     <use style="fill:#1f77b4;fill-opacity:0.7;stroke:#1f77b4;stroke-opacity:0.7;" x="226.971664" xlink:href="#md692f6d3b7" y="291.008"/>
     <use style="fill:#1f77b4;fill-opacity:0.7;stroke:#1f77b4;stroke-opacity:0.7;" x="243.987101" xlink:href="#md692f6d3b7" y="291.008"/>
     <use style="fill:#1f77b4;fill-opacity:0.7;stroke:#1f77b4;stroke-opacity:0.7;" x="261.002539" xlink:href="#md692f6d3b7" y="291.008"/>
     <use style="fill:#1f77b4;fill-opacity:0.7;stroke:#1f77b4;stroke-opacity:0.7;" x="278.017976" xlink:href="#md692f6d3b7" y="291.008"/>
     <use style="fill:#1f77b4;fill-opacity:0.7;stroke:#1f77b4;stroke-opacity:0.7;" x="295.033413" xlink:href="#md692f6d3b7" y="291.008"/>
     <use style="fill:#1f77b4;fill-opacity:0.7;stroke:#1f77b4;stroke-opacity:0.7;" x="312.048851" xlink:href="#md692f6d3b7" y="291.008"/>
     <use style="fill:#1f77b4;fill-opacity:0.7;stroke:#1f77b4;stroke-opacity:0.7;" x="329.064288" xlink:href="#md692f6d3b7" y="295.488"/>
     <use style="fill:#1f77b4;fill-opacity:0.7;stroke:#1f77b4;stroke-opacity:0.7;" x="346.079726" xlink:href="#md692f6d3b7" y="295.488"/>
     <use style="fill:#1f77b4;fill-opacity:0.7;stroke:#1f77b4;stroke-opacity:0.7;" x="363.095163" xlink:href="#md692f6d3b7" y="295.488"/>
     <use style="fill:#1f77b4;fill-opacity:0.7;stroke:#1f77b4;stroke-opacity:0.7;" x="380.1106" xlink:href="#md692f6d3b7" y="295.488"/>
     <use style="fill:#1f77b4;fill-opacity:0.7;stroke:#1f77b4;stroke-opacity:0.7;" x="397.126038" xlink:href="#md692f6d3b7" y="295.488"/>
    </g>
   </g>
   <g id="line2d_14">
    <path clip-path="url(#p7772db7848)" d="M 73.832727 277.568 
L 90.848165 286.528 
L 107.863602 295.488 
L 124.879039 286.528 
L 141.894477 295.488 
L 158.909914 295.488 
L 175.925352 295.488 
L 192.940789 295.488 
L 209.956226 295.488 
L 226.971664 295.488 
L 243.987101 295.488 
L 261.002539 295.488 
L 278.017976 295.488 
L 295.033413 295.488 
L 312.048851 295.488 
L 329.064288 295.488 
L 346.079726 295.488 
L 363.095163 295.488 
L 380.1106 295.488 
L 397.126038 295.488 
" style="fill:none;stroke:#ff7f0e;stroke-linecap:square;stroke-opacity:0.7;stroke-width:1.5;"/>
    <defs>
     <path d="M -0 1.5 
L 1.5 -1.5 
L -1.5 -1.5 
z
" id="m1448c0a2f8" style="stroke:#ff7f0e;stroke-linejoin:miter;stroke-opacity:0.7;"/>
    </defs>
    <g clip-path="url(#p7772db7848)">
     <use style="fill:#ff7f0e;fill-opacity:0.7;stroke:#ff7f0e;stroke-linejoin:miter;stroke-opacity:0.7;" x="73.832727" xlink:href="#m1448c0a2f8" y="277.568"/>
     <use style="fill:#ff7f0e;fill-opacity:0.7;stroke:#ff7f0e;stroke-linejoin:miter;stroke-opacity:0.7;" x="90.848165" xlink:href="#m1448c0a2f8" y="286.528"/>
     <use style="fill:#ff7f0e;fill-opacity:0.7;stroke:#ff7f0e;stroke-linejoin:miter;stroke-opacity:0.7;" x="107.863602" xlink:href="#m1448c0a2f8" y="295.488"/>
     <use style="fill:#ff7f0e;fill-opacity:0.7;stroke:#ff7f0e;stroke-linejoin:miter;stroke-opacity:0.7;" x="124.879039" xlink:href="#m1448c0a2f8" y="286.528"/>
     <use style="fill:#ff7f0e;fill-opacity:0.7;stroke:#ff7f0e;stroke-linejoin:miter;stroke-opacity:0.7;" x="141.894477" xlink:href="#m1448c0a2f8" y="295.488"/>
     <use style="fill:#ff7f0e;fill-opacity:0.7;stroke:#ff7f0e;stroke-linejoin:miter;stroke-opacity:0.7;" x="158.909914" xlink:href="#m1448c0a2f8" y="295.488"/>
     <use style="fill:#ff7f0e;fill-opacity:0.7;stroke:#ff7f0e;stroke-linejoin:miter;stroke-opacity:0.7;" x="175.925352" xlink:href="#m1448c0a2f8" y="295.488"/>
     <use style="fill:#ff7f0e;fill-opacity:0.7;stroke:#ff7f0e;stroke-linejoin:miter;stroke-opacity:0.7;" x="192.940789" xlink:href="#m1448c0a2f8" y="295.488"/>
     <use style="fill:#ff7f0e;fill-opacity:0.7;stroke:#ff7f0e;stroke-linejoin:miter;stroke-opacity:0.7;" x="209.956226" xlink:href="#m1448c0a2f8" y="295.488"/>
     <use style="fill:#ff7f0e;fill-opacity:0.7;stroke:#ff7f0e;stroke-linejoin:miter;stroke-opacity:0.7;" x="226.971664" xlink:href="#m1448c0a2f8" y="295.488"/>
     <use style="fill:#ff7f0e;fill-opacity:0.7;stroke:#ff7f0e;stroke-linejoin:miter;stroke-opacity:0.7;" x="243.987101" xlink:href="#m1448c0a2f8" y="295.488"/>
     <use style="fill:#ff7f0e;fill-opacity:0.7;stroke:#ff7f0e;stroke-linejoin:miter;stroke-opacity:0.7;" x="261.002539" xlink:href="#m1448c0a2f8" y="295.488"/>
     <use style="fill:#ff7f0e;fill-opacity:0.7;stroke:#ff7f0e;stroke-linejoin:miter;stroke-opacity:0.7;" x="278.017976" xlink:href="#m1448c0a2f8" y="295.488"/>
     <use style="fill:#ff7f0e;fill-opacity:0.7;stroke:#ff7f0e;stroke-linejoin:miter;stroke-opacity:0.7;" x="295.033413" xlink:href="#m1448c0a2f8" y="295.488"/>
     <use style="fill:#ff7f0e;fill-opacity:0.7;stroke:#ff7f0e;stroke-linejoin:miter;stroke-opacity:0.7;" x="312.048851" xlink:href="#m1448c0a2f8" y="295.488"/>
     <use style="fill:#ff7f0e;fill-opacity:0.7;stroke:#ff7f0e;stroke-linejoin:miter;stroke-opacity:0.7;" x="329.064288" xlink:href="#m1448c0a2f8" y="295.488"/>
     <use style="fill:#ff7f0e;fill-opacity:0.7;stroke:#ff7f0e;stroke-linejoin:miter;stroke-opacity:0.7;" x="346.079726" xlink:href="#m1448c0a2f8" y="295.488"/>
     <use style="fill:#ff7f0e;fill-opacity:0.7;stroke:#ff7f0e;stroke-linejoin:miter;stroke-opacity:0.7;" x="363.095163" xlink:href="#m1448c0a2f8" y="295.488"/>
     <use style="fill:#ff7f0e;fill-opacity:0.7;stroke:#ff7f0e;stroke-linejoin:miter;stroke-opacity:0.7;" x="380.1106" xlink:href="#m1448c0a2f8" y="295.488"/>
     <use style="fill:#ff7f0e;fill-opacity:0.7;stroke:#ff7f0e;stroke-linejoin:miter;stroke-opacity:0.7;" x="397.126038" xlink:href="#m1448c0a2f8" y="295.488"/>
    </g>
   </g>
   <g id="line2d_15">
    <path clip-path="url(#p7772db7848)" d="M 73.832727 250.688 
L 90.848165 250.688 
L 107.863602 255.168 
L 124.879039 53.568 
L 141.894477 241.728 
L 158.909914 228.288 
L 175.925352 250.688 
L 192.940789 255.168 
L 209.956226 259.648 
L 226.971664 223.808 
L 243.987101 250.688 
L 261.002539 259.648 
L 278.017976 255.168 
L 295.033413 255.168 
L 312.048851 246.208 
L 329.064288 259.648 
L 346.079726 255.168 
L 363.095163 250.688 
L 380.1106 255.168 
L 397.126038 250.688 
" style="fill:none;stroke:#2ca02c;stroke-linecap:square;stroke-opacity:0.7;stroke-width:1.5;"/>
    <defs>
     <path d="M -1.5 1.5 
L 1.5 -1.5 
M -1.5 -1.5 
L 1.5 1.5 
" id="m064c0e3ded" style="stroke:#2ca02c;stroke-opacity:0.7;"/>
    </defs>
    <g clip-path="url(#p7772db7848)">
     <use style="fill:#2ca02c;fill-opacity:0.7;stroke:#2ca02c;stroke-opacity:0.7;" x="73.832727" xlink:href="#m064c0e3ded" y="250.688"/>
     <use style="fill:#2ca02c;fill-opacity:0.7;stroke:#2ca02c;stroke-opacity:0.7;" x="90.848165" xlink:href="#m064c0e3ded" y="250.688"/>
     <use style="fill:#2ca02c;fill-opacity:0.7;stroke:#2ca02c;stroke-opacity:0.7;" x="107.863602" xlink:href="#m064c0e3ded" y="255.168"/>
     <use style="fill:#2ca02c;fill-opacity:0.7;stroke:#2ca02c;stroke-opacity:0.7;" x="124.879039" xlink:href="#m064c0e3ded" y="53.568"/>
     <use style="fill:#2ca02c;fill-opacity:0.7;stroke:#2ca02c;stroke-opacity:0.7;" x="141.894477" xlink:href="#m064c0e3ded" y="241.728"/>
     <use style="fill:#2ca02c;fill-opacity:0.7;stroke:#2ca02c;stroke-opacity:0.7;" x="158.909914" xlink:href="#m064c0e3ded" y="228.288"/>
     <use style="fill:#2ca02c;fill-opacity:0.7;stroke:#2ca02c;stroke-opacity:0.7;" x="175.925352" xlink:href="#m064c0e3ded" y="250.688"/>
     <use style="fill:#2ca02c;fill-opacity:0.7;stroke:#2ca02c;stroke-opacity:0.7;" x="192.940789" xlink:href="#m064c0e3ded" y="255.168"/>
     <use style="fill:#2ca02c;fill-opacity:0.7;stroke:#2ca02c;stroke-opacity:0.7;" x="209.956226" xlink:href="#m064c0e3ded" y="259.648"/>
     <use style="fill:#2ca02c;fill-opacity:0.7;stroke:#2ca02c;stroke-opacity:0.7;" x="226.971664" xlink:href="#m064c0e3ded" y="223.808"/>
     <use style="fill:#2ca02c;fill-opacity:0.7;stroke:#2ca02c;stroke-opacity:0.7;" x="243.987101" xlink:href="#m064c0e3ded" y="250.688"/>
     <use style="fill:#2ca02c;fill-opacity:0.7;stroke:#2ca02c;stroke-opacity:0.7;" x="261.002539" xlink:href="#m064c0e3ded" y="259.648"/>
     <use style="fill:#2ca02c;fill-opacity:0.7;stroke:#2ca02c;stroke-opacity:0.7;" x="278.017976" xlink:href="#m064c0e3ded" y="255.168"/>
     <use style="fill:#2ca02c;fill-opacity:0.7;stroke:#2ca02c;stroke-opacity:0.7;" x="295.033413" xlink:href="#m064c0e3ded" y="255.168"/>
     <use style="fill:#2ca02c;fill-opacity:0.7;stroke:#2ca02c;stroke-opacity:0.7;" x="312.048851" xlink:href="#m064c0e3ded" y="246.208"/>
     <use style="fill:#2ca02c;fill-opacity:0.7;stroke:#2ca02c;stroke-opacity:0.7;" x="329.064288" xlink:href="#m064c0e3ded" y="259.648"/>
     <use style="fill:#2ca02c;fill-opacity:0.7;stroke:#2ca02c;stroke-opacity:0.7;" x="346.079726" xlink:href="#m064c0e3ded" y="255.168"/>
     <use style="fill:#2ca02c;fill-opacity:0.7;stroke:#2ca02c;stroke-opacity:0.7;" x="363.095163" xlink:href="#m064c0e3ded" y="250.688"/>
     <use style="fill:#2ca02c;fill-opacity:0.7;stroke:#2ca02c;stroke-opacity:0.7;" x="380.1106" xlink:href="#m064c0e3ded" y="255.168"/>
     <use style="fill:#2ca02c;fill-opacity:0.7;stroke:#2ca02c;stroke-opacity:0.7;" x="397.126038" xlink:href="#m064c0e3ded" y="250.688"/>
    </g>
   </g>
   <g id="line2d_16">
    <path clip-path="url(#p7772db7848)" d="M 327.703053 295.488 
L 398.487273 295.488 
L 398.487273 295.488 
L 327.703053 295.488 
L 327.703053 295.488 
" style="fill:none;stroke:#000000;stroke-linecap:square;stroke-width:1.5;"/>
   </g>
   <g id="patch_3">
    <path d="M 57.6 307.584 
L 57.6 41.472 
" style="fill:none;stroke:#000000;stroke-linecap:square;stroke-linejoin:miter;stroke-width:0.8;"/>
   </g>
   <g id="patch_4">
    <path d="M 414.72 307.584 
L 414.72 41.472 
" style="fill:none;stroke:#000000;stroke-linecap:square;stroke-linejoin:miter;stroke-width:0.8;"/>
   </g>
   <g id="patch_5">
    <path d="M 57.6 307.584 
L 414.72 307.584 
" style="fill:none;stroke:#000000;stroke-linecap:square;stroke-linejoin:miter;stroke-width:0.8;"/>
   </g>
   <g id="patch_6">
    <path d="M 57.6 41.472 
L 414.72 41.472 
" style="fill:none;stroke:#000000;stroke-linecap:square;stroke-linejoin:miter;stroke-width:0.8;"/>
   </g>
   <g id="legend_1">
    <g id="patch_7">
     <path d="M 305.52 103.648562 
L 405.62 103.648562 
Q 408.22 103.648562 408.22 101.048563 
L 408.22 50.572 
Q 408.22 47.972 405.62 47.972 
L 305.52 47.972 
Q 302.92 47.972 302.92 50.572 
L 302.92 101.048563 
Q 302.92 103.648562 305.52 103.648562 
z
" style="fill:#ffffff;opacity:0.8;stroke:#cccccc;stroke-linejoin:miter;"/>
    </g>
    <g id="line2d_17">
     <path d="M 308.12 57.722 
L 334.12 57.722 
" style="fill:none;stroke:#1f77b4;stroke-linecap:square;stroke-opacity:0.7;stroke-width:1.5;"/>
    </g>
    <g id="line2d_18">
     <g>
      <use style="fill:#1f77b4;fill-opacity:0.7;stroke:#1f77b4;stroke-opacity:0.7;" x="321.12" xlink:href="#md692f6d3b7" y="57.722"/>
     </g>
    </g>
    <g id="text_15">
     <!-- Heuristic -->
     <defs>
      <path d="M 44.53125 1.953125 
L 35.546875 1.953125 
L 35.546875 33.203125 
L 13.28125 33.203125 
L 13.28125 1.953125 
L 4.296875 1.953125 
L 4.296875 68.75 
L 13.28125 68.75 
L 13.28125 40.625 
L 35.546875 40.625 
L 35.546875 68.75 
L 44.53125 68.75 
z
" id="SimHei-48"/>
      <path d="M 44.53125 16.796875 
Q 43.75 9.765625 38.28125 5.46875 
Q 32.8125 1.171875 25.390625 1.171875 
Q 16.015625 1.171875 9.953125 7.21875 
Q 3.90625 13.28125 3.90625 23.828125 
Q 3.90625 34.375 9.953125 40.421875 
Q 16.015625 46.484375 25.390625 46.484375 
Q 33.59375 46.484375 38.859375 41.203125 
Q 44.140625 35.9375 44.140625 23.828125 
L 12.5 23.828125 
Q 12.5 15.234375 16.203125 11.71875 
Q 19.921875 8.203125 25.390625 8.203125 
Q 29.6875 8.203125 32.421875 10.34375 
Q 35.15625 12.5 35.9375 16.796875 
z
M 35.15625 30.078125 
Q 34.375 35.546875 31.640625 37.6875 
Q 28.90625 39.84375 24.609375 39.84375 
Q 20.703125 39.84375 17.578125 37.6875 
Q 14.453125 35.546875 12.890625 30.078125 
z
" id="SimHei-65"/>
      <path d="M 43.75 1.953125 
L 35.9375 1.953125 
L 35.9375 10.15625 
Q 32.8125 5.859375 29.09375 3.515625 
Q 25.390625 1.171875 19.53125 1.171875 
Q 12.5 1.171875 8.984375 5.078125 
Q 5.46875 8.984375 5.46875 14.84375 
L 5.46875 45.703125 
L 13.28125 45.703125 
L 13.28125 17.578125 
Q 13.28125 12.890625 15.625 10.15625 
Q 17.96875 7.421875 21.875 7.421875 
Q 26.953125 7.421875 31.4375 12.6875 
Q 35.9375 17.96875 35.9375 25.78125 
L 35.9375 45.703125 
L 43.75 45.703125 
z
" id="SimHei-75"/>
      <path d="M 39.0625 37.890625 
Q 31.640625 39.0625 26.5625 35.734375 
Q 21.484375 32.421875 17.96875 24.21875 
L 17.96875 1.953125 
L 10.15625 1.953125 
L 10.15625 45.703125 
L 17.96875 45.703125 
L 17.96875 34.375 
Q 21.484375 40.625 26.75 43.546875 
Q 32.03125 46.484375 39.0625 46.484375 
z
" id="SimHei-72"/>
      <path d="M 28.125 58.203125 
L 20.3125 58.203125 
L 20.3125 68.359375 
L 28.125 68.359375 
z
M 28.125 1.953125 
L 20.3125 1.953125 
L 20.3125 45.703125 
L 28.125 45.703125 
z
" id="SimHei-69"/>
      <path d="M 42.96875 3.125 
Q 41.015625 2.34375 38.46875 1.75 
Q 35.9375 1.171875 31.640625 1.171875 
Q 24.609375 1.171875 20.3125 5.078125 
Q 16.015625 8.984375 16.015625 16.015625 
L 16.015625 39.453125 
L 2.734375 39.453125 
L 2.734375 45.703125 
L 16.015625 45.703125 
L 16.015625 60.9375 
L 23.828125 60.9375 
L 23.828125 45.703125 
L 39.84375 45.703125 
L 39.84375 39.453125 
L 23.828125 39.453125 
L 23.828125 15.625 
Q 23.828125 12.5 25.390625 10.34375 
Q 26.953125 8.203125 31.25 8.203125 
Q 35.546875 8.203125 38.28125 8.984375 
Q 41.015625 9.765625 42.96875 10.9375 
z
" id="SimHei-74"/>
      <path d="M 44.53125 19.53125 
Q 44.53125 11.328125 38.859375 6.25 
Q 33.203125 1.171875 24.609375 1.171875 
Q 16.015625 1.171875 9.765625 7.21875 
Q 3.515625 13.28125 3.515625 23.828125 
Q 3.515625 34.375 9.765625 40.421875 
Q 16.015625 46.484375 24.609375 46.484375 
Q 33.203125 46.484375 38.28125 41.984375 
Q 43.359375 37.5 43.359375 31.25 
L 34.765625 31.25 
Q 34.375 35.9375 31.4375 37.6875 
Q 28.515625 39.453125 24.609375 39.453125 
Q 19.921875 39.453125 16.015625 35.734375 
Q 12.109375 32.03125 12.109375 23.828125 
Q 12.109375 15.625 16.015625 11.90625 
Q 19.921875 8.203125 24.609375 8.203125 
Q 29.6875 8.203125 32.8125 10.9375 
Q 35.9375 13.671875 35.9375 19.53125 
z
" id="SimHei-63"/>
     </defs>
     <g transform="translate(344.52 62.272)scale(0.13 -0.13)">
      <use xlink:href="#SimHei-48"/>
      <use x="50" xlink:href="#SimHei-65"/>
      <use x="100" xlink:href="#SimHei-75"/>
      <use x="150" xlink:href="#SimHei-72"/>
      <use x="200" xlink:href="#SimHei-69"/>
      <use x="250" xlink:href="#SimHei-73"/>
      <use x="300" xlink:href="#SimHei-74"/>
      <use x="350" xlink:href="#SimHei-69"/>
      <use x="400" xlink:href="#SimHei-63"/>
     </g>
    </g>
    <g id="line2d_19">
     <path d="M 308.12 74.947 
L 334.12 74.947 
" style="fill:none;stroke:#ff7f0e;stroke-linecap:square;stroke-opacity:0.7;stroke-width:1.5;"/>
    </g>
    <g id="line2d_20">
     <g>
      <use style="fill:#ff7f0e;fill-opacity:0.7;stroke:#ff7f0e;stroke-linejoin:miter;stroke-opacity:0.7;" x="321.12" xlink:href="#m1448c0a2f8" y="74.947"/>
     </g>
    </g>
    <g id="text_16">
     <!-- DQN_1 -->
     <defs>
      <path d="M 45.703125 35.15625 
Q 45.703125 17.1875 38.078125 9.5625 
Q 30.46875 1.953125 17.578125 1.953125 
L 4.296875 1.953125 
L 4.296875 68.75 
L 17.578125 68.75 
Q 32.03125 68.75 38.859375 60.9375 
Q 45.703125 53.125 45.703125 35.15625 
z
M 36.328125 35.15625 
Q 36.328125 49.609375 31.640625 55.46875 
Q 26.953125 61.328125 17.578125 61.328125 
L 13.28125 61.328125 
L 13.28125 9.375 
L 17.578125 9.375 
Q 26.953125 9.375 31.640625 15.03125 
Q 36.328125 20.703125 36.328125 35.15625 
z
" id="SimHei-44"/>
      <path d="M 46.09375 35.546875 
Q 46.09375 26.171875 44.71875 19.71875 
Q 43.359375 13.28125 40.234375 9.375 
L 43.359375 3.515625 
L 37.109375 -3.125 
L 33.59375 3.515625 
Q 32.03125 2.34375 29.6875 1.75 
Q 27.34375 1.171875 24.609375 1.171875 
Q 14.453125 1.171875 8.59375 9.171875 
Q 2.734375 17.1875 2.734375 35.546875 
Q 2.734375 53.90625 8.59375 61.71875 
Q 14.453125 69.53125 24.609375 69.53125 
Q 34.765625 69.53125 40.421875 61.71875 
Q 46.09375 53.90625 46.09375 35.546875 
z
M 36.71875 35.546875 
Q 36.71875 51.953125 33.203125 57.03125 
Q 29.6875 62.109375 24.609375 62.109375 
Q 19.53125 62.109375 15.8125 57.03125 
Q 12.109375 51.953125 12.109375 35.546875 
Q 12.109375 19.140625 15.8125 13.859375 
Q 19.53125 8.59375 24.609375 8.59375 
Q 26.5625 8.59375 28.125 9.171875 
Q 29.6875 9.765625 30.46875 10.546875 
L 24.21875 22.65625 
L 29.6875 29.296875 
L 35.15625 18.75 
Q 35.9375 22.65625 36.328125 25.78125 
Q 36.71875 28.90625 36.71875 35.546875 
z
" id="SimHei-51"/>
      <path d="M 44.53125 1.953125 
L 34.765625 1.953125 
L 13.28125 50.390625 
L 12.890625 50.390625 
L 12.890625 1.953125 
L 3.90625 1.953125 
L 3.90625 68.75 
L 13.671875 68.75 
L 35.15625 20.3125 
L 35.546875 20.3125 
L 35.546875 68.75 
L 44.53125 68.75 
z
" id="SimHei-4e"/>
      <path d="M 49.21875 -13.28125 
L 0 -13.28125 
L 0 -8.59375 
L 49.21875 -8.59375 
z
" id="SimHei-5f"/>
     </defs>
     <g transform="translate(344.52 79.497)scale(0.13 -0.13)">
      <use xlink:href="#SimHei-44"/>
      <use x="50" xlink:href="#SimHei-51"/>
      <use x="100" xlink:href="#SimHei-4e"/>
      <use x="150" xlink:href="#SimHei-5f"/>
      <use x="200" xlink:href="#SimHei-31"/>
     </g>
    </g>
    <g id="line2d_21">
     <path d="M 308.12 92.273562 
L 334.12 92.273562 
" style="fill:none;stroke:#2ca02c;stroke-linecap:square;stroke-opacity:0.7;stroke-width:1.5;"/>
    </g>
    <g id="line2d_22">
     <g>
      <use style="fill:#2ca02c;fill-opacity:0.7;stroke:#2ca02c;stroke-opacity:0.7;" x="321.12" xlink:href="#m064c0e3ded" y="92.273562"/>
     </g>
    </g>
    <g id="text_17">
     <!-- ILP -->
     <defs>
      <path d="M 28.90625 1.953125 
L 19.921875 1.953125 
L 19.921875 68.75 
L 28.90625 68.75 
z
" id="SimHei-49"/>
      <path d="M 45.3125 1.953125 
L 4.6875 1.953125 
L 4.6875 68.75 
L 13.671875 68.75 
L 13.671875 9.375 
L 45.3125 9.375 
z
" id="SimHei-4c"/>
      <path d="M 46.09375 48.4375 
Q 46.09375 39.0625 40.625 33.59375 
Q 35.15625 28.125 25.390625 28.125 
L 14.0625 28.125 
L 14.0625 1.953125 
L 5.078125 1.953125 
L 5.078125 68.75 
L 25.390625 68.75 
Q 35.15625 68.75 40.625 63.28125 
Q 46.09375 57.8125 46.09375 48.4375 
z
M 37.109375 48.4375 
Q 37.109375 55.859375 33.59375 58.59375 
Q 30.078125 61.328125 23.046875 61.328125 
L 14.0625 61.328125 
L 14.0625 35.546875 
L 23.046875 35.546875 
Q 30.078125 35.546875 33.59375 38.28125 
Q 37.109375 41.015625 37.109375 48.4375 
z
" id="SimHei-50"/>
     </defs>
     <g transform="translate(344.52 96.823562)scale(0.13 -0.13)">
      <use xlink:href="#SimHei-49"/>
      <use x="50" xlink:href="#SimHei-4c"/>
      <use x="100" xlink:href="#SimHei-50"/>
     </g>
    </g>
   </g>
  </g>
  <g id="axes_2">
   <g id="patch_8">
    <path d="M 169.736 262.6672 
L 284.0144 262.6672 
L 284.0144 206.78368 
L 169.736 206.78368 
z
" style="fill:#ffffff;"/>
   </g>
   <g id="patch_9">
    <path d="M 169.736 234.72544 
Q 248.719527 265.10672 327.703053 295.488 
" style="fill:none;stroke:#000000;stroke-linecap:round;"/>
   </g>
   <g id="patch_10">
    <path d="M 284.0144 234.72544 
Q 341.250836 265.10672 398.487273 295.488 
" style="fill:none;stroke:#000000;stroke-linecap:round;"/>
   </g>
   <g id="matplotlib.axis_3">
    <g id="xtick_7">
     <g id="line2d_23">
      <g>
       <use style="stroke:#000000;stroke-width:0.8;" x="190.247508" xlink:href="#m0e084c07a0" y="262.6672"/>
      </g>
     </g>
     <g id="text_18">
      <!-- 50 -->
      <g transform="translate(185.247508 276.5422)scale(0.1 -0.1)">
       <use xlink:href="#SimHei-35"/>
       <use x="50" xlink:href="#SimHei-30"/>
      </g>
     </g>
    </g>
    <g id="xtick_8">
     <g id="line2d_24">
      <g>
       <use style="stroke:#000000;stroke-width:0.8;" x="236.032123" xlink:href="#m0e084c07a0" y="262.6672"/>
      </g>
     </g>
     <g id="text_19">
      <!-- 55 -->
      <g transform="translate(231.032123 276.5422)scale(0.1 -0.1)">
       <use xlink:href="#SimHei-35"/>
       <use x="50" xlink:href="#SimHei-35"/>
      </g>
     </g>
    </g>
    <g id="xtick_9">
     <g id="line2d_25">
      <g>
       <use style="stroke:#000000;stroke-width:0.8;" x="281.816738" xlink:href="#m0e084c07a0" y="262.6672"/>
      </g>
     </g>
     <g id="text_20">
      <!-- 60 -->
      <g transform="translate(276.816738 276.5422)scale(0.1 -0.1)">
       <use xlink:href="#SimHei-36"/>
       <use x="50" xlink:href="#SimHei-30"/>
      </g>
     </g>
    </g>
   </g>
   <g id="matplotlib.axis_4">
    <g id="ytick_7">
     <g id="line2d_26">
      <g>
       <use style="stroke:#000000;stroke-width:0.8;" x="169.736" xlink:href="#m5153fe7056" y="262.6672"/>
      </g>
     </g>
     <g id="text_21">
      <!-- −0.01 -->
      <defs>
       <path d="M 87.5 -5.078125 
L 10.9375 -5.078125 
L 10.9375 75.390625 
L 87.5 75.390625 
z
M 84.375 72.65625 
L 13.671875 72.65625 
L 13.671875 -2.34375 
L 84.375 -2.34375 
z
" id="SimHei-2212"/>
       <path d="M 16.796875 1.953125 
L 7.8125 1.953125 
L 7.8125 10.546875 
L 16.796875 10.546875 
z
" id="SimHei-2e"/>
      </defs>
      <g transform="translate(132.736 266.1047)scale(0.1 -0.1)">
       <use xlink:href="#SimHei-2212"/>
       <use x="100" xlink:href="#SimHei-30"/>
       <use x="150" xlink:href="#SimHei-2e"/>
       <use x="200" xlink:href="#SimHei-30"/>
       <use x="250" xlink:href="#SimHei-31"/>
      </g>
     </g>
    </g>
    <g id="ytick_8">
     <g id="line2d_27">
      <g>
       <use style="stroke:#000000;stroke-width:0.8;" x="169.736" xlink:href="#m5153fe7056" y="234.72544"/>
      </g>
     </g>
     <g id="text_22">
      <!-- 0.00 -->
      <g transform="translate(142.736 238.16294)scale(0.1 -0.1)">
       <use xlink:href="#SimHei-30"/>
       <use x="50" xlink:href="#SimHei-2e"/>
       <use x="100" xlink:href="#SimHei-30"/>
       <use x="150" xlink:href="#SimHei-30"/>
      </g>
     </g>
    </g>
    <g id="ytick_9">
     <g id="line2d_28">
      <g>
       <use style="stroke:#000000;stroke-width:0.8;" x="169.736" xlink:href="#m5153fe7056" y="206.78368"/>
      </g>
     </g>
     <g id="text_23">
      <!-- 0.01 -->
      <g transform="translate(142.736 210.22118)scale(0.1 -0.1)">
       <use xlink:href="#SimHei-30"/>
       <use x="50" xlink:href="#SimHei-2e"/>
       <use x="100" xlink:href="#SimHei-30"/>
       <use x="150" xlink:href="#SimHei-31"/>
      </g>
     </g>
    </g>
    <g id="text_24">
     <!-- +1e1 -->
     <defs>
      <path d="M 46.875 33.203125 
L 27.734375 33.203125 
L 27.734375 14.0625 
L 21.09375 14.0625 
L 21.09375 33.203125 
L 1.953125 33.203125 
L 1.953125 39.453125 
L 21.09375 39.453125 
L 21.09375 58.59375 
L 27.734375 58.59375 
L 27.734375 39.453125 
L 46.875 39.453125 
z
" id="SimHei-2b"/>
     </defs>
     <g transform="translate(169.736 203.78368)scale(0.1 -0.1)">
      <use xlink:href="#SimHei-2b"/>
      <use x="50" xlink:href="#SimHei-31"/>
      <use x="100" xlink:href="#SimHei-65"/>
      <use x="150" xlink:href="#SimHei-31"/>
     </g>
    </g>
   </g>
   <g id="line2d_29">
    <path clip-path="url(#p9c2fbba807)" d="M 171.70191 -1 
L 171.933662 234.72544 
L 199.404431 234.72544 
L 226.8752 234.72544 
L 254.345969 234.72544 
L 281.816738 234.72544 
" style="fill:none;stroke:#1f77b4;stroke-linecap:square;stroke-opacity:0.7;stroke-width:1.5;"/>
    <defs>
     <path d="M 0 2 
C 0.530406 2 1.03916 1.789267 1.414214 1.414214 
C 1.789267 1.03916 2 0.530406 2 0 
C 2 -0.530406 1.789267 -1.03916 1.414214 -1.414214 
C 1.03916 -1.789267 0.530406 -2 0 -2 
C -0.530406 -2 -1.03916 -1.789267 -1.414214 -1.414214 
C -1.789267 -1.03916 -2 -0.530406 -2 0 
C -2 0.530406 -1.789267 1.03916 -1.414214 1.414214 
C -1.03916 1.789267 -0.530406 2 0 2 
z
" id="m4feeb6d7b8" style="stroke:#1f77b4;stroke-opacity:0.7;"/>
    </defs>
    <g clip-path="url(#p9c2fbba807)">
     <use style="fill:#1f77b4;fill-opacity:0.7;stroke:#1f77b4;stroke-opacity:0.7;" x="171.70191" xlink:href="#m4feeb6d7b8" y="-1"/>
     <use style="fill:#1f77b4;fill-opacity:0.7;stroke:#1f77b4;stroke-opacity:0.7;" x="171.933662" xlink:href="#m4feeb6d7b8" y="234.72544"/>
     <use style="fill:#1f77b4;fill-opacity:0.7;stroke:#1f77b4;stroke-opacity:0.7;" x="199.404431" xlink:href="#m4feeb6d7b8" y="234.72544"/>
     <use style="fill:#1f77b4;fill-opacity:0.7;stroke:#1f77b4;stroke-opacity:0.7;" x="226.8752" xlink:href="#m4feeb6d7b8" y="234.72544"/>
     <use style="fill:#1f77b4;fill-opacity:0.7;stroke:#1f77b4;stroke-opacity:0.7;" x="254.345969" xlink:href="#m4feeb6d7b8" y="234.72544"/>
     <use style="fill:#1f77b4;fill-opacity:0.7;stroke:#1f77b4;stroke-opacity:0.7;" x="281.816738" xlink:href="#m4feeb6d7b8" y="234.72544"/>
    </g>
   </g>
   <g id="line2d_30">
    <path clip-path="url(#p9c2fbba807)" d="M -1 234.72544 
L 7.109046 234.72544 
L 34.579815 234.72544 
L 62.050585 234.72544 
L 89.521354 234.72544 
L 116.992123 234.72544 
L 144.462892 234.72544 
L 171.933662 234.72544 
L 199.404431 234.72544 
L 226.8752 234.72544 
L 254.345969 234.72544 
L 281.816738 234.72544 
" style="fill:none;stroke:#ff7f0e;stroke-linecap:square;stroke-opacity:0.7;stroke-width:1.5;"/>
    <defs>
     <path d="M -0 2 
L 2 -2 
L -2 -2 
z
" id="m04f6e04cff" style="stroke:#ff7f0e;stroke-linejoin:miter;stroke-opacity:0.7;"/>
    </defs>
    <g clip-path="url(#p9c2fbba807)">
     <use style="fill:#ff7f0e;fill-opacity:0.7;stroke:#ff7f0e;stroke-linejoin:miter;stroke-opacity:0.7;" x="-1" xlink:href="#m04f6e04cff" y="234.72544"/>
     <use style="fill:#ff7f0e;fill-opacity:0.7;stroke:#ff7f0e;stroke-linejoin:miter;stroke-opacity:0.7;" x="7.109046" xlink:href="#m04f6e04cff" y="234.72544"/>
     <use style="fill:#ff7f0e;fill-opacity:0.7;stroke:#ff7f0e;stroke-linejoin:miter;stroke-opacity:0.7;" x="34.579815" xlink:href="#m04f6e04cff" y="234.72544"/>
     <use style="fill:#ff7f0e;fill-opacity:0.7;stroke:#ff7f0e;stroke-linejoin:miter;stroke-opacity:0.7;" x="62.050585" xlink:href="#m04f6e04cff" y="234.72544"/>
     <use style="fill:#ff7f0e;fill-opacity:0.7;stroke:#ff7f0e;stroke-linejoin:miter;stroke-opacity:0.7;" x="89.521354" xlink:href="#m04f6e04cff" y="234.72544"/>
     <use style="fill:#ff7f0e;fill-opacity:0.7;stroke:#ff7f0e;stroke-linejoin:miter;stroke-opacity:0.7;" x="116.992123" xlink:href="#m04f6e04cff" y="234.72544"/>
     <use style="fill:#ff7f0e;fill-opacity:0.7;stroke:#ff7f0e;stroke-linejoin:miter;stroke-opacity:0.7;" x="144.462892" xlink:href="#m04f6e04cff" y="234.72544"/>
     <use style="fill:#ff7f0e;fill-opacity:0.7;stroke:#ff7f0e;stroke-linejoin:miter;stroke-opacity:0.7;" x="171.933662" xlink:href="#m04f6e04cff" y="234.72544"/>
     <use style="fill:#ff7f0e;fill-opacity:0.7;stroke:#ff7f0e;stroke-linejoin:miter;stroke-opacity:0.7;" x="199.404431" xlink:href="#m04f6e04cff" y="234.72544"/>
     <use style="fill:#ff7f0e;fill-opacity:0.7;stroke:#ff7f0e;stroke-linejoin:miter;stroke-opacity:0.7;" x="226.8752" xlink:href="#m04f6e04cff" y="234.72544"/>
     <use style="fill:#ff7f0e;fill-opacity:0.7;stroke:#ff7f0e;stroke-linejoin:miter;stroke-opacity:0.7;" x="254.345969" xlink:href="#m04f6e04cff" y="234.72544"/>
     <use style="fill:#ff7f0e;fill-opacity:0.7;stroke:#ff7f0e;stroke-linejoin:miter;stroke-opacity:0.7;" x="281.816738" xlink:href="#m04f6e04cff" y="234.72544"/>
    </g>
   </g>
   <g id="patch_11">
    <path d="M 169.736 262.6672 
L 169.736 206.78368 
" style="fill:none;stroke:#000000;stroke-linecap:square;stroke-linejoin:miter;stroke-width:0.8;"/>
   </g>
   <g id="patch_12">
    <path d="M 284.0144 262.6672 
L 284.0144 206.78368 
" style="fill:none;stroke:#000000;stroke-linecap:square;stroke-linejoin:miter;stroke-width:0.8;"/>
   </g>
   <g id="patch_13">
    <path d="M 169.736 262.6672 
L 284.0144 262.6672 
" style="fill:none;stroke:#000000;stroke-linecap:square;stroke-linejoin:miter;stroke-width:0.8;"/>
   </g>
   <g id="patch_14">
    <path d="M 169.736 206.78368 
L 284.0144 206.78368 
" style="fill:none;stroke:#000000;stroke-linecap:square;stroke-linejoin:miter;stroke-width:0.8;"/>
   </g>
  </g>
 </g>
 <defs>
  <clipPath id="p7772db7848">
   <rect height="266.112" width="357.12" x="57.6" y="41.472"/>
  </clipPath>
  <clipPath id="p9c2fbba807">
   <rect height="55.88352" width="114.2784" x="169.736" y="206.78368"/>
  </clipPath>
 </defs>
</svg>
