<?xml version="1.0" encoding="utf-8" standalone="no"?>
<!DOCTYPE svg PUBLIC "-//W3C//DTD SVG 1.1//EN"
  "http://www.w3.org/Graphics/SVG/1.1/DTD/svg11.dtd">
<!-- Created with matplotlib (http://matplotlib.org/) -->
<svg height="345.6pt" version="1.1" viewBox="0 0 460.8 345.6" width="460.8pt" xmlns="http://www.w3.org/2000/svg" xmlns:xlink="http://www.w3.org/1999/xlink">
 <defs>
  <style type="text/css">
*{stroke-linecap:butt;stroke-linejoin:round;}
  </style>
 </defs>
 <g id="figure_1">
  <g id="patch_1">
   <path d="M 0 345.6 
L 460.8 345.6 
L 460.8 0 
L 0 0 
z
" style="fill:#ffffff;"/>
  </g>
  <g id="axes_1">
   <g id="patch_2">
    <path d="M 57.6 307.584 
L 414.72 307.584 
L 414.72 41.472 
L 57.6 41.472 
z
" style="fill:#ffffff;"/>
   </g>
   <g id="matplotlib.axis_1">
    <g id="xtick_1">
     <g id="line2d_1">
      <defs>
       <path d="M 0 0 
L 0 3.5 
" id="m3abd7d98a7" style="stroke:#000000;stroke-width:0.8;"/>
      </defs>
      <g>
       <use style="stroke:#000000;stroke-width:0.8;" x="73.832727" xlink:href="#m3abd7d98a7" y="307.584"/>
      </g>
     </g>
     <g id="text_1">
      <!-- 0 -->
      <defs>
       <path d="M 3.125 29.296875 
Q 3.90625 50 6.4375 56.046875 
Q 8.984375 62.109375 13.671875 66.015625 
Q 18.359375 69.921875 25.1875 69.921875 
Q 32.03125 69.921875 37.109375 64.25 
Q 42.1875 58.59375 43.75 50 
Q 45.3125 41.40625 44.71875 30.265625 
Q 44.140625 19.140625 40.8125 12.109375 
Q 37.5 5.078125 30.859375 2.34375 
Q 24.21875 -0.390625 17.578125 2.921875 
Q 10.9375 6.25 8.203125 11.71875 
Q 5.46875 17.1875 4.296875 23.234375 
Q 3.125 29.296875 3.90625 50 
z
M 12.890625 52.734375 
Q 10.546875 31.25 12.5 22.84375 
Q 14.453125 14.453125 18.9375 10.9375 
Q 23.4375 7.421875 28.125 9.5625 
Q 32.8125 11.71875 34.953125 18.15625 
Q 37.109375 24.609375 37.109375 32.21875 
Q 37.109375 39.84375 36.515625 46.09375 
Q 35.9375 52.34375 33 57.421875 
Q 30.078125 62.5 25.1875 62.6875 
Q 20.3125 62.890625 16.59375 57.8125 
Q 12.890625 52.734375 10.546875 31.25 
z
" id="SimHei-30"/>
      </defs>
      <g transform="translate(71.332727 321.459)scale(0.1 -0.1)">
       <use xlink:href="#SimHei-30"/>
      </g>
     </g>
    </g>
    <g id="xtick_2">
     <g id="line2d_2">
      <g>
       <use style="stroke:#000000;stroke-width:0.8;" x="127.940916" xlink:href="#m3abd7d98a7" y="307.584"/>
      </g>
     </g>
     <g id="text_2">
      <!-- 10 -->
      <defs>
       <path d="M 21.875 56.25 
Q 16.796875 51.171875 8.984375 46.484375 
L 8.984375 53.90625 
Q 18.75 60.546875 25 69.53125 
L 29.6875 69.53125 
L 29.6875 2.34375 
L 21.875 2.34375 
z
" id="SimHei-31"/>
      </defs>
      <g transform="translate(122.940916 321.459)scale(0.1 -0.1)">
       <use xlink:href="#SimHei-31"/>
       <use x="50" xlink:href="#SimHei-30"/>
      </g>
     </g>
    </g>
    <g id="xtick_3">
     <g id="line2d_3">
      <g>
       <use style="stroke:#000000;stroke-width:0.8;" x="182.049105" xlink:href="#m3abd7d98a7" y="307.584"/>
      </g>
     </g>
     <g id="text_3">
      <!-- 20 -->
      <defs>
       <path d="M 4.6875 3.90625 
Q 5.078125 9.765625 10.15625 14.453125 
Q 15.234375 19.140625 23.046875 29.09375 
Q 30.859375 39.0625 33.203125 44.53125 
Q 35.546875 50 34.953125 53.90625 
Q 34.375 57.8125 31.25 60.34375 
Q 28.125 62.890625 24.015625 62.5 
Q 19.921875 62.109375 16.203125 59.375 
Q 12.5 56.640625 10.546875 51.171875 
L 3.125 52.34375 
Q 6.25 61.328125 11.125 65.421875 
Q 16.015625 69.53125 22.65625 69.921875 
Q 26.5625 70.3125 29.6875 69.71875 
Q 32.8125 69.140625 36.125 66.984375 
Q 39.453125 64.84375 41.59375 60.546875 
Q 43.75 56.25 43.15625 50.1875 
Q 42.578125 44.140625 37.109375 35.734375 
Q 31.640625 27.34375 16.015625 9.375 
L 44.140625 9.375 
L 44.140625 2.34375 
L 4.6875 2.34375 
z
" id="SimHei-32"/>
      </defs>
      <g transform="translate(177.049105 321.459)scale(0.1 -0.1)">
       <use xlink:href="#SimHei-32"/>
       <use x="50" xlink:href="#SimHei-30"/>
      </g>
     </g>
    </g>
    <g id="xtick_4">
     <g id="line2d_4">
      <g>
       <use style="stroke:#000000;stroke-width:0.8;" x="236.157295" xlink:href="#m3abd7d98a7" y="307.584"/>
      </g>
     </g>
     <g id="text_4">
      <!-- 30 -->
      <defs>
       <path d="M 3.90625 19.140625 
L 10.9375 20.3125 
Q 12.5 15.234375 16.015625 11.90625 
Q 19.53125 8.59375 24.796875 8.78125 
Q 30.078125 8.984375 33.203125 13.078125 
Q 36.328125 17.1875 35.9375 22.453125 
Q 35.546875 27.734375 31.828125 30.65625 
Q 28.125 33.59375 19.921875 34.765625 
L 19.921875 39.84375 
Q 28.125 40.625 31.828125 44.140625 
Q 35.546875 47.65625 35.15625 53.3125 
Q 34.765625 58.984375 30.078125 61.515625 
Q 25.390625 64.0625 20.109375 62.109375 
Q 14.84375 60.15625 11.71875 51.171875 
L 4.6875 52.34375 
Q 7.03125 59.375 11.125 64.0625 
Q 15.234375 68.75 22.265625 69.53125 
Q 29.296875 70.3125 34.5625 67.765625 
Q 39.84375 65.234375 41.984375 59.953125 
Q 44.140625 54.6875 42.578125 48.4375 
Q 41.015625 42.1875 33.59375 37.5 
Q 39.0625 35.15625 41.984375 30.46875 
Q 44.921875 25.78125 43.9375 18.15625 
Q 42.96875 10.546875 37.109375 5.859375 
Q 31.25 1.171875 23.828125 1.359375 
Q 16.40625 1.5625 10.9375 6.046875 
Q 5.46875 10.546875 3.90625 19.140625 
z
" id="SimHei-33"/>
      </defs>
      <g transform="translate(231.157295 321.459)scale(0.1 -0.1)">
       <use xlink:href="#SimHei-33"/>
       <use x="50" xlink:href="#SimHei-30"/>
      </g>
     </g>
    </g>
    <g id="xtick_5">
     <g id="line2d_5">
      <g>
       <use style="stroke:#000000;stroke-width:0.8;" x="290.265484" xlink:href="#m3abd7d98a7" y="307.584"/>
      </g>
     </g>
     <g id="text_5">
      <!-- 40 -->
      <defs>
       <path d="M 31.25 17.1875 
L 1.171875 17.1875 
L 1.171875 23.828125 
L 32.8125 69.53125 
L 38.671875 69.53125 
L 38.671875 23.828125 
L 48.046875 23.828125 
L 48.046875 17.1875 
L 38.671875 17.1875 
L 38.671875 2.34375 
L 31.25 2.34375 
z
M 31.25 23.828125 
L 31.25 54.6875 
L 9.375 23.828125 
z
" id="SimHei-34"/>
      </defs>
      <g transform="translate(285.265484 321.459)scale(0.1 -0.1)">
       <use xlink:href="#SimHei-34"/>
       <use x="50" xlink:href="#SimHei-30"/>
      </g>
     </g>
    </g>
    <g id="xtick_6">
     <g id="line2d_6">
      <g>
       <use style="stroke:#000000;stroke-width:0.8;" x="344.373673" xlink:href="#m3abd7d98a7" y="307.584"/>
      </g>
     </g>
     <g id="text_6">
      <!-- 50 -->
      <defs>
       <path d="M 8.59375 20.703125 
Q 11.328125 10.15625 17.96875 8.984375 
Q 24.609375 7.8125 28.703125 10.34375 
Q 32.8125 12.890625 34.5625 16.984375 
Q 36.328125 21.09375 36.125 26.171875 
Q 35.9375 31.25 33.390625 34.765625 
Q 30.859375 38.28125 26.953125 39.453125 
Q 23.046875 40.625 18.15625 39.453125 
Q 13.28125 38.28125 10.15625 33.984375 
L 3.515625 34.765625 
Q 4.296875 37.109375 10.9375 68.359375 
L 41.796875 68.359375 
L 41.796875 61.328125 
L 16.796875 61.328125 
Q 14.84375 50.78125 12.890625 44.53125 
Q 18.75 47.265625 23.828125 47.0625 
Q 28.90625 46.875 33.59375 44.71875 
Q 38.28125 42.578125 40.421875 38.859375 
Q 42.578125 35.15625 43.546875 31.4375 
Q 44.53125 27.734375 44.328125 23.4375 
Q 44.140625 19.140625 42.578125 14.640625 
Q 41.015625 10.15625 37.890625 7.21875 
Q 34.765625 4.296875 30.265625 2.53125 
Q 25.78125 0.78125 19.921875 1.171875 
Q 14.0625 1.5625 8.78125 5.46875 
Q 3.515625 9.375 1.5625 18.75 
z
" id="SimHei-35"/>
      </defs>
      <g transform="translate(339.373673 321.459)scale(0.1 -0.1)">
       <use xlink:href="#SimHei-35"/>
       <use x="50" xlink:href="#SimHei-30"/>
      </g>
     </g>
    </g>
    <g id="xtick_7">
     <g id="line2d_7">
      <g>
       <use style="stroke:#000000;stroke-width:0.8;" x="398.481862" xlink:href="#m3abd7d98a7" y="307.584"/>
      </g>
     </g>
     <g id="text_7">
      <!-- 60 -->
      <defs>
       <path d="M 3.515625 19.53125 
Q 4.296875 30.859375 6.046875 34.765625 
Q 7.8125 38.671875 11.328125 44.53125 
L 27.34375 69.53125 
L 36.328125 69.53125 
L 19.921875 43.75 
Q 30.46875 46.484375 36.71875 42.96875 
Q 42.96875 39.453125 45.109375 34.953125 
Q 47.265625 30.46875 47.453125 25.1875 
Q 47.65625 19.921875 45.890625 14.84375 
Q 44.140625 9.765625 39.640625 5.65625 
Q 35.15625 1.5625 27.140625 1.171875 
Q 19.140625 0.78125 13.46875 4.09375 
Q 7.8125 7.421875 5.65625 13.46875 
Q 3.515625 19.53125 4.296875 30.859375 
z
M 12.5 16.015625 
Q 19.53125 8.59375 25.390625 8.203125 
Q 31.25 7.8125 35.15625 12.109375 
Q 39.0625 16.40625 39.0625 24.609375 
Q 39.0625 32.8125 34.171875 35.9375 
Q 29.296875 39.0625 23.234375 38.28125 
Q 17.1875 37.5 14.453125 32.421875 
Q 11.71875 27.34375 12.109375 21.671875 
Q 12.5 16.015625 19.53125 8.59375 
z
" id="SimHei-36"/>
      </defs>
      <g transform="translate(393.481862 321.459)scale(0.1 -0.1)">
       <use xlink:href="#SimHei-36"/>
       <use x="50" xlink:href="#SimHei-30"/>
      </g>
     </g>
    </g>
    <g id="text_8">
     <!-- 回合/k -->
     <defs>
      <path d="M 88.28125 75.78125 
Q 87.890625 64.453125 87.890625 53.90625 
L 87.890625 14.84375 
Q 87.890625 4.6875 88.28125 -5.859375 
L 80.46875 -5.859375 
L 80.46875 1.5625 
L 18.359375 1.5625 
L 18.359375 -5.859375 
L 10.9375 -5.859375 
Q 11.328125 3.90625 11.328125 14.84375 
L 11.328125 53.90625 
Q 11.328125 64.0625 10.9375 75.78125 
L 88.28125 75.78125 
z
M 80.46875 7.8125 
L 80.46875 69.140625 
L 18.75 69.140625 
L 18.75 7.8125 
z
M 67.578125 54.6875 
Q 67.1875 48.828125 67.1875 42.96875 
L 67.1875 33.984375 
Q 67.1875 28.90625 67.578125 21.875 
L 31.640625 21.875 
Q 32.03125 28.90625 32.03125 33.984375 
L 32.03125 43.75 
Q 32.03125 49.21875 31.640625 54.6875 
L 67.578125 54.6875 
z
M 59.765625 28.515625 
L 59.765625 48.4375 
L 39.0625 48.4375 
L 39.0625 28.515625 
z
" id="SimHei-56de"/>
      <path d="M 78.90625 28.125 
Q 78.515625 24.21875 78.515625 10.15625 
Q 78.515625 -3.90625 78.90625 -8.203125 
L 70.703125 -8.203125 
L 70.703125 -0.78125 
L 27.34375 -0.78125 
L 27.34375 -9.375 
L 19.53125 -9.375 
Q 19.921875 -4.6875 19.921875 8.59375 
Q 19.921875 22.265625 19.53125 28.125 
L 78.90625 28.125 
z
M 52.734375 75 
Q 64.0625 61.328125 71.09375 56.25 
Q 78.125 51.171875 83.984375 48.4375 
Q 89.84375 45.703125 95.3125 44.140625 
Q 91.40625 39.84375 90.234375 35.9375 
Q 82.421875 39.453125 76.171875 43.359375 
Q 69.921875 47.265625 63.46875 53.3125 
Q 57.03125 59.375 48.828125 69.921875 
Q 41.40625 59.375 34.171875 52.53125 
Q 26.953125 45.703125 21.875 41.796875 
Q 16.796875 37.890625 10.546875 33.984375 
Q 9.765625 35.546875 4.296875 40.234375 
Q 12.5 44.140625 19.921875 49.609375 
Q 27.34375 55.078125 34.765625 63.46875 
Q 42.1875 71.875 46.875 81.640625 
Q 51.171875 78.90625 54.6875 77.34375 
z
M 70.703125 5.46875 
L 70.703125 21.875 
L 27.34375 21.875 
L 27.34375 5.46875 
z
M 61.328125 44.140625 
Q 67.578125 44.140625 72.265625 44.53125 
L 72.265625 37.109375 
Q 67.1875 37.5 61.71875 37.5 
L 39.84375 37.5 
Q 31.640625 37.5 26.5625 37.109375 
L 26.5625 44.53125 
Q 33.984375 44.140625 39.84375 44.140625 
z
" id="SimHei-5408"/>
      <path d="M 46.875 71.09375 
L 5.46875 -2.734375 
L 1.5625 -0.390625 
L 42.96875 73.4375 
z
" id="SimHei-2f"/>
      <path d="M 45.703125 1.953125 
L 36.71875 1.953125 
L 22.65625 25.78125 
L 13.671875 17.1875 
L 13.671875 1.953125 
L 5.859375 1.953125 
L 5.859375 68.75 
L 13.671875 68.75 
L 13.671875 26.171875 
L 33.203125 45.703125 
L 42.96875 45.703125 
L 27.734375 30.859375 
z
" id="SimHei-6b"/>
     </defs>
     <g transform="translate(213.66 338.486344)scale(0.15 -0.15)">
      <use xlink:href="#SimHei-56de"/>
      <use x="100" xlink:href="#SimHei-5408"/>
      <use x="200" xlink:href="#SimHei-2f"/>
      <use x="250" xlink:href="#SimHei-6b"/>
     </g>
    </g>
   </g>
   <g id="matplotlib.axis_2">
    <g id="ytick_1">
     <g id="line2d_8">
      <defs>
       <path d="M 0 0 
L -3.5 0 
" id="m0fa14e41bb" style="stroke:#000000;stroke-width:0.8;"/>
      </defs>
      <g>
       <use style="stroke:#000000;stroke-width:0.8;" x="57.6" xlink:href="#m0fa14e41bb" y="272.480678"/>
      </g>
     </g>
     <g id="text_9">
      <!-- -60000 -->
      <defs>
       <path d="M 46.484375 33.203125 
L 1.953125 33.203125 
L 1.953125 39.453125 
L 46.484375 39.453125 
z
" id="SimHei-2d"/>
      </defs>
      <g transform="translate(20.6 275.918178)scale(0.1 -0.1)">
       <use xlink:href="#SimHei-2d"/>
       <use x="50" xlink:href="#SimHei-36"/>
       <use x="100" xlink:href="#SimHei-30"/>
       <use x="150" xlink:href="#SimHei-30"/>
       <use x="200" xlink:href="#SimHei-30"/>
       <use x="250" xlink:href="#SimHei-30"/>
      </g>
     </g>
    </g>
    <g id="ytick_2">
     <g id="line2d_9">
      <g>
       <use style="stroke:#000000;stroke-width:0.8;" x="57.6" xlink:href="#m0fa14e41bb" y="235.995232"/>
      </g>
     </g>
     <g id="text_10">
      <!-- -50000 -->
      <g transform="translate(20.6 239.432732)scale(0.1 -0.1)">
       <use xlink:href="#SimHei-2d"/>
       <use x="50" xlink:href="#SimHei-35"/>
       <use x="100" xlink:href="#SimHei-30"/>
       <use x="150" xlink:href="#SimHei-30"/>
       <use x="200" xlink:href="#SimHei-30"/>
       <use x="250" xlink:href="#SimHei-30"/>
      </g>
     </g>
    </g>
    <g id="ytick_3">
     <g id="line2d_10">
      <g>
       <use style="stroke:#000000;stroke-width:0.8;" x="57.6" xlink:href="#m0fa14e41bb" y="199.509785"/>
      </g>
     </g>
     <g id="text_11">
      <!-- -40000 -->
      <g transform="translate(20.6 202.947285)scale(0.1 -0.1)">
       <use xlink:href="#SimHei-2d"/>
       <use x="50" xlink:href="#SimHei-34"/>
       <use x="100" xlink:href="#SimHei-30"/>
       <use x="150" xlink:href="#SimHei-30"/>
       <use x="200" xlink:href="#SimHei-30"/>
       <use x="250" xlink:href="#SimHei-30"/>
      </g>
     </g>
    </g>
    <g id="ytick_4">
     <g id="line2d_11">
      <g>
       <use style="stroke:#000000;stroke-width:0.8;" x="57.6" xlink:href="#m0fa14e41bb" y="163.024339"/>
      </g>
     </g>
     <g id="text_12">
      <!-- -30000 -->
      <g transform="translate(20.6 166.461839)scale(0.1 -0.1)">
       <use xlink:href="#SimHei-2d"/>
       <use x="50" xlink:href="#SimHei-33"/>
       <use x="100" xlink:href="#SimHei-30"/>
       <use x="150" xlink:href="#SimHei-30"/>
       <use x="200" xlink:href="#SimHei-30"/>
       <use x="250" xlink:href="#SimHei-30"/>
      </g>
     </g>
    </g>
    <g id="ytick_5">
     <g id="line2d_12">
      <g>
       <use style="stroke:#000000;stroke-width:0.8;" x="57.6" xlink:href="#m0fa14e41bb" y="126.538893"/>
      </g>
     </g>
     <g id="text_13">
      <!-- -20000 -->
      <g transform="translate(20.6 129.976393)scale(0.1 -0.1)">
       <use xlink:href="#SimHei-2d"/>
       <use x="50" xlink:href="#SimHei-32"/>
       <use x="100" xlink:href="#SimHei-30"/>
       <use x="150" xlink:href="#SimHei-30"/>
       <use x="200" xlink:href="#SimHei-30"/>
       <use x="250" xlink:href="#SimHei-30"/>
      </g>
     </g>
    </g>
    <g id="ytick_6">
     <g id="line2d_13">
      <g>
       <use style="stroke:#000000;stroke-width:0.8;" x="57.6" xlink:href="#m0fa14e41bb" y="90.053446"/>
      </g>
     </g>
     <g id="text_14">
      <!-- -10000 -->
      <g transform="translate(20.6 93.490946)scale(0.1 -0.1)">
       <use xlink:href="#SimHei-2d"/>
       <use x="50" xlink:href="#SimHei-31"/>
       <use x="100" xlink:href="#SimHei-30"/>
       <use x="150" xlink:href="#SimHei-30"/>
       <use x="200" xlink:href="#SimHei-30"/>
       <use x="250" xlink:href="#SimHei-30"/>
      </g>
     </g>
    </g>
    <g id="ytick_7">
     <g id="line2d_14">
      <g>
       <use style="stroke:#000000;stroke-width:0.8;" x="57.6" xlink:href="#m0fa14e41bb" y="53.568"/>
      </g>
     </g>
     <g id="text_15">
      <!-- 0 -->
      <g transform="translate(45.6 57.0055)scale(0.1 -0.1)">
       <use xlink:href="#SimHei-30"/>
      </g>
     </g>
    </g>
    <g id="text_16">
     <!-- 累计奖励 -->
     <defs>
      <path d="M 85.546875 78.125 
Q 85.15625 71.875 85.15625 62.109375 
Q 85.15625 52.34375 85.546875 46.09375 
L 73.046875 46.09375 
Q 75.78125 43.359375 79.296875 40.625 
Q 75 39.453125 66.203125 35.546875 
Q 57.421875 31.640625 50.96875 28.703125 
Q 44.53125 25.78125 37.5 22.265625 
Q 60.15625 23.828125 72.65625 24.609375 
Q 69.140625 26.953125 65.625 28.90625 
Q 68.359375 31.25 70.3125 33.984375 
Q 80.078125 28.125 92.1875 20.3125 
Q 89.84375 17.578125 87.109375 14.0625 
Q 83.984375 16.796875 79.6875 19.53125 
Q 66.40625 18.359375 54.296875 17.578125 
L 54.296875 0.78125 
Q 54.296875 -5.46875 50.1875 -7.21875 
Q 46.09375 -8.984375 40.625 -9.375 
Q 40.234375 -5.859375 37.109375 -0.78125 
Q 43.75 -1.171875 45.3125 -0.390625 
Q 46.875 0.390625 46.875 1.953125 
L 46.875 16.796875 
Q 37.5 16.40625 31.046875 15.8125 
Q 24.609375 15.234375 13.28125 13.671875 
Q 12.109375 17.578125 10.9375 21.09375 
Q 17.96875 21.875 24.609375 23.625 
Q 31.25 25.390625 47.265625 33.203125 
Q 27.734375 31.640625 19.53125 30.078125 
Q 18.75 34.375 17.1875 37.109375 
Q 20.703125 37.109375 27.140625 39.640625 
Q 33.59375 42.1875 38.671875 46.09375 
L 14.84375 46.09375 
Q 15.234375 52.734375 15.234375 62.109375 
Q 15.234375 71.875 14.84375 78.125 
L 85.546875 78.125 
z
M 37.890625 8.203125 
Q 34.375 6.25 27.53125 2.140625 
Q 20.703125 -1.953125 13.28125 -6.640625 
Q 10.9375 -3.515625 7.8125 -0.390625 
Q 13.28125 1.953125 19.53125 5.65625 
Q 25.78125 9.375 31.640625 14.0625 
Q 33.59375 11.328125 37.890625 8.203125 
z
M 46.484375 64.0625 
L 46.484375 72.65625 
L 22.65625 72.65625 
L 22.65625 64.0625 
z
M 77.734375 64.0625 
L 77.734375 72.65625 
L 53.90625 72.65625 
L 53.90625 64.0625 
z
M 66.796875 13.28125 
Q 74.21875 10.15625 78.90625 7.8125 
L 91.40625 1.5625 
Q 88.671875 -1.953125 87.109375 -5.859375 
Q 80.46875 -1.5625 74.609375 1.5625 
Q 68.75 4.6875 63.28125 7.03125 
Q 65.625 10.546875 66.796875 13.28125 
z
M 46.484375 51.171875 
L 46.484375 58.59375 
L 22.65625 58.59375 
L 22.65625 51.171875 
z
M 77.734375 51.171875 
L 77.734375 58.59375 
L 53.90625 58.59375 
L 53.90625 51.171875 
z
M 57.8125 38.671875 
Q 65.625 42.1875 71.484375 46.09375 
L 50.390625 46.09375 
Q 45.3125 42.96875 35.9375 37.890625 
Q 48.046875 38.28125 57.8125 38.671875 
z
" id="SimHei-7d2f"/>
      <path d="M 61.328125 48.4375 
L 61.328125 67.96875 
Q 61.328125 75.78125 60.9375 80.078125 
L 69.140625 80.078125 
Q 68.75 75 68.75 71.09375 
L 68.75 48.4375 
L 84.765625 48.4375 
Q 89.453125 48.4375 94.921875 48.828125 
L 94.921875 41.40625 
Q 89.0625 41.796875 85.15625 41.796875 
L 68.75 41.796875 
L 68.75 2.734375 
Q 68.75 -1.953125 69.140625 -8.59375 
L 60.9375 -8.59375 
Q 61.328125 -1.953125 61.328125 2.34375 
L 61.328125 41.796875 
L 46.09375 41.796875 
Q 40.234375 41.796875 34.375 41.40625 
L 34.375 48.828125 
Q 40.234375 48.4375 45.3125 48.4375 
z
M 27.734375 49.21875 
Q 27.34375 41.796875 27.34375 33.59375 
L 27.34375 9.765625 
Q 33.984375 16.40625 37.890625 21.875 
Q 40.234375 18.75 43.359375 15.625 
L 32.421875 4.6875 
Q 27.34375 -0.390625 22.65625 -5.46875 
Q 19.921875 -1.953125 17.578125 0.78125 
Q 20.3125 3.90625 19.921875 10.15625 
L 19.921875 42.578125 
Q 9.375 42.578125 4.296875 42.1875 
L 4.296875 49.609375 
Q 10.546875 49.21875 12.890625 49.21875 
z
M 17.96875 78.90625 
Q 23.046875 73.828125 33.984375 62.5 
Q 30.46875 59.375 27.34375 56.640625 
Q 22.265625 64.0625 12.109375 74.21875 
Q 14.84375 76.171875 17.96875 78.90625 
z
" id="SimHei-8ba1"/>
      <path d="M 79.296875 24.609375 
Q 88.28125 24.609375 94.921875 25 
L 94.921875 17.578125 
Q 88.671875 18.75 79.296875 18.359375 
L 55.46875 18.359375 
Q 62.109375 9.375 73.625 4.6875 
Q 85.15625 0 96.09375 -0.78125 
Q 93.75 -3.515625 91.40625 -8.59375 
Q 83.59375 -7.03125 77.734375 -5.078125 
Q 71.875 -3.125 64.640625 1.359375 
Q 57.421875 5.859375 50.78125 13.671875 
Q 47.265625 8.59375 43.75 5.46875 
Q 40.234375 2.34375 35.15625 -0.78125 
Q 30.078125 -3.90625 24.40625 -5.859375 
Q 18.75 -7.8125 10.9375 -9.765625 
Q 9.375 -5.859375 6.25 -1.953125 
Q 13.671875 -1.171875 19.71875 0.578125 
Q 25.78125 2.34375 30.65625 4.875 
Q 35.546875 7.421875 39.0625 10.734375 
Q 42.578125 14.0625 44.53125 18.359375 
L 20.703125 18.359375 
Q 12.890625 18.359375 5.46875 17.96875 
L 5.46875 25 
Q 12.890625 24.609375 20.703125 24.609375 
L 46.09375 24.609375 
Q 46.484375 27.34375 46.484375 30.46875 
Q 54.296875 29.296875 55.46875 29.296875 
Q 54.296875 26.953125 53.90625 24.609375 
z
M 67.578125 78.125 
Q 64.453125 75 61.328125 70.3125 
L 92.1875 70.3125 
Q 88.671875 61.71875 85.34375 56.046875 
Q 82.03125 50.390625 77.921875 45.890625 
Q 73.828125 41.40625 66.984375 37.5 
Q 60.15625 33.59375 47.65625 30.859375 
Q 45.703125 34.375 42.96875 37.890625 
Q 54.6875 38.28125 64.0625 43.75 
L 53.515625 50.78125 
Q 55.859375 53.515625 57.8125 56.25 
Q 61.71875 53.90625 64.0625 52.140625 
Q 66.40625 50.390625 69.921875 48.046875 
Q 76.5625 53.90625 80.859375 64.0625 
L 57.421875 64.0625 
Q 55.46875 61.71875 52.734375 58.59375 
Q 50 55.46875 45.3125 50 
Q 42.1875 52.734375 38.671875 54.296875 
Q 44.53125 59.375 49.796875 66.40625 
Q 55.078125 73.4375 58.59375 81.640625 
Q 63.671875 79.296875 67.578125 78.125 
z
M 38.28125 80.859375 
Q 37.890625 76.171875 37.890625 69.921875 
L 37.890625 44.921875 
Q 37.890625 39.0625 38.28125 30.859375 
L 30.078125 30.859375 
Q 30.46875 39.0625 30.46875 44.921875 
L 30.46875 47.65625 
Q 19.140625 40.234375 11.71875 35.546875 
Q 8.984375 39.84375 6.25 42.1875 
Q 12.890625 44.140625 30.46875 55.078125 
L 30.46875 69.921875 
Q 30.46875 75.78125 30.078125 80.859375 
L 38.28125 80.859375 
z
M 15.625 73.4375 
Q 23.046875 67.578125 28.125 62.890625 
L 22.265625 57.03125 
Q 17.1875 62.5 10.546875 67.96875 
Q 13.28125 70.3125 15.625 73.4375 
z
" id="SimHei-5956"/>
      <path d="M 42.578125 55.859375 
Q 48.828125 55.859375 53.125 56.25 
L 53.125 49.21875 
Q 48.4375 49.609375 42.578125 49.609375 
L 35.546875 49.609375 
Q 35.546875 44.921875 35.15625 38.28125 
L 52.734375 38.28125 
Q 51.5625 21.09375 51.171875 16.203125 
Q 50.78125 11.328125 50 5.265625 
Q 49.21875 -0.78125 46.09375 -2.140625 
Q 42.96875 -3.515625 35.546875 -4.296875 
Q 35.15625 -0.390625 32.421875 4.6875 
Q 39.453125 3.90625 41.203125 4.296875 
Q 42.96875 4.6875 43.546875 8.390625 
Q 44.140625 12.109375 44.53125 19.53125 
Q 44.921875 26.953125 44.921875 32.421875 
L 34.765625 32.421875 
Q 34.375 25 33 19.53125 
Q 31.640625 14.0625 30.078125 9.171875 
Q 28.515625 4.296875 26.359375 0.1875 
Q 24.21875 -3.90625 22.265625 -7.03125 
Q 19.53125 -3.90625 15.234375 -1.5625 
Q 18.75 1.953125 21.28125 7.21875 
Q 23.828125 12.5 25.390625 17.96875 
Q 26.953125 23.4375 27.734375 31.828125 
Q 28.515625 40.234375 28.515625 49.609375 
L 19.53125 49.609375 
Q 19.53125 41.796875 19.140625 35.34375 
Q 18.75 28.90625 17.96875 21.875 
Q 17.1875 14.84375 15.234375 6.640625 
Q 13.28125 -1.5625 9.765625 -7.8125 
Q 6.640625 -5.078125 3.125 -3.125 
Q 5.859375 1.953125 7.609375 7.609375 
Q 9.375 13.28125 10.546875 21.09375 
Q 11.71875 28.90625 11.90625 35.9375 
Q 12.109375 42.96875 12.109375 54.296875 
Q 12.109375 66.015625 11.71875 73.4375 
L 44.921875 73.4375 
Q 48.828125 73.4375 53.515625 73.828125 
L 53.515625 67.1875 
Q 49.21875 67.578125 44.921875 67.578125 
L 19.53125 67.578125 
L 19.53125 55.859375 
z
M 71.09375 -9.375 
Q 70.3125 -4.6875 67.578125 0.78125 
Q 75.390625 -0.390625 78.125 0.78125 
Q 80.859375 1.953125 81.4375 9.765625 
Q 82.03125 17.578125 82.609375 29.875 
Q 83.203125 42.1875 83.203125 53.125 
L 73.046875 53.125 
Q 72.65625 36.328125 70.703125 26.171875 
Q 68.75 16.015625 65.8125 8.984375 
Q 62.890625 1.953125 59.953125 -2.140625 
Q 57.03125 -6.25 54.296875 -10.15625 
Q 50.390625 -7.03125 47.265625 -5.859375 
Q 53.125 0.78125 56.828125 8 
Q 60.546875 15.234375 62.296875 21.28125 
Q 64.0625 27.34375 64.84375 33.984375 
Q 65.625 40.625 66.015625 53.125 
Q 59.765625 53.125 55.46875 52.734375 
L 55.46875 59.765625 
Q 61.328125 59.375 66.015625 59.375 
L 66.015625 67.96875 
Q 66.015625 72.265625 65.625 80.859375 
Q 70.3125 79.6875 74.21875 79.296875 
Q 73.828125 75.78125 73.4375 71.484375 
Q 73.046875 67.1875 73.046875 59.375 
L 91.015625 59.375 
Q 90.234375 52.734375 90.234375 41.796875 
Q 89.0625 13.28125 88.671875 7.8125 
Q 88.28125 2.34375 87.109375 -1.75 
Q 85.9375 -5.859375 81.640625 -7.421875 
Q 77.34375 -8.984375 71.09375 -9.375 
z
" id="SimHei-52b1"/>
     </defs>
     <g transform="translate(14.725 204.528)rotate(-90)scale(0.15 -0.15)">
      <use xlink:href="#SimHei-7d2f"/>
      <use x="100" xlink:href="#SimHei-8ba1"/>
      <use x="200" xlink:href="#SimHei-5956"/>
      <use x="300" xlink:href="#SimHei-52b1"/>
     </g>
    </g>
   </g>
   <g id="line2d_15">
    <path clip-path="url(#p8795f2fa36)" d="M 73.832727 53.568 
L 73.881425 53.686272 
L 74.038338 54.337763 
L 74.04916 54.337533 
L 74.070803 54.427309 
L 74.335933 55.348634 
L 74.341344 55.346174 
L 74.422507 55.696734 
L 74.628118 56.389807 
L 74.671404 56.514319 
L 74.833729 57.309932 
L 74.914891 57.544093 
L 75.050162 58.084099 
L 75.055572 58.080308 
L 75.125913 58.46626 
L 75.396454 59.974072 
L 75.423508 60.004263 
L 75.547957 60.477185 
L 75.553368 60.473297 
L 75.731925 61.171941 
L 75.737336 61.17039 
L 75.758979 61.292348 
L 75.905071 61.821787 
L 75.96459 62.013238 
L 78.431923 74.345648 
L 78.778216 76.426206 
L 78.783627 76.424623 
L 78.908075 77.271049 
L 78.924308 77.26743 
L 78.951362 77.364508 
L 79.178616 78.876902 
L 79.276011 79.093372 
L 79.481622 80.575286 
L 79.546552 80.791375 
L 79.687233 81.844436 
L 80.293245 84.787138 
L 80.352764 84.971587 
L 80.758575 87.571482 
L 80.774808 87.56902 
L 80.78563 87.607334 
L 80.942543 88.819025 
L 80.947954 88.816169 
L 80.969597 88.928496 
L 82.257372 97.588834 
L 82.262783 97.58641 
L 82.289837 97.646811 
L 82.430519 98.538717 
L 82.868795 101.803256 
L 82.890438 101.985278 
L 83.052763 103.076983 
L 83.133925 103.713337 
L 83.604666 106.678009 
L 83.610077 106.675697 
L 83.63172 106.717469 
L 83.772402 107.751901 
L 83.783223 107.749739 
L 84.237732 110.374931 
L 84.253964 110.372498 
L 84.270197 110.46717 
L 84.416289 111.291241 
L 84.4217 111.288829 
L 84.475808 111.631354 
L 84.676008 112.580513 
L 85.698653 120.327754 
L 85.828513 121.688862 
L 85.850156 121.797983 
L 86.661779 127.353679 
L 86.688833 127.56431 
L 86.834925 128.624982 
L 86.889033 128.907161 
L 87.116288 130.729734 
L 87.154163 130.888491 
L 88.393241 139.95532 
L 88.409473 140.107571 
L 89.340134 146.701905 
L 89.356367 146.78093 
L 89.572799 148.181014 
L 89.599854 148.327387 
L 90.043541 152.463036 
L 90.292438 154.781499 
L 90.508871 156.029385 
L 90.519693 156.023343 
L 90.617088 156.754406 
L 91.374602 162.81733 
L 91.385424 162.819281 
L 91.407067 162.908755 
L 91.417889 162.91274 
L 94.307266 190.95294 
L 94.350553 191.351295 
L 94.523699 193.362164 
L 94.52911 193.359112 
L 94.59945 193.883903 
L 94.842937 195.767259 
L 94.848348 195.763963 
L 94.999851 196.936519 
L 95.005262 196.934773 
L 95.053959 197.172863 
L 95.162175 197.957208 
L 95.286624 198.668612 
L 95.979209 202.221767 
L 96.11448 202.885435 
L 97.218287 207.860052 
L 97.461773 208.965037 
L 97.478006 209.039606 
L 97.651152 209.918071 
L 97.661974 209.923524 
L 97.694439 209.991298 
L 97.910871 210.718696 
L 98.267985 212.356196 
L 98.397845 213.0003 
L 98.608867 213.684561 
L 98.733316 214.309661 
L 99.160771 216.628809 
L 99.22029 216.996444 
L 99.344738 217.657765 
L 101.325098 225.73407 
L 101.47119 226.395832 
L 101.557763 226.62136 
L 101.73091 227.086683 
L 104.539125 235.619526 
L 104.690628 236.028939 
L 104.723092 236.272618 
L 104.923293 236.87656 
L 104.939525 236.880721 
L 104.955758 236.963913 
L 105.107261 237.310271 
L 105.139725 237.421357 
L 105.280407 237.793974 
L 105.778202 238.774188 
L 106.335516 240.121407 
L 106.454554 240.488244 
L 106.595236 241.06898 
L 106.708863 241.212337 
L 106.909063 241.679187 
L 107.201247 242.237274 
L 107.374394 242.672163 
L 107.379805 242.668405 
L 107.731508 243.773445 
L 107.855957 244.322657 
L 107.866778 244.318223 
L 108.770385 246.383697 
L 108.835315 246.489263 
L 108.975996 246.709917 
L 109.095034 247.108205 
L 109.122088 247.118066 
L 109.127499 247.158526 
L 109.149142 247.190399 
L 109.311467 247.437768 
L 109.316878 247.436039 
L 109.33311 247.443969 
L 109.354753 247.527606 
L 109.360164 247.526827 
L 109.490024 247.783396 
L 109.66317 248.078337 
L 109.976998 248.766383 
L 110.312468 249.464286 
L 110.436917 249.714358 
L 110.674993 250.252902 
L 110.810264 250.531628 
L 110.837318 250.55644 
L 110.848139 250.611674 
L 110.85355 250.609096 
L 110.999642 250.984685 
L 111.178199 251.305775 
L 111.18361 251.302797 
L 111.270183 251.620303 
L 111.410865 251.94569 
L 111.421686 251.95185 
L 111.535313 252.311829 
L 111.546135 252.30959 
L 111.567778 252.413914 
L 111.870784 253.177399 
L 111.876195 253.174976 
L 111.935714 253.247864 
L 111.941125 253.266763 
L 111.951946 253.352196 
L 112.087217 253.721702 
L 112.114271 253.821992 
L 112.330704 254.432421 
L 112.36858 254.522301 
L 112.574191 254.991575 
L 112.601245 255.098006 
L 112.882607 255.620449 
L 113.028699 255.786391 
L 113.044932 255.783269 
L 113.066575 255.890357 
L 113.461565 256.820689 
L 113.537316 256.934299 
L 113.661765 257.174241 
L 113.845733 257.505442 
L 113.851144 257.50384 
L 114.359761 258.260547 
L 114.532907 258.641851 
L 114.587015 258.685785 
L 114.716875 258.956742 
L 114.792626 259.010828 
L 114.88461 259.318294 
L 114.917075 259.308414 
L 115.122686 259.674809 
L 115.128097 259.67306 
L 116.275191 262.584342 
L 116.394229 263.34212 
L 116.491624 263.394404 
L 116.621483 263.75864 
L 117.530501 265.594937 
L 117.676593 265.963192 
L 117.779398 266.128708 
L 117.930901 266.334156 
L 117.936312 266.331902 
L 118.526091 267.43605 
L 118.531502 267.43305 
L 118.558556 267.523719 
L 118.569378 267.530149 
L 118.758757 267.837923 
L 119.029298 268.066153 
L 119.289017 268.503544 
L 119.343125 268.512608 
L 119.370179 268.588217 
L 119.559558 268.801153 
L 119.602844 268.865496 
L 119.727293 269.076016 
L 120.024888 269.594395 
L 120.371181 269.916781 
L 120.544327 270.263439 
L 120.560559 270.300583 
L 120.598435 270.324938 
L 120.739116 270.539836 
L 120.841922 270.632315 
L 120.998836 270.874147 
L 121.063766 270.978295 
L 121.22609 271.285981 
L 121.285609 271.383777 
L 121.447934 271.570802 
L 121.523685 271.737945 
L 121.767172 272.07693 
L 121.826691 272.107633 
L 121.832102 272.122434 
L 121.95114 272.255916 
L 121.983605 272.272945 
L 121.989016 272.287257 
L 122.091821 272.464679 
L 122.102643 272.459052 
L 122.35154 272.900715 
L 122.497633 273.132672 
L 122.503043 273.132143 
L 122.508454 273.242896 
L 122.74653 273.532414 
L 122.865568 273.766825 
L 122.995428 273.810111 
L 123.087412 273.870323 
L 123.092823 273.886963 
L 123.487812 274.47216 
L 123.628494 274.535444 
L 123.747532 274.648642 
L 123.807051 274.696336 
L 123.812462 274.725218 
L 123.953143 274.981701 
L 124.104646 275.266072 
L 124.218273 275.393492 
L 124.229095 275.390046 
L 124.304846 275.452011 
L 124.310257 275.462741 
L 124.629495 275.696464 
L 124.678193 275.794459 
L 125.002842 276.301234 
L 125.381599 276.521084 
L 125.511459 276.733394 
L 125.527691 276.724125 
L 125.733302 276.834518 
L 125.841519 276.918526 
L 125.971378 277.013359 
L 126.090416 277.165019 
L 126.214865 277.301649 
L 126.296027 277.373899 
L 126.436709 277.47854 
L 126.458352 277.474994 
L 126.463763 277.526695 
L 126.496228 277.562169 
L 126.734304 277.870928 
L 126.739715 277.86732 
L 126.929093 278.046683 
L 127.145526 278.24546 
L 127.150937 278.24166 
L 127.448532 278.432001 
L 127.654143 278.671522 
L 127.729894 278.851237 
L 128.070776 279.233929 
L 128.108652 279.223043 
L 128.222279 279.425609 
L 128.22769 279.424233 
L 129.466767 280.270042 
L 129.580395 280.327919 
L 129.737308 280.477988 
L 129.796827 280.577914 
L 129.953741 280.694277 
L 129.959152 280.691143 
L 130.029492 280.769572 
L 130.175585 280.876796 
L 130.186406 280.939413 
L 130.305444 281.101223 
L 130.440715 281.189582 
L 130.570574 281.277638 
L 130.651737 281.340508 
L 130.776185 281.463281 
L 130.987207 281.62781 
L 131.263159 281.826014 
L 131.625684 282.009955 
L 131.966566 282.255293 
L 132.053139 282.343531 
L 133.817066 283.63442 
L 133.941515 283.707385 
L 134.212055 283.895954 
L 134.358148 283.96472 
L 134.542115 284.108276 
L 134.699029 284.184854 
L 134.888408 284.386571 
L 135.083197 284.442953 
L 135.36456 284.572659 
L 135.516063 284.620357 
L 136.15995 284.966773 
L 136.28981 285.118118 
L 136.295221 285.114769 
L 136.370972 285.158599 
L 136.387205 285.185861 
L 136.598227 285.318004 
L 137.252936 285.556861 
L 137.382795 285.63493 
L 137.393617 285.630358 
L 140.526481 286.81111 
L 140.667162 286.896728 
L 141.035098 287.065386 
L 141.857543 287.447537 
L 141.981991 287.524962 
L 142.17137 287.586323 
L 142.387803 287.821265 
L 142.826079 288.017578 
L 142.96135 288.139635 
L 143.204837 288.228533 
L 143.36175 288.298831 
L 143.367161 288.29528 
L 143.589005 288.357253 
L 143.724275 288.468748 
L 144.427682 288.747792 
L 144.606239 288.821295 
L 144.790206 288.949288 
L 145.022872 288.963809 
L 145.152731 288.97284 
L 145.466559 289.06326 
L 145.693813 289.16053 
L 146.105035 289.196365 
L 146.26736 289.268365 
L 146.408041 289.296208 
L 146.413452 289.308104 
L 146.656939 289.333443 
L 146.808442 289.404282 
L 147.32247 289.543869 
L 147.441508 289.578846 
L 147.668762 289.58167 
L 147.868962 289.651812 
L 148.199022 289.777772 
L 148.399223 289.824191 
L 148.869964 290.043869 
L 149.005234 290.076688 
L 149.151327 290.124157 
L 149.156737 290.120802 
L 149.335294 290.157797 
L 149.459743 290.227273 
L 149.735695 290.293 
L 152.07858 290.989204 
L 152.230082 291.047742 
L 152.430283 291.089887 
L 152.565553 291.096797 
L 152.901024 291.13022 
L 153.095813 291.151816 
L 153.231084 291.2336 
L 153.3393 291.296474 
L 153.463749 291.365764 
L 153.60443 291.411444 
L 153.761344 291.456361 
L 153.874971 291.527904 
L 154.903027 291.872685 
L 155.032887 291.918486 
L 155.270963 292.045905 
L 155.590201 292.12819 
L 155.84451 292.184262 
L 156.023067 292.273896 
L 156.30984 292.352245 
L 156.656132 292.44749 
L 156.850922 292.494173 
L 156.980781 292.563224 
L 157.116052 292.581005 
L 157.126874 292.599445 
L 157.354128 292.649568 
L 158.02507 292.758155 
L 158.192805 292.838786 
L 158.382184 292.900845 
L 158.55533 292.941372 
L 158.739298 292.985506 
L 159.659137 293.253129 
L 159.848515 293.280602 
L 160.064948 293.344433 
L 160.308435 293.340791 
L 161.157934 293.534319 
L 161.287793 293.569209 
L 161.53128 293.610672 
L 161.682783 293.632438 
L 161.947913 293.62173 
L 164.869755 294.02971 
L 165.010437 294.06027 
L 165.151118 294.058267 
L 168.657329 294.352707 
L 168.776367 294.383305 
L 168.781778 294.381072 
L 169.036086 294.353237 
L 169.414843 294.382017 
L 169.566346 294.437668 
L 173.072557 294.858911 
L 173.272757 294.865879 
L 173.413439 294.870843 
L 173.727266 294.929959 
L 174.154721 294.897508 
L 174.27917 294.929161 
L 185.268543 295.409265 
L 185.452511 295.407877 
L 185.658122 295.390356 
L 185.831268 295.40421 
L 185.836679 295.415327 
L 185.950306 295.414647 
L 187.600606 295.232301 
L 187.719644 295.268232 
L 187.725055 295.265229 
L 188.120044 295.297111 
L 188.244493 295.287498 
L 188.839683 295.295829 
L 189.110224 295.277339 
L 189.245495 295.255453 
L 189.451106 295.258345 
L 189.580965 295.248568 
L 189.791987 295.254484 
L 190.057117 295.229609 
L 190.284372 295.232017 
L 190.544091 295.240495 
L 190.830865 295.206001 
L 191.956315 295.129868 
L 192.129461 295.120203 
L 192.345894 295.138518 
L 192.486575 295.11616 
L 192.751705 295.123239 
L 193.011425 295.111839 
L 193.206214 295.127816 
L 193.70942 295.137525 
L 193.942085 295.131728 
L 194.43447 295.116613 
L 194.645492 295.107308 
L 194.856514 295.09559 
L 195.938678 294.99035 
L 196.144289 294.993443 
L 196.366132 294.988859 
L 200.245689 294.741942 
L 200.727252 294.672029 
L 200.916631 294.661313 
L 201.127653 294.64786 
L 201.24128 294.636877 
L 201.37114 294.622413 
L 202.161119 294.503089 
L 202.599396 294.482538 
L 202.815828 294.454602 
L 203.032261 294.439575 
L 203.540878 294.447378 
L 203.7519 294.459138 
L 203.892581 294.47624 
L 204.260517 294.398093 
L 206.635867 294.171937 
L 206.754905 294.157534 
L 207.355506 294.078701 
L 207.544884 294.050616 
L 207.972339 294.053485 
L 208.156307 294.034778 
L 208.329453 294.004461 
L 208.670335 293.926859 
L 209.03827 293.877529 
L 209.557709 293.785328 
L 209.914823 293.753685 
L 210.098791 293.735386 
L 210.445083 293.699098 
L 210.580354 293.693871 
L 210.937468 293.627405 
L 211.327047 293.586013 
L 211.716626 293.546255 
L 212.306405 293.441066 
L 212.928649 293.31813 
L 213.377747 293.266722 
L 213.523839 293.256883 
L 214.129851 293.198739 
L 215.260712 293.053207 
L 215.531253 293.012222 
L 216.153497 293.035139 
L 216.5052 293.004543 
L 216.83526 293.000195 
L 216.840671 293.1236 
L 216.948887 293.105582 
L 217.408807 293.067437 
L 217.538667 293.063333 
L 218.171733 293.055619 
L 218.388165 293.030918 
L 218.664117 293.012135 
L 219.324237 292.905526 
L 219.594778 292.863997 
L 219.832854 292.829221 
L 219.935659 292.830642 
L 219.946481 292.826041 
L 220.622833 292.756992 
L 220.790569 292.748521 
L 221.434456 292.638795 
L 222.105398 292.547778 
L 222.462512 292.469267 
L 223.57173 292.320484 
L 223.712411 292.297344 
L 224.616018 292.133623 
L 225.373533 291.991383 
L 229.675134 291.317432 
L 229.799582 291.313452 
L 230.535454 291.150591 
L 230.9088 291.064858 
L 231.255093 290.982738 
L 231.417417 290.958841 
L 232.407597 290.781187 
L 232.542868 290.767655 
L 232.959501 290.703078 
L 233.121825 290.681906 
L 233.468118 290.608337 
L 234.149881 290.461067 
L 234.27974 290.43926 
L 235.459299 290.257885 
L 235.627034 290.210986 
L 235.935451 290.159121 
L 236.995972 289.947575 
L 237.38014 289.858049 
L 237.650681 289.809735 
L 237.964508 289.772833 
L 238.099779 289.741069 
L 239.474127 289.427721 
L 240.323625 289.229723 
L 240.48595 289.181446 
L 240.745669 289.132961 
L 240.913404 289.096619 
L 241.313805 289.013897 
L 241.697973 288.905211 
L 242.774726 288.712392 
L 243.029035 288.670657 
L 245.739855 288.070731 
L 246.183542 287.986618 
L 246.378332 287.964427 
L 246.63264 287.901735 
L 247.298171 287.750916 
L 247.465906 287.732539 
L 248.039453 287.629741 
L 249.121617 287.388391 
L 257.519208 285.310614 
L 257.795159 285.227156 
L 258.125219 285.158107 
L 258.99095 284.945123 
L 260.213795 284.634702 
L 260.679126 284.528127 
L 260.884737 284.475075 
L 262.134636 284.157872 
L 262.280728 284.123107 
L 262.735237 283.998632 
L 263.303373 283.827405 
L 263.855277 283.694519 
L 264.00678 283.678694 
L 264.331429 283.60529 
L 265.180927 283.402425 
L 265.819404 283.230458 
L 266.371307 283.062188 
L 267.264093 282.824488 
L 268.63303 282.422528 
L 268.9685 282.337707 
L 269.726015 282.104884 
L 270.927217 281.791619 
L 271.241044 281.693007 
L 272.723609 281.293224 
L 272.853468 281.256855 
L 273.178118 281.182857 
L 273.340442 281.152021 
L 274.18453 280.929047 
L 274.38473 280.883067 
L 281.094146 279.038151 
L 281.234827 279.017049 
L 281.602763 278.924065 
L 289.686526 276.823971 
L 290.10857 276.689854 
L 294.540031 275.382219 
L 294.978307 275.231306 
L 295.627605 275.030467 
L 296.390531 274.806609 
L 296.579909 274.763073 
L 300.962673 273.411813 
L 301.579506 273.267377 
L 302.813173 272.851444 
L 303.224395 272.741658 
L 304.479705 272.290705 
L 304.825997 272.213349 
L 305.588923 271.991828 
L 306.259864 271.791859 
L 306.95786 271.549392 
L 308.2781 271.126525 
L 308.765074 270.983393 
L 310.117778 270.567631 
L 310.236816 270.538533 
L 310.864471 270.317425 
L 311.205353 270.211831 
L 312.877296 269.682418 
L 313.012566 269.641611 
L 316.507955 268.568993 
L 316.637815 268.543943 
L 319.824787 267.556636 
L 320.30635 267.398841 
L 320.652643 267.282243 
L 321.101741 267.143804 
L 321.269476 267.09393 
L 322.887311 266.56687 
L 323.309355 266.416216 
L 323.514966 266.349176 
L 326.653241 265.278144 
L 341.662853 260.166818 
L 342.512351 259.860707 
L 342.891108 259.741565 
L 343.470066 259.534477 
L 343.670266 259.461606 
L 344.471068 259.168213 
L 345.087901 258.927353 
L 345.710145 258.705911 
L 346.224173 258.545924 
L 346.429784 258.4729 
L 348.399322 257.773417 
L 356.353226 255.035347 
L 357.083686 254.782619 
L 359.128976 254.085573 
L 359.886491 253.795199 
L 362.646008 252.817422 
L 363.019355 252.688322 
L 363.25202 252.600004 
L 363.793102 252.404135 
L 364.231378 252.280958 
L 368.40312 250.79903 
L 368.608731 250.71986 
L 369.160634 250.52586 
L 371.487286 249.648248 
L 371.985082 249.48912 
L 373.088889 249.083845 
L 396.133567 240.625282 
L 396.820741 240.361118 
L 398.487273 239.70503 
L 398.487273 239.70503 
" style="fill:none;stroke:#1f77b4;stroke-linecap:square;stroke-width:1.5;"/>
   </g>
   <g id="patch_3">
    <path d="M 57.6 307.584 
L 57.6 41.472 
" style="fill:none;stroke:#000000;stroke-linecap:square;stroke-linejoin:miter;stroke-width:0.8;"/>
   </g>
   <g id="patch_4">
    <path d="M 414.72 307.584 
L 414.72 41.472 
" style="fill:none;stroke:#000000;stroke-linecap:square;stroke-linejoin:miter;stroke-width:0.8;"/>
   </g>
   <g id="patch_5">
    <path d="M 57.6 307.584 
L 414.72 307.584 
" style="fill:none;stroke:#000000;stroke-linecap:square;stroke-linejoin:miter;stroke-width:0.8;"/>
   </g>
   <g id="patch_6">
    <path d="M 57.6 41.472 
L 414.72 41.472 
" style="fill:none;stroke:#000000;stroke-linecap:square;stroke-linejoin:miter;stroke-width:0.8;"/>
   </g>
   <g id="text_17">
    <!-- 训练过程 -->
    <defs>
     <path d="M 25.78125 51.5625 
Q 25.390625 42.578125 25.390625 34.765625 
L 25.390625 10.546875 
Q 30.46875 17.578125 32.03125 19.921875 
Q 33.984375 17.578125 36.71875 14.0625 
Q 31.640625 7.8125 28.125 3.3125 
Q 24.609375 -1.171875 20.703125 -6.640625 
Q 17.96875 -3.125 14.84375 -0.78125 
Q 17.96875 3.515625 17.96875 9.765625 
L 17.96875 44.921875 
L 15.234375 44.921875 
Q 9.375 44.921875 4.6875 44.53125 
L 4.6875 51.953125 
Q 9.375 51.5625 15.234375 51.5625 
z
M 53.515625 71.875 
Q 52.734375 67.96875 52.921875 52.53125 
Q 53.125 37.109375 52.140625 29.484375 
Q 51.171875 21.875 48.234375 13.078125 
Q 45.3125 4.296875 38.28125 -5.859375 
Q 34.765625 -3.125 30.859375 -1.953125 
Q 39.84375 7.8125 43.15625 21.28125 
Q 46.484375 34.765625 46.09375 52.140625 
Q 45.703125 69.53125 45.3125 73.046875 
Q 49.21875 72.265625 53.515625 71.875 
z
M 91.796875 73.4375 
Q 91.40625 70.3125 91.40625 62.109375 
L 91.40625 9.765625 
Q 91.40625 1.953125 91.796875 -6.25 
L 84.375 -6.25 
Q 84.765625 1.953125 84.765625 9.375 
L 84.765625 62.109375 
Q 84.765625 70.3125 84.375 73.4375 
L 91.796875 73.4375 
z
M 71.875 2.734375 
L 64.453125 2.734375 
Q 64.84375 11.328125 64.84375 17.96875 
L 64.84375 56.25 
Q 64.84375 63.28125 64.453125 67.96875 
L 71.875 67.96875 
z
M 15.625 80.46875 
Q 25.78125 71.875 32.8125 64.0625 
Q 29.296875 61.328125 27.34375 58.59375 
Q 16.40625 71.09375 10.9375 75 
Q 13.28125 77.34375 15.625 80.46875 
z
" id="SimHei-8bad"/>
     <path d="M 51.5625 59.765625 
Q 46.09375 59.765625 37.5 59.375 
L 37.5 66.40625 
Q 46.09375 66.015625 51.953125 66.015625 
L 56.640625 66.015625 
Q 60.546875 77.34375 60.9375 80.859375 
Q 65.625 78.515625 69.53125 76.953125 
Q 67.96875 75.390625 66.59375 72.0625 
Q 65.234375 68.75 64.0625 66.015625 
L 78.515625 66.015625 
Q 84.765625 66.015625 92.1875 66.40625 
L 92.1875 59.375 
Q 86.71875 59.765625 78.515625 59.765625 
L 62.109375 59.765625 
Q 60.15625 55.078125 57.8125 49.21875 
L 73.046875 49.21875 
Q 72.65625 44.921875 72.65625 38.671875 
L 72.65625 30.859375 
L 77.734375 30.859375 
Q 83.59375 30.859375 90.625 31.25 
L 90.625 24.21875 
Q 83.59375 24.609375 77.734375 24.609375 
L 72.65625 24.609375 
L 72.65625 1.953125 
Q 72.65625 -4.6875 69.71875 -6.640625 
Q 66.796875 -8.59375 57.03125 -9.765625 
Q 56.640625 -5.859375 53.90625 -1.5625 
Q 63.671875 -1.953125 64.640625 -0.390625 
Q 65.625 1.171875 65.625 5.078125 
L 65.625 24.609375 
L 53.515625 24.609375 
Q 50.78125 24.609375 48.4375 24.40625 
Q 46.09375 24.21875 42.96875 23.046875 
Q 41.40625 26.953125 39.84375 30.46875 
Q 43.75 31.640625 48.828125 43.359375 
Q 46.09375 43.359375 38.28125 42.96875 
L 38.28125 49.609375 
Q 47.265625 49.21875 50.78125 49.21875 
Q 53.125 55.078125 54.6875 59.765625 
z
M 25.78125 46.09375 
Q 29.296875 51.5625 32.8125 60.9375 
Q 36.328125 58.203125 40.234375 56.25 
Q 36.328125 51.171875 31.640625 42.96875 
Q 26.953125 34.765625 16.796875 21.09375 
Q 20.3125 21.875 37.5 24.609375 
Q 36.71875 20.3125 37.109375 17.96875 
Q 28.515625 17.1875 10.15625 12.890625 
Q 8.203125 16.796875 6.25 19.921875 
Q 9.765625 21.875 13.859375 27.140625 
Q 17.96875 32.421875 22.65625 40.234375 
Q 20.3125 40.625 15.8125 40.03125 
Q 11.328125 39.453125 7.03125 38.28125 
Q 5.46875 41.796875 3.90625 45.703125 
Q 7.8125 48.046875 12.6875 58.203125 
Q 17.578125 68.359375 20.703125 78.125 
Q 25 75.390625 28.90625 74.21875 
Q 25 68.359375 21.671875 61.90625 
Q 18.359375 55.46875 12.5 45.703125 
Q 21.484375 45.703125 25.78125 46.09375 
z
M 37.890625 10.9375 
Q 37.5 6.640625 37.890625 3.90625 
Q 31.25 2.34375 22.84375 -0.390625 
Q 14.453125 -3.125 7.421875 -6.640625 
Q 6.25 -2.34375 4.6875 1.953125 
Q 14.84375 4.296875 18.546875 5.265625 
Q 22.265625 6.25 37.890625 10.9375 
z
M 58.203125 13.671875 
Q 57.03125 12.5 51.359375 6.25 
Q 45.703125 0 38.671875 -7.421875 
Q 35.9375 -3.90625 33.59375 -1.953125 
Q 37.890625 1.5625 42.96875 7.21875 
Q 48.046875 12.890625 51.953125 19.140625 
Q 54.296875 16.40625 58.203125 13.671875 
z
M 82.421875 19.140625 
Q 92.578125 5.859375 96.875 -1.5625 
Q 92.96875 -3.125 89.84375 -5.859375 
Q 85.546875 2.734375 76.5625 14.84375 
Q 79.296875 16.40625 82.421875 19.140625 
z
M 65.625 30.859375 
L 65.625 43.359375 
L 55.859375 43.359375 
Q 51.953125 35.15625 49.609375 30.859375 
z
" id="SimHei-7ec3"/>
     <path d="M 3.90625 -3.125 
Q 16.015625 7.421875 19.921875 10.15625 
L 19.921875 38.671875 
Q 10.546875 38.671875 6.25 38.28125 
L 6.25 46.09375 
Q 9.765625 45.3125 20.703125 45.3125 
L 28.125 45.3125 
Q 27.734375 39.453125 27.734375 33.59375 
L 27.734375 9.375 
Q 39.0625 -0.390625 61.125 -0.578125 
Q 83.203125 -0.78125 96.09375 1.171875 
Q 93.75 -2.734375 92.578125 -8.59375 
L 69.140625 -8.59375 
Q 59.375 -8.59375 51.171875 -8 
Q 42.96875 -7.421875 37.296875 -4.6875 
Q 31.640625 -1.953125 27.34375 1.171875 
Q 23.046875 4.296875 19.328125 0.578125 
Q 15.625 -3.125 10.9375 -9.765625 
Q 8.59375 -5.859375 3.90625 -3.125 
z
M 56.640625 13.28125 
Q 65.625 12.890625 67.96875 13.671875 
Q 70.3125 14.453125 70.3125 20.3125 
L 70.3125 55.859375 
L 44.921875 55.859375 
Q 40.625 55.859375 35.546875 55.46875 
L 35.546875 62.890625 
Q 40.625 62.5 48.046875 62.5 
L 70.3125 62.5 
Q 70.3125 72.65625 69.53125 80.078125 
L 78.515625 80.078125 
Q 78.125 75 78.125 62.5 
Q 86.328125 62.5 92.96875 62.890625 
L 92.96875 55.46875 
Q 86.71875 55.859375 78.125 55.859375 
L 78.125 17.1875 
Q 78.125 8.203125 72.84375 6.4375 
Q 67.578125 4.6875 59.765625 4.296875 
Q 58.984375 8.59375 56.640625 13.28125 
z
M 48.828125 25 
Q 45.3125 35.546875 40.234375 44.53125 
Q 43.75 46.09375 47.65625 48.828125 
Q 54.6875 34.765625 56.640625 29.296875 
Q 53.90625 27.734375 48.828125 25 
z
M 17.96875 77.734375 
Q 21.875 73.046875 30.078125 60.546875 
Q 26.171875 58.203125 22.65625 55.46875 
Q 14.84375 68.75 10.9375 72.265625 
Q 14.453125 74.21875 17.96875 77.734375 
z
" id="SimHei-8fc7"/>
     <path d="M 91.015625 77.734375 
Q 90.625 69.140625 90.625 62.109375 
Q 90.625 55.46875 91.015625 48.828125 
L 47.265625 48.828125 
Q 47.65625 56.25 47.65625 62.890625 
Q 47.65625 69.53125 47.265625 77.734375 
L 91.015625 77.734375 
z
M 6.25 75.390625 
Q 12.890625 76.171875 21.28125 77.921875 
Q 29.6875 79.6875 35.546875 82.421875 
Q 38.28125 77.34375 41.015625 73.828125 
Q 38.28125 74.21875 35.34375 73.625 
Q 32.421875 73.046875 28.90625 72.65625 
L 28.90625 53.515625 
Q 34.375 53.515625 40.625 53.90625 
L 40.625 46.484375 
Q 34.375 46.875 28.90625 46.875 
L 28.90625 12.5 
Q 28.90625 3.90625 29.296875 -10.546875 
L 21.484375 -10.546875 
Q 21.875 3.90625 21.875 12.109375 
L 21.875 30.078125 
Q 16.40625 19.140625 9.765625 9.375 
Q 7.03125 13.28125 3.515625 16.40625 
Q 8.984375 21.875 13.28125 28.90625 
Q 17.578125 35.9375 21.09375 46.875 
Q 11.328125 46.875 6.640625 46.484375 
L 6.640625 53.90625 
Q 13.28125 53.515625 16.40625 53.515625 
L 21.875 53.515625 
L 21.875 71.09375 
Q 16.796875 69.921875 8.984375 68.75 
Q 7.8125 72.265625 6.25 75.390625 
z
M 79.6875 39.0625 
Q 85.9375 39.0625 92.96875 39.453125 
L 92.96875 32.421875 
Q 85.9375 32.8125 79.6875 32.8125 
L 72.265625 32.8125 
L 72.265625 20.3125 
L 76.5625 20.3125 
Q 82.421875 20.3125 90.234375 20.703125 
L 90.234375 13.28125 
Q 82.421875 13.671875 77.734375 13.671875 
L 72.265625 13.671875 
L 72.265625 0 
L 81.640625 0 
Q 88.671875 0 96.484375 0.390625 
L 96.484375 -7.03125 
Q 90.234375 -6.640625 81.640625 -6.640625 
L 55.46875 -6.640625 
Q 46.875 -6.640625 40.625 -7.421875 
L 40.625 0.390625 
Q 46.875 0 55.46875 0 
L 64.84375 0 
L 64.84375 13.671875 
L 59.375 13.671875 
Q 53.125 13.671875 47.65625 12.890625 
L 47.65625 20.703125 
Q 53.125 20.3125 59.375 20.3125 
L 64.84375 20.3125 
L 64.84375 32.8125 
L 58.59375 32.8125 
Q 51.5625 32.8125 45.3125 32.421875 
L 45.3125 39.453125 
Q 51.5625 39.0625 58.59375 39.0625 
z
M 82.421875 55.859375 
L 82.421875 71.09375 
L 54.6875 71.09375 
L 54.6875 55.859375 
z
M 35.9375 37.5 
Q 39.84375 31.640625 44.140625 23.828125 
Q 41.796875 22.265625 37.890625 19.140625 
Q 33.984375 27.734375 30.078125 33.203125 
Q 32.421875 35.15625 35.9375 37.5 
z
" id="SimHei-7a0b"/>
    </defs>
    <g transform="translate(206.16 35.472)scale(0.15 -0.15)">
     <use xlink:href="#SimHei-8bad"/>
     <use x="100" xlink:href="#SimHei-7ec3"/>
     <use x="200" xlink:href="#SimHei-8fc7"/>
     <use x="300" xlink:href="#SimHei-7a0b"/>
    </g>
   </g>
  </g>
 </g>
 <defs>
  <clipPath id="p8795f2fa36">
   <rect height="266.112" width="357.12" x="57.6" y="41.472"/>
  </clipPath>
 </defs>
</svg>
